<svg width="16" height="16" viewBox="0 0 16 16" fill="none" xmlns="http://www.w3.org/2000/svg">
<g clip-path="url(#clip0_2024_321)">
<path d="M9.36304 7.86689C9.15579 7.86689 8.98804 7.69914 8.98804 7.49189V6.08789C8.98804 5.88064 9.15579 5.71289 9.36304 5.71289C9.57029 5.71289 9.73804 5.88064 9.73804 6.08789V7.49189C9.73804 7.69914 9.57029 7.86689 9.36304 7.86689Z" fill="#0D1B2A"/>
<path d="M8.0588 5.32382C6.79905 5.32382 5.8323 4.99507 5.18205 4.34482C4.49355 3.65632 4.1653 2.61257 4.2063 1.24232C4.2123 1.04432 4.3713 0.884825 4.56955 0.878825C5.94105 0.835325 6.98655 1.16307 7.6753 1.85157C8.36405 2.54007 8.69105 3.58508 8.64805 4.95732C8.64205 5.15532 8.48255 5.31458 8.28455 5.32058C8.2083 5.32283 8.13305 5.32408 8.05905 5.32408L8.0588 5.32382ZM4.9548 1.62657C4.9793 2.60057 5.23355 3.33532 5.7123 3.81432C6.19105 4.29332 6.92605 4.54732 7.8998 4.57182C7.8768 3.59632 7.62355 2.86057 7.14455 2.38182C6.6658 1.90307 5.9303 1.64957 4.9548 1.62657Z" fill="#0D1B2A"/>
<path d="M9.36564 6.46297C9.26664 6.46297 9.16789 6.42397 9.09439 6.34697L6.77539 3.91672C6.63239 3.76672 6.63789 3.52947 6.78764 3.38647C6.93739 3.24347 7.17514 3.24897 7.31789 3.39872L9.63689 5.82897C9.77989 5.97897 9.77439 6.21622 9.62464 6.35922C9.55189 6.42847 9.45864 6.46297 9.36564 6.46297Z" fill="#0D1B2A"/>
<path d="M10.6672 5.32382C10.593 5.32382 10.5177 5.32257 10.4415 5.32032C10.2435 5.31432 10.084 5.15532 10.078 4.95707C10.035 3.58482 10.3622 2.54007 11.0507 1.85132C11.7392 1.16282 12.782 0.833573 14.1565 0.878573C14.3545 0.884573 14.5137 1.04407 14.5197 1.24207C14.5607 2.61207 14.2325 3.65607 13.544 4.34457C12.8937 4.99482 11.9267 5.32382 10.6672 5.32382ZM13.7712 1.62657C12.7957 1.64957 12.0602 1.90282 11.5812 2.38182C11.1022 2.86057 10.849 3.59632 10.826 4.57182C11.8 4.54732 12.5347 4.29332 13.0137 3.81432C13.4925 3.33532 13.7467 2.60057 13.7712 1.62657Z" fill="#0D1B2A"/>
<path d="M9.36338 6.46306C9.27013 6.46306 9.17713 6.42856 9.10438 6.35931C8.95463 6.21631 8.94888 5.97906 9.09213 5.82906L11.4111 3.39881C11.5541 3.24881 11.7914 3.24356 11.9414 3.38656C12.0911 3.52956 12.0969 3.76681 11.9536 3.91681L9.63463 6.34706C9.56113 6.42431 9.46238 6.46306 9.36338 6.46306Z" fill="#0D1B2A"/>
<path d="M13.9162 9.88369C13.3217 8.25469 11.3767 7.11719 9.1865 7.11719C7.3695 7.11719 5.70975 7.88619 4.85525 9.12419C4.7725 9.24394 4.76675 9.40044 4.83975 9.52619C4.913 9.65169 5.052 9.72319 5.19725 9.71069C5.59475 9.67494 5.9835 9.73094 6.3545 9.87644L8.2645 10.6239C8.308 10.6409 8.3545 10.6497 8.40125 10.6497H10.1362C10.3122 10.6497 10.4677 10.7864 10.4687 10.9397V10.9534C10.4682 10.9582 10.4677 10.9627 10.4675 10.9672C10.4625 11.0294 10.4332 11.0927 10.3875 11.1409C10.2625 11.2719 10.249 11.4734 10.3552 11.6199C10.4277 11.7199 10.542 11.7749 10.659 11.7749C10.7135 11.7749 10.7685 11.7632 10.8205 11.7384L13.7255 10.3509C13.8997 10.2677 13.9825 10.0652 13.9162 9.88369Z" fill="#0D1B2A"/>
<path d="M10.6588 11.7746C10.5658 11.7746 10.4726 11.7401 10.4001 11.6709C10.2501 11.5281 10.2446 11.2906 10.3876 11.1406C10.4336 11.0926 10.4626 11.0291 10.4676 10.9669C10.4678 10.9621 10.4683 10.9576 10.4688 10.9531V10.9444C10.4678 10.7861 10.3123 10.6494 10.1363 10.6494H8.40134C8.35459 10.6494 8.30809 10.6406 8.26459 10.6236L6.35459 9.8761C5.98359 9.7306 5.59484 9.6746 5.19734 9.71035C4.99134 9.72685 4.80884 9.5766 4.79034 9.37035C4.77184 9.1641 4.92409 8.98185 5.13034 8.96335C5.64459 8.9181 6.14784 8.9896 6.62809 9.1776L8.47209 9.89935H10.1363C10.7293 9.89935 11.2148 10.3646 11.2188 10.9366V10.9791C11.2188 10.9981 11.2171 11.0189 11.2138 11.0401C11.1923 11.2694 11.0918 11.4884 10.9301 11.6581C10.8566 11.7354 10.7576 11.7746 10.6588 11.7746Z" fill="#0D1B2A"/>
<path d="M10.1757 11.9798H8.39819C8.19094 11.9798 8.02319 11.8121 8.02319 11.6048C8.02319 11.3976 8.19094 11.2298 8.39819 11.2298H10.1757C10.2552 11.2298 10.3297 11.1981 10.3852 11.1401C10.5289 10.9906 10.7664 10.9861 10.9154 11.1296C11.0649 11.2731 11.0697 11.5103 10.9259 11.6598C10.7277 11.8663 10.4612 11.9801 10.1757 11.9801V11.9798Z" fill="#0D1B2A"/>
<path d="M2.84402 10.7297C2.71402 10.7297 2.58777 10.6619 2.51827 10.5412C2.41527 10.3614 2.47727 10.1322 2.65702 10.0292L3.77702 9.38668C3.95652 9.28368 4.18577 9.34568 4.28902 9.52543C4.39202 9.70518 4.33002 9.93443 4.15027 10.0374L3.03027 10.6799C2.97152 10.7137 2.90727 10.7297 2.84402 10.7297Z" fill="#0D1B2A"/>
<path d="M10.5216 13.8373H7.57161C7.30486 13.8373 7.04061 13.7705 6.80786 13.6445L5.75261 13.0718C5.51186 12.9418 5.21986 12.9355 4.97186 13.055L4.48586 13.2878C4.29911 13.3778 4.07536 13.2983 3.98586 13.1115C3.89636 12.9248 3.97536 12.7008 4.16211 12.6115L4.64711 12.379C5.10961 12.1555 5.65686 12.168 6.10961 12.412L7.16536 12.985C7.29036 13.0528 7.42711 13.0873 7.57161 13.0873H10.5216C10.6936 13.0873 10.8601 13.0365 11.0026 12.9408L14.2441 10.7515C14.3139 10.7045 14.3586 10.634 14.3709 10.5518C14.3834 10.4685 14.3609 10.3865 14.3079 10.321C14.2261 10.2203 14.0766 10.1868 13.9651 10.2353L13.7226 10.3508C13.5356 10.4395 13.3116 10.3603 13.2229 10.173C13.1341 9.98602 13.2136 9.76227 13.4006 9.67327L13.6531 9.55327C14.0989 9.35677 14.5991 9.48977 14.8901 9.84802C15.0751 10.076 15.1561 10.373 15.1129 10.6628C15.0696 10.9515 14.9056 11.2105 14.6634 11.3733L11.4216 13.5628C11.1541 13.7425 10.8431 13.8373 10.5216 13.8373Z" fill="#0D1B2A"/>
<path d="M3.21093 15.1249C3.17968 15.1249 3.14818 15.1209 3.11718 15.1131C3.01418 15.0866 2.92743 15.0174 2.87818 14.9231L0.917176 11.1554C0.840926 11.0091 0.869426 10.8304 0.986926 10.7149L2.23643 9.48687C2.31943 9.40537 2.43468 9.36712 2.55068 9.38287C2.66593 9.39887 2.76718 9.46737 2.82493 9.56837L5.09043 13.5331C5.18843 13.7046 5.13668 13.9226 4.97218 14.0316L3.41818 15.0626C3.35618 15.1039 3.28393 15.1249 3.21093 15.1249ZM1.71068 11.0551L3.35118 14.2069L4.26543 13.6004L2.41518 10.3626L1.71068 11.0551Z" fill="#0D1B2A"/>
<path d="M10.6562 11.7749C10.5162 11.7749 10.382 11.6962 10.3177 11.5614C10.2285 11.3744 10.3075 11.1507 10.4945 11.0614L13.3995 9.67393C13.5865 9.58468 13.8102 9.66368 13.8995 9.85068C13.9887 10.0377 13.9097 10.2614 13.7227 10.3507L10.8177 11.7382C10.7657 11.7632 10.7105 11.7749 10.6562 11.7749Z" fill="#0D1B2A"/>
</g>
<defs>
<clipPath id="clip0_2024_321">
<rect width="16" height="16" fill="white"/>
</clipPath>
</defs>
</svg>
