<svg width="16" height="16" viewBox="0 0 16 16" fill="none" xmlns="http://www.w3.org/2000/svg">
<path d="M12.9174 5.21354C11.0774 3.59354 4.9174 3.59354 3.0774 5.21354C2.19073 6.0002 1.66406 7.53353 1.66406 9.33354C1.66406 11.1335 2.19073 12.6669 3.0774 13.4535C3.96406 14.2402 5.9974 14.6669 7.9974 14.6669C9.9974 14.6669 11.9974 14.2669 12.9174 13.4535C13.8041 12.6669 14.3307 11.1335 14.3307 9.33354C14.3307 7.53353 13.8041 6.0002 12.9174 5.21354ZM9.7574 9.8202L7.1774 11.1069C7.09535 11.1476 7.0043 11.1667 6.9128 11.1626C6.82131 11.1584 6.73237 11.131 6.65437 11.083C6.57637 11.035 6.51185 10.968 6.4669 10.8882C6.42195 10.8084 6.39803 10.7185 6.3974 10.6269V8.0402C6.39803 7.94861 6.42195 7.85869 6.4669 7.77889C6.51185 7.69909 6.57637 7.63204 6.65437 7.58404C6.73237 7.53603 6.82131 7.50866 6.9128 7.50449C7.0043 7.50032 7.09535 7.51949 7.1774 7.5602L9.7574 8.84687C9.84701 8.89272 9.92222 8.96242 9.97475 9.04829C10.0273 9.13417 10.0551 9.23287 10.0551 9.33354C10.0551 9.4342 10.0273 9.5329 9.97475 9.61878C9.92222 9.70465 9.84701 9.77435 9.7574 9.8202Z" fill="#0D1B2A"/>
<path d="M8.00012 5.33329C7.91239 5.3338 7.82541 5.31698 7.74419 5.28381C7.66296 5.25063 7.58908 5.20175 7.52679 5.13996L4.86012 2.47329C4.79796 2.41114 4.74866 2.33734 4.71502 2.25613C4.68138 2.17491 4.66406 2.08787 4.66406 1.99996C4.66406 1.82243 4.73459 1.65216 4.86012 1.52663C4.98566 1.40109 5.15592 1.33057 5.33346 1.33057C5.42136 1.33057 5.50841 1.34788 5.58962 1.38152C5.67084 1.41516 5.74463 1.46447 5.80679 1.52663L8.00012 3.72663L10.1935 1.52663C10.319 1.40109 10.4893 1.33057 10.6668 1.33057C10.8443 1.33057 11.0146 1.40109 11.1401 1.52663C11.2657 1.65216 11.3362 1.82243 11.3362 1.99996C11.3362 2.1775 11.2657 2.34776 11.1401 2.47329L8.47346 5.13996C8.41116 5.20175 8.33729 5.25063 8.25606 5.28381C8.17484 5.31698 8.08786 5.3338 8.00012 5.33329Z" fill="#0D1B2A"/>
</svg>
