<svg width="16" height="16" viewBox="0 0 16 16" fill="none" xmlns="http://www.w3.org/2000/svg">
<g clip-path="url(#clip0_2024_351)">
<path d="M15.5308 15.4437C15.7972 15.4437 16.0117 15.2215 15.999 14.9523C15.9872 14.7002 15.77 14.5062 15.5176 14.5062H13.7809V13.5688H15.5308C15.8586 13.5688 16.0852 13.2404 15.9693 12.9338L13.8016 7.21692C13.6493 6.81607 13.0798 6.81351 12.9257 7.21505C11.8429 10.0302 11.3654 11.2708 11.1561 11.8161L11.8135 13.5688H12.8435V14.5062H8.4687V13.5688H10.8123L8.44358 7.25208C8.28568 6.83101 7.71486 6.82951 7.5564 7.25208L5.18765 13.5688H7.53128V14.5062H3.1565V13.5688H4.18645L4.84391 11.8161C4.63455 11.2708 4.15707 10.0302 3.07432 7.21505C2.92014 6.81332 2.3506 6.81613 2.19842 7.21692L0.0307212 12.9338C-0.0852104 13.2404 0.141341 13.5688 0.469136 13.5688H2.21905V14.5062H0.482354C0.229961 14.5062 0.0127846 14.7002 0.00091019 14.9523C-0.0117767 15.2215 0.202712 15.4437 0.469105 15.4437H15.5308Z" fill="#0D1B2A"/>
<path d="M8.72175 6.19807L9.78419 3.54133L8.42083 0.814284C8.24846 0.46952 7.75455 0.469395 7.58212 0.814284L6.21875 3.54133L7.2812 6.19807C7.72699 5.93152 8.27583 5.93143 8.72175 6.19807Z" fill="#0D1B2A"/>
<path d="M10.6604 10.4934C10.6625 10.4881 12.0492 6.88322 12.051 6.8786C12.1988 6.49393 12.5094 6.19895 12.8853 6.06208L11.7269 3.35972C11.5635 2.9767 11.0156 2.98327 10.861 3.37003L9.37891 7.07609L10.6604 10.4934Z" fill="#0D1B2A"/>
<path d="M5.34207 10.4935C5.34001 10.4881 3.9533 6.88328 3.95152 6.87866C3.80372 6.49399 3.49311 6.199 3.11719 6.06214L4.27557 3.35977C4.34994 3.18541 4.52243 3.07322 4.71211 3.07572C4.90147 3.07791 5.07115 3.19416 5.14146 3.37008L6.62357 7.07615L5.34207 10.4935Z" fill="#0D1B2A"/>
</g>
<defs>
<clipPath id="clip0_2024_351">
<rect width="16" height="16" fill="white"/>
</clipPath>
</defs>
</svg>
