<svg width="16" height="16" viewBox="0 0 16 16" fill="none" xmlns="http://www.w3.org/2000/svg">
<g clip-path="url(#clip0_2024_360)">
<path fill-rule="evenodd" clip-rule="evenodd" d="M12.8272 10.9977L11.1122 11.988C11.1478 12.1033 11.1669 12.2233 11.169 12.3455L14.0234 11.5836C14.01 11.4833 13.9772 11.3842 13.9237 11.2914C13.7028 10.9092 13.2094 10.777 12.8272 10.9977ZM0.895606 9.83047L2.16654 9.48984C2.45029 9.41391 2.74436 9.58359 2.82029 9.86734L4.05092 14.4602C4.12686 14.7439 3.95717 15.038 3.67342 15.1139L2.40248 15.4545C2.11873 15.5305 1.82467 15.3608 1.74873 15.077L0.518106 10.4842C0.442169 10.2008 0.612169 9.90641 0.895606 9.83047ZM10.8422 8.71047H13.8037V7.14297C13.8037 6.51016 13.2859 5.99266 12.6534 5.99266H11.9925C11.3597 5.99266 10.8422 6.51047 10.8422 7.14297V8.71047ZM6.17717 3.98641C6.60279 3.98641 6.94811 4.33141 6.94811 4.75734C6.94811 5.18297 6.60311 5.52828 6.17717 5.52828C5.75154 5.52828 5.40623 5.18328 5.40623 4.75734C5.40654 4.33172 5.75154 3.98641 6.17717 3.98641ZM9.26904 3.14953C9.69467 3.14953 10.04 3.49453 10.04 3.92047C10.04 4.34609 9.69498 4.69141 9.26904 4.69141C8.84342 4.69141 8.49811 4.34641 8.49811 3.92047C8.49842 3.49453 8.84342 3.14953 9.26904 3.14953ZM12.3609 3.98641C12.7865 3.98641 13.1319 4.33141 13.1319 4.75734C13.1319 5.18297 12.7869 5.52828 12.3609 5.52828C11.935 5.52828 11.59 5.18328 11.59 4.75734C11.5903 4.33172 11.9353 3.98641 12.3609 3.98641ZM7.99498 8.36266H10.4672V7.14297C10.4672 6.76828 10.6037 6.42422 10.8297 6.15828C10.6503 5.65453 10.1678 5.29172 9.60436 5.29172H8.85779C8.29467 5.29172 7.81217 5.65484 7.63248 6.15859C7.85842 6.42484 7.99498 6.76859 7.99498 7.14328V8.36266ZM4.65842 8.71047H7.61998V7.14297C7.61998 6.51016 7.10217 5.99266 6.46967 5.99266H5.80873C5.17592 5.99266 4.65842 6.51047 4.65842 7.14297V8.71047ZM9.85686 0.527344C10.8428 0.700781 11.69 1.27672 12.2228 2.07953H10.7122C10.5631 1.53891 10.2975 0.886094 9.85686 0.527344ZM12.44 2.45453C12.6312 2.83547 12.7565 3.25547 12.8009 3.69922C12.6656 3.64297 12.5169 3.61172 12.3609 3.61172C12.0837 3.61172 11.8297 3.71016 11.6315 3.87391H10.9594C10.9484 3.36797 10.8931 2.88828 10.8025 2.45484H12.44V2.45453ZM10.8415 5.46453C10.9556 5.58953 11.0515 5.73266 11.1244 5.88984C11.2809 5.78078 11.459 5.70047 11.6503 5.65609C11.3853 5.44609 11.215 5.12141 11.215 4.75703C11.215 4.57422 11.2578 4.40172 11.334 4.24828H10.959C10.95 4.67672 10.909 5.08609 10.8415 5.46453ZM7.20404 4.24859C7.28029 4.40172 7.32311 4.57453 7.32311 4.75734C7.32311 5.13016 7.14498 5.46141 6.86904 5.67078C7.03842 5.71703 7.19654 5.79203 7.33748 5.88984C7.41029 5.73266 7.50623 5.58953 7.62029 5.46453C7.55279 5.08609 7.51186 4.67672 7.50248 4.24859H7.20404ZM5.65748 3.73609C5.69873 3.27891 5.82561 2.84641 6.02217 2.45453H7.65967C7.56904 2.88797 7.51373 3.36766 7.50279 3.87359H6.90686C6.70873 3.70984 6.45467 3.61141 6.17748 3.61141C5.98998 3.61141 5.81342 3.65641 5.65748 3.73609ZM6.23936 2.07953C6.77217 1.27672 7.61936 0.700781 8.60498 0.527344C8.16436 0.885781 7.89873 1.53891 7.74998 2.07953H6.23936ZM7.87779 3.87359H8.12436C8.14904 3.26266 8.65217 2.77453 9.26904 2.77453C9.88623 2.77453 10.3894 3.26266 10.4137 3.87359H10.584C10.5725 3.36297 10.5144 2.88234 10.419 2.45453H8.04248C7.94748 2.88234 7.88936 3.36297 7.87779 3.87359ZM10.584 4.24859H10.3672C10.2794 4.54234 10.0772 4.78641 9.81248 4.92953C10.0637 4.96109 10.3006 5.04922 10.5078 5.18266C10.5506 4.88734 10.5769 4.57422 10.584 4.24859ZM8.17092 4.24859H7.87748C7.88498 4.57422 7.91123 4.88734 7.95404 5.18266C8.17873 5.03797 8.43842 4.94641 8.71342 4.92266C8.45467 4.77891 8.25748 4.53766 8.17092 4.24859ZM8.13967 2.07953H10.3225C10.179 1.59672 9.80279 0.660469 9.23123 0.660469C8.65904 0.660469 8.28279 1.59672 8.13967 2.07953ZM10.6594 12.8692C10.4284 13.2683 9.99842 13.3861 9.59498 13.1623L7.21936 11.7908C7.12998 11.7389 7.01561 11.7695 6.96373 11.8589C6.91186 11.9483 6.94248 12.0627 7.03186 12.1145C7.81873 12.5689 8.61904 13.0573 9.41467 13.4898C9.99904 13.8136 10.6509 13.6302 10.9834 13.0542C11.0256 12.9827 11.0656 12.8708 11.0978 12.752L14.1172 11.9464C14.729 11.7823 15.3397 12.057 15.4734 12.557C15.6075 13.0567 15.2162 13.5998 14.604 13.7639L10.1606 14.9545C9.74779 15.0652 9.36061 15.0402 9.00498 14.8802L6.24029 13.6355C5.93686 13.4989 5.60623 13.4777 5.25404 13.572L4.27154 13.8352L3.32373 10.2983L6.07967 9.55984C6.43186 9.46547 6.76842 9.50984 7.08436 9.69203L10.2925 11.5442C10.8469 11.8642 10.894 12.4408 10.6594 12.8692ZM11.4815 10.4689C11.8506 10.2427 12.3353 10.3527 12.5715 10.712L10.9484 11.6489C10.7862 11.4095 10.6065 11.2927 10.3653 11.1533L11.4815 10.4689Z" fill="#0D1B2A"/>
</g>
<defs>
<clipPath id="clip0_2024_360">
<rect width="16" height="16" fill="white"/>
</clipPath>
</defs>
</svg>
