<svg width="16" height="16" viewBox="0 0 16 16" fill="none" xmlns="http://www.w3.org/2000/svg">
<g clip-path="url(#clip0_2024_202)">
<path fill-rule="evenodd" clip-rule="evenodd" d="M14.4903 3.67378H12.6787V5.16791L12.4284 4.89988C12.3733 4.84041 12.3103 4.7888 12.2412 4.74647V3.45503C12.2412 3.39702 12.2643 3.34138 12.3053 3.30036C12.3463 3.25933 12.402 3.23628 12.46 3.23628H14.4903C14.5403 3.12639 14.6264 3.03692 14.7343 2.98275C14.8422 2.92859 14.9653 2.91299 15.0833 2.93855C15.2013 2.96412 15.307 3.0293 15.3828 3.12327C15.4586 3.21724 15.4999 3.33432 15.4999 3.45503C15.4999 3.57575 15.4586 3.69283 15.3828 3.7868C15.307 3.88077 15.2013 3.94595 15.0833 3.97152C14.9653 3.99708 14.8422 3.98148 14.7343 3.92732C14.6264 3.87315 14.5403 3.78368 14.4903 3.67378ZM0.786969 9.86541H1.32922C1.27641 9.59581 1.28395 9.31787 1.35129 9.05153C1.41862 8.78519 1.54409 8.53706 1.71868 8.32496C1.89327 8.11285 2.11266 7.94203 2.36109 7.82476C2.60952 7.70748 2.88083 7.64666 3.15555 7.64666C3.43027 7.64666 3.70158 7.70748 3.95001 7.82476C4.19844 7.94203 4.41782 8.11285 4.59241 8.32496C4.767 8.53706 4.89247 8.78519 4.95981 9.05153C5.02714 9.31787 5.03468 9.59581 4.98187 9.86541H10.8425C10.7926 9.61072 10.7965 9.3484 10.854 9.0953C10.9114 8.84221 11.0212 8.60393 11.1762 8.39578C11.3313 8.18763 11.5281 8.0142 11.7541 7.88664C11.9802 7.75907 12.2304 7.68019 12.4887 7.65506C12.747 7.62993 13.0077 7.65911 13.2541 7.74072C13.5005 7.82233 13.727 7.95457 13.9193 8.12894C14.1115 8.30331 14.2652 8.51596 14.3703 8.75323C14.4755 8.99051 14.5299 9.24715 14.53 9.50669C14.53 9.5471 14.5286 9.58716 14.526 9.62691L15.1346 9.54878C15.2157 9.53801 15.29 9.49755 15.343 9.4352C15.396 9.37286 15.424 9.29308 15.4216 9.21128V7.2335C15.4216 6.83332 15.1264 6.68882 14.8728 6.66994L13.3612 6.5395L12.1088 5.1985C12.0748 5.15869 12.0326 5.12661 11.9851 5.10442C11.9377 5.08223 11.886 5.07044 11.8336 5.06985H11.5913L12.0793 6.48782C12.0904 6.52069 12.0935 6.55574 12.0884 6.59006C12.0833 6.62439 12.0701 6.65701 12.0499 6.68522C12.0297 6.71344 12.0031 6.73644 11.9722 6.75234C11.9414 6.76823 11.9072 6.77656 11.8725 6.77663L4.84009 6.78647L1.28222 7.12307C0.853906 7.16357 0.5 7.66341 0.5 8.16928V9.52791C0.5 9.71375 0.628969 9.86541 0.786969 9.86541ZM12.6687 9.22888C12.7237 9.22887 12.7774 9.24516 12.8231 9.27568C12.8688 9.30621 12.9044 9.34959 12.9254 9.40035C12.9465 9.45112 12.952 9.50698 12.9413 9.56087C12.9305 9.61476 12.9041 9.66427 12.8652 9.70312C12.8264 9.74198 12.7769 9.76844 12.723 9.77916C12.6691 9.78988 12.6132 9.78439 12.5625 9.76336C12.5117 9.74233 12.4683 9.70673 12.4378 9.66104C12.4073 9.61535 12.391 9.56164 12.391 9.50669C12.391 9.47021 12.3981 9.43408 12.4121 9.40037C12.4261 9.36667 12.4465 9.33604 12.4723 9.31024C12.4981 9.28444 12.5287 9.26398 12.5624 9.25002C12.5961 9.23606 12.6323 9.22887 12.6687 9.22888ZM12.6687 8.08316C12.3872 8.08317 12.112 8.16666 11.8779 8.32308C11.6438 8.47951 11.4613 8.70183 11.3536 8.96195C11.2459 9.22207 11.2177 9.50829 11.2726 9.78443C11.3275 10.0606 11.4631 10.3142 11.6622 10.5133C11.8613 10.7124 12.1149 10.8479 12.3911 10.9029C12.6672 10.9578 12.9534 10.9296 13.2136 10.8219C13.4737 10.7141 13.696 10.5317 13.8524 10.2976C14.0088 10.0635 14.0923 9.78824 14.0923 9.50669C14.0923 9.31975 14.0555 9.13463 13.984 8.96192C13.9124 8.7892 13.8076 8.63227 13.6754 8.50008C13.5432 8.36789 13.3862 8.26304 13.2135 8.1915C13.0408 8.11997 12.8557 8.08315 12.6687 8.08316ZM12.6687 10.222C12.5273 10.222 12.389 10.1801 12.2713 10.1015C12.1537 10.0229 12.062 9.91114 12.0079 9.78043C11.9537 9.64972 11.9396 9.5059 11.9672 9.36714C11.9948 9.22838 12.0629 9.10093 12.1629 9.00089C12.263 8.90085 12.3904 8.83272 12.5292 8.80512C12.668 8.77752 12.8118 8.79169 12.9425 8.84583C13.0732 8.89997 13.1849 8.99165 13.2635 9.10928C13.3421 9.22692 13.3841 9.36522 13.3841 9.50669C13.384 9.69638 13.3086 9.87829 13.1745 10.0124C13.0404 10.1465 12.8584 10.2219 12.6687 10.2219V10.222ZM3.15547 9.22888C3.21042 9.22887 3.26413 9.24516 3.30982 9.27568C3.35551 9.30621 3.39112 9.34959 3.41216 9.40035C3.43319 9.45112 3.43869 9.50698 3.42798 9.56087C3.41726 9.61476 3.39081 9.66427 3.35195 9.70312C3.3131 9.74198 3.2636 9.76844 3.20971 9.77916C3.15582 9.78988 3.09996 9.78439 3.04919 9.76336C2.99843 9.74233 2.95504 9.70673 2.92451 9.66104C2.89398 9.61535 2.87769 9.56164 2.87769 9.50669C2.87768 9.47021 2.88486 9.43408 2.89881 9.40037C2.91277 9.36667 2.93323 9.33604 2.95903 9.31024C2.98482 9.28444 3.01545 9.26398 3.04915 9.25002C3.08286 9.23606 3.11899 9.22887 3.15547 9.22888ZM3.15547 8.08316C2.87392 8.08315 2.59869 8.16664 2.36459 8.32305C2.13049 8.47947 1.94802 8.70179 1.84028 8.96191C1.73253 9.22202 1.70433 9.50825 1.75926 9.78439C1.81418 10.0605 1.94975 10.3142 2.14884 10.5133C2.34792 10.7124 2.60157 10.8479 2.87771 10.9029C3.15385 10.9578 3.44007 10.9296 3.70019 10.8219C3.96031 10.7141 4.18264 10.5317 4.33906 10.2976C4.49548 10.0635 4.57897 9.78824 4.57897 9.50669C4.57896 9.12917 4.429 8.76711 4.16206 8.50016C3.89513 8.2332 3.53308 8.0832 3.15556 8.08316H3.15547ZM3.15547 10.222C3.01399 10.222 2.87569 10.1801 2.75805 10.1015C2.64042 10.0229 2.54873 9.91116 2.49458 9.78045C2.44044 9.64975 2.42627 9.50592 2.45387 9.36716C2.48146 9.2284 2.54959 9.10094 2.64962 9.0009C2.74966 8.90086 2.87712 8.83273 3.01588 8.80513C3.15463 8.77752 3.29846 8.79169 3.42917 8.84583C3.55988 8.89996 3.6716 8.99165 3.7502 9.10928C3.8288 9.22691 3.87075 9.36521 3.87075 9.50669C3.87071 9.69636 3.79535 9.87825 3.66123 10.0124C3.52712 10.1465 3.34523 10.2219 3.15556 10.2219L3.15547 10.222ZM11.1286 5.06985L11.5661 6.34125L9.05784 6.34478V5.06978L11.1286 5.06985ZM8.62047 5.06985V6.34538L5.33591 6.34997L6.70844 5.14228C6.7688 5.09181 6.84597 5.06594 6.92456 5.06985H8.62047ZM1.10703 12.8929C1.0121 12.8929 0.918937 12.8673 0.837322 12.8188C0.755707 12.7703 0.688657 12.7008 0.643218 12.6174C0.597779 12.5341 0.575629 12.44 0.579096 12.3452C0.582562 12.2503 0.611517 12.1581 0.662918 12.0783C0.714318 11.9985 0.786267 11.934 0.871202 11.8916C0.956138 11.8492 1.05092 11.8305 1.1456 11.8374C1.24028 11.8443 1.33135 11.8766 1.40925 11.9308C1.48714 11.9851 1.54899 12.0593 1.58828 12.1457H3.4V11.3518C3.54991 11.3321 3.69684 11.2942 3.8375 11.2388V12.3645C3.8375 12.4225 3.81445 12.4781 3.77343 12.5192C3.73241 12.5602 3.67677 12.5832 3.61875 12.5832H1.58822C1.54621 12.6756 1.47848 12.7539 1.39314 12.8089C1.3078 12.8638 1.20845 12.893 1.10697 12.8929H1.10703ZM8.25803 14.4904C8.36792 14.5403 8.45739 14.6264 8.51156 14.7343C8.56573 14.8422 8.58133 14.9654 8.55576 15.0834C8.5302 15.2013 8.46501 15.307 8.37105 15.3828C8.27708 15.4586 8.16 15.4999 8.03928 15.4999C7.91856 15.4999 7.80148 15.4586 7.70752 15.3828C7.61355 15.307 7.54836 15.2013 7.5228 15.0834C7.49723 14.9654 7.51283 14.8422 7.567 14.7343C7.62117 14.6264 7.71064 14.5403 7.82053 14.4904V10.3029H8.25803V14.4904ZM13.0225 14.9716C13.0225 14.8509 12.9811 14.7338 12.9053 14.6398C12.8295 14.5459 12.7238 14.4807 12.6059 14.4551C12.4879 14.4295 12.3647 14.4451 12.2568 14.4993C12.1489 14.5535 12.0628 14.643 12.0128 14.7529H10.2012V10.3029H9.76369V14.9716C9.76369 15.0296 9.78673 15.0853 9.82776 15.1263C9.86878 15.1673 9.92442 15.1904 9.98244 15.1904H12.0128C12.0628 15.3003 12.1489 15.3898 12.2568 15.4439C12.3647 15.4981 12.4879 15.5137 12.6059 15.4881C12.7238 15.4626 12.8295 15.3974 12.9053 15.3034C12.9811 15.2094 13.0225 15.0924 13.0225 14.9716ZM3.58456 15.5C3.68605 15.5001 3.78539 15.4709 3.87073 15.4159C3.95607 15.361 4.02379 15.2827 4.06581 15.1903H6.09619C6.1542 15.1903 6.20984 15.1673 6.25087 15.1262C6.29189 15.0852 6.31494 15.0296 6.31494 14.9716V10.3028H5.87744V14.7528H4.06563C4.02633 14.6664 3.96448 14.5921 3.88657 14.5379C3.80866 14.4836 3.71757 14.4513 3.62288 14.4444C3.52818 14.4375 3.43338 14.4563 3.34843 14.4987C3.26348 14.5411 3.19153 14.6056 3.14014 14.6854C3.08874 14.7653 3.0598 14.8575 3.05635 14.9524C3.05291 15.0472 3.07509 15.1413 3.12056 15.2247C3.16604 15.308 3.23312 15.3776 3.31477 15.426C3.39642 15.4745 3.48962 15.5 3.58456 15.5ZM15.5 12.3645C15.5 12.4852 15.4587 12.6023 15.3829 12.6963C15.3071 12.7902 15.2014 12.8554 15.0834 12.881C14.9654 12.9066 14.8422 12.891 14.7343 12.8368C14.6264 12.7826 14.5403 12.6931 14.4903 12.5832H12.46C12.402 12.5832 12.3463 12.5602 12.3053 12.5192C12.2643 12.4781 12.2412 12.4225 12.2412 12.3645V11.3183C12.3846 11.352 12.5314 11.3686 12.6787 11.3676V12.1458H14.4903C14.5403 12.0359 14.6264 11.9464 14.7343 11.8922C14.8422 11.838 14.9654 11.8224 15.0834 11.848C15.2014 11.8735 15.3071 11.9387 15.3829 12.0327C15.4587 12.1267 15.5 12.2438 15.5 12.3645V12.3645ZM8.03928 0.618378C8.16001 0.618385 8.2771 0.659725 8.37107 0.735521C8.46505 0.811318 8.53024 0.917003 8.5558 1.035C8.58136 1.15299 8.56576 1.27618 8.51159 1.38407C8.45741 1.49197 8.36793 1.57806 8.25803 1.62803V4.63235H7.82053V1.62816C7.71063 1.57818 7.62115 1.49209 7.56698 1.3842C7.5128 1.2763 7.4972 1.15311 7.52276 1.03512C7.54833 0.917128 7.61352 0.811443 7.70749 0.735646C7.80146 0.65985 7.91855 0.61851 8.03928 0.618503V0.618378ZM3.05625 1.0285C3.05626 0.907773 3.0976 0.790683 3.17339 0.696711C3.24919 0.602739 3.35487 0.537549 3.47287 0.511985C3.59086 0.486421 3.71405 0.502024 3.82194 0.556198C3.92984 0.610372 4.01593 0.699852 4.06591 0.809753H6.09628C6.1543 0.809753 6.20994 0.8328 6.25096 0.873824C6.29198 0.914847 6.31503 0.970487 6.31503 1.0285V4.90594L5.87753 5.29088V1.24725H4.06563C4.01565 1.35716 3.92956 1.44664 3.82166 1.50081C3.71377 1.55498 3.59058 1.57059 3.47259 1.54502C3.35459 1.51946 3.24891 1.45427 3.17311 1.3603C3.09731 1.26632 3.05598 1.14923 3.05597 1.0285H3.05625ZM12.494 0.500035C12.3925 0.500012 12.2932 0.529205 12.2078 0.584126C12.1225 0.639048 12.0548 0.717376 12.0127 0.809753H9.98241C9.92439 0.809753 9.86875 0.8328 9.82773 0.873824C9.7867 0.914847 9.76366 0.970487 9.76366 1.0285V4.63235H10.2012V1.24725H12.0128C12.0521 1.33368 12.114 1.40793 12.1919 1.4622C12.2698 1.51646 12.3608 1.54874 12.4555 1.55564C12.5502 1.56254 12.645 1.5438 12.73 1.5014C12.8149 1.459 12.8869 1.3945 12.9383 1.31468C12.9897 1.23485 13.0186 1.14266 13.0221 1.04778C13.0255 0.952905 13.0034 0.858848 12.9579 0.775497C12.9125 0.692146 12.8454 0.622579 12.7638 0.574106C12.6821 0.525634 12.5889 0.500047 12.494 0.500035ZM0.578562 3.45503C0.578569 3.3343 0.619909 3.21721 0.695705 3.12324C0.771502 3.02927 0.877187 2.96408 0.99518 2.93852C1.11317 2.91295 1.23636 2.92856 1.34426 2.98273C1.45215 3.0369 1.53824 3.12638 1.58822 3.23628H3.61875C3.67677 3.23628 3.73241 3.25933 3.77343 3.30036C3.81445 3.34138 3.8375 3.39702 3.8375 3.45503V6.44188L3.4 6.48328V3.67391H1.58822C1.53824 3.78381 1.45215 3.87329 1.34426 3.92747C1.23636 3.98164 1.11317 3.99724 0.99518 3.97168C0.877187 3.94611 0.771502 3.88092 0.695705 3.78695C0.619909 3.69298 0.578569 3.57589 0.578562 3.45516V3.45503Z" fill="#0D1B2A"/>
</g>
<defs>
<clipPath id="clip0_2024_202">
<rect width="16" height="16" fill="white"/>
</clipPath>
</defs>
</svg>
