<svg width="16" height="16" viewBox="0 0 16 16" fill="none" xmlns="http://www.w3.org/2000/svg">
<g clip-path="url(#clip0_2024_207)">
<path d="M7.99545 2.109C4.50793 -0.941331 0.0736149 1.73878 0.000901686 5.37209C-0.0176282 6.29805 0.249664 7.20002 0.781717 8.03155H4.23033L4.84372 7.00919C5.02183 6.71237 5.45286 6.7028 5.64107 6.99872L6.93525 9.03241L8.82176 5.04987C8.98628 4.70236 9.47659 4.69133 9.65804 5.02831L11.2752 8.03155H15.2092C18.1234 3.47689 12.3639 -1.7118 7.99545 2.109Z" fill="#0D1B2A"/>
<path d="M10.5828 8.72266L9.27238 6.28906L7.41936 10.201C7.26172 10.5338 6.79804 10.5627 6.60033 10.2519L5.25762 8.14202L4.89787 8.74159C4.81316 8.88277 4.6606 8.96914 4.49596 8.96914H1.52344C1.61662 9.06666 1.12 8.57104 7.66509 15.0822C7.84789 15.2641 8.1434 15.2642 8.32623 15.0822C14.7706 8.67122 14.3749 9.06648 14.4679 8.96914H10.9955C10.823 8.96917 10.6645 8.87449 10.5828 8.72266Z" fill="#0D1B2A"/>
</g>
<defs>
<clipPath id="clip0_2024_207">
<rect width="16" height="16" fill="white"/>
</clipPath>
</defs>
</svg>
