<svg width="16" height="16" viewBox="0 0 16 16" fill="none" xmlns="http://www.w3.org/2000/svg">
<path d="M10.9237 1.81104C10.6487 1.81104 10.4258 2.03397 10.4258 2.30897C10.4258 2.58397 10.6487 2.80691 10.9237 2.80691C11.7013 2.80691 12.3339 3.4395 12.3339 4.2171C12.3339 4.4921 12.5569 4.71503 12.8319 4.71503C13.1069 4.71503 13.3298 4.4921 13.3298 4.2171C13.3297 2.89038 12.2504 1.81104 10.9237 1.81104Z" fill="#0D1B2A"/>
<path d="M10.9237 0C10.6487 0 10.4258 0.222937 10.4258 0.497938C10.4258 0.772938 10.6487 0.995875 10.9237 0.995875C12.6999 0.995875 14.1449 2.44091 14.1449 4.21709C14.1449 4.49209 14.3679 4.71503 14.6429 4.71503C14.9179 4.71503 15.1408 4.49209 15.1408 4.21709C15.1408 1.89175 13.249 0 10.9237 0Z" fill="#0D1B2A"/>
<path d="M5.94069 10.7071C6.7493 10.7071 7.40481 10.0515 7.40481 9.24293C7.40481 8.43432 6.7493 7.77881 5.94069 7.77881C5.13207 7.77881 4.47656 8.43432 4.47656 9.24293C4.47656 10.0515 5.13207 10.7071 5.94069 10.7071Z" fill="#0D1B2A"/>
<path d="M9.98694 5.86282L10.7871 5.0627C10.9815 4.86823 10.9815 4.55298 10.7871 4.35854C10.5926 4.16407 10.2773 4.16407 10.0829 4.35854L9.28279 5.15867L6.18132 2.0572C6.03804 1.91392 5.80297 1.92251 5.67072 2.07604C4.45541 3.48704 4.13672 5.44185 4.67304 7.13501C5.067 6.89726 5.53254 6.7666 6.02916 6.78423C7.29857 6.82926 8.33591 7.85301 8.39725 9.12176C8.42094 9.61154 8.29972 10.0717 8.07391 10.4644C9.74138 10.9564 11.6419 10.6221 13.0249 9.42932C13.1782 9.29717 13.1864 9.06226 13.0433 8.91917L9.98694 5.86282Z" fill="#0D1B2A"/>
<path d="M7.74675 10.9092C7.29697 11.3967 6.65325 11.7028 5.93922 11.7028C5.23081 11.7028 4.59178 11.4014 4.1425 10.9205L2.97266 13.8129H8.89203L7.74675 10.9092Z" fill="#0D1B2A"/>
<path d="M10.4331 14.8086H1.44722C1.11878 14.8086 0.851562 15.0758 0.851562 15.4043C0.851562 15.7327 1.11878 15.9999 1.44722 15.9999H10.4332C10.7616 15.9999 11.0288 15.7327 11.0288 15.4043C11.0288 15.0758 10.7616 14.8086 10.4331 14.8086Z" fill="#0D1B2A"/>
</svg>
