<svg width="16" height="16" viewBox="0 0 16 16" fill="none" xmlns="http://www.w3.org/2000/svg">
<g clip-path="url(#clip0_2024_231)">
<path fill-rule="evenodd" clip-rule="evenodd" d="M4.02682 9.00594C3.89576 8.73701 3.72657 8.48577 3.52248 8.26058C2.97882 7.67181 2.64844 6.88458 2.64844 6.02092C2.64844 4.18756 4.13678 2.69922 5.96997 2.69922C7.80333 2.69922 9.29167 4.18756 9.29167 6.02092C9.29167 6.88458 8.96129 7.67181 8.42001 8.26279C8.21661 8.48747 8.04793 8.73786 7.91703 9.00594H4.02682ZM6.40146 4.65888C6.4081 4.62126 6.38835 4.58381 6.35363 4.56798C6.31874 4.55198 6.27754 4.56169 6.25354 4.59147C5.87057 5.0633 5.05916 6.06347 4.78393 6.40271C4.76486 6.4262 4.75993 6.4582 4.77099 6.48628C4.78205 6.51454 4.80742 6.53462 4.83737 6.53888C5.05593 6.56969 5.46001 6.62688 5.63993 6.65224C5.66325 6.65564 5.68401 6.66858 5.69746 6.68798C5.71073 6.70722 5.71533 6.73139 5.71005 6.75437C5.66222 6.96254 5.54103 7.48986 5.45916 7.84645C5.45048 7.88458 5.46903 7.92373 5.50427 7.94075C5.53933 7.95794 5.58171 7.94858 5.60622 7.91828C6.01899 7.40952 6.87295 6.35709 7.15618 6.00798C7.17525 5.9845 7.18018 5.9525 7.16912 5.92424C7.15805 5.89615 7.13269 5.87607 7.10274 5.87181C6.88231 5.84067 6.47329 5.78279 6.29559 5.75777C6.27312 5.75454 6.25269 5.74228 6.23942 5.7239C6.22597 5.70535 6.22069 5.68237 6.22461 5.6599C6.25899 5.46569 6.3441 4.98364 6.40146 4.65888Z" fill="#0D1B2A"/>
<path fill-rule="evenodd" clip-rule="evenodd" d="M7.59269 11.2175C7.59218 11.4764 7.59184 11.7028 7.59167 11.8589C7.59167 12.008 7.52563 12.1493 7.41158 12.2449C6.45141 13.0466 5.49278 13.0523 4.53414 12.2436C4.42112 12.1483 4.35575 12.0078 4.35575 11.8599C4.35371 11.5532 4.35371 10.9736 4.35371 10.4097C4.35371 10.1049 4.31031 9.80443 4.22656 9.5166H7.72239C7.63865 9.80443 7.59524 10.105 7.59524 10.4097C7.59473 10.5088 7.59439 10.6083 7.59405 10.7069H6.1738C6.03286 10.7069 5.91848 10.8213 5.91848 10.9622C5.91848 11.1032 6.03286 11.2175 6.1738 11.2175H7.59269Z" fill="#0D1B2A"/>
<path fill-rule="evenodd" clip-rule="evenodd" d="M1.49931 5.36914H0.298288C0.157352 5.36914 0.0429688 5.48352 0.0429688 5.62446C0.0429688 5.7654 0.157352 5.87978 0.298288 5.87978H1.49931C1.64008 5.87978 1.75463 5.7654 1.75463 5.62446C1.75463 5.48352 1.64008 5.36914 1.49931 5.36914Z" fill="#0D1B2A"/>
<path fill-rule="evenodd" clip-rule="evenodd" d="M11.6438 5.36914H10.4428C10.3019 5.36914 10.1875 5.48352 10.1875 5.62446C10.1875 5.7654 10.3019 5.87978 10.4428 5.87978H11.6438C11.7848 5.87978 11.8992 5.7654 11.8992 5.62446C11.8992 5.48352 11.7848 5.36914 11.6438 5.36914Z" fill="#0D1B2A"/>
<path fill-rule="evenodd" clip-rule="evenodd" d="M5.71484 0.271921V1.47294C5.71484 1.61388 5.8294 1.72826 5.97016 1.72826C6.1111 1.72826 6.22548 1.61388 6.22548 1.47294V0.271921C6.22548 0.131155 6.1111 0.0166016 5.97016 0.0166016C5.8294 0.0166016 5.71484 0.131155 5.71484 0.271921Z" fill="#0D1B2A"/>
<path fill-rule="evenodd" clip-rule="evenodd" d="M9.83065 1.32901L9.06009 2.45718C8.9806 2.57361 9.01056 2.73259 9.12699 2.81208C9.24341 2.89157 9.40239 2.86161 9.48188 2.74518L10.2523 1.61701C10.3318 1.50059 10.3018 1.34161 10.1854 1.26212C10.0691 1.1828 9.90996 1.21276 9.83065 1.32901Z" fill="#0D1B2A"/>
<path fill-rule="evenodd" clip-rule="evenodd" d="M1.6851 1.61701L2.45548 2.74518C2.53497 2.86161 2.69395 2.89157 2.81038 2.81208C2.92663 2.73259 2.95659 2.57361 2.8771 2.45718L2.10672 1.32901C2.02723 1.21276 1.86825 1.1828 1.75183 1.26212C1.63557 1.34161 1.60561 1.50059 1.6851 1.61701Z" fill="#0D1B2A"/>
<path fill-rule="evenodd" clip-rule="evenodd" d="M11.5527 10.3283C12.0773 9.7099 12.8471 9.07552 14.0383 8.44931C14.1629 8.38377 14.2111 8.22922 14.1454 8.10463C14.0798 7.97986 13.9253 7.93186 13.8007 7.99739C11.0245 9.4568 10.4029 10.9519 9.95795 12.2188C9.90825 11.0405 10.1311 9.43297 11.4802 8.48182C13.4522 7.09135 15.3399 6.92148 15.6751 5.86292C16.0102 4.80437 16.3985 10.2384 14.5988 11.5264C13.0162 12.6592 11.7608 12.3807 10.6293 13.2597C10.594 13.3586 10.5581 13.4554 10.5205 13.5504C10.2465 14.241 9.39319 16.3143 7.24782 15.9385C6.48833 15.8054 6.08221 15.2609 5.87948 14.6437C5.73072 14.1906 5.69565 13.7004 5.69531 13.3419C5.78791 13.3535 5.8805 13.3591 5.97293 13.3589C6.04987 13.3588 6.12697 13.3548 6.20408 13.3467C6.20425 13.6609 6.23472 14.0888 6.36476 14.4844C6.51097 14.9298 6.78791 15.3395 7.33599 15.4355C9.1428 15.7521 9.81497 13.9438 10.046 13.362C10.3969 12.4774 10.6054 11.4268 11.5527 10.3283Z" fill="#0D1B2A"/>
</g>
<defs>
<clipPath id="clip0_2024_231">
<rect width="16" height="16" fill="white"/>
</clipPath>
</defs>
</svg>
