<svg width="16" height="16" viewBox="0 0 16 16" fill="none" xmlns="http://www.w3.org/2000/svg">
<g clip-path="url(#clip0_2024_244)">
<path d="M8 5.65625C8.25844 5.65625 8.46875 5.44594 8.46875 5.1875C8.46875 4.92906 8.25844 4.71875 8 4.71875C7.74156 4.71875 7.53125 4.92906 7.53125 5.1875C7.53125 5.44594 7.74156 5.65625 8 5.65625Z" fill="#0D1B2A"/>
<path d="M5.1875 7.53125C4.92906 7.53125 4.71875 7.74156 4.71875 8C4.71875 8.25844 4.92906 8.46875 5.1875 8.46875C5.44594 8.46875 5.65625 8.25844 5.65625 8C5.65625 7.74156 5.44594 7.53125 5.1875 7.53125Z" fill="#0D1B2A"/>
<path d="M10.8125 7.53125C10.5541 7.53125 10.3438 7.74156 10.3438 8C10.3438 8.25844 10.5541 8.46875 10.8125 8.46875C11.0709 8.46875 11.2812 8.25844 11.2812 8C11.2812 7.74156 11.0709 7.53125 10.8125 7.53125Z" fill="#0D1B2A"/>
<path d="M8 10.3438C7.74156 10.3438 7.53125 10.5541 7.53125 10.8125C7.53125 11.0709 7.74156 11.2812 8 11.2812C8.25844 11.2812 8.46875 11.0709 8.46875 10.8125C8.46875 10.5541 8.25844 10.3438 8 10.3438Z" fill="#0D1B2A"/>
<path d="M15.5312 6.59375C15.2724 6.59375 15.0625 6.80362 15.0625 7.0625V7.53125H14.0759C14.0172 6.76187 13.8147 6.03187 13.4956 5.36844L13.4956 5.36837L14.3236 4.89031L14.558 5.29625C14.6881 5.52156 14.9752 5.59666 15.1983 5.46781C15.4225 5.33838 15.4993 5.05169 15.3699 4.8275L14.4324 3.20372C14.3029 2.97953 14.0163 2.90272 13.7921 3.03216C13.5679 3.16159 13.4911 3.44828 13.6205 3.67247L13.8549 4.07841L13.0254 4.55731L13.0253 4.55719C12.5997 3.9375 12.0625 3.40031 11.4428 2.97469L11.4427 2.97459L11.9216 2.14512L12.3275 2.3795C12.551 2.5085 12.838 2.43287 12.9678 2.20794C13.0973 1.98372 13.0205 1.69706 12.7963 1.56763L11.1725 0.630125C10.9483 0.500687 10.6616 0.5775 10.5322 0.801687C10.4027 1.02591 10.4795 1.31256 10.7037 1.442L11.1097 1.67638L10.6316 2.50441L10.6316 2.50437C9.96812 2.18531 9.23813 1.98281 8.46875 1.92406V0.9375H8.9375C9.19638 0.9375 9.40625 0.727625 9.40625 0.46875C9.40625 0.209875 9.19638 0 8.9375 0H7.0625C6.80362 0 6.59375 0.209875 6.59375 0.46875C6.59375 0.727625 6.80362 0.9375 7.0625 0.9375H7.53125V1.92406C6.76187 1.98281 6.03187 2.18531 5.36844 2.50437L5.36837 2.50441L4.89031 1.67638L5.29628 1.442C5.52047 1.31256 5.59728 1.02587 5.46784 0.801687C5.33841 0.5775 5.05175 0.500687 4.82753 0.630125L3.20372 1.56763C2.97953 1.69706 2.90272 1.98375 3.03216 2.20794C3.16225 2.43325 3.44934 2.50834 3.67247 2.3795L4.07844 2.14512L4.55734 2.97459L4.55722 2.97469C3.9375 3.40031 3.40031 3.9375 2.97469 4.55719L2.97459 4.55731L2.14512 4.07844L2.3795 3.6725C2.50894 3.44831 2.43212 3.16162 2.20794 3.03219C1.98372 2.90275 1.69703 2.97956 1.56763 3.20375L0.630125 4.82753C0.500687 5.05172 0.5775 5.33841 0.801687 5.46784C1.02512 5.59684 1.31216 5.52122 1.442 5.29628L1.67638 4.89034L2.50441 5.36841L2.50437 5.36847C2.18531 6.03188 1.98281 6.76187 1.92406 7.53125H0.9375V7.0625C0.9375 6.80362 0.727625 6.59375 0.46875 6.59375C0.209875 6.59375 0 6.80362 0 7.0625V8.9375C0 9.19638 0.209875 9.40625 0.46875 9.40625C0.727625 9.40625 0.9375 9.19638 0.9375 8.9375V8.46875H1.92406C1.98281 9.23813 2.18531 9.96812 2.50437 10.6316L2.50441 10.6316L1.67638 11.1097L1.442 10.7037C1.31256 10.4796 1.02591 10.4027 0.801687 10.5322C0.5775 10.6616 0.500687 10.9483 0.630125 11.1725L1.56763 12.7963C1.69772 13.0216 1.98481 13.0967 2.20794 12.9678C2.43212 12.8384 2.50894 12.5517 2.3795 12.3275L2.14512 11.9216L2.97459 11.4427L2.97469 11.4428C3.40031 12.0625 3.9375 12.5997 4.55719 13.0253L4.55731 13.0254L4.07841 13.8549L3.67244 13.6205C3.44819 13.4911 3.16153 13.5679 3.03212 13.7921C2.90269 14.0163 2.9795 14.3029 3.20369 14.4324L4.8275 15.3699C5.05094 15.4989 5.33797 15.4233 5.46781 15.1983C5.59725 14.9741 5.52044 14.6874 5.29625 14.558L4.89028 14.3236L5.36834 13.4956L5.36841 13.4956C6.03184 13.8147 6.76184 14.0172 7.53122 14.0759V15.0625H7.06247C6.80359 15.0625 6.59372 15.2724 6.59372 15.5312C6.59372 15.7901 6.80359 16 7.06247 16H8.93747C9.19634 16 9.40622 15.7901 9.40622 15.5312C9.40622 15.2724 9.19634 15.0625 8.93747 15.0625H8.46872V14.0759C9.23809 14.0172 9.96809 13.8147 10.6315 13.4956L10.6316 13.4956L11.1097 14.3236L10.7037 14.558C10.4795 14.6874 10.4027 14.9741 10.5321 15.1983C10.6622 15.4236 10.9493 15.4987 11.1724 15.3699L12.7963 14.4324C13.0204 14.3029 13.0973 14.0163 12.9678 13.7921C12.8384 13.5679 12.5517 13.4911 12.3275 13.6205L11.9215 13.8549L11.4427 13.0254L11.4428 13.0253C12.0625 12.5997 12.5997 12.0625 13.0253 11.4428L13.0254 11.4427L13.8548 11.9216L13.6205 12.3275C13.491 12.5517 13.5678 12.8384 13.792 12.9678C14.0155 13.0968 14.3025 13.0212 14.4323 12.7963L15.3698 11.1725C15.4993 10.9483 15.4225 10.6616 15.1983 10.5322C14.974 10.4027 14.6874 10.4796 14.558 10.7037L14.3236 11.1097L13.4956 10.6316L13.4956 10.6316C13.8147 9.96812 14.0172 9.23813 14.0759 8.46875H15.0625V8.9375C15.0625 9.19638 15.2724 9.40625 15.5312 9.40625C15.7901 9.40625 16 9.19638 16 8.9375V7.0625C16 6.80362 15.7901 6.59375 15.5312 6.59375ZM10.8125 4.71875C11.0712 4.71875 11.2812 4.92875 11.2812 5.1875C11.2812 5.44625 11.0712 5.65625 10.8125 5.65625C10.5538 5.65625 10.3438 5.44625 10.3438 5.1875C10.3438 4.92875 10.5538 4.71875 10.8125 4.71875ZM8 3.78125C8.77531 3.78125 9.40625 4.41219 9.40625 5.1875C9.40625 5.96281 8.77531 6.59375 8 6.59375C7.22469 6.59375 6.59375 5.96281 6.59375 5.1875C6.59375 4.41219 7.22469 3.78125 8 3.78125ZM8.46875 8C8.46875 8.25875 8.25875 8.46875 8 8.46875C7.74125 8.46875 7.53125 8.25875 7.53125 8C7.53125 7.74125 7.74125 7.53125 8 7.53125C8.25875 7.53125 8.46875 7.74125 8.46875 8ZM5.1875 4.71875C5.44625 4.71875 5.65625 4.92875 5.65625 5.1875C5.65625 5.44625 5.44625 5.65625 5.1875 5.65625C4.92875 5.65625 4.71875 5.44625 4.71875 5.1875C4.71875 4.92875 4.92875 4.71875 5.1875 4.71875ZM5.1875 11.2812C4.92875 11.2812 4.71875 11.0712 4.71875 10.8125C4.71875 10.5538 4.92875 10.3438 5.1875 10.3438C5.44625 10.3438 5.65625 10.5538 5.65625 10.8125C5.65625 11.0712 5.44625 11.2812 5.1875 11.2812ZM5.1875 9.40625C4.41219 9.40625 3.78125 8.77531 3.78125 8C3.78125 7.22469 4.41219 6.59375 5.1875 6.59375C5.96281 6.59375 6.59375 7.22469 6.59375 8C6.59375 8.77531 5.96281 9.40625 5.1875 9.40625ZM8 12.2188C7.22469 12.2188 6.59375 11.5878 6.59375 10.8125C6.59375 10.0372 7.22469 9.40625 8 9.40625C8.77531 9.40625 9.40625 10.0372 9.40625 10.8125C9.40625 11.5878 8.77531 12.2188 8 12.2188ZM10.8125 11.2812C10.5538 11.2812 10.3438 11.0712 10.3438 10.8125C10.3438 10.5538 10.5538 10.3438 10.8125 10.3438C11.0712 10.3438 11.2812 10.5538 11.2812 10.8125C11.2812 11.0712 11.0712 11.2812 10.8125 11.2812ZM10.8125 9.40625C10.0372 9.40625 9.40625 8.77531 9.40625 8C9.40625 7.22469 10.0372 6.59375 10.8125 6.59375C11.5878 6.59375 12.2188 7.22469 12.2188 8C12.2188 8.77531 11.5878 9.40625 10.8125 9.40625Z" fill="#0D1B2A"/>
</g>
<defs>
<clipPath id="clip0_2024_244">
<rect width="16" height="16" fill="white"/>
</clipPath>
</defs>
</svg>
