<svg width="16" height="16" viewBox="0 0 16 16" fill="none" xmlns="http://www.w3.org/2000/svg">
<g clip-path="url(#clip0_2024_253)">
<path fill-rule="evenodd" clip-rule="evenodd" d="M1.79362 4.18625V3.38107C1.79362 3.30891 1.84344 3.24835 1.91422 3.23438L2.34872 3.14872L2.66162 2.39341L2.41494 2.02554C2.37475 1.96563 2.38237 1.88754 2.43337 1.83654L3.00275 1.26719C3.05378 1.21619 3.13181 1.20857 3.19172 1.24875L3.55959 1.49544L4.31488 1.18254L4.40056 0.748035C4.41453 0.677254 4.47509 0.627441 4.54725 0.627441H5.35247C5.42459 0.627441 5.48519 0.677254 5.49916 0.748035L5.58484 1.18254L6.34013 1.49544L6.708 1.24875C6.76794 1.20857 6.84597 1.21619 6.897 1.26719L7.46637 1.83654C7.51737 1.88757 7.525 1.96563 7.48484 2.02554L7.23812 2.39341L7.55103 3.14872L7.98553 3.23438C8.05631 3.24835 8.10612 3.30891 8.10612 3.38107V4.18625C8.10612 4.25838 8.05631 4.319 7.98553 4.33294L7.551 4.4186L7.33209 4.94694H6.07516C6.37931 4.65266 6.56847 4.24025 6.56847 3.78363C6.56847 2.88969 5.84378 2.165 4.94984 2.165C4.05591 2.165 3.33122 2.88969 3.33122 3.78363C3.33122 4.67757 4.05591 5.40225 4.94984 5.40225C5.20538 5.40225 5.44703 5.34297 5.66191 5.2375V5.97875H5.34966C5.22919 5.97875 5.13091 6.07704 5.13091 6.1975V6.93988H4.54725C4.47509 6.93988 4.4145 6.89007 4.40053 6.81928L4.31484 6.38475L3.55956 6.07185L3.19166 6.31857C3.13175 6.35872 3.05369 6.3511 3.00266 6.3001L2.43331 5.73075C2.38231 5.67975 2.37469 5.60166 2.41488 5.54175L2.66156 5.17388L2.34866 4.4186L1.91416 4.33294C1.84337 4.319 1.79356 4.25838 1.79356 4.18625H1.79362ZM12.0028 6.2725L11.7082 10.7762H14.0238L13.7292 6.2725H12.0028ZM11.8456 5.835H13.8863C13.9745 5.835 14.0467 5.76285 14.0467 5.67466V5.136C14.0467 5.04782 13.9745 4.97566 13.8863 4.97566H11.8456C11.7574 4.97566 11.6853 5.04782 11.6853 5.136V5.67466C11.6853 5.76285 11.7574 5.835 11.8456 5.835ZM6.09944 5.97872H9.69819V5.38441H6.09944V5.97872ZM2.58184 9.71697H1.0845V14.3113H2.58184V9.71697ZM9.13838 14.3113V11.7574C9.13838 11.388 8.83772 11.0874 8.46838 11.0874H7.32963C6.95984 11.0874 6.65919 11.388 6.65919 11.7574V14.3113H5.56841V6.41622H10.2291V14.3113H9.13834H9.13838ZM9.11219 7.52019H6.68534V8.53194H9.11219V7.52019ZM7.32963 11.525C7.20116 11.525 7.09675 11.6293 7.09675 11.7574V14.3113H8.70078V11.7574C8.70078 11.6293 8.59669 11.525 8.46838 11.525H7.32963ZM14.8658 14.3113H10.6666V11.2136H14.8658V14.3113ZM13.3252 12.2215H12.2072V13.5311H13.3252V12.2215ZM3.01931 8.32516L5.13091 7.42972V14.3113H3.01931V8.32516ZM3.72884 11.847H4.42144V10.0289H3.72884V11.847ZM0.34375 14.7488V15.3726H15.6562V14.7488H0.34375Z" fill="#0D1B2A"/>
</g>
<defs>
<clipPath id="clip0_2024_253">
<rect width="16" height="16" fill="white"/>
</clipPath>
</defs>
</svg>
