<svg width="16" height="16" viewBox="0 0 16 16" fill="none" xmlns="http://www.w3.org/2000/svg">
<g clip-path="url(#clip0_2024_157)">
<path d="M0.446857 9.15628L1.49096 9.32741C1.65592 10.1269 1.97161 10.8877 2.42116 11.5691L1.80285 12.4321C1.67456 12.6067 1.67676 12.845 1.80828 13.0173C1.96418 13.2079 2.12985 13.3903 2.30457 13.5638C2.48084 13.7403 2.66255 13.903 2.84968 14.0603C3.02204 14.1921 3.2607 14.1943 3.43547 14.0657L4.29788 13.4471C4.97863 13.8969 5.73888 14.2128 6.53795 14.3779L6.70881 15.4228C6.74136 15.6366 6.91191 15.8027 7.12644 15.8296C7.27505 15.8464 7.42476 15.8567 7.57772 15.8643C7.652 15.8679 7.72454 15.8411 7.77859 15.79C7.83263 15.739 7.86352 15.6681 7.8641 15.5937V13.4203C7.86331 13.2738 7.74693 13.1541 7.6005 13.1491C4.85994 13.007 2.71071 10.7435 2.71071 7.99927C2.71071 5.25503 4.85994 2.99149 7.6005 2.84942C7.74693 2.84446 7.86331 2.72475 7.8641 2.57822V0.406754C7.86373 0.332425 7.83305 0.261455 7.77914 0.210248C7.72523 0.159041 7.65276 0.132086 7.57851 0.135551C7.4261 0.141876 7.27542 0.152559 7.12642 0.167545C6.91183 0.196784 6.74196 0.363579 6.70879 0.577592L6.53792 1.62251C5.73888 1.78778 4.97865 2.10374 4.29785 2.55352L3.43545 1.93466C3.26067 1.80608 3.02202 1.80828 2.84966 1.94009C2.65961 2.0962 2.47767 2.26195 2.30455 2.43665C2.12851 2.60887 1.96279 2.79134 1.80825 2.98309C1.67618 3.15556 1.67398 3.39453 1.80282 3.56941L2.42113 4.43236C1.97169 5.11354 1.656 5.87402 1.49094 6.67325L0.446831 6.84411C0.233028 6.87676 0.066915 7.04742 0.0400388 7.26203C-0.0133463 7.74872 -0.0133463 8.23979 0.0400388 8.72647C0.0641592 8.94463 0.230325 9.12022 0.446857 9.15628Z" fill="#0D1B2A"/>
<path d="M7.60763 3.94064C5.46512 4.07636 3.79688 5.85363 3.79688 8.00043C3.79688 10.1472 5.46514 11.9245 7.60763 12.0602C7.67579 12.063 7.74215 12.0378 7.79115 11.9903C7.84015 11.9428 7.86752 11.8773 7.86689 11.8091V4.19177C7.86755 4.12353 7.84018 4.05804 7.79115 4.01057C7.74215 3.96309 7.67579 3.93781 7.60763 3.94064Z" fill="#0D1B2A"/>
<path d="M9.76246 4.2037H8.40649V4.74608H9.76246C10.2112 4.74474 10.5747 4.38129 10.576 3.9325V2.25544C10.9496 2.12337 11.1737 1.74135 11.1067 1.35081C11.0397 0.96026 10.7011 0.674805 10.3048 0.674805C9.9086 0.674805 9.56997 0.96026 9.50296 1.35081C9.43595 1.74135 9.66005 2.12337 10.0336 2.25544V3.9325C10.0336 4.08229 9.91222 4.2037 9.76246 4.2037Z" fill="#0D1B2A"/>
<path d="M8.40649 5.83049H11.1184C11.2682 5.83049 11.3897 5.70908 11.3897 5.55929C11.3897 5.4095 11.2682 5.28809 11.1184 5.28809H8.40649V5.83049Z" fill="#0D1B2A"/>
<path d="M8.40649 11.7968H9.76246C9.91225 11.7968 10.0337 11.9182 10.0337 12.068V13.745C9.66007 13.8771 9.43598 14.2591 9.50299 14.6497C9.56999 15.0402 9.9086 15.3257 10.3049 15.3257C10.7011 15.3257 11.0397 15.0402 11.1067 14.6497C11.1738 14.2591 10.9497 13.8771 10.5761 13.745V12.068C10.5747 11.6192 10.2113 11.2557 9.76248 11.2544H8.40652V11.7968H8.40649Z" fill="#0D1B2A"/>
<path d="M12.4744 9.08496H8.40649V9.62734H12.4744C12.6242 9.62734 12.7456 9.74876 12.7456 9.89855V11.3044C12.372 11.4365 12.1479 11.8185 12.2149 12.2091C12.2819 12.5996 12.6206 12.8851 13.0168 12.8851C13.4131 12.8851 13.7517 12.5996 13.8187 12.2091C13.8857 11.8185 13.6616 11.4365 13.288 11.3044V9.89855C13.2867 9.44976 12.9232 9.0863 12.4744 9.08496Z" fill="#0D1B2A"/>
<path d="M15.1864 7.18652C14.8428 7.18794 14.5372 7.405 14.4227 7.7289H8.40649V8.27129H14.4227C14.5613 8.66033 14.9697 8.88346 15.372 8.78981C15.7742 8.69616 16.0422 8.31559 15.9946 7.90533C15.9472 7.4951 15.5994 7.18579 15.1864 7.18652Z" fill="#0D1B2A"/>
<path d="M11.3897 10.4411C11.3897 10.2913 11.2682 10.1699 11.1184 10.1699H8.40649V10.7123H11.1184C11.2682 10.7123 11.3897 10.5909 11.3897 10.4411Z" fill="#0D1B2A"/>
<path d="M13.288 6.10175V4.69587C13.6616 4.5638 13.8857 4.18178 13.8187 3.79123C13.7517 3.40069 13.4131 3.11523 13.0168 3.11523C12.6206 3.11523 12.2819 3.40069 12.2149 3.79123C12.1479 4.18178 12.372 4.5638 12.7456 4.69587V6.10175C12.7456 6.25154 12.6242 6.37296 12.4744 6.37296H8.40649V6.91534H12.4744C12.9232 6.91397 13.2867 6.55051 13.288 6.10175Z" fill="#0D1B2A"/>
</g>
<defs>
<clipPath id="clip0_2024_157">
<rect width="16" height="16" fill="white"/>
</clipPath>
</defs>
</svg>
