<svg width="16" height="16" viewBox="0 0 16 16" fill="none" xmlns="http://www.w3.org/2000/svg">
<path fill-rule="evenodd" clip-rule="evenodd" d="M3.98385 8.98934C3.85279 8.7204 3.6836 8.46917 3.47951 8.24398C2.93585 7.65521 2.60547 6.86798 2.60547 6.00432C2.60547 4.17096 4.09381 2.68262 5.927 2.68262C7.76036 2.68262 9.2487 4.17096 9.2487 6.00432C9.2487 6.86798 8.91832 7.65521 8.37704 8.24619C8.17364 8.47087 8.00496 8.72126 7.87406 8.98934H3.98385ZM6.35849 4.64228C6.36513 4.60466 6.34538 4.56721 6.31066 4.55138C6.27577 4.53538 6.23458 4.54509 6.21058 4.57487C5.8276 5.0467 5.01619 6.04687 4.74096 6.38611C4.72189 6.4096 4.71696 6.4416 4.72802 6.46968C4.73909 6.49794 4.76445 6.51802 4.7944 6.52228C5.01296 6.55309 5.41704 6.61028 5.59696 6.63564C5.62028 6.63904 5.64104 6.65198 5.65449 6.67138C5.66777 6.69062 5.67236 6.71479 5.66709 6.73777C5.61926 6.94594 5.49806 7.47326 5.41619 7.82985C5.40751 7.86798 5.42606 7.90713 5.4613 7.92415C5.49636 7.94134 5.53875 7.93198 5.56326 7.90168C5.97602 7.39292 6.82998 6.34049 7.11321 5.99138C7.13228 5.96789 7.13721 5.93589 7.12615 5.90764C7.11509 5.87955 7.08972 5.85947 7.05977 5.85521C6.83934 5.82406 6.43032 5.76619 6.25262 5.74117C6.23015 5.73794 6.20972 5.72568 6.19645 5.7073C6.183 5.68874 6.17772 5.66577 6.18164 5.6433C6.21602 5.44909 6.30113 4.96704 6.35849 4.64228Z" fill="#0D1B2A"/>
<path fill-rule="evenodd" clip-rule="evenodd" d="M7.54972 11.2009C7.54921 11.4598 7.54887 11.6862 7.5487 11.8423C7.5487 11.9914 7.48266 12.1327 7.36861 12.2283C6.40844 13.03 5.44981 13.0357 4.49117 12.227C4.37815 12.1317 4.31279 11.9912 4.31279 11.8433C4.31074 11.5366 4.31074 10.957 4.31074 10.3931C4.31074 10.0883 4.26734 9.78783 4.18359 9.5H7.67942C7.59568 9.78783 7.55227 10.0884 7.55227 10.3931C7.55176 10.4922 7.55142 10.5917 7.55108 10.6903H6.13083C5.98989 10.6903 5.87551 10.8047 5.87551 10.9456C5.87551 11.0866 5.98989 11.2009 6.13083 11.2009H7.54972Z" fill="#0D1B2A"/>
<path fill-rule="evenodd" clip-rule="evenodd" d="M1.45634 5.35254H0.255319C0.114383 5.35254 0 5.46692 0 5.60786C0 5.74879 0.114383 5.86318 0.255319 5.86318H1.45634C1.59711 5.86318 1.71166 5.74879 1.71166 5.60786C1.71166 5.46692 1.59711 5.35254 1.45634 5.35254Z" fill="#0D1B2A"/>
<path fill-rule="evenodd" clip-rule="evenodd" d="M11.6009 5.35254H10.3999C10.2589 5.35254 10.1445 5.46692 10.1445 5.60786C10.1445 5.74879 10.2589 5.86318 10.3999 5.86318H11.6009C11.7418 5.86318 11.8562 5.74879 11.8562 5.60786C11.8562 5.46692 11.7418 5.35254 11.6009 5.35254Z" fill="#0D1B2A"/>
<path fill-rule="evenodd" clip-rule="evenodd" d="M5.67188 0.255319V1.45634C5.67188 1.59728 5.78643 1.71166 5.92719 1.71166C6.06813 1.71166 6.18251 1.59728 6.18251 1.45634V0.255319C6.18251 0.114553 6.06813 0 5.92719 0C5.78643 0 5.67188 0.114553 5.67188 0.255319Z" fill="#0D1B2A"/>
<path fill-rule="evenodd" clip-rule="evenodd" d="M9.78768 1.31241L9.01712 2.44058C8.93763 2.55701 8.96759 2.71599 9.08402 2.79548C9.20044 2.87497 9.35942 2.84501 9.43891 2.72858L10.2093 1.60041C10.2888 1.48399 10.2588 1.32501 10.1424 1.24552C10.0261 1.1662 9.867 1.19616 9.78768 1.31241Z" fill="#0D1B2A"/>
<path fill-rule="evenodd" clip-rule="evenodd" d="M1.64213 1.60041L2.41252 2.72858C2.49201 2.84501 2.65098 2.87497 2.76741 2.79548C2.88366 2.71599 2.91362 2.55701 2.83413 2.44058L2.06375 1.31241C1.98426 1.19616 1.82528 1.1662 1.70886 1.24552C1.5926 1.32501 1.56264 1.48399 1.64213 1.60041Z" fill="#0D1B2A"/>
<path fill-rule="evenodd" clip-rule="evenodd" d="M11.5097 10.3117C12.0343 9.6933 12.8042 9.05892 13.9953 8.4327C14.1199 8.36717 14.1681 8.21262 14.1024 8.08802C14.0369 7.96326 13.8823 7.91526 13.7577 7.98079C10.9815 9.44019 10.3599 10.9353 9.91498 12.2022C9.86528 11.0239 10.0881 9.41636 11.4372 8.46521C13.4093 7.07475 15.2969 6.90487 15.6321 5.84632C15.9672 4.78777 16.3555 10.2218 14.5558 11.5098C12.9732 12.6426 11.7179 12.3641 10.5863 13.2431C10.5511 13.342 10.5152 13.4388 10.4775 13.5338C10.2035 14.2244 9.35022 16.2977 7.20485 15.9219C6.44537 15.7888 6.03924 15.2443 5.83651 14.6271C5.68775 14.174 5.65268 13.6838 5.65234 13.3253C5.74494 13.3369 5.83754 13.3425 5.92996 13.3423C6.0069 13.3422 6.084 13.3382 6.16111 13.3301C6.16128 13.6443 6.19175 14.0722 6.32179 14.4678C6.468 14.9132 6.74494 15.3229 7.29302 15.4189C9.09983 15.7355 9.772 13.9272 10.003 13.3454C10.354 12.4608 10.5625 11.4102 11.5097 10.3117Z" fill="#0D1B2A"/>
</svg>
