<svg width="16" height="16" viewBox="0 0 16 16" fill="none" xmlns="http://www.w3.org/2000/svg">
<g clip-path="url(#clip0_2024_191)">
<path fill-rule="evenodd" clip-rule="evenodd" d="M3.31291 8.31956V11.8906H1.94322V8.31956H3.31291ZM0.609406 6.13706H15.3918V5.06253C15.3918 4.89309 15.2536 4.7549 15.0842 4.7549H0.917C0.747594 4.7549 0.609375 4.89309 0.609375 5.06253L0.609406 6.13706ZM0.609406 15.4552H15.3918V14.3807C15.3918 14.2113 15.2536 14.0731 15.0842 14.0731H0.917C0.747594 14.0731 0.609375 14.2113 0.609375 14.3807L0.609406 15.4552ZM8.25666 0.622246L13.4431 4.00487H2.55806L7.74453 0.622246C7.90366 0.518496 8.09753 0.518496 8.25666 0.622246ZM3.31291 12.6406H3.49C3.65944 12.6406 3.79762 12.7788 3.79762 12.9482V13.3231H1.4585V12.9482C1.4585 12.7788 1.59669 12.6406 1.76612 12.6406H1.94322H3.31291ZM1.94322 7.56956H1.76612C1.59675 7.56956 1.4585 7.43137 1.4585 7.26193V6.88703H3.79762V7.26193C3.79762 7.43131 3.65941 7.56956 3.49 7.56956H3.31291H1.94322ZM12.5112 12.6406H12.6883H14.058H14.2351C14.4045 12.6406 14.5427 12.7788 14.5427 12.9482V13.3231H12.2036V12.9482C12.2035 12.7788 12.3418 12.6406 12.5112 12.6406ZM12.6883 11.8906V8.31956H14.058V11.8906H12.6883ZM12.6883 7.56956H12.5112C12.3418 7.56956 12.2035 7.43137 12.2035 7.26193V6.88703H14.5427V7.26193C14.5427 7.43131 14.4044 7.56956 14.235 7.56956H14.0579H12.6883ZM10.961 6.88703V7.26193C10.961 7.43131 10.8228 7.56956 10.6534 7.56956H10.4763H9.10656H8.92947C8.76006 7.56956 8.62184 7.43137 8.62184 7.26193V6.88703H10.961ZM10.4763 8.31956V11.8906H9.10656V8.31956H10.4763ZM10.4763 12.6406H10.6534C10.8228 12.6406 10.961 12.7788 10.961 12.9482V13.3231H8.62184V12.9482C8.62184 12.7788 8.76003 12.6406 8.92947 12.6406H9.10656H10.4763ZM7.37931 6.88703V7.26193C7.37931 7.43131 7.24109 7.56956 7.07169 7.56956H6.89459H5.52487H5.34778C5.17837 7.56956 5.04016 7.43137 5.04016 7.26193V6.88703H7.37931ZM6.89459 8.31956V11.8906H5.52487V8.31956H6.89459ZM6.89459 12.6406H7.07169C7.24112 12.6406 7.37931 12.7788 7.37931 12.9482V13.3231H5.04019V12.9482C5.04019 12.7788 5.17837 12.6406 5.34781 12.6406H5.52491H6.89459Z" fill="#0D1B2A"/>
</g>
<defs>
<clipPath id="clip0_2024_191">
<rect width="16" height="16" fill="white"/>
</clipPath>
</defs>
</svg>
