<svg width="16" height="16" viewBox="0 0 16 16" fill="none" xmlns="http://www.w3.org/2000/svg">
<g clip-path="url(#clip0_2024_371)">
<path fill-rule="evenodd" clip-rule="evenodd" d="M2.79797 2.06412C2.71399 2.25095 2.52619 2.38118 2.30821 2.38118C2.01203 2.38118 1.77156 2.1407 1.77156 1.84452C1.77156 1.54833 2.01203 1.30786 2.30821 1.30786C2.52619 1.30786 2.71399 1.43808 2.79797 1.62491H4.24396C4.36525 1.62491 4.46357 1.72323 4.46357 1.84452V2.27272H4.80826V2.71194H4.24396C4.12268 2.71194 4.02436 2.61361 4.02436 2.49233V2.06412H2.79797ZM14.3902 2.06412C14.06 2.06412 13.2362 2.06412 13.2362 2.06412V2.49233C13.2362 2.61361 13.1378 2.71194 13.0165 2.71194H12.4611V2.27272H12.7969V1.84452C12.7969 1.72323 12.8953 1.62491 13.0165 1.62491H14.3902C14.4742 1.43812 14.662 1.30792 14.8799 1.30792C15.1761 1.30792 15.4166 1.54839 15.4166 1.84461C15.4166 2.1408 15.1761 2.38127 14.8799 2.38127C14.6619 2.38127 14.4741 2.25101 14.3902 2.06412ZM13.8317 4.24138H12.4611V3.80216H13.8317C13.9156 3.61534 14.1034 3.48511 14.3214 3.48511C14.6176 3.48511 14.8581 3.72558 14.8581 4.02177C14.8581 4.31799 14.6176 4.55846 14.3214 4.55846C14.1034 4.55846 13.9156 4.42823 13.8317 4.24138ZM2.7308 6.54234C2.63251 6.6677 2.4797 6.7483 2.30821 6.7483C2.01203 6.7483 1.77156 6.50783 1.77156 6.21164C1.77156 5.91545 2.01203 5.67498 2.30821 5.67498C2.56726 5.67498 2.7837 5.85889 2.83389 6.10318H4.02436V5.67498C4.02436 5.55369 4.12268 5.45537 4.24396 5.45537H4.85943C4.88575 5.60408 4.92183 5.75062 4.96669 5.89459H4.46357V6.32279C4.46357 6.44408 4.36525 6.5424 4.24396 6.5424H2.73582C2.73413 6.5424 2.73247 6.54237 2.7308 6.54234ZM3.19273 4.30325C3.09818 4.45634 2.92883 4.55846 2.73582 4.55846C2.43963 4.55846 2.19916 4.31799 2.19916 4.02177C2.19916 3.72558 2.43963 3.48511 2.73582 3.48511C2.97714 3.48511 3.18144 3.64474 3.24889 3.86403H4.80826V4.30325H3.19273ZM2.07669 10.8712C2.50012 11.8884 2.92396 12.9057 3.34743 13.9229C3.34784 13.9239 3.34825 13.9249 3.34865 13.9259C3.40811 14.0687 3.46752 14.2115 3.52698 14.3543C3.54693 14.4026 3.54702 14.4513 3.52785 14.4996C3.50734 14.5482 3.47251 14.5826 3.4242 14.6031L3.42392 14.6032L2.4652 15.0007C2.36883 15.0411 2.25761 14.9949 2.21777 14.8989L2.21771 14.8988C1.67659 13.5985 1.13472 12.2983 0.593611 10.9981L0.593329 10.9974C0.572937 10.9494 0.573282 10.9013 0.593015 10.8536C0.613062 10.8051 0.647572 10.7705 0.695635 10.7505L1.65523 10.3522C1.7516 10.3122 1.86282 10.3581 1.90323 10.4544C1.96102 10.5933 2.01883 10.7323 2.07669 10.8712ZM3.66417 13.5407C3.2973 12.6595 2.93021 11.7784 2.5634 10.8973C3.0418 10.6712 3.51951 10.4435 3.99502 10.211C4.53915 9.94478 4.96233 9.74623 5.46194 9.81374C5.79527 9.85879 6.15891 10.0219 6.61407 10.3449C6.63537 10.36 6.65915 10.3712 6.68437 10.378L8.4935 10.8626C8.82778 10.9521 9.02837 11.2992 8.93883 11.6334C8.84936 11.9676 8.50251 12.1682 8.16836 12.0781L8.16801 12.078L5.76368 11.4342C5.64657 11.4028 5.52603 11.4724 5.49466 11.5895C5.46332 11.7066 5.53294 11.8272 5.65005 11.8585L8.05438 12.5023C8.62169 12.6553 9.21115 12.3148 9.36318 11.7471C9.39383 11.6327 9.40447 11.5175 9.39725 11.4051L11.8822 10.6761C12.3079 10.5512 12.6392 10.5194 12.8905 10.558C13.0951 10.5895 13.2379 10.6677 13.3222 10.7816C13.4212 10.9154 13.4361 11.0906 13.399 11.2619C13.3374 11.5464 13.1319 11.8265 12.8455 11.937L9.10106 13.3799C8.81388 13.4904 8.47941 13.6281 8.13949 13.7153C7.83054 13.7944 7.51703 13.834 7.23687 13.7527L5.24186 13.1739C4.89761 13.0734 4.56701 13.1014 4.24384 13.2588L3.66417 13.5407ZM8.9912 8.6645C8.87003 8.71078 8.75079 8.74974 8.63468 8.78086C7.18624 8.39228 5.24748 6.78779 5.24748 4.87802V2.06042C5.24748 1.98033 5.30778 1.9131 5.3874 1.90447C6.27543 1.80235 7.05002 1.4075 7.64249 0.984375H9.62683C10.2193 1.4075 10.9939 1.80235 11.8819 1.90491C11.9613 1.91354 12.0214 1.98055 12.0214 2.06042C12.0219 2.50657 12.0219 3.85167 12.0219 3.85167C11.9144 3.67736 11.7217 3.56113 11.5019 3.56113H11.3111V2.73167C11.3111 2.62557 11.2352 2.53462 11.1308 2.51561C10.5336 2.40681 9.97218 2.15093 9.46931 1.81001C9.43295 1.78535 9.39 1.77217 9.34608 1.77217H7.92365C7.87973 1.77217 7.83681 1.78535 7.80048 1.80998C7.2972 2.15093 6.73573 2.40678 6.13852 2.51561C6.03411 2.53462 5.95825 2.62557 5.95825 2.73167V4.87721C5.95825 5.43112 6.17902 5.98067 6.53011 6.46409C7.0424 7.16944 7.83123 7.73233 8.56908 7.96326C8.61178 7.97663 8.65755 7.97663 8.70025 7.96326C8.71957 7.95721 8.7389 7.95096 8.75825 7.94447C8.68421 8.15856 8.73253 8.4059 8.90323 8.57656L8.90335 8.57672L8.9912 8.6645ZM8.76036 7.47636C8.71838 7.49292 8.67647 7.50836 8.63468 7.52263C7.99662 7.30475 7.32673 6.81355 6.8855 6.20599C6.59085 5.80028 6.39747 5.34205 6.39747 4.87721V2.91068C6.96556 2.78086 7.50244 2.53358 7.99035 2.21139C7.99032 2.21139 9.27938 2.21139 9.27938 2.21139C9.76691 2.53358 10.3038 2.78086 10.8719 2.91068V3.57082C10.5867 3.62218 10.3703 3.87165 10.3703 4.17154C10.3703 4.29412 10.2218 4.35554 10.1352 4.26889C9.89689 4.03062 9.51035 4.03062 9.27204 4.26889L8.90323 4.63774C8.66492 4.87605 8.66492 5.26259 8.90323 5.50089C8.98985 5.58751 8.92842 5.736 8.80585 5.736C8.46881 5.736 8.19546 6.00935 8.19546 6.34638V6.86764C8.19546 7.18936 8.44456 7.45308 8.76036 7.47636ZM13.6768 7.03881C13.1636 7.03881 12.9059 7.6607 13.2688 8.02372C13.3356 8.09051 13.3356 8.19918 13.2688 8.26601L12.9003 8.63454C12.8335 8.70133 12.7248 8.70133 12.658 8.63454C12.295 8.27156 11.6731 8.52925 11.6731 9.04248C11.6731 9.13729 11.5964 9.21365 11.5019 9.21365H10.9807C10.8862 9.21365 10.8095 9.13729 10.8095 9.04248C10.8095 8.52863 10.1879 8.27125 9.82461 8.63454C9.75781 8.70133 9.64942 8.70133 9.58263 8.63454L9.21378 8.26601C9.14696 8.19918 9.14696 8.09051 9.21378 8.02372C9.57676 7.6607 9.31938 7.03881 8.80585 7.03881C8.71132 7.03881 8.63468 6.96213 8.63468 6.86764V6.34638C8.63468 6.25186 8.71132 6.17521 8.80585 6.17521C9.31938 6.17521 9.57676 5.55328 9.21378 5.1903C9.14696 5.12348 9.14696 5.01512 9.21378 4.94833L9.58263 4.57948C9.64942 4.51266 9.75781 4.51266 9.82461 4.57948C10.1876 4.94246 10.8095 4.68508 10.8095 4.17154C10.8095 4.07702 10.8862 4.00034 10.9807 4.00034H11.5019C11.5964 4.00034 11.6731 4.07702 11.6731 4.17154C11.6731 4.68508 12.295 4.94246 12.658 4.57948C12.7248 4.51266 12.8335 4.51266 12.9003 4.57948L13.2688 4.94833C13.3356 5.01512 13.3356 5.12348 13.2688 5.1903C12.9059 5.55328 13.1636 6.17521 13.6768 6.17521C13.7716 6.17521 13.8479 6.25186 13.8479 6.34638V6.86764C13.8479 6.96213 13.7716 7.03881 13.6768 7.03881ZM11.2415 8.07921C12.052 8.07921 12.7135 7.41772 12.7135 6.60715C12.7135 5.79623 12.052 5.13509 11.2415 5.13509C10.4305 5.13509 9.76942 5.79623 9.76942 6.60715C9.76942 7.41772 10.4305 8.07921 11.2415 8.07921ZM11.2415 7.64C10.6725 7.64 10.2086 7.17587 10.2086 6.60715C10.2086 6.03818 10.6725 5.5743 11.2415 5.5743C11.8102 5.5743 12.2743 6.03818 12.2743 6.60715C12.2743 7.17587 11.8102 7.64 11.2415 7.64Z" fill="#0D1B2A"/>
</g>
<defs>
<clipPath id="clip0_2024_371">
<rect width="16" height="16" fill="white"/>
</clipPath>
</defs>
</svg>
