<svg width="20" height="20" viewBox="0 0 20 20" fill="none" xmlns="http://www.w3.org/2000/svg">
<g clip-path="url(#clip0_1_1265)">
<path d="M15.045 11.7913C14.6553 11.3855 14.1853 11.1686 13.6872 11.1686C13.193 11.1686 12.719 11.3815 12.3132 11.7872L11.0437 13.0527C10.9393 12.9965 10.8348 12.9442 10.7344 12.892C10.5898 12.8197 10.4532 12.7514 10.3367 12.6791C9.14754 11.9238 8.06687 10.9396 7.0304 9.66608C6.52823 9.03134 6.19077 8.49703 5.94571 7.95469C6.27513 7.65338 6.58045 7.34003 6.87774 7.03873C6.99022 6.92624 7.10271 6.80974 7.21519 6.69725C8.05884 5.85361 8.05884 4.76089 7.21519 3.91724L6.11846 2.8205C5.99392 2.69597 5.86536 2.56741 5.74484 2.43885C5.5038 2.18978 5.25071 1.93267 4.98958 1.69163C4.59989 1.30596 4.13388 1.10107 3.64376 1.10107C3.15364 1.10107 2.6796 1.30596 2.27786 1.69163C2.27384 1.69564 2.27384 1.69564 2.26983 1.69966L0.903923 3.07761C0.389701 3.59184 0.0964336 4.21854 0.0321558 4.94569C-0.0642608 6.11875 0.281232 7.21148 0.546378 7.92657C1.19719 9.68215 2.16939 11.3092 3.61966 13.0527C5.37926 15.1538 7.49641 16.813 9.91486 17.982C10.8389 18.4199 12.0722 18.9381 13.4501 19.0265C13.5345 19.0305 13.6229 19.0346 13.7032 19.0346C14.6312 19.0346 15.4106 18.7011 16.0212 18.0383C16.0253 18.0302 16.0333 18.0262 16.0373 18.0182C16.2462 17.7651 16.4873 17.5361 16.7404 17.291C16.9131 17.1263 17.0899 16.9536 17.2626 16.7728C17.6603 16.359 17.8692 15.8769 17.8692 15.3828C17.8692 14.8846 17.6563 14.4066 17.2506 14.0048L15.045 11.7913ZM16.4832 16.0215C16.4792 16.0215 16.4792 16.0256 16.4832 16.0215C16.3266 16.1903 16.1659 16.3429 15.9931 16.5117C15.732 16.7607 15.4669 17.0219 15.2178 17.3151C14.812 17.749 14.334 17.9539 13.7072 17.9539C13.647 17.9539 13.5827 17.9539 13.5224 17.9499C12.3293 17.8735 11.2205 17.4075 10.3889 17.0098C8.11508 15.9091 6.11846 14.3463 4.45929 12.3657C3.08937 10.7146 2.17341 9.18802 1.56679 7.54893C1.19317 6.54861 1.05658 5.76924 1.11684 5.03407C1.15702 4.56404 1.3378 4.17435 1.67124 3.84091L3.04116 2.47099C3.23801 2.28619 3.44691 2.18576 3.6518 2.18576C3.90489 2.18576 4.10978 2.33842 4.23833 2.46698C4.24235 2.47099 4.24637 2.47501 4.25038 2.47903C4.49544 2.70802 4.72845 2.94504 4.97351 3.19814C5.09805 3.32669 5.2266 3.45525 5.35516 3.58782L6.4519 4.68456C6.87774 5.1104 6.87774 5.5041 6.4519 5.92994C6.33539 6.04644 6.22291 6.16294 6.1064 6.27543C5.76894 6.62092 5.44756 6.94231 5.09805 7.25567C5.09001 7.2637 5.08198 7.26772 5.07796 7.27575C4.73247 7.62125 4.79674 7.9587 4.86906 8.18769C4.87307 8.19975 4.87709 8.2118 4.88111 8.22385C5.16634 8.91483 5.56808 9.56565 6.17872 10.341L6.18273 10.345C7.29152 11.7109 8.46058 12.7755 9.75015 13.591C9.91486 13.6955 10.0836 13.7799 10.2443 13.8602C10.3889 13.9325 10.5255 14.0008 10.642 14.0731C10.6581 14.0812 10.6741 14.0932 10.6902 14.1012C10.8268 14.1695 10.9554 14.2017 11.0879 14.2017C11.4214 14.2017 11.6303 13.9928 11.6986 13.9245L13.0725 12.5505C13.2091 12.414 13.426 12.2492 13.6791 12.2492C13.9282 12.2492 14.1331 12.4059 14.2576 12.5425C14.2616 12.5465 14.2616 12.5465 14.2657 12.5505L16.4792 14.7641C16.893 15.1739 16.893 15.5957 16.4832 16.0215Z" fill="#0D1B2A"/>
<path d="M10.2902 4.52803C11.3427 4.70479 12.2988 5.20294 13.0621 5.96624C13.8254 6.72954 14.3196 7.68567 14.5004 8.73822C14.5445 9.00336 14.7735 9.18816 15.0347 9.18816C15.0668 9.18816 15.0949 9.18414 15.1271 9.18013C15.4244 9.13192 15.6212 8.8507 15.573 8.55342C15.3561 7.27992 14.7535 6.1189 13.8335 5.19893C12.9135 4.27895 11.7525 3.67635 10.479 3.45941C10.1817 3.4112 9.9045 3.60805 9.85228 3.90132C9.80005 4.19459 9.99288 4.47982 10.2902 4.52803Z" fill="#0D1B2A"/>
<path d="M19.0143 8.39651C18.6567 6.29945 17.6685 4.39121 16.1499 2.87265C14.6313 1.35408 12.7231 0.365813 10.626 0.00826832C10.3328 -0.0439573 10.0556 0.156911 10.0034 0.450178C9.95514 0.747462 10.152 1.02466 10.4493 1.07689C12.3214 1.39426 14.0287 2.28209 15.3866 3.63594C16.7445 4.99381 17.6283 6.70119 17.9457 8.57328C17.9899 8.83842 18.2188 9.02322 18.48 9.02322C18.5121 9.02322 18.5402 9.01921 18.5724 9.01519C18.8656 8.971 19.0665 8.68978 19.0143 8.39651Z" fill="#0D1B2A"/>
</g>
<defs>
<clipPath id="clip0_1_1265">
<rect width="19.0345" height="19.0345" fill="white"/>
</clipPath>
</defs>
</svg>
