<svg width="38" height="32" viewBox="0 0 38 32" fill="none" xmlns="http://www.w3.org/2000/svg">
<path d="M3.96277 14.3486C6.75076 19.7642 12.3966 23.4697 18.9091 23.4697C25.4196 23.4697 31.0647 19.7647 33.8544 14.3496L37.3925 17.8887C37.9561 18.4523 37.9561 19.366 37.3925 19.9297L25.7059 31.6162C25.1957 32.128 24.3661 32.128 23.8544 31.6162L19.8329 27.5957C19.3227 27.0842 18.494 27.0842 17.9823 27.5957L13.9608 31.6162C13.4506 32.128 12.621 32.128 12.1093 31.6162L0.422729 19.9297C-0.140874 19.366 -0.140944 18.4523 0.422729 17.8887L3.96277 14.3486ZM17.8885 0.422852C18.4522 -0.140787 19.3659 -0.140742 19.9296 0.422852L29.996 10.4912C28.4099 15.0904 24.0477 18.3955 18.9091 18.3955C13.77 18.3955 9.40689 15.09 7.82117 10.4902L17.8885 0.422852Z" fill="url(#paint0_linear_1_864)"/>
<path d="M22.3822 31.9998L19.3956 29.0132C19.1267 28.7443 18.6898 28.7443 18.4209 29.0132L15.4343 31.9998H22.3822Z" fill="url(#paint1_linear_1_864)"/>
<defs>
<linearGradient id="paint0_linear_1_864" x1="-0.00012207" y1="15.9999" x2="37.8151" y2="15.9999" gradientUnits="userSpaceOnUse">
<stop stop-color="#0136FF"/>
<stop offset="1" stop-color="#55D7EA"/>
</linearGradient>
<linearGradient id="paint1_linear_1_864" x1="15.4343" y1="30.4056" x2="22.3822" y2="30.4056" gradientUnits="userSpaceOnUse">
<stop stop-color="#0136FF"/>
<stop offset="1" stop-color="#55D7EA"/>
</linearGradient>
</defs>
</svg>
