<svg width="28" height="28" viewBox="0 0 28 28" fill="none" xmlns="http://www.w3.org/2000/svg">
<path d="M14 21.1094C10.0799 21.1094 6.89062 17.9202 6.89062 14C6.89062 10.0799 10.0799 6.89062 14 6.89062C17.9202 6.89062 21.1094 10.0799 21.1094 14C21.1094 17.9201 17.9202 21.1094 14 21.1094ZM14 7.98438C10.683 7.98438 7.98438 10.683 7.98438 14C7.98438 17.317 10.683 20.0156 14 20.0156C17.317 20.0156 20.0156 17.317 20.0156 14C20.0156 10.683 17.317 7.98438 14 7.98438Z" fill="#0136FF"/>
<path d="M7.32031 19.9014L8.96891 18.2528L9.74223 19.0261L8.09363 20.6747L7.32031 19.9014Z" fill="#0136FF"/>
<path d="M3.06172 26.5773C2.64156 26.5773 2.2215 26.4174 1.90163 26.0976C1.26196 25.4579 1.26196 24.4171 1.90163 23.7773L6.93677 18.7422L9.25694 21.0625L4.22181 26.0976C3.90199 26.4174 3.48183 26.5773 3.06172 26.5773ZM2.67503 25.3242C2.88825 25.5374 3.23524 25.5373 3.44842 25.3242L7.71016 21.0624L6.93677 20.289L2.67503 24.5508C2.4618 24.764 2.4618 25.1109 2.67503 25.3242Z" fill="#0136FF"/>
<path d="M14 16.7344C12.4923 16.7344 11.2656 15.5077 11.2656 14C11.2656 12.4923 12.4923 11.2656 14 11.2656C15.5077 11.2656 16.7344 12.4923 16.7344 14C16.7344 15.5077 15.5077 16.7344 14 16.7344ZM14 12.3594C13.0954 12.3594 12.3594 13.0954 12.3594 14C12.3594 14.9046 13.0954 15.6406 14 15.6406C14.9046 15.6406 15.6406 14.9046 15.6406 14C15.6406 13.0954 14.9046 12.3594 14 12.3594Z" fill="#0136FF"/>
<path d="M13.4531 13.4531H14.5469V14.5469H13.4531V13.4531Z" fill="#0136FF"/>
<path d="M14 26.5781C11.062 26.5781 8.20345 25.5437 5.95088 23.6655L6.65137 22.8254C8.70767 24.54 11.3175 25.4844 14 25.4844C20.3325 25.4844 25.4844 20.3325 25.4844 14C25.4844 7.66752 20.3325 2.51562 14 2.51562C7.66752 2.51562 2.51562 7.66746 2.51562 14C2.51562 16.6825 3.45991 19.2923 5.17453 21.3487L4.33448 22.0492C2.45629 19.7965 1.42188 16.9379 1.42188 14C1.42188 10.6403 2.73022 7.48169 5.10595 5.10595C7.48169 2.73022 10.6403 1.42188 14 1.42188C17.3597 1.42188 20.5183 2.73022 22.894 5.10595C25.2697 7.48169 26.5781 10.6403 26.5781 14C26.5781 17.3597 25.2697 20.5183 22.894 22.894C20.5183 25.2697 17.3597 26.5781 14 26.5781Z" fill="#0136FF"/>
<path d="M24.8868 26.7899C23.7118 26.7899 22.0434 26.1204 19.8989 24.7851C18.3073 23.7941 16.5026 22.4501 14.6797 20.8982L15.3887 20.0654C17.171 21.5827 18.9305 22.8937 20.477 23.8566C23.5173 25.7496 25.0882 25.9295 25.5095 25.508C25.9309 25.0867 25.7512 23.5159 23.8581 20.4756L24.7866 19.8975C26.7931 23.12 27.2965 25.2679 26.283 26.2815C25.9439 26.6205 25.4776 26.7899 24.8868 26.7899Z" fill="#0136FF"/>
<path d="M7.10265 13.3221C5.55073 11.4992 4.20667 9.69438 3.21574 8.10286C1.2092 4.88035 0.705798 2.73244 1.71938 1.71886C2.73301 0.70534 4.88086 1.20868 8.10343 3.21522L7.52533 4.14371C4.48487 2.25059 2.91408 2.07089 2.49277 2.49225C2.0714 2.91357 2.2511 4.48441 4.14417 7.52476C5.10699 9.07111 6.41802 10.8306 7.93543 12.6131L7.10265 13.3221Z" fill="#0136FF"/>
</svg>
