<svg width="28" height="28" viewBox="0 0 28 28" fill="none" xmlns="http://www.w3.org/2000/svg">
<g clip-path="url(#clip0_1_1293)">
<path fill-rule="evenodd" clip-rule="evenodd" d="M15.9179 23.0036H7.39033C7.14778 23.0036 6.95112 22.807 6.95112 22.5644V5.43553C6.95112 5.19298 7.14778 4.99632 7.39033 4.99632H18.4658C18.5811 4.99632 18.6932 5.04178 18.7763 5.12495L20.9172 7.26585C21.0004 7.34903 21.0459 7.46103 21.0459 7.57643V15.2638C22.7623 15.9733 23.9698 17.6638 23.9698 19.6367C23.9698 20.5108 23.7328 21.3295 23.3194 22.032L24.1543 22.8426C24.4415 22.7429 24.7748 22.8042 25.0064 23.0284L25.0068 23.0288L27.3628 25.3153C27.6897 25.6318 27.6993 26.1585 27.3801 26.488L27.3798 26.4883L26.5297 27.3641L26.5292 27.3646C26.213 27.6907 25.6872 27.7 25.3582 27.3839C25.3577 27.3834 25.3571 27.3828 25.3566 27.3823L23.0018 25.0959C22.7686 24.8709 22.6968 24.5394 22.7882 24.2491L21.9965 23.4808C21.2204 24.0383 20.2686 24.3665 19.24 24.3665C17.9452 24.3665 16.7719 23.8464 15.9179 23.0036ZM18.0265 5.87475C16.4196 5.87475 7.82955 5.87475 7.82955 5.87475V22.1252H15.2168C14.7688 21.4023 14.5101 20.5497 14.5101 19.6367C14.5101 17.0242 16.6275 14.9068 19.24 14.9068C19.5574 14.9068 19.8675 14.9381 20.1674 14.9977V8.01565H18.4658C18.2232 8.01565 18.0265 7.81899 18.0265 7.57643V5.87475ZM19.5463 7.13722L18.905 6.49591V7.13722H19.5463ZM22.7996 22.7516C22.7547 22.8028 22.7087 22.8531 22.6617 22.9023L23.3376 23.5582L23.4796 23.4119L22.7996 22.7516ZM19.24 15.7853C17.1127 15.7853 15.3886 17.5094 15.3886 19.6367C15.3886 21.7639 17.1127 23.4881 19.24 23.4881C21.3672 23.4881 23.0914 21.7639 23.0914 19.6367C23.0914 17.5094 21.3672 15.7853 19.24 15.7853ZM19.24 16.1418C21.1702 16.1418 22.7348 17.7064 22.7348 19.6367C22.7348 21.5669 21.1702 23.1315 19.24 23.1315C17.3097 23.1315 15.7451 21.5669 15.7451 19.6367C15.7451 17.7064 17.3097 16.1418 19.24 16.1418ZM19.24 17.0202C17.7949 17.0202 16.6236 18.1916 16.6236 19.6367C16.6236 21.0817 17.7949 22.2531 19.24 22.2531C20.685 22.2531 21.8564 21.0817 21.8564 19.6367C21.8564 18.1916 20.685 17.0202 19.24 17.0202ZM23.6483 24.4992C23.9185 24.7616 25.6674 26.4597 25.933 26.7176L26.7157 25.9113L24.4304 23.6935L23.6483 24.4992ZM10.0877 18.0908C9.84528 18.0908 9.64851 17.894 9.64851 17.6516C9.64851 17.4092 9.84528 17.2124 10.0877 17.2124H13.9985C14.2409 17.2124 14.4377 17.4092 14.4377 17.6516C14.4377 17.894 14.2409 18.0908 13.9985 18.0908H10.0877ZM10.0877 11.1759C9.84528 11.1759 9.64851 10.979 9.64851 10.7366C9.64851 10.4942 9.84528 10.2974 10.0877 10.2974H17.911C18.1534 10.2974 18.3502 10.4942 18.3502 10.7366C18.3502 10.979 18.1534 11.1759 17.911 11.1759H10.0877ZM10.0877 8.87025C9.84528 8.87025 9.64851 8.67348 9.64851 8.43104C9.64851 8.18865 9.84528 7.99182 10.0877 7.99182H15.7025C15.9449 7.99182 16.1418 8.18865 16.1418 8.43104C16.1418 8.67348 15.9449 8.87025 15.7025 8.87025H10.0877ZM10.0877 13.4797C9.84528 13.4797 9.64851 13.2829 9.64851 13.0404C9.64851 12.798 9.84528 12.6012 10.0877 12.6012H17.911C18.1534 12.6012 18.3502 12.798 18.3502 13.0404C18.3502 13.2829 18.1534 13.4797 17.911 13.4797H10.0877ZM10.0877 15.7853C9.84528 15.7853 9.64851 15.5884 9.64851 15.3461C9.64851 15.1036 9.84528 14.9068 10.0877 14.9068H15.8681C16.1105 14.9068 16.3073 15.1036 16.3073 15.3461C16.3073 15.5884 16.1105 15.7853 15.8681 15.7853H10.0877ZM10.0877 20.3964C9.84528 20.3964 9.64851 20.1996 9.64851 19.9572C9.64851 19.7148 9.84528 19.5179 10.0877 19.5179H13.5482C13.7906 19.5179 13.9874 19.7148 13.9874 19.9572C13.9874 20.1996 13.7906 20.3964 13.5482 20.3964H10.0877ZM1.1387 9.51876L1.11806 9.53336C0.920083 9.67319 0.645793 9.62598 0.505903 9.428C0.366067 9.22997 0.413283 8.95568 0.61126 8.81585L1.87115 7.926C1.93753 7.87905 2.01428 7.85237 2.09268 7.84666C2.16455 7.84134 2.23866 7.85369 2.3085 7.88592C2.3108 7.88696 2.31772 7.89025 2.31888 7.89086C2.39129 7.92654 2.44954 7.97969 2.49105 8.04272C2.5303 8.10218 2.55517 8.17124 2.56193 8.24465L2.70264 9.78064C2.72477 10.022 2.54672 10.236 2.30531 10.2581C2.13149 10.274 1.97195 10.1862 1.88795 10.0457C1.48118 11.2907 1.26124 12.6198 1.26124 14C1.26124 21.0298 6.96863 26.7372 13.9985 26.7372C15.9773 26.7372 17.8514 26.2851 19.5228 25.4784C19.7411 25.373 20.0039 25.4647 20.1093 25.683C20.2147 25.9013 20.123 26.1641 19.9046 26.2695C18.1177 27.132 16.1141 27.6157 13.9985 27.6157C6.48379 27.6157 0.382812 21.5147 0.382812 14C0.382812 12.4303 0.649087 10.9223 1.1387 9.51876ZM26.8618 18.4712L26.8739 18.4626C27.0713 18.3219 27.3458 18.368 27.4864 18.5654C27.6271 18.7629 27.581 19.0373 27.3835 19.178L26.1273 20.0729C26.0604 20.1207 25.9827 20.1477 25.9035 20.1533C25.8324 20.1584 25.7592 20.1463 25.6901 20.1148C25.6872 20.1135 25.6789 20.1095 25.6776 20.1088C25.6052 20.0729 25.5469 20.0197 25.5055 19.9566C25.4668 19.8978 25.4422 19.8295 25.4352 19.757L25.2884 18.2216C25.2653 17.9803 25.4424 17.7656 25.6837 17.7426C25.8608 17.7256 26.0235 17.8165 26.1067 17.9614C26.515 16.7144 26.7358 15.3827 26.7358 14C26.7358 6.9701 21.0284 1.26271 13.9985 1.26271C12.0197 1.26271 10.1456 1.71483 8.47415 2.52156C8.25586 2.62691 7.9931 2.53523 7.88769 2.31688C7.78233 2.09859 7.87402 1.83583 8.09237 1.73042C9.87931 0.867964 11.8829 0.384277 13.9985 0.384277C21.5132 0.384277 27.6142 6.48526 27.6142 14C27.6142 15.5659 27.3492 17.0704 26.8618 18.4712Z" fill="#0136FF"/>
</g>
<defs>
<clipPath id="clip0_1_1293">
<rect width="28" height="28" fill="white"/>
</clipPath>
</defs>
</svg>
