<svg width="28" height="28" viewBox="0 0 28 28" fill="none" xmlns="http://www.w3.org/2000/svg">
<g clip-path="url(#clip0_1_1305)">
<path d="M21.6157 12.6453L24.6497 14.0869C24.8379 14.1763 25.0631 14.1206 25.1879 13.9536L27.4754 10.8931C27.6088 10.7147 27.5868 10.4646 27.4244 10.3122C26.9382 9.85587 26.5029 9.56734 26.0819 9.28827C25.6569 9.00663 25.2536 8.73926 24.8272 8.31045C24.751 6.3609 23.4154 4.68216 21.5494 4.15934V0.901718C21.5494 0.683297 21.3883 0.498344 21.1719 0.468375C20.0736 0.316234 18.9715 0.7335 18.248 1.56251C15.7543 1.83004 13.5703 2.91203 11.9226 4.69971C10.3914 6.36084 9.42654 8.50312 9.11755 10.9157H8.11021C7.5927 10.9157 7.18632 11.2891 7.0496 11.8901L6.78355 13.0602C6.44208 13.1694 6.10952 13.3074 5.7902 13.4721L4.77427 12.8327C4.25245 12.5043 3.7012 12.5277 3.33523 12.8935L2.41533 13.8134C2.04947 14.1794 2.02612 14.7308 2.35446 15.2525L2.99381 16.2682C2.82893 16.5877 2.69106 16.9202 2.5818 17.2618L1.41192 17.5278C0.810906 17.6645 0.4375 18.071 0.4375 18.5885V19.8894C0.4375 20.407 0.810906 20.8134 1.41192 20.95L2.58163 21.216C2.69095 21.5578 2.82888 21.8905 2.99365 22.2099L2.35446 23.2254C2.02612 23.7471 2.04947 24.2985 2.41533 24.6644L3.33523 25.5842C3.70114 25.9502 4.2525 25.9735 4.77427 25.6451L5.7902 25.0057C6.10958 25.1706 6.44213 25.3084 6.78355 25.4176L7.0496 26.5877C7.18632 27.1887 7.5927 27.5621 8.11021 27.5621H9.41117C9.92868 27.5621 10.3351 27.1887 10.4718 26.5877L10.7378 25.418C11.0796 25.3086 11.4123 25.1707 11.7316 25.006L12.7471 25.6451C13.2687 25.9736 13.8201 25.9503 14.1862 25.5843L15.1061 24.6644C15.1399 24.6306 15.1697 24.5947 15.1977 24.558H26.9003C27.1419 24.558 27.3378 24.3621 27.3378 24.1205V22.4454C27.3378 21.2805 26.3901 20.3328 25.2252 20.3328H25.1645C25.4341 18.1037 23.5395 16.6675 21.9944 15.4965C20.9335 14.6925 19.9278 13.9302 19.8096 13.1179C20.2813 12.6522 20.97 12.4687 21.6157 12.6452L21.6157 12.6453ZM17.6631 2.52966C17.4161 3.16649 17.3715 3.87087 17.543 4.53898C16.3699 4.99076 15.286 5.6843 14.3867 6.56138C13.3833 7.54023 12.6026 8.75506 12.1291 10.0745C11.7272 11.1945 11.604 12.2787 11.7457 13.4629L11.7311 13.4721C11.4117 13.3073 11.0793 13.1694 10.7378 13.0602L10.4717 11.8901C10.3907 11.534 10.2146 11.2588 9.97724 11.0928C10.5299 6.60125 13.5446 3.27149 17.6631 2.5296L17.6631 2.52966ZM13.5674 24.9656C13.4729 25.0603 13.2559 24.9316 13.2133 24.9047L11.9812 24.1292C11.8447 24.0433 11.672 24.0395 11.5317 24.1192C11.1287 24.3486 10.6981 24.5272 10.2519 24.6498C10.0964 24.6926 9.97708 24.8174 9.94126 24.9746L9.61855 26.3936C9.60739 26.4426 9.54499 26.6871 9.41117 26.6871H8.11021C7.97639 26.6871 7.91399 26.4426 7.90284 26.3936L7.58007 24.9743C7.5443 24.8171 7.42492 24.6923 7.26944 24.6495C6.82391 24.527 6.39341 24.3485 5.98998 24.119C5.92282 24.0807 5.84817 24.0617 5.77363 24.0617C5.69264 24.0617 5.6117 24.0842 5.54056 24.1289L4.30812 24.9047C4.26562 24.9315 4.04868 25.0603 3.95391 24.9655L3.03401 24.0456C2.9394 23.951 3.06813 23.734 3.09487 23.6915L3.8704 22.4594C3.95631 22.3229 3.9602 22.1502 3.88035 22.0099C3.65099 21.6069 3.47244 21.1763 3.34977 20.7301C3.30701 20.5746 3.18221 20.4553 3.02498 20.4195L1.6059 20.0968C1.5569 20.0856 1.3125 20.0233 1.3125 19.8894V18.5885C1.3125 18.4546 1.55701 18.3922 1.60601 18.381L3.02515 18.0583C3.18237 18.0225 3.30717 17.9031 3.34994 17.7477C3.47244 17.3021 3.65099 16.8716 3.88057 16.4682C3.96036 16.328 3.95653 16.1553 3.87056 16.0187L3.09487 14.7864C3.06813 14.7439 2.93929 14.5268 3.03401 14.4322L3.95391 13.5123C4.04852 13.4177 4.26557 13.5464 4.30812 13.5731L5.54056 14.3489C5.67716 14.4349 5.84992 14.4387 5.98998 14.3589C6.3933 14.1294 6.82374 13.9509 7.26944 13.8284C7.42492 13.7857 7.54425 13.6609 7.58007 13.5036L7.90284 12.0843C7.91399 12.0353 7.97639 11.7908 8.11021 11.7908H9.41117C9.54499 11.7908 9.60739 12.0353 9.61855 12.0843L9.94137 13.5036C9.97713 13.6609 10.0965 13.7857 10.252 13.8284C10.6975 13.9509 11.128 14.1294 11.5314 14.3589C11.6716 14.4386 11.8442 14.4349 11.9808 14.3489L12.4449 14.0568C12.4461 14.0561 12.4472 14.0554 12.4483 14.0547L13.2133 13.5732C13.2559 13.5465 13.473 13.4177 13.5675 13.5123L14.4874 14.4322C14.582 14.5268 14.4532 14.7439 14.4265 14.7864L13.651 16.0184C13.5651 16.155 13.5612 16.3277 13.641 16.4679C13.8704 16.871 14.0489 17.3015 14.1716 17.7478C14.2144 17.9032 14.3392 18.0226 14.4964 18.0584L15.9154 18.3811C15.9644 18.3923 16.2089 18.4547 16.2089 18.5885V19.8894C16.2089 20.0233 15.9644 20.0857 15.9154 20.0968L14.4961 20.4196C14.3388 20.4554 14.214 20.5748 14.1713 20.7303C14.0488 21.1757 13.8703 21.6062 13.6408 22.0097C13.561 22.1498 13.5648 22.3226 13.6508 22.4591L14.4265 23.6916C14.4532 23.7341 14.582 23.9511 14.4874 24.0457L13.5675 24.9657L13.5674 24.9656ZM26.4628 22.4454V23.683H15.3636C15.3274 23.5315 15.2625 23.3772 15.167 23.2254L14.5276 22.2094C14.6924 21.89 14.8303 21.5575 14.9395 21.2162L14.9761 21.2078H24.6333C24.6338 21.2078 24.6344 21.208 24.6349 21.208C24.6354 21.208 24.6358 21.2078 24.6362 21.2078H25.2252C25.9077 21.2078 26.4628 21.763 26.4628 22.4454L26.4628 22.4454ZM19.0347 12.6679C19.0336 12.6691 19.0326 12.6703 19.0315 12.6716C19.0298 12.6736 19.028 12.6755 19.0263 12.6775C19.0214 12.6833 19.017 12.6894 19.0124 12.6955C19.0101 12.6986 19.0075 12.7014 19.0052 12.7045C18.6623 13.1819 18.1064 13.4669 17.5185 13.4669C16.9306 13.4669 16.3748 13.1819 16.0318 12.7045C15.8909 12.5083 15.6176 12.4635 15.4212 12.6045C15.225 12.7454 15.1802 13.0188 15.3212 13.215C15.8281 13.9207 16.6496 14.3419 17.5185 14.3419C18.0971 14.3419 18.654 14.1543 19.1116 13.8212C19.5056 14.7074 20.4641 15.4346 21.466 16.1939C22.9871 17.3466 24.5568 18.5366 24.2803 20.3328H16.981C17.0481 20.1987 17.084 20.0495 17.084 19.8894V18.5885C17.084 18.071 16.7106 17.6646 16.1095 17.5279L14.9398 17.2619C14.8305 16.92 14.6926 16.5874 14.5278 16.268L15.167 15.2525C15.4953 14.7308 15.472 14.1794 15.1061 13.8135L14.1862 12.8936C13.8204 12.5277 13.269 12.5043 12.7472 12.8327L12.577 12.9399C12.524 12.0544 12.6465 11.2236 12.9527 10.3701C13.8329 7.91774 15.7564 6.04147 18.2299 5.22236C18.3452 5.18413 18.4395 5.0997 18.4902 4.98917C18.5408 4.8787 18.5432 4.75216 18.4967 4.63983C18.168 3.84467 18.2907 2.92789 18.817 2.2473C19.2654 1.66729 19.9534 1.32773 20.6744 1.31297V4.50502C20.6744 4.71442 20.8228 4.89445 21.0283 4.93448C22.7263 5.26512 23.9574 6.76066 23.9556 8.49043C23.9555 8.60183 23.9979 8.70907 24.0741 8.79028C24.6134 9.36477 25.1143 9.69667 25.5985 10.0176C25.9132 10.2262 26.2144 10.4258 26.5336 10.6918L24.7016 13.1427L21.9582 11.8392C21.9372 11.8292 21.9155 11.8209 21.8932 11.8144C20.8558 11.5111 19.7355 11.8461 19.0347 12.6679ZM21.4956 7.70588C21.4956 7.94749 21.2997 8.14338 21.0581 8.14338H20.7385C20.4969 8.14338 20.301 7.94749 20.301 7.70588C20.301 7.46427 20.4969 7.26838 20.7385 7.26838H21.0581C21.2997 7.26838 21.4956 7.46427 21.4956 7.70588ZM14.4203 19.239C14.4203 18.9974 14.2244 18.8015 13.9828 18.8015H13.0759C12.8703 16.7586 11.2411 15.1294 9.19822 14.9239V14.0169C9.19822 13.7753 9.00233 13.5794 8.76072 13.5794C8.51911 13.5794 8.32322 13.7753 8.32322 14.0169V14.9239C6.28031 15.1294 4.65117 16.7586 4.4456 18.8015H3.53866C3.29705 18.8015 3.10116 18.9974 3.10116 19.239C3.10116 19.4806 3.29705 19.6765 3.53866 19.6765H4.4456C4.65117 21.7194 6.28031 23.3485 8.32322 23.5541V24.461C8.32322 24.7026 8.51911 24.8985 8.76072 24.8985C9.00233 24.8985 9.19822 24.7026 9.19822 24.461V23.5541C11.2411 23.3485 12.8703 21.7194 13.0759 19.6765H13.9828C14.2244 19.6765 14.4203 19.4806 14.4203 19.239ZM8.76072 22.7011C6.85169 22.7011 5.29856 21.1481 5.29856 19.239C5.29856 17.3299 6.85163 15.7768 8.76072 15.7768C10.6698 15.7768 12.2229 17.3299 12.2229 19.239C12.2229 21.1481 10.6698 22.7011 8.76072 22.7011ZM8.76072 17.3281C7.70705 17.3281 6.84988 18.1854 6.84988 19.239C6.84988 20.2926 7.70711 21.1498 8.76072 21.1498C9.81433 21.1498 10.6716 20.2926 10.6716 19.239C10.6716 18.1854 9.81433 17.3281 8.76072 17.3281ZM8.76072 20.2749C8.18956 20.2749 7.72488 19.8102 7.72488 19.239C7.72488 18.6679 8.18956 18.2032 8.76072 18.2032C9.33187 18.2032 9.79655 18.6679 9.79655 19.239C9.79655 19.8102 9.33187 20.2749 8.76072 20.2749Z" fill="#0136FF"/>
</g>
<defs>
<clipPath id="clip0_1_1305">
<rect width="28" height="28" fill="white"/>
</clipPath>
</defs>
</svg>
