<svg width="28" height="28" viewBox="0 0 28 28" fill="none" xmlns="http://www.w3.org/2000/svg">
<g clip-path="url(#clip0_1_1316)">
<path d="M13.9998 12.3593C15.5075 12.3593 16.7342 11.1327 16.7342 9.62496C16.7342 8.11725 15.5075 6.89062 13.9998 6.89062C12.4921 6.89062 11.2655 8.11725 11.2655 9.62496C11.2655 11.1327 12.4921 12.3593 13.9998 12.3593ZM13.9998 7.98436C14.9045 7.98436 15.6404 8.72033 15.6404 9.62496C15.6404 10.5296 14.9045 11.2656 13.9998 11.2656C13.0952 11.2656 12.3592 10.5296 12.3592 9.62496C12.3592 8.72033 13.0952 7.98436 13.9998 7.98436Z" fill="#0136FF"/>
<path d="M9.99278 24.6509C9.72504 23.4892 8.71514 22.6081 7.49125 22.5357C6.77743 21.0603 5.1097 20.1391 3.38472 20.3827C1.58165 20.6372 0 22.4076 0 24.1715C0 26.1527 1.72613 27.9996 3.93744 27.9996H11.5389C11.8409 27.9996 12.0857 27.7547 12.0857 27.4527C12.0857 27.1506 11.8409 26.9058 11.5389 26.9058H3.93744C2.42256 26.9058 1.09373 25.6281 1.09373 24.1715C1.09373 22.9579 2.28142 21.643 3.53757 21.4657C4.64826 21.3087 5.75725 21.8285 6.33933 22.7167C5.98759 22.8532 5.66461 23.0617 5.39445 23.3323C5.18107 23.546 5.18134 23.8923 5.39506 24.1058C5.5018 24.2123 5.64164 24.2656 5.78142 24.2656C5.92153 24.2656 6.06158 24.2121 6.16838 24.1051C6.44422 23.8289 6.80477 23.6431 7.32796 23.6247C8.23258 23.6247 8.96856 24.3606 8.96856 25.2653C8.96856 25.5673 9.21344 25.8121 9.51542 25.8121C11.0569 25.8121 12.3591 24.56 12.3591 23.0778V21.1091H15.6403V23.0778C15.6403 24.56 16.9426 25.8121 18.484 25.8121C18.786 25.8121 19.0309 25.5673 19.0309 25.2653C19.0309 24.3606 19.7669 23.6247 20.6705 23.6247C21.1636 23.64 21.54 23.8136 21.8311 24.1051C22.0436 24.318 22.3898 24.32 22.6045 24.1058C22.8182 23.8924 22.8184 23.5461 22.6051 23.3323C22.3349 23.0617 22.0119 22.8532 21.6601 22.7167C22.2421 21.8286 23.3509 21.3089 24.462 21.4657C25.7418 21.6462 26.9295 22.9826 26.9059 24.2156C26.8775 25.6738 25.5752 26.9058 24.0621 26.9058H16.4607C16.1587 26.9058 15.9138 27.1506 15.9138 27.4527C15.9138 27.7547 16.1587 27.9996 16.4607 27.9996H24.0621C26.1568 27.9996 27.9598 26.2764 27.9995 24.2366C28.0337 22.4427 26.4522 20.6418 24.6149 20.3827C22.8891 20.1391 21.2219 21.0607 20.5083 22.5357C19.2844 22.608 18.2745 23.4892 18.0068 24.6509C17.2896 24.4454 16.7341 23.798 16.7341 23.0778V21.109H17.281C17.5551 21.109 17.7868 20.9061 17.823 20.6344L18.0515 18.9216H20.4583C21.4202 18.9216 22.2028 18.139 22.2028 17.1771C22.2028 16.7612 22.0537 16.3581 21.7829 16.0419L18.8861 12.6623L19.1677 10.5501C19.7244 6.37213 17.6916 2.12484 14.2812 0.0779695C14.108 -0.0259898 13.8916 -0.0259898 13.7183 0.0779695C10.3071 2.12527 8.27529 6.373 8.83178 10.5503L9.11342 12.6624L6.21645 16.0421C5.94586 16.3581 5.79678 16.7612 5.79678 17.1771C5.79678 18.139 6.5794 18.9216 7.54129 18.9216H9.9481L10.1765 20.6344C10.2127 20.9061 10.4444 21.109 10.7186 21.109H11.2654V23.0778C11.2654 23.798 10.7099 24.4454 9.99278 24.6509ZM20.9524 16.7535C21.0534 16.8715 21.109 17.0219 21.109 17.1771C21.109 17.536 20.8171 17.8279 20.4583 17.8279H18.1973L18.6922 14.1167L20.9524 16.7535ZM13.9998 1.19265C14.8328 1.74022 15.58 2.44984 16.203 3.28119H11.7966C12.4196 2.44984 13.1667 1.74022 13.9998 1.19265ZM11.0887 4.37492H16.9109C17.9405 6.22562 18.3568 8.35496 18.0837 10.4057L17.0937 17.8278H10.9057L9.91595 10.4058C9.64273 8.35501 10.0591 6.22573 11.0887 4.37492ZM7.54129 17.8278C7.18243 17.8278 6.89052 17.5359 6.89052 17.1771C6.89052 17.0219 6.94619 16.8715 7.04703 16.7537L9.30739 14.1167L9.80225 17.8278H7.54129ZM11.0516 18.9216H16.9479L16.8022 20.0153H11.1974L11.0516 18.9216Z" fill="#0136FF"/>
<path d="M13.9998 27.9995C14.3018 27.9995 14.5466 27.7547 14.5466 27.4526C14.5466 27.1506 14.3018 26.9058 13.9998 26.9058C13.6977 26.9058 13.4529 27.1506 13.4529 27.4526C13.4529 27.7547 13.6977 27.9995 13.9998 27.9995Z" fill="#0136FF"/>
</g>
<defs>
<clipPath id="clip0_1_1316">
<rect width="28" height="28" fill="white"/>
</clipPath>
</defs>
</svg>
