<svg width="20" height="20" viewBox="0 0 20 20" fill="none" xmlns="http://www.w3.org/2000/svg">
<mask id="mask0_1_1551" style="mask-type:luminance" maskUnits="userSpaceOnUse" x="0" y="0" width="20" height="20">
<path d="M20 0H0V20H20V0Z" fill="white"/>
</mask>
<g mask="url(#mask0_1_1551)">
<path fill-rule="evenodd" clip-rule="evenodd" d="M10.0387 9.18532C9.62415 4.0435 5.32 0 0.071429 0C0.071429 5.22424 4.07753 9.51281 9.18532 9.96128C4.0435 10.3758 2.29422e-07 14.68 0 19.9286C5.22424 19.9286 9.51281 15.9225 9.96128 10.8147C10.3758 15.9565 14.68 20 19.9286 20C19.9286 14.7758 15.9225 10.4872 10.8147 10.0387C15.9565 9.62416 20 5.32 20 0.0714286C14.7758 0.0714283 10.4872 4.07753 10.0387 9.18532ZM9.99975 10.0002L10.0002 10.0003L10.0003 9.99975C10.0001 9.99975 9.99975 9.99975 9.99975 9.99975V10.0002Z" fill="#2A2A2A"/>
</g>
</svg>
