<svg width="16" height="16" viewBox="0 0 16 16" fill="none" xmlns="http://www.w3.org/2000/svg">
<path d="M14.093 7.67946L12.2756 7.16013C11.4572 6.9294 10.7117 6.49251 10.1105 5.89126C9.50924 5.29001 9.07235 4.54452 8.84162 3.72613L8.32229 1.90879C8.29617 1.84521 8.25174 1.79083 8.19464 1.75255C8.13754 1.71428 8.07036 1.69385 8.00162 1.69385C7.93288 1.69385 7.8657 1.71428 7.8086 1.75255C7.7515 1.79083 7.70707 1.84521 7.68095 1.90879L7.16162 3.72613C6.93089 4.54452 6.494 5.29001 5.89275 5.89126C5.2915 6.49251 4.54601 6.9294 3.72762 7.16013L1.91029 7.67946C1.84051 7.69927 1.77909 7.74129 1.73536 7.79916C1.69163 7.85703 1.66797 7.92759 1.66797 8.00013C1.66797 8.07266 1.69163 8.14322 1.73536 8.20109C1.77909 8.25896 1.84051 8.30099 1.91029 8.32079L3.72762 8.84013C4.54601 9.07086 5.2915 9.50775 5.89275 10.109C6.494 10.7102 6.93089 11.4557 7.16162 12.2741L7.68095 14.0915C7.70076 14.1612 7.74278 14.2227 7.80066 14.2664C7.85853 14.3101 7.92908 14.3338 8.00162 14.3338C8.07416 14.3338 8.14471 14.3101 8.20258 14.2664C8.26045 14.2227 8.30248 14.1612 8.32229 14.0915L8.84162 12.2741C9.07235 11.4557 9.50924 10.7102 10.1105 10.109C10.7117 9.50775 11.4572 9.07086 12.2756 8.84013L14.093 8.32079C14.1627 8.30099 14.2241 8.25896 14.2679 8.20109C14.3116 8.14322 14.3353 8.07266 14.3353 8.00013C14.3353 7.92759 14.3116 7.85703 14.2679 7.79916C14.2241 7.74129 14.1627 7.69927 14.093 7.67946Z" fill="#0D1B2A" fill-opacity="0.32"/>
</svg>
