<svg width="16" height="23" viewBox="0 0 16 23" fill="none" xmlns="http://www.w3.org/2000/svg">
<path d="M7.94069 22.9976C7.78236 22.9841 7.63389 22.9168 7.52108 22.8076L3.51267 18.9032C3.24605 18.644 3.24605 18.2227 3.51267 17.9634C3.77837 17.7033 4.21013 17.7033 4.47582 17.9634L7.32101 20.7397V8.85214C6.85709 8.61065 6.53668 8.13068 6.53668 7.58755C6.53668 6.80739 7.19604 6.16402 7.99557 6.16402C8.79511 6.16402 9.46155 6.80739 9.46155 7.58755C9.46155 8.12816 9.14139 8.60611 8.67899 8.84869V20.7327L11.5224 17.9634C11.7881 17.7033 12.2199 17.7033 12.4856 17.9634C12.7522 18.2227 12.7522 18.644 12.4856 18.9032L8.47715 22.8076C8.33555 22.9446 8.13942 23.0141 7.94069 22.9976ZM5.23891 15.1354C2.17843 14.0378 0 11.1687 0 7.81041C0 3.50725 3.58485 0 7.99557 0C12.4063 0 16 3.50725 16 7.81041C16 11.1628 13.8254 14.0266 10.7735 15.1285C10.4225 15.2542 10.0333 15.0797 9.9024 14.738C9.77375 14.3951 9.95339 14.0151 10.3043 13.8881C12.8341 12.9747 14.6403 10.6041 14.6403 7.81041C14.6403 4.22445 11.6716 1.33197 7.99557 1.33197C4.31956 1.33197 1.35797 4.22445 1.35797 7.81041C1.35797 10.609 3.17122 12.9852 5.70809 13.895C6.05735 14.0227 6.2359 14.4012 6.10822 14.7432C5.99711 15.061 5.63427 15.2954 5.23891 15.1354Z" fill="white"/>
</svg>
