<svg width="20" height="20" viewBox="0 0 20 20" fill="none" xmlns="http://www.w3.org/2000/svg">
<path d="M16.5813 6.58128L12.8313 10.3313C12.7424 10.4141 12.6249 10.4592 12.5034 10.457C12.382 10.4549 12.2661 10.4057 12.1802 10.3198C12.0944 10.2339 12.0452 10.118 12.043 9.9966C12.0409 9.87516 12.0859 9.75764 12.1687 9.66878L15.118 6.71878H5.46875V17.5C5.46875 17.6243 5.41936 17.7436 5.33146 17.8315C5.24355 17.9194 5.12432 17.9688 5 17.9688C4.87568 17.9688 4.75645 17.9194 4.66854 17.8315C4.58064 17.7436 4.53125 17.6243 4.53125 17.5V6.25003C4.53125 6.12571 4.58064 6.00648 4.66854 5.91857C4.75645 5.83066 4.87568 5.78128 5 5.78128H15.118L12.1687 2.83128C12.0859 2.74242 12.0409 2.62489 12.043 2.50345C12.0452 2.38201 12.0944 2.26615 12.1802 2.18026C12.2661 2.09438 12.382 2.04518 12.5034 2.04304C12.6249 2.0409 12.7424 2.08598 12.8313 2.16878L16.5813 5.91878C16.669 6.00667 16.7183 6.12581 16.7183 6.25003C16.7183 6.37425 16.669 6.49339 16.5813 6.58128Z" fill="white"/>
</svg>
