<svg width="36" height="36" viewBox="0 0 36 36" fill="none" xmlns="http://www.w3.org/2000/svg">
<g clip-path="url(#clip0_30783_5427)">
<path d="M18.0605 12.5596C18.556 12.5596 18.9573 12.1581 18.9573 11.6629C18.9573 11.1677 18.556 10.7661 18.0605 10.7661C14.0986 10.7661 10.8867 13.978 10.8867 17.9402C10.8867 21.9021 14.0986 25.114 18.0605 25.114C22.0227 25.114 25.2346 21.9021 25.2346 17.9402C25.2346 17.4447 24.833 17.0434 24.3378 17.0434C23.8426 17.0434 23.4411 17.4447 23.4411 17.9402C23.4411 20.9117 21.0323 23.3207 18.0605 23.3207C15.089 23.3207 12.68 20.9117 12.68 17.9402C12.68 14.9684 15.089 12.5596 18.0605 12.5596Z" fill="white"/>
<path d="M35.1702 12.6137C35.0145 12.1432 34.5069 11.888 34.0361 12.0438C33.5764 12.1959 33.3204 12.6854 33.4574 13.1498C36.1392 21.6897 31.3904 30.7867 22.8504 33.4684C14.3108 36.1502 5.21382 31.4014 2.53206 22.8614C-0.149972 14.3215 4.59913 5.22456 13.1388 2.5428C16.3001 1.55018 19.6894 1.55018 22.8504 2.5428C23.325 2.68589 23.8257 2.41728 23.9688 1.94267C24.1097 1.4752 23.8513 0.981092 23.3868 0.830031C13.9043 -2.14506 3.8051 3.13029 0.830007 12.6131C-2.14509 22.0957 3.13054 32.1949 12.6131 35.1699C22.0959 38.145 32.1948 32.8697 35.1699 23.3869C36.2702 19.88 36.2702 16.1205 35.1702 12.6137Z" fill="white"/>
<path d="M19.7661 6.40668C19.7707 5.89609 19.3785 5.46927 18.8693 5.43109C18.6015 5.40829 18.3334 5.3855 18.0585 5.3855C11.1248 5.3855 5.50391 11.0064 5.50391 17.9401C5.50391 24.8736 11.1248 30.4944 18.0585 30.4944C24.992 30.4944 30.6129 24.8736 30.6129 17.9401C30.6129 17.6157 30.5931 17.2916 30.5532 16.9697C30.4816 16.4776 30.0245 16.1367 29.5323 16.2084C29.0402 16.2798 28.6993 16.7371 28.7707 17.2293C28.7735 17.248 28.7768 17.2664 28.7806 17.285C28.8001 17.5023 28.8193 17.7176 28.8193 17.9396C28.8196 23.8829 24.0018 28.7007 18.0588 28.7012C12.1155 28.7015 7.2977 23.8834 7.29742 17.9404C7.29715 11.9973 12.1146 7.17929 18.058 7.17901H18.0582C18.2807 7.17901 18.4963 7.19824 18.713 7.21747L18.8811 7.23147C19.3497 7.25152 19.7457 6.88788 19.7655 6.41931C19.7658 6.41492 19.7658 6.4108 19.7661 6.40668Z" fill="white"/>
<path d="M23.4406 8.07586V11.2915L17.4261 17.306C17.0699 17.6502 17.06 18.2179 17.4041 18.5741C17.7483 18.9303 18.316 18.9402 18.6722 18.5961C18.6796 18.5889 18.6871 18.5815 18.6942 18.5741L24.7087 12.5596H27.9244C28.1622 12.5596 28.3902 12.4652 28.5585 12.2968L33.9388 6.91625C34.289 6.56606 34.289 5.99835 33.9388 5.64816C33.7707 5.48007 33.5428 5.38558 33.3049 5.38558H30.6146V2.69531C30.6146 2.2001 30.2131 1.79855 29.7176 1.79883C29.48 1.79883 29.252 1.89331 29.084 2.0614L23.7034 7.44195C23.535 7.61004 23.4406 7.838 23.4406 8.07586ZM25.2341 8.44719L28.8211 4.86016V6.28234C28.8211 6.77755 29.2227 7.1791 29.7179 7.1791H31.14L27.553 10.7661H25.2341V8.44719Z" fill="white"/>
</g>
<defs>
<clipPath id="clip0_30783_5427">
<rect width="36" height="36" fill="white"/>
</clipPath>
</defs>
</svg>
