<svg width="36" height="36" viewBox="0 0 36 36" fill="none" xmlns="http://www.w3.org/2000/svg">
<path d="M13.7812 15.1875C14.1693 15.1875 14.4844 14.8725 14.4844 14.4844C14.4844 14.0944 14.166 13.7812 13.7812 13.7812C13.3932 13.7812 13.0781 14.0963 13.0781 14.4844C13.0781 14.8727 13.3932 15.1875 13.7812 15.1875Z" fill="white"/>
<path d="M18 6.04688C18.3884 6.04688 18.7031 5.73212 18.7031 5.34375V0.703125C18.7031 0.314758 18.3884 0 18 0C17.6116 0 17.2969 0.314758 17.2969 0.703125V5.34375C17.2969 5.73212 17.6116 6.04688 18 6.04688Z" fill="white"/>
<path d="M17.2969 30.6562V35.2969C17.2969 35.6852 17.6116 36 18 36C18.3884 36 18.7031 35.6852 18.7031 35.2969V30.6562C18.7031 30.2679 18.3884 29.9531 18 29.9531C17.6116 29.9531 17.2969 30.2679 17.2969 30.6562Z" fill="white"/>
<path d="M7.15027 9.54761C7.42493 9.82227 7.86987 9.82227 8.14481 9.54761C8.41919 9.27322 8.41919 8.828 8.14481 8.55334L5.16119 5.57001C4.88681 5.29535 4.44159 5.29535 4.16693 5.57001C3.89227 5.84467 3.89227 6.28989 4.16693 6.56427L7.15027 9.54761Z" fill="white"/>
<path d="M27.8622 27.1553C27.5876 27.4299 27.5876 27.8751 27.8622 28.1498L30.8456 31.1331C31.12 31.4075 31.5652 31.4078 31.8398 31.1331C32.1145 30.8585 32.1145 30.4132 31.8398 30.1386L28.8565 27.1553C28.5818 26.8809 28.1369 26.8809 27.8622 27.1553Z" fill="white"/>
<path d="M28.8565 9.54761L31.8398 6.56427C32.1145 6.28989 32.1145 5.84467 31.8398 5.57001C31.5652 5.29535 31.1202 5.29535 30.8456 5.57001L27.8622 8.55334C27.5876 8.828 27.5876 9.27322 27.8622 9.54761C28.1369 9.82227 28.5818 9.82227 28.8565 9.54761Z" fill="white"/>
<path d="M7.15027 27.1555L4.16693 30.1388C3.89227 30.4132 3.89227 30.8584 4.16693 31.1331C4.44159 31.4077 4.88654 31.4077 5.16119 31.1331L8.14481 28.1497C8.41919 27.8751 8.41919 27.4298 8.14481 27.1555C7.87015 26.8808 7.42493 26.8808 7.15027 27.1555Z" fill="white"/>
<path d="M6.31652 23.1073C9.98074 26.206 14.021 27.8438 17.9999 27.8438C21.9792 27.8438 26.0191 26.206 29.6833 23.1073C32.4288 20.7856 33.9872 18.4892 34.0521 18.3925C34.2116 18.1552 34.2116 17.8448 34.0521 17.6075C33.9872 17.5111 32.4288 15.2144 29.6833 12.8927C26.0191 9.79404 21.9792 8.15625 17.9999 8.15625C14.021 8.15625 9.98074 9.79404 6.31652 12.8927C3.57131 15.2144 2.0129 17.5108 1.94781 17.6075C1.78823 17.8448 1.78823 18.1552 1.94781 18.3925C2.0129 18.4892 3.57131 20.7856 6.31652 23.1073ZM7.22454 13.9666C9.60033 11.9575 13.3983 9.5625 17.9999 9.5625C22.5875 9.5625 26.3756 11.9438 28.7457 13.9414C30.7031 15.5915 32.0473 17.262 32.6016 18.0005C32.0517 18.7339 30.7224 20.3868 28.7753 22.0334C26.3995 24.0425 22.6016 26.4375 17.9999 26.4375C13.4123 26.4375 9.62423 24.0562 7.25448 22.0586C5.29671 20.4085 3.95226 18.7377 3.39855 17.9997C3.94814 17.2661 5.27749 15.6132 7.22454 13.9666Z" fill="white"/>
<path d="M18 24.3281C21.511 24.3281 24.3281 21.4785 24.3281 18C24.3281 14.5107 21.4893 11.6719 18 11.6719C17.2612 11.6719 16.4592 11.8073 15.7352 12.0894C15.3732 12.23 15.1938 12.6376 15.3344 12.9996C15.4668 13.3401 15.8365 13.5566 16.3128 13.375C16.8484 13.1745 17.4482 13.0781 18 13.0781C20.7139 13.0781 22.9219 15.2861 22.9219 18C22.9219 20.7059 20.7279 22.9219 18 22.9219C15.2861 22.9219 13.0781 20.7139 13.0781 18C13.0781 17.6718 13.1072 17.4194 13.1594 17.1024C13.2317 16.7209 12.9809 16.3553 12.5994 16.2826C12.219 16.2106 11.8499 16.4625 11.7771 16.8437C11.7051 17.2255 11.6719 17.6287 11.6719 18C11.6719 21.4893 14.5107 24.3281 18 24.3281Z" fill="white"/>
<path d="M20.8125 18C20.8125 16.4493 19.5507 15.1875 18 15.1875C16.4493 15.1875 15.1875 16.4493 15.1875 18C15.1875 19.5507 16.4493 20.8125 18 20.8125C19.5507 20.8125 20.8125 19.5507 20.8125 18ZM16.5938 18C16.5938 17.2246 17.2246 16.5938 18 16.5938C18.7754 16.5938 19.4062 17.2246 19.4062 18C19.4062 18.7754 18.7754 19.4062 18 19.4062C17.2246 19.4062 16.5938 18.7754 16.5938 18Z" fill="white"/>
</svg>
