<svg width="32" height="32" viewBox="0 0 32 32" fill="none" xmlns="http://www.w3.org/2000/svg">
<path d="M18.7168 4.91992C22.7502 0.88669 27.6167 0.707605 29.5273 0.821289V0.822266C29.9565 0.848343 30.362 1.02999 30.666 1.33398C30.932 1.59996 31.1046 1.94343 31.1611 2.3125L31.1777 2.47266C31.291 4.38698 31.1103 9.24945 27.0762 13.2822V13.2832L19.1924 21.166C18.8167 21.5353 18.5929 22.0323 18.5645 22.5586C18.5359 23.0882 18.708 23.6088 19.0459 24.0176L19.0508 24.0244L19.0566 24.0312C19.2437 24.2475 19.4736 24.4234 19.7314 24.5469C19.9893 24.6704 20.27 24.7398 20.5557 24.75C20.8412 24.7602 21.1257 24.711 21.3916 24.6064C21.6574 24.5018 21.8986 24.3427 22.1006 24.1406L22.1016 24.1416L26.0801 20.1631V23.9492C26.0806 24.1807 26.0355 24.41 25.9473 24.624C25.881 24.7848 25.7915 24.9353 25.6816 25.0693L25.5654 25.1973L20.0742 30.6855L20.0732 30.6865C19.9107 30.8497 19.7167 30.9792 19.5039 31.0674C19.2912 31.1554 19.0632 31.2006 18.833 31.2002H18.832C18.6407 31.2001 18.45 31.169 18.2686 31.1084L18.2666 31.1074C17.9568 31.0049 17.6818 30.8179 17.4727 30.5674C17.2895 30.3479 17.1635 30.087 17.1045 29.8086L17.083 29.6885L16.2236 23.5303L16.1865 23.2646L8.7334 15.8115L8.46777 15.7744L2.31152 14.915C1.98844 14.8689 1.68439 14.7343 1.43359 14.5254C1.18225 14.316 0.994253 14.0407 0.890625 13.7305C0.787003 13.4202 0.771558 13.087 0.84668 12.7686C0.912397 12.49 1.04538 12.2325 1.23242 12.0176L1.31641 11.9277L6.80469 6.43555L6.80566 6.43457C6.96878 6.27082 7.16328 6.14084 7.37695 6.05273C7.59057 5.96472 7.81974 5.92066 8.05078 5.92188H11.8359L7.86035 9.89844V9.89941C7.47047 10.29 7.25147 10.8192 7.25195 11.3711C7.25248 11.9229 7.47184 12.452 7.8623 12.8418C8.25277 13.2316 8.78229 13.4506 9.33398 13.4502C9.60724 13.45 9.8785 13.3958 10.1309 13.291C10.3832 13.1862 10.6127 13.0322 10.8057 12.8389L10.8047 12.8379L18.7178 4.9209L18.7168 4.91992ZM7.05078 20.2314C7.11374 20.2292 7.17634 20.2397 7.23535 20.2617C7.29444 20.2838 7.34937 20.3173 7.39551 20.3604C7.44142 20.4032 7.47879 20.4546 7.50488 20.5117C7.53105 20.5691 7.54563 20.6313 7.54785 20.6943C7.55006 20.7572 7.53955 20.8199 7.51758 20.8789C7.49551 20.938 7.46195 20.9929 7.41895 21.0391C7.3976 21.0619 7.37389 21.0824 7.34863 21.1006L7.2666 21.1484C6.02183 21.7158 3.53368 23.4486 3.10254 28.0273L3.0127 28.9893L3.97461 28.8984C8.55076 28.4675 10.2882 25.9822 10.8535 24.7344C10.8796 24.6772 10.9169 24.6259 10.9629 24.583C11.009 24.5401 11.0631 24.5064 11.1221 24.4844C11.1811 24.4623 11.2446 24.4519 11.3076 24.4541C11.3704 24.4564 11.4321 24.471 11.4893 24.4971C11.5466 24.5232 11.5986 24.5603 11.6416 24.6064C11.6846 24.6525 11.7182 24.7066 11.7402 24.7656C11.7623 24.8247 11.7727 24.8881 11.7705 24.9512C11.7694 24.9825 11.765 25.0136 11.7578 25.0439L11.7275 25.1328C11.4076 25.8322 10.702 27.0223 9.30371 28.0381C7.91348 29.0479 5.78747 29.9228 2.55859 29.9229C2.43127 29.9229 2.30878 29.8723 2.21875 29.7822C2.129 29.6923 2.07821 29.5704 2.07812 29.4434C2.07812 26.2147 2.95312 24.0885 3.96289 22.6982C4.97878 21.2997 6.16974 20.5944 6.86914 20.2744L6.86816 20.2734C6.9255 20.2473 6.98779 20.2337 7.05078 20.2314Z" stroke="white" stroke-width="1.6"/>
</svg>
