<svg width="40" height="40" viewBox="0 0 40 40" fill="none" xmlns="http://www.w3.org/2000/svg">
<path fill-rule="evenodd" clip-rule="evenodd" d="M10.103 32.9852C4.93523 32.1311 1 27.7482 1 22.4697C1 20.2125 1.71961 18.1191 2.94741 16.3953L2.47107 15.9312C2.03476 15.506 2.03476 14.8125 2.47107 14.3873L3.65184 13.2368C4.08816 12.8116 4.79998 12.8116 5.23637 13.2368L5.71271 13.701C6.97211 12.8493 8.42384 12.2485 9.99154 11.9731V11.2679C9.42927 11.2287 8.94452 10.7432 8.94452 10.1099V9.2601C8.94452 8.59931 9.47212 8.09949 10.0649 8.09949H13.8289C14.4217 8.09949 14.9493 8.59931 14.9493 9.2601V10.1099C14.9493 10.7432 14.4645 11.2287 13.9022 11.2679V11.9731C15.4699 12.2485 16.9217 12.8493 18.1811 13.701L18.6574 13.2368C19.0938 12.8116 19.8056 12.8116 20.2419 13.2368L21.4227 14.3873C21.859 14.8125 21.859 15.506 21.4227 15.9312L20.9464 16.3953C22.1742 18.1191 22.8938 20.2125 22.8938 22.4697C22.8938 23.4707 22.7523 24.4395 22.4876 25.3581H23.1868C23.5341 25.3581 23.8158 25.6325 23.8158 25.971V38.3871C23.8158 38.7256 23.5341 39 23.1868 39H18.8298C18.4825 39 18.2008 38.7256 18.2008 38.3871V31.2249C17.44 31.7418 16.6086 32.167 15.7237 32.484V38.3871C15.7237 38.7256 15.442 39 15.0946 39H10.7321C10.3847 39 10.103 38.7256 10.103 38.3871V32.9852ZM3.72882 15.4231C4.03634 15.0829 4.36579 14.762 4.71499 14.4623L4.44411 14.1984L3.45802 15.1592L3.72882 15.4231ZM11.2496 11.8248C11.4801 11.8106 11.7127 11.8035 11.9469 11.8035C12.1811 11.8035 12.4136 11.8106 12.6442 11.8248V11.2705H11.2496V11.8248ZM19.1788 14.4623C19.528 14.762 19.8574 15.0829 20.1649 15.4231L20.4358 15.1592L19.4497 14.1984L19.1788 14.4623ZM22.0497 26.5839C21.4536 27.972 20.5649 29.2111 19.4589 30.2281V37.7742H22.5577V26.5839H22.0497ZM14.4656 32.8521C13.6569 33.0377 12.8137 33.1358 11.9469 33.1358C11.7504 33.1358 11.5551 33.1308 11.3611 33.1208V37.7742H14.4656V32.8521ZM11.9469 13.0293C6.59587 13.0293 2.25806 17.2559 2.25806 22.4697C2.25806 27.6834 6.59587 31.91 11.9469 31.91C17.2978 31.91 21.6357 27.6834 21.6357 22.4697C21.6357 17.2559 17.2978 13.0293 11.9469 13.0293ZM11.9469 13.9969C16.7492 13.9969 20.6426 17.7904 20.6426 22.4697C20.6426 27.1489 16.7492 30.9424 11.9469 30.9424C7.14447 30.9424 3.25115 27.1489 3.25115 22.4697C3.25115 17.7904 7.14447 13.9969 11.9469 13.9969ZM11.9469 15.2227C7.83931 15.2227 4.50921 18.4674 4.50921 22.4697C4.50921 26.472 7.83931 29.7166 11.9469 29.7166C16.0545 29.7166 19.3845 26.472 19.3845 22.4697C19.3845 18.4674 16.0545 15.2227 11.9469 15.2227ZM13.564 23.0826C13.3121 23.713 12.6831 24.1599 11.9469 24.1599C10.9888 24.1599 10.2122 23.4031 10.2122 22.4697C10.2122 21.7524 10.6707 21.1394 11.3179 20.8939V18.787C11.3179 18.4487 11.5997 18.1741 11.9469 18.1741C12.294 18.1741 12.5759 18.4487 12.5759 18.787V20.894C13.028 21.0655 13.388 21.4163 13.564 21.8568H15.7265C16.0737 21.8568 16.3555 22.1314 16.3555 22.4697C16.3555 22.8079 16.0737 23.0826 15.7265 23.0826H13.564ZM11.9469 22.0052C11.6836 22.0052 11.4702 22.2131 11.4702 22.4697C11.4702 22.7262 11.6836 22.9341 11.9469 22.9341C12.2101 22.9341 12.4235 22.7261 12.4235 22.4697C12.4235 22.2132 12.2101 22.0052 11.9469 22.0052ZM16.9332 26.4613C17.1786 26.7005 17.1786 27.0888 16.9332 27.328C16.6877 27.5672 16.289 27.5672 16.0435 27.328L15.5512 26.8484C15.3058 26.6092 15.3058 26.2208 15.5512 25.9816C15.7967 25.7424 16.1954 25.7424 16.4409 25.9816L16.9332 26.4613ZM7.85024 27.328C7.60476 27.5672 7.20611 27.5673 6.96063 27.328C6.71515 27.0888 6.71515 26.7005 6.96063 26.4613L7.45293 25.9816C7.69841 25.7424 8.09698 25.7424 8.34246 25.9816C8.58802 26.2208 8.58802 26.6092 8.34254 26.8484L7.85024 27.328ZM6.96063 18.478C6.71515 18.2388 6.71515 17.8504 6.96063 17.6112C7.20611 17.372 7.60476 17.372 7.85024 17.6113L8.34254 18.091C8.58802 18.3301 8.58802 18.7185 8.34246 18.9577C8.09698 19.1969 7.69841 19.1969 7.45293 18.9577L6.96063 18.478ZM5.52431 23.0825C5.17717 23.0825 4.89528 22.8079 4.89528 22.4696C4.89528 22.1314 5.17717 21.8567 5.52431 21.8567H6.2205C6.56764 21.8567 6.84953 22.1314 6.84953 22.4696C6.84953 22.8079 6.56764 23.0825 6.2205 23.0825H5.52431ZM12.5759 28.7275C12.5759 29.0658 12.294 29.3404 11.9469 29.3404C11.5997 29.3404 11.3179 29.0658 11.3179 28.7275V28.0492C11.3179 27.7109 11.5997 27.4363 11.9469 27.4363C12.294 27.4363 12.5759 27.7109 12.5759 28.0492V28.7275ZM16.0435 17.6112C16.289 17.372 16.6877 17.372 16.9332 17.6112C17.1786 17.8505 17.1786 18.2388 16.9332 18.478L16.4409 18.9577C16.1954 19.1969 15.7967 19.1969 15.5512 18.9577C15.3058 18.7185 15.3058 18.3301 15.5512 18.091L16.0435 17.6112ZM18.3695 21.8567C18.7166 21.8567 18.9985 22.1314 18.9985 22.4696C18.9985 22.8079 18.7166 23.0825 18.3695 23.0825H17.6733C17.3261 23.0825 17.0443 22.8079 17.0443 22.4696C17.0443 22.1314 17.3261 21.8567 17.6733 21.8567H18.3695ZM11.3179 16.2117C11.3179 15.8735 11.5997 15.5988 11.9469 15.5988C12.294 15.5988 12.5759 15.8735 12.5759 16.2117V16.8901C12.5759 17.2284 12.294 17.503 11.9469 17.503C11.5997 17.503 11.3179 17.2284 11.3179 16.8901V16.2117ZM10.2025 9.32529V10.0447H13.6912V9.32529H10.2025ZM32.0825 2.32992C32.6109 2.47449 33.12 2.6756 33.6012 2.93011L34.5782 2.51625C34.8128 2.41688 35.0858 2.46583 35.2688 2.64013L36.7602 4.06099C36.9493 4.24119 37.0026 4.51737 36.8934 4.75212C36.8934 4.75212 36.4681 5.6668 36.4681 5.66672C36.7314 6.12119 36.94 6.60155 37.0906 7.10084L38.0801 7.46368C38.3253 7.55354 38.4876 7.78208 38.4876 8.03728V10.0472C38.4876 10.3024 38.3253 10.531 38.0801 10.6208C38.0801 10.6208 37.0902 10.9838 37.0903 10.9837C36.9394 11.4814 36.7301 11.9611 36.4678 12.415L36.8934 13.3303C37.0026 13.5651 36.9493 13.8413 36.7602 14.0215L35.2688 15.4424C35.0861 15.6164 34.8135 15.6655 34.579 15.5666C34.579 15.5666 33.602 15.1543 33.6021 15.1542C33.1215 15.4088 32.6112 15.6101 32.0823 15.7547L31.7028 16.6941C31.6082 16.9284 31.376 17.0825 31.1175 17.0825H29.0079C28.7494 17.0825 28.5173 16.9284 28.4226 16.6941C28.4226 16.6941 28.0431 15.7548 28.0432 15.7548C27.5132 15.6099 27.0037 15.4077 26.5223 15.1539L25.5443 15.5666C25.3098 15.6655 25.0372 15.6164 24.8545 15.4424L23.3631 14.0215C23.1737 13.8411 23.1206 13.5644 23.2302 13.3295C23.2302 13.3295 23.6568 12.4156 23.6568 12.4156C23.3939 11.9625 23.1854 11.4819 23.0338 10.984L22.0432 10.6208C21.798 10.531 21.6357 10.3024 21.6357 10.0472V8.03728C21.6357 7.78208 21.798 7.55354 22.0432 7.46368L23.0336 7.10053C23.1853 6.60148 23.3939 6.12142 23.657 5.66726L23.2302 4.75296C23.1206 4.51806 23.1737 4.24142 23.3631 4.06099L24.8545 2.64013C25.0374 2.46583 25.3104 2.41688 25.5451 2.51625C25.5451 2.51625 26.522 2.93011 26.522 2.93019C27.0035 2.67552 27.5127 2.47434 28.0413 2.32977L28.4227 1.38789C28.5176 1.15384 28.7496 1 29.0079 1H31.1175C31.3761 1 31.6084 1.15422 31.703 1.38873L32.0825 2.32992ZM31.0292 3.0697L30.6888 2.22581H29.4359L29.0938 3.07054C29.0179 3.25794 28.8524 3.39699 28.651 3.44257C28.0271 3.58385 27.432 3.81859 26.8851 4.13967C26.7107 4.24203 26.4963 4.2559 26.3097 4.17675L25.4315 3.8048L24.5581 4.63689L24.9385 5.4519C25.0261 5.63968 25.0109 5.85779 24.898 6.03232C24.5624 6.55129 24.3169 7.11593 24.1673 7.70976C24.1179 7.90612 23.9722 8.06608 23.778 8.13733L22.8938 8.46148V9.62301L23.778 9.94724C23.972 10.0183 24.1176 10.1781 24.1672 10.3743C24.3167 10.9661 24.562 11.5324 24.8975 12.0493C25.0109 12.2239 25.0263 12.4425 24.9385 12.6306L24.5581 13.4456L25.4319 14.2782L26.3104 13.9074C26.4964 13.8289 26.7099 13.8425 26.8837 13.9441C27.431 14.2635 28.0264 14.5005 28.6527 14.6418C28.8544 14.6874 29.0202 14.8267 29.096 15.0145L29.4363 15.8567H30.6891L31.0293 15.0145C31.1051 14.8269 31.2708 14.6876 31.4723 14.6419C32.0959 14.5007 32.6926 14.2662 33.2374 13.9453C33.4116 13.8427 33.626 13.8285 33.8128 13.9074L34.6914 14.2781L35.5656 13.4452L35.1866 12.6298C35.0996 12.4427 35.1145 12.2256 35.2265 12.0515C35.5602 11.5326 35.808 10.9681 35.9556 10.3761C36.0048 10.1791 36.1506 10.0186 36.3453 9.94724L37.2295 9.62301V8.46148L36.3453 8.13733C36.1505 8.06586 36.0045 7.90512 35.9556 7.708C35.808 7.11478 35.5626 6.55076 35.2274 6.03232C35.1147 5.8581 35.0994 5.64029 35.1866 5.45267L35.5656 4.63735L34.6918 3.8048L33.8136 4.17675C33.627 4.2559 33.4125 4.24203 33.2382 4.13967C32.6913 3.81859 32.0962 3.58385 31.4723 3.44257C31.2706 3.39691 31.1049 3.25748 31.0292 3.0697ZM30.0616 4.92266C32.4461 4.92266 34.3724 6.76949 34.3724 9.04121C34.3724 11.3129 32.446 13.1618 30.0616 13.1618C27.6772 13.1618 25.753 11.313 25.753 9.04121C25.753 6.76941 27.6771 4.92266 30.0616 4.92266ZM30.0616 6.14846C28.3799 6.14846 27.011 7.43901 27.011 9.04121C27.011 10.6436 28.3798 11.936 30.0616 11.936C31.7436 11.936 33.1144 10.6436 33.1144 9.04121C33.1144 7.43893 31.7435 6.14846 30.0616 6.14846ZM31.9079 21.5111V38.3871C31.9079 38.7256 31.6262 39 31.2789 39H26.922C26.5746 39 26.293 38.7256 26.293 38.3871V21.5111C26.293 21.1726 26.5746 20.8982 26.922 20.8982H31.2789C31.6262 20.8982 31.9079 21.1726 31.9079 21.5111ZM30.6498 22.124H27.5511V37.7742H30.6498V22.124ZM35.0141 16.8898H39.371C39.7183 16.8898 40 17.1643 40 17.5027V38.3871C40 38.7256 39.7183 39 39.371 39H35.0141C34.6667 39 34.3851 38.7256 34.3851 38.3871V17.5027C34.3851 17.1643 34.6667 16.8898 35.0141 16.8898ZM35.6432 18.1156V37.7742H38.7419V18.1156H35.6432Z" fill="white"/>
</svg>
