<svg width="48" height="48" viewBox="0 0 48 48" fill="none" xmlns="http://www.w3.org/2000/svg">
<path fill-rule="evenodd" clip-rule="evenodd" d="M40.5033 33.4554C38.3115 35.5077 35.0037 38.3199 32.2923 40.058C30.2828 41.3459 28.1501 42.5596 26.169 42.7187C24.5317 42.8506 22.7428 42.2203 21.038 41.9763C18.414 41.6028 15.6462 41.6356 12.9694 41.6667H12.9135V35.5921C13.9018 35.3626 14.8929 35.142 15.8837 34.8748C16.654 34.667 17.3233 34.3359 17.9709 34.0152C19.1408 33.4349 20.1513 32.934 21.4707 33.3265L26.7917 34.9122C27.3259 35.0724 27.6297 35.6311 27.4687 36.1596C27.2938 36.7337 26.6757 36.924 26.156 36.8161C25.0722 36.5899 23.6636 36.2222 22.6562 36.1274C22.2099 36.0854 21.7632 36.0977 21.2907 36.1648C20.9558 36.2124 20.7233 36.5194 20.772 36.8504C20.8201 37.182 21.1307 37.4122 21.4662 37.3646C21.8404 37.3114 22.1919 37.3017 22.5403 37.3339C23.4657 37.4201 24.8745 37.7911 25.9039 38.0022C26.9351 38.2136 27.9816 37.7997 28.472 36.9098C29.1392 36.8453 29.7842 36.7127 30.393 36.5106C32.7182 35.7407 36.3338 33.7091 39.4074 31.9955C39.7821 31.7873 40.2346 31.8702 40.5085 32.1992L40.5768 32.2815C40.8672 32.6301 40.8346 33.1448 40.5033 33.4554ZM11.6876 42.4967C11.6876 42.6543 11.5525 42.7879 11.3931 42.7879H10.1513C9.99187 42.7879 9.85669 42.6544 9.85669 42.4967V34.9244C9.85669 34.7658 9.99177 34.6332 10.1513 34.6332H11.3931C11.5525 34.6332 11.6877 34.7657 11.6877 34.9244L11.6876 42.4967ZM22.1043 19.7865C22.3415 20.0229 22.7315 20.0236 22.9709 19.7865C23.2105 19.5496 23.2105 19.1658 22.9709 18.9299L21.9351 17.906C22.9678 17.4836 24.1258 18.236 24.1258 19.3581C24.1258 20.2233 23.413 20.9279 22.5377 20.9279C21.4077 20.9279 20.6407 19.7913 21.0685 18.7625L22.1043 19.7865ZM20.1626 17.8672L18.2297 15.9576C17.4744 16.8904 17.021 18.0723 17.021 19.3582C17.021 22.3648 19.4954 24.8112 22.5376 24.8112C25.5793 24.8112 28.0542 22.3648 28.0542 19.3582C28.0542 16.3511 25.5793 13.9052 22.5376 13.9052C21.2367 13.9052 20.041 14.3535 19.0973 15.1006L21.0292 17.0106C22.8927 15.8388 25.3521 17.1641 25.3521 19.3582C25.3521 20.8917 24.089 22.1402 22.5376 22.1402C20.3153 22.1402 18.9779 19.7055 20.1626 17.8672ZM12.3414 19.3582C12.3414 24.0079 15.6047 28.0787 20.1471 29.1579C20.4462 28.9296 20.8335 28.791 21.2574 28.791H25.0259V27.2012C25.0259 26.3667 25.7962 25.6877 26.7431 25.6877H30.5116V23.5336C30.5116 22.7549 31.2653 22.1443 32.2286 22.1443H32.3389C34.1988 15.7299 29.3267 9.27973 22.5377 9.27973C19.9469 9.27973 17.5785 10.2406 15.7782 11.8196L18.2252 14.2388C19.3951 13.2738 20.8984 12.6931 22.5378 12.6931C26.2555 12.6931 29.2807 15.6828 29.2807 19.3581C29.2807 23.0335 26.2555 26.0233 22.5378 26.0233C18.8195 26.0233 15.7948 23.0335 15.7948 19.3581C15.7948 17.7376 16.3834 16.2517 17.3586 15.0953L14.9112 12.6766C13.3136 14.4563 12.3414 16.7972 12.3414 19.3582ZM8.94875 8.35052L10.6689 8.16224C10.9541 8.13049 11.1788 7.90848 11.2109 7.62654L11.4013 5.92624L13.3452 7.84761L13.1003 10.0294L10.893 10.272L8.94875 8.35052ZM25.0259 33.1207V30.0031H21.2574C20.9768 30.0031 20.7666 30.1735 20.7666 30.3259V31.9787C21.1015 31.997 21.4536 32.0555 21.8247 32.1659L25.0259 33.1207ZM27.1458 33.7516C28.0403 34.0182 28.6429 34.7924 28.7278 35.6596C29.3948 35.563 29.8976 35.4129 30.5116 35.1802V26.8997H26.7431C26.4666 26.8997 26.2523 27.0614 26.2523 27.2011V33.4855L27.1458 33.7516ZM35.9971 23.5401C35.9717 23.4843 35.7977 23.3563 35.5058 23.3563H32.2285C31.9366 23.3563 31.7626 23.4843 31.7378 23.5401V34.6665C33.0179 34.0878 34.501 33.3105 35.997 32.4944V23.5401H35.9971ZM41.5236 31.511L41.4548 31.4286C40.8077 30.6509 39.6933 30.4457 38.8055 30.9395L37.2235 31.8196V23.5335C37.2235 22.7548 36.4688 22.1442 35.5059 22.1442H33.6087C35.4326 15.0133 29.9825 8.06754 22.5377 8.06754C19.6083 8.06754 16.9335 9.16354 14.91 10.9616L14.2971 10.3558L14.5963 7.69194C14.6165 7.50828 14.5518 7.3266 14.4203 7.19609L11.3662 4.17721C11.0039 3.81914 10.3795 4.03587 10.3236 4.53944L10.0456 7.01036L7.54585 7.28514C7.03697 7.34027 6.81628 7.95682 7.17987 8.31565L10.234 11.3345C10.3687 11.4681 10.5469 11.527 10.7351 11.5085L13.4305 11.2128L14.0423 11.8186C10.2898 15.9459 10.1081 22.2007 13.7147 26.5298C15.2231 28.3401 17.2735 29.6464 19.5445 30.2559C19.543 30.2795 19.5404 30.303 19.5404 30.326V32.0857C18.1022 32.4101 16.9415 33.3338 15.5617 33.7056C14.6591 33.9489 13.736 34.1529 12.8057 34.3723C12.5826 33.8156 12.0339 33.4212 11.3931 33.4212H10.1513C9.3132 33.4212 8.63092 34.095 8.63092 34.9244V42.4967C8.63092 43.3262 9.3132 44 10.1513 44H11.3931C12.0972 44 12.6898 43.5237 12.8613 42.88C15.5668 42.8573 18.2475 42.8027 20.8637 43.1762C22.6678 43.4338 24.3756 44.0776 26.269 43.9273C28.5202 43.7462 30.8151 42.4491 32.9596 41.0753C36.46 38.8321 40.2648 35.3491 41.3472 34.3349C42.1443 33.5895 42.2214 32.3486 41.5236 31.511Z" fill="white"/>
</svg>
