<svg width="44" height="44" viewBox="0 0 44 44" fill="none" xmlns="http://www.w3.org/2000/svg">
<g clip-path="url(#clip0_30783_5355)">
<path d="M6.55458 11.3506C6.586 11.461 6.65331 11.5578 6.74588 11.6256L11.8097 15.3342V18.5105L10.0688 20.2513C9.86269 20.4547 9.73375 20.7235 9.70413 21.0115C9.67451 21.2996 9.74605 21.589 9.90649 21.83L10.9463 23.4154C10.5939 24.0852 10.3034 24.7859 10.0784 25.5086L8.22315 25.8942C7.93925 25.9512 7.68404 26.1052 7.5013 26.3298C7.31856 26.5544 7.21968 26.8356 7.22163 27.1251V31.3156C7.21965 31.6052 7.31851 31.8864 7.50124 32.111C7.68396 32.3356 7.93917 32.4897 8.22306 32.5467L10.078 32.9322C10.303 33.655 10.5935 34.3558 10.946 35.0257L9.90615 36.6109C9.74571 36.852 9.67417 37.1413 9.70379 37.4294C9.73341 37.7174 9.86235 37.9862 10.0685 38.1895L13.0316 41.1526C13.2349 41.359 13.5037 41.4881 13.7919 41.5178C14.08 41.5474 14.3695 41.4757 14.6105 41.3151L16.1959 40.2752C16.8658 40.6276 17.5665 40.9181 18.2893 41.1432L18.6749 42.998C18.7317 43.282 18.8857 43.5373 19.1103 43.7202C19.335 43.903 19.6163 44.002 19.9059 44H24.0965C24.386 44.002 24.6672 43.9031 24.8918 43.7204C25.1165 43.5377 25.2705 43.2825 25.3275 42.9986L25.7131 41.1436C26.4358 40.9185 27.1366 40.628 27.8066 40.2756L29.3918 41.3151C29.6328 41.4755 29.9222 41.5471 30.2102 41.5175C30.4983 41.4879 30.7671 41.3589 30.9704 41.1527L33.9336 38.1896C34.1397 37.9862 34.2687 37.7175 34.2983 37.4295C34.3279 37.1414 34.2564 36.8521 34.0959 36.611L33.0561 35.0256C33.4087 34.3558 33.6994 33.6551 33.9245 32.9323L35.7793 32.5468C36.0632 32.4898 36.3184 32.3357 36.5011 32.1111C36.6838 31.8864 36.7827 31.6052 36.7807 31.3156V27.1251C36.7827 26.8356 36.6838 26.5544 36.5011 26.3297C36.3184 26.1051 36.0632 25.9511 35.7793 25.8941L33.9243 25.5085C33.6993 24.7857 33.4088 24.085 33.0563 23.415L34.0962 21.8298C34.2566 21.5888 34.3282 21.2994 34.2985 21.0114C34.2689 20.7234 34.14 20.4546 33.9338 20.2513L32.1929 18.5103V15.3341L37.2568 11.6255C37.3494 11.5577 37.4167 11.4609 37.4481 11.3505L39.7146 3.38104C39.863 2.86488 39.805 2.31123 39.5529 1.83703C39.3007 1.36283 38.8741 1.0052 38.3631 0.839695L38.2078 0.788906C37.7123 0.623482 37.1725 0.652214 36.6974 0.869301C36.2223 1.08639 35.8473 1.47566 35.648 1.95852L32.9676 8.34247L25.8965 11.3275H18.1058L11.0346 8.34247L8.35429 1.95852C8.15504 1.47566 7.78 1.08639 7.3049 0.869301C6.82979 0.652214 6.29002 0.623482 5.79455 0.788906L5.63918 0.839695C5.12823 1.00521 4.70161 1.36282 4.44942 1.83702C4.19724 2.31122 4.13922 2.86487 4.28764 3.38104L6.55458 11.3506ZM33.2332 21.2643L32.0249 23.1071C31.9732 23.186 31.9441 23.2775 31.9408 23.3717C31.9374 23.4659 31.96 23.5592 32.006 23.6415C32.4388 24.4158 32.7797 25.2379 33.0218 26.0912C33.0475 26.1819 33.0975 26.2638 33.1665 26.328C33.2355 26.3922 33.3207 26.4363 33.413 26.4555L35.5694 26.9038C35.621 26.9129 35.6676 26.9403 35.7007 26.981C35.7338 27.0216 35.7513 27.0727 35.7499 27.1251V31.3156C35.7513 31.3679 35.7339 31.419 35.7009 31.4596C35.6679 31.5002 35.6214 31.5277 35.5699 31.537L33.4137 31.9852C33.3214 32.0044 33.2361 32.0485 33.1672 32.1128C33.0982 32.177 33.0481 32.2589 33.0225 32.3496C32.7802 33.2028 32.4392 34.0248 32.0063 34.7988C31.9604 34.8811 31.9378 34.9745 31.9411 35.0687C31.9445 35.1629 31.9736 35.2544 32.0253 35.3332L33.2332 37.1766C33.263 37.2195 33.2765 37.2717 33.2711 37.3238C33.2658 37.3758 33.242 37.4242 33.2041 37.4602L30.2408 40.4234C30.2049 40.4613 30.1565 40.4851 30.1045 40.4905C30.0524 40.4959 30.0002 40.4824 29.9573 40.4526L28.1144 39.2442C28.0356 39.1925 27.9441 39.1634 27.8499 39.1601C27.7557 39.1567 27.6624 39.1793 27.5801 39.2252C26.8058 39.658 25.9836 39.999 25.1302 40.2411C25.0396 40.2668 24.9577 40.3168 24.8936 40.3858C24.8294 40.4547 24.7853 40.54 24.7661 40.6322L24.3179 42.7883C24.3087 42.8399 24.2813 42.8865 24.2407 42.9196C24.2 42.9527 24.1489 42.9702 24.0965 42.9688H19.9059C19.8535 42.9702 19.8023 42.9527 19.7617 42.9196C19.7211 42.8865 19.6937 42.8399 19.6845 42.7883L19.2362 40.632C19.217 40.5398 19.1729 40.4546 19.1087 40.3856C19.0445 40.3167 18.9627 40.2666 18.872 40.2409C18.0188 39.9987 17.1969 39.6576 16.4228 39.2247C16.3405 39.1787 16.2472 39.1562 16.153 39.1595C16.0587 39.1629 15.9672 39.192 15.8884 39.2437L14.0453 40.4523C14.0024 40.4822 13.9501 40.4957 13.8981 40.4903C13.8461 40.4849 13.7977 40.4611 13.7617 40.4231L10.798 37.4602C10.7601 37.4242 10.7363 37.3758 10.7309 37.3238C10.7256 37.2717 10.739 37.2195 10.7689 37.1766L11.9774 35.3337C12.0291 35.2549 12.0582 35.1634 12.0615 35.0692C12.0649 34.975 12.0423 34.8816 11.9963 34.7994C11.5636 34.0251 11.2227 33.2029 10.9805 32.3495C10.9548 32.2589 10.9048 32.177 10.8358 32.1128C10.7669 32.0486 10.6816 32.0045 10.5893 31.9853L8.43292 31.5371C8.38139 31.5278 8.33489 31.5003 8.30186 31.4597C8.26883 31.4191 8.25145 31.368 8.25288 31.3156V27.1251C8.25145 27.0728 8.26882 27.0217 8.30184 26.9811C8.33485 26.9405 8.38132 26.9131 8.43283 26.9038L10.5899 26.4554C10.6821 26.4363 10.7674 26.3922 10.8364 26.3279C10.9053 26.2637 10.9554 26.1818 10.9811 26.0911C11.2232 25.238 11.5641 24.416 11.9968 23.6419C12.0428 23.5596 12.0654 23.4663 12.062 23.3721C12.0587 23.2779 12.0296 23.1865 11.9779 23.1076L10.7691 21.2644C10.7393 21.2214 10.7259 21.1692 10.7313 21.1172C10.7366 21.0652 10.7604 21.0168 10.7983 20.9808L13.7614 18.0177C13.7974 17.9798 13.8458 17.956 13.8978 17.9506C13.9498 17.9453 14.002 17.9587 14.045 17.9884L15.8878 19.197C15.9666 19.2487 16.0581 19.2777 16.1523 19.2811C16.2465 19.2844 16.3398 19.2619 16.4221 19.2159C17.1964 18.783 18.0186 18.4421 18.8719 18.1998C18.9626 18.1741 19.0444 18.1241 19.1086 18.0552C19.1729 17.9862 19.2169 17.901 19.2361 17.8087L19.6844 15.6526C19.6936 15.601 19.721 15.5544 19.7616 15.5212C19.8023 15.4881 19.8534 15.4707 19.9058 15.4721H24.0964C24.1487 15.4707 24.1998 15.4881 24.2404 15.5211C24.2811 15.5541 24.3085 15.6006 24.3178 15.6521L24.766 17.8084C24.7852 17.9006 24.8293 17.9859 24.8935 18.0548C24.9577 18.1238 25.0396 18.1738 25.1302 18.1995C25.9834 18.4418 26.8054 18.7828 27.5795 19.2156C27.6617 19.2616 27.7551 19.2842 27.8493 19.2808C27.9435 19.2775 28.035 19.2484 28.1138 19.1967L29.9569 17.9881C29.9999 17.9583 30.0521 17.9449 30.1041 17.9502C30.1561 17.9556 30.2045 17.9794 30.2405 18.0173L33.2036 20.9804C33.2417 21.0164 33.2656 21.0648 33.271 21.1169C33.2764 21.169 33.263 21.2213 33.2332 21.2643ZM5.95981 1.81981L6.11518 1.76902C6.36454 1.68577 6.63619 1.70024 6.87529 1.8095C7.11439 1.91876 7.30313 2.11468 7.40339 2.3577L10.1651 8.93544C10.2173 9.05948 10.316 9.15818 10.4401 9.21044L17.801 12.3178C17.8644 12.3446 17.9326 12.3584 18.0015 12.3584H26.001C26.0699 12.3584 26.1381 12.3446 26.2015 12.3178L33.5623 9.21078C33.6864 9.15852 33.7851 9.05983 33.8373 8.93578L36.599 2.35804C36.6993 2.11504 36.888 1.91913 37.1271 1.80987C37.3662 1.70061 37.6379 1.68614 37.8872 1.76937L38.0426 1.82016C38.2998 1.90346 38.5145 2.08345 38.6414 2.32212C38.7683 2.5608 38.7975 2.83946 38.7228 3.09925L36.5044 10.8985L31.3724 14.6569C31.307 14.7048 31.2538 14.7674 31.2172 14.8397C31.1805 14.912 31.1614 14.9919 31.1614 15.0729V17.4792L30.9704 17.2881C30.7671 17.0819 30.4983 16.953 30.2103 16.9233C29.9222 16.8937 29.6328 16.9652 29.3918 17.1257L27.8064 18.1656C27.1365 17.8131 26.4358 17.5226 25.7131 17.2976L25.3275 15.4428C25.2704 15.1589 25.1164 14.9038 24.8918 14.7211C24.6672 14.5383 24.386 14.4395 24.0965 14.4415H19.9059C19.6164 14.4395 19.3352 14.5383 19.1105 14.7211C18.8859 14.9038 18.7319 15.159 18.6749 15.4429L18.2893 17.2976C17.5665 17.5226 16.8657 17.8131 16.1957 18.1656L14.6105 17.1258C14.3695 16.9653 14.0801 16.8937 13.7921 16.9233C13.504 16.9529 13.2353 17.0819 13.032 17.288L12.8408 17.4792V15.0729C12.8408 14.9919 12.8217 14.912 12.7851 14.8397C12.7484 14.7674 12.6952 14.7048 12.6298 14.6569L7.49801 10.8981L5.27953 3.09891C5.20484 2.83911 5.23404 2.56044 5.36098 2.32177C5.48791 2.0831 5.70264 1.90311 5.95981 1.81981ZM22.0012 0C21.0125 0 20.046 0.293185 19.2239 0.842481C18.4018 1.39178 17.7611 2.17251 17.3827 3.08596C17.0043 3.9994 16.9053 5.00453 17.0982 5.97424C17.2911 6.94395 17.7672 7.83468 18.4663 8.5338C19.1655 9.23292 20.0562 9.70903 21.0259 9.90191C21.9956 10.0948 23.0007 9.9958 23.9142 9.61744C24.8276 9.23908 25.6084 8.59835 26.1577 7.77627C26.707 6.95419 27.0001 5.98769 27.0001 4.99898C26.9986 3.67363 26.4715 2.40299 25.5343 1.46583C24.5972 0.52866 23.3265 0.0015012 22.0012 0ZM22.0012 8.96672C21.2164 8.96672 20.4493 8.73402 19.7968 8.29803C19.1443 7.86205 18.6358 7.24238 18.3355 6.51737C18.0351 5.79236 17.9566 4.99458 18.1097 4.22492C18.2628 3.45525 18.6407 2.74827 19.1955 2.19337C19.7504 1.63847 20.4574 1.26058 21.2271 1.10749C21.9968 0.954393 22.7945 1.03297 23.5195 1.33328C24.2446 1.63358 24.8642 2.14214 25.3002 2.79463C25.7362 3.44712 25.9689 4.21424 25.9689 4.99898C25.9677 6.05092 25.5493 7.05943 24.8054 7.80326C24.0616 8.5471 23.0531 8.96551 22.0012 8.96672ZM22.0012 21.0532C20.3859 21.0532 18.8068 21.5322 17.4637 22.4296C16.1207 23.327 15.0739 24.6026 14.4557 26.0949C13.8375 27.5873 13.6758 29.2294 13.9909 30.8137C14.3061 32.398 15.0839 33.8532 16.2261 34.9954C17.3683 36.1376 18.8235 36.9155 20.4078 37.2306C21.992 37.5457 23.6342 37.384 25.1265 36.7659C26.6189 36.1477 27.8944 35.1009 28.7919 33.7579C29.6893 32.4148 30.1683 30.8358 30.1683 29.2205C30.1659 27.0551 29.3046 24.9792 27.7735 23.4481C26.2424 21.917 24.1665 21.0557 22.0012 21.0532ZM20.8309 36.2587V31.4359C20.8309 31.2992 20.7765 31.168 20.6798 31.0713C20.5831 30.9746 20.452 30.9203 20.3152 30.9203H18.4745L22.0012 25.3789L25.5279 30.9203H23.6871C23.5503 30.9203 23.4192 30.9746 23.3225 31.0713C23.2258 31.168 23.1715 31.2992 23.1715 31.4359V36.2583C22.3967 36.3885 21.6056 36.3885 20.8309 36.2583V36.2587ZM24.2027 36.0072V31.9516H26.4672C26.5595 31.9515 26.6502 31.9267 26.7297 31.8796C26.8092 31.8326 26.8746 31.765 26.9191 31.684C26.9635 31.603 26.9854 31.5116 26.9824 31.4193C26.9794 31.3269 26.9517 31.2371 26.9021 31.1591L22.4362 24.1413C22.3896 24.0681 22.3253 24.0079 22.2493 23.9661C22.1732 23.9244 22.0879 23.9025 22.0012 23.9025C21.9144 23.9025 21.8291 23.9244 21.753 23.9661C21.677 24.0079 21.6127 24.0681 21.5661 24.1413L17.1002 31.1591C17.0506 31.2371 17.0229 31.3269 17.0199 31.4193C17.0169 31.5116 17.0388 31.603 17.0832 31.684C17.1277 31.765 17.1931 31.8326 17.2726 31.8796C17.3521 31.9267 17.4428 31.9515 17.5352 31.9516H19.7996V36.0069C18.1831 35.4826 16.8068 34.3986 15.9183 32.95C15.0298 31.5013 14.6874 29.7832 14.9528 28.1046C15.2182 26.4261 16.074 24.8973 17.366 23.7935C18.6581 22.6896 20.3018 22.0832 22.0012 22.0832C23.7006 22.0832 25.3442 22.6896 26.6363 23.7935C27.9284 24.8973 28.7841 26.4261 29.0495 28.1046C29.3149 29.7832 28.9726 31.5013 28.0841 32.95C27.1955 34.3986 25.8192 35.4826 24.2027 36.0069V36.0072Z" fill="white"/>
</g>
<defs>
<clipPath id="clip0_30783_5355">
<rect width="44" height="44" fill="white"/>
</clipPath>
</defs>
</svg>
