<svg width="40" height="40" viewBox="0 0 40 40" fill="none" xmlns="http://www.w3.org/2000/svg">
<g clip-path="url(#clip0_30783_5103)">
<path d="M16.7305 15.7367C17.3777 15.7367 17.9023 15.212 17.9023 14.5648C17.9023 10.4108 21.282 7.03125 25.436 7.03125C26.0832 7.03125 26.6079 6.50656 26.6079 5.85938C26.6079 5.21219 26.0832 4.6875 25.436 4.6875C19.9896 4.6875 15.5586 9.11844 15.5586 14.5648C15.5586 15.212 16.0833 15.7367 16.7305 15.7367Z" fill="#1D1EE3"/>
<path d="M3.65766 39.6567C4.11523 40.1144 4.85727 40.1145 5.31492 39.6567L14.5284 30.4432C14.986 29.9855 14.986 29.2436 14.5284 28.7859L13.7001 27.9577L15.9987 25.6586C18.6305 27.8961 21.9382 29.1297 25.4355 29.1297C33.4663 29.1297 39.9999 22.5958 39.9999 14.5645C39.9998 6.53359 33.4663 0 25.4354 0C17.4041 0 10.8702 6.53359 10.8702 14.5645C10.8702 18.0703 12.1095 21.3761 14.3415 24.0013L12.0429 26.3004L11.2139 25.4714C10.7566 25.014 10.0141 25.0138 9.55664 25.4714L0.343125 34.6849C-0.114219 35.1422 -0.114531 35.8846 0.343125 36.3422L3.65766 39.6567ZM13.2139 14.5645C13.2139 7.82594 18.6965 2.34375 25.4354 2.34375C32.1739 2.34375 37.6561 7.82594 37.6561 14.5645C37.6561 21.3034 32.1739 26.7859 25.4354 26.7859C18.6965 26.7859 13.2139 21.3245 13.2139 14.5645ZM10.3852 27.9573L12.0425 29.6146L4.48633 37.1708L2.82898 35.5135L10.3852 27.9573Z" fill="#1D1EE3"/>
</g>
<defs>
<clipPath id="clip0_30783_5103">
<rect width="40" height="40" fill="white"/>
</clipPath>
</defs>
</svg>
