<svg width="44" height="44" viewBox="0 0 44 44" fill="none" xmlns="http://www.w3.org/2000/svg">
<g clip-path="url(#clip0_30783_5362)">
<path d="M25.3849 28.71V27.2843C26.3883 27.0117 27.3526 26.6117 28.2544 26.0941L29.2624 27.1022C29.4905 27.334 29.7954 27.4746 30.1199 27.4974C30.4443 27.5202 30.7659 27.4236 31.0242 27.2259C32.1301 26.3915 33.1136 25.4063 33.946 24.2989C34.143 24.0409 34.2391 23.7199 34.2165 23.3961C34.1939 23.0723 34.054 22.7679 33.8231 22.5397L32.8142 21.5317C33.3321 20.63 33.7321 19.6657 34.0045 18.6622H35.431C35.7555 18.6643 36.0697 18.5479 36.3145 18.335C36.5594 18.1221 36.7183 17.8272 36.7613 17.5055C36.9538 16.1326 36.9538 14.7396 36.7613 13.3668C36.7183 13.0451 36.5594 12.7502 36.3145 12.5373C36.0697 12.3244 35.7555 12.208 35.431 12.21H34.0062C33.7339 11.2067 33.3342 10.2424 32.8168 9.34059L33.8249 8.33598C34.0566 8.10754 34.1968 7.80227 34.2191 7.47764C34.2415 7.153 34.1443 6.83141 33.946 6.57341C33.1134 5.46622 32.1299 4.48099 31.0242 3.64637C30.7662 3.44961 30.4453 3.35363 30.1217 3.37641C29.798 3.39919 29.4938 3.53916 29.2659 3.77012L28.2544 4.77817C27.3525 4.26098 26.3882 3.86128 25.3849 3.5888V2.16223C25.3872 1.83758 25.2709 1.52326 25.058 1.27819C24.845 1.03313 24.55 0.874147 24.2282 0.831062C22.8553 0.638995 21.4624 0.638995 20.0895 0.831062C19.7675 0.873795 19.4723 1.03267 19.2593 1.27782C19.0463 1.52296 18.9301 1.83748 18.9328 2.16223V3.5888C17.9294 3.86112 16.9651 4.26083 16.0633 4.77817L15.0544 3.77012C14.8265 3.53916 14.5223 3.39919 14.1986 3.37641C13.875 3.35363 13.5541 3.44961 13.2961 3.64637C12.1884 4.4804 11.2031 5.46568 10.3691 6.57341C10.1712 6.83168 10.0745 7.15336 10.0971 7.47794C10.1197 7.80253 10.2602 8.10767 10.492 8.33598L11.5009 9.34403C10.9841 10.2447 10.5849 11.2079 10.3132 12.21H8.88494C8.56029 12.2078 8.24596 12.3241 8.0009 12.537C7.75583 12.75 7.59685 13.045 7.55377 13.3668C7.36127 14.7396 7.36127 16.1326 7.55377 17.5055C7.59685 17.8273 7.75583 18.1223 8.0009 18.3353C8.24596 18.5482 8.56029 18.6645 8.88494 18.6622H10.3132C10.5855 19.6657 10.9855 20.6301 11.5035 21.5317L10.4946 22.5397C10.2637 22.7679 10.1238 23.0723 10.1012 23.3961C10.0786 23.7199 10.1747 24.0409 10.3717 24.2989C11.2057 25.4066 12.191 26.3919 13.2987 27.2259C13.5567 27.4227 13.8775 27.5187 14.2012 27.4959C14.5248 27.4731 14.8291 27.3331 15.057 27.1022L16.0659 26.0941C16.9677 26.6114 17.932 27.0112 18.9353 27.2835V28.71C18.9329 29.0347 19.0491 29.349 19.2621 29.5939C19.4751 29.8389 19.7703 29.9976 20.0921 30.0404C21.4649 30.2334 22.858 30.2334 24.2308 30.0404C24.552 29.9967 24.8463 29.8376 25.0587 29.5928C25.2711 29.348 25.3871 29.0342 25.3849 28.71ZM24.0099 26.7464V28.6834C22.7816 28.8518 21.5361 28.8518 20.3078 28.6834V26.7455C20.3078 26.5891 20.2545 26.4374 20.1567 26.3154C20.0589 26.1934 19.9224 26.1084 19.7698 26.0743C18.5489 25.8011 17.3846 25.3182 16.3288 24.6469C16.1968 24.5631 16.0402 24.5267 15.8847 24.5439C15.7292 24.5611 15.5843 24.6308 15.4738 24.7415L14.1039 26.1113C13.1148 25.3634 12.2339 24.4822 11.4863 23.4928L12.8561 22.1238C12.9668 22.0133 13.0365 21.8683 13.0537 21.7129C13.0708 21.5574 13.0345 21.4007 12.9506 21.2687C12.2761 20.2126 11.7907 19.0471 11.5163 17.8243C11.4822 17.6719 11.3971 17.5356 11.2751 17.438C11.1531 17.3403 11.0014 17.2872 10.8452 17.2872H8.91158C8.742 16.059 8.742 14.8133 8.91158 13.585H10.8486C11.0049 13.5851 11.1565 13.532 11.2785 13.4343C11.4005 13.3367 11.4856 13.2004 11.5198 13.0479C11.7925 11.8257 12.2758 10.6601 12.9481 9.60356C13.033 9.47113 13.07 9.31356 13.0528 9.15716C13.0356 9.00075 12.9653 8.85499 12.8535 8.74419L11.4837 7.3795C12.2313 6.39038 13.1122 5.50947 14.1013 4.76184L15.4695 6.13169C15.5804 6.24327 15.7262 6.31344 15.8826 6.33049C16.039 6.34754 16.1965 6.31043 16.3288 6.22536C17.3836 5.55448 18.5466 5.07152 19.7663 4.79794C19.9199 4.76454 20.0574 4.67955 20.1559 4.55712C20.2544 4.43468 20.308 4.28219 20.3078 4.12505V2.18973C21.536 2.02087 22.7817 2.02087 24.0099 2.18973V4.12505C24.0099 4.28131 24.063 4.43293 24.1607 4.55493C24.2583 4.67693 24.3946 4.76204 24.547 4.79622C25.7691 5.06914 26.9345 5.55212 27.9914 6.22364C28.1233 6.30739 28.2797 6.34374 28.435 6.32671C28.5902 6.30969 28.7351 6.2403 28.8456 6.12997L30.2155 4.76012C31.2046 5.50775 32.0855 6.38866 32.8331 7.37778L31.4633 8.74848C31.3517 8.85939 31.2815 9.00521 31.2645 9.16161C31.2474 9.31801 31.2846 9.47552 31.3696 9.60786C32.0412 10.6648 32.5245 11.8302 32.7979 13.0522C32.8321 13.2046 32.917 13.3407 33.0389 13.4384C33.1607 13.536 33.3121 13.5892 33.4682 13.5893H35.407C35.5766 14.8176 35.5766 16.0633 35.407 17.2915H33.4682C33.312 17.2915 33.1603 17.3446 33.0383 17.4423C32.9163 17.5399 32.8312 17.6762 32.797 17.8286C32.5236 19.0495 32.04 20.2135 31.3679 21.2687C31.2841 21.4007 31.2477 21.5574 31.2649 21.7129C31.2821 21.8683 31.3518 22.0133 31.4624 22.1238L32.8323 23.4928C32.0847 24.4822 31.2038 25.3634 30.2146 26.1113L28.8456 24.7415C28.7352 24.631 28.5904 24.5614 28.4351 24.5443C28.2799 24.5271 28.1234 24.5633 27.9914 24.6469C26.9345 25.3185 25.7691 25.8018 24.547 26.0752C24.3946 26.1094 24.2583 26.1945 24.1607 26.3165C24.063 26.4385 24.0099 26.5901 24.0099 26.7464ZM41.4028 18.3984C40.1885 18.0736 38.921 18.7929 38.5162 20.0312L36.1203 27.3909C35.7725 27.1139 35.3494 26.9479 34.906 26.9145C34.4626 26.8811 34.0195 26.9818 33.6341 27.2036L29.0106 29.8728C28.8319 29.9676 28.6446 30.0452 28.4512 30.1048C27.1621 30.5517 26.112 31.1911 25.3927 34.6672C25.0519 34.6035 24.6998 34.647 24.3847 34.7916C24.0697 34.9363 23.8073 35.1751 23.6335 35.475L22.8352 36.8569C22.6133 37.2425 22.5534 37.7003 22.6686 38.1299C22.7838 38.5596 23.0647 38.926 23.4496 39.1489L30.2722 43.0883C30.6579 43.3096 31.1155 43.3693 31.545 43.2541C31.9745 43.139 32.341 42.8584 32.5642 42.4738L33.3617 41.0919C33.5609 40.7462 33.6304 40.3408 33.5576 39.9484C33.4848 39.5561 33.2746 39.2025 32.9646 38.9512C33.5146 37.9131 35.0495 37.0168 36.4236 36.2158C38.077 35.2508 39.6385 34.339 39.9367 33.0232L43.0752 21.2954C43.2369 20.6895 43.1517 20.0441 42.8382 19.501C42.5246 18.9579 42.0084 18.5613 41.4028 18.3984ZM32.1671 40.4044L31.3679 41.7863C31.3269 41.8548 31.2608 41.9047 31.1837 41.9254C31.1065 41.9461 31.0244 41.9359 30.9545 41.8972L24.132 37.9578C24.0631 37.9171 24.013 37.851 23.9922 37.7737C23.9715 37.6964 23.9819 37.6141 24.0211 37.5444L24.8186 36.1625C24.8592 36.0935 24.9253 36.0432 25.0026 36.0225C25.0799 36.0017 25.1623 36.0122 25.232 36.0517L31.7684 39.8252H31.7735L32.0554 39.9885C32.1244 40.0291 32.1747 40.0951 32.1955 40.1725C32.2162 40.2498 32.2057 40.3322 32.1663 40.4018L32.1671 40.4044ZM41.7466 20.9396L38.6004 32.6812L38.5927 32.713C38.4337 33.4478 36.9951 34.2874 35.7258 35.0282C34.215 35.9099 32.5367 36.8896 31.7804 38.2422L26.6706 35.292C27.2996 31.9593 28.1135 31.6757 28.9049 31.4016C29.1806 31.3146 29.4471 31.2009 29.7007 31.0622L34.3242 28.3929C34.5166 28.2818 34.7454 28.2517 34.96 28.3093C35.0663 28.3378 35.166 28.3869 35.2533 28.4539C35.3406 28.5209 35.4138 28.6044 35.4688 28.6997C35.5239 28.795 35.5596 28.9002 35.5739 29.0094C35.5883 29.1185 35.581 29.2293 35.5525 29.3356C35.524 29.4419 35.4749 29.5416 35.4079 29.6289C35.3409 29.7162 35.2574 29.7894 35.162 29.8444L31.2992 32.0745C31.1464 32.1682 31.0363 32.3178 30.9922 32.4915C30.9481 32.6652 30.9736 32.8493 31.0633 33.0044C31.1529 33.1596 31.2996 33.2737 31.472 33.3223C31.6445 33.3709 31.8292 33.3502 31.9867 33.2647L35.847 31.0364C36.0993 30.8918 36.3205 30.6986 36.4975 30.4678C36.6745 30.2371 36.8039 29.9735 36.8782 29.6923C36.9136 29.5606 36.9369 29.426 36.9478 29.2901L36.9616 29.254L39.8233 20.4618C40.0046 19.904 40.5314 19.5878 41.047 19.7261C41.3 19.7954 41.5154 19.9617 41.6464 20.189C41.7774 20.4162 41.8134 20.686 41.7466 20.9396ZM26.1506 37.8521C26.0799 37.9739 25.9745 38.0721 25.848 38.134C25.7214 38.196 25.5793 38.2191 25.4396 38.2003C25.3 38.1815 25.169 38.1217 25.0633 38.0285C24.9577 37.9353 24.882 37.8128 24.8459 37.6766C24.8099 37.5403 24.815 37.3965 24.8607 37.2632C24.9064 37.1299 24.9906 37.0131 25.1027 36.9277C25.2147 36.8422 25.3496 36.792 25.4903 36.7832C25.6309 36.7744 25.771 36.8076 25.8928 36.8784C26.0561 36.9734 26.175 37.1293 26.2233 37.3119C26.2717 37.4945 26.2455 37.6888 26.1506 37.8521ZM21.1663 36.8569L20.3688 35.475C20.1944 35.1745 19.931 34.9354 19.615 34.7907C19.2991 34.646 18.946 34.6029 18.6045 34.6672C17.8852 31.1911 16.8316 30.5517 15.546 30.1048C15.3526 30.0452 15.1653 29.9676 14.9865 29.8728L10.3631 27.2036C9.97768 26.9823 9.53474 26.8819 9.09162 26.9153C8.64851 26.9487 8.22563 27.1144 7.87775 27.3909L5.48525 20.0355C5.08049 18.7929 3.81291 18.0727 2.59947 18.4027C1.99493 18.5659 1.47958 18.9618 1.16605 19.5038C0.852519 20.0458 0.766312 20.69 0.926271 21.2954L4.069 33.0232C4.36721 34.339 5.92955 35.2508 7.58299 36.2158C8.95799 37.0168 10.4911 37.9131 11.042 38.9512C10.7316 39.2022 10.5209 39.5557 10.448 39.9481C10.375 40.3406 10.4446 40.7462 10.6441 41.0919L11.4424 42.4738C11.6648 42.8591 12.0311 43.1402 12.4608 43.2554C12.8904 43.3707 13.3482 43.3105 13.7335 43.0883L20.557 39.1489C20.9418 38.9259 21.2225 38.5594 21.3375 38.1297C21.4525 37.7001 21.3925 37.2424 21.1706 36.8569H21.1663ZM8.27564 35.0282C7.00635 34.2874 5.56861 33.4478 5.40877 32.713L5.40104 32.6812L2.25486 20.9396C2.18829 20.6858 2.2245 20.4161 2.35564 20.1889C2.48677 19.9617 2.70224 19.7954 2.95525 19.7261C3.47088 19.5886 3.99682 19.904 4.17815 20.4618L7.04244 29.254C7.04244 29.2661 7.05104 29.2772 7.05619 29.2893C7.08318 29.6479 7.19733 29.9945 7.38873 30.299C7.58013 30.6035 7.843 30.8566 8.15447 31.0364L12.0148 33.2647C12.093 33.3127 12.1801 33.3446 12.2709 33.3584C12.3617 33.3722 12.4543 33.3676 12.5433 33.3451C12.6322 33.3225 12.7158 33.2823 12.789 33.2269C12.8622 33.1715 12.9236 33.102 12.9695 33.0225C13.0155 32.943 13.045 32.8552 13.0564 32.7641C13.0678 32.673 13.0608 32.5805 13.0359 32.4921C13.011 32.4038 12.9687 32.3213 12.9114 32.2496C12.8541 32.1778 12.783 32.1183 12.7023 32.0745L8.84197 29.8461C8.65043 29.7346 8.51078 29.5518 8.45346 29.3377C8.39615 29.1236 8.42583 28.8955 8.53604 28.7032C8.64793 28.5118 8.83078 28.3722 9.04492 28.3148C9.25906 28.2573 9.48721 28.2867 9.67986 28.3964L14.3033 31.0656C14.5569 31.2044 14.8234 31.3181 15.0991 31.405C15.888 31.6792 16.7027 31.9628 17.3335 35.2954L12.221 38.2422C11.4648 36.8896 9.78643 35.9099 8.27564 35.0282ZM19.8695 37.9578L13.046 41.8972C12.9764 41.9366 12.894 41.9471 12.8167 41.9264C12.7393 41.9056 12.6732 41.8553 12.6327 41.7863L11.8352 40.4044C11.7959 40.3348 11.7854 40.2526 11.8059 40.1753C11.8265 40.0981 11.8765 40.0319 11.9452 39.9911L12.2262 39.8286H12.2331L18.7643 36.0551C18.8095 36.0291 18.8608 36.0155 18.913 36.0156C18.9664 36.0153 19.019 36.029 19.0654 36.0554C19.1119 36.0818 19.1506 36.1199 19.1777 36.166L19.9752 37.5479C20.0138 37.6166 20.0244 37.6977 20.0047 37.7741C19.985 37.8504 19.9365 37.9163 19.8695 37.9578ZM19.0857 37.1397C19.1566 37.2615 19.1897 37.4016 19.1809 37.5422C19.1722 37.6829 19.1219 37.8177 19.0365 37.9298C18.951 38.0419 18.8343 38.1261 18.7009 38.1718C18.5676 38.2175 18.4238 38.2226 18.2876 38.1866C18.1513 38.1505 18.0289 38.0748 17.9356 37.9691C17.8424 37.8635 17.7826 37.7325 17.7638 37.5928C17.7451 37.4532 17.7681 37.3111 17.8301 37.1845C17.8921 37.058 17.9902 36.9526 18.1121 36.8818C18.2754 36.787 18.4697 36.7608 18.6523 36.8092C18.8348 36.8575 18.9908 36.9764 19.0857 37.1397ZM31.728 15.4361C31.7276 13.5434 31.1661 11.6933 30.1143 10.1197C29.0624 8.54614 27.5676 7.3198 25.8189 6.59576C24.0701 5.87171 22.1459 5.68249 20.2896 6.05202C18.4333 6.42154 16.7282 7.33322 15.3901 8.67176C14.0519 10.0103 13.1407 11.7156 12.7716 13.572C12.4026 15.4284 12.5924 17.3526 13.3169 19.1011C14.0414 20.8497 15.2681 22.3442 16.842 23.3956C18.4158 24.4469 20.2661 25.008 22.1588 25.0079C24.6963 25.0051 27.1291 23.9957 28.9231 22.2012C30.7172 20.4067 31.7259 17.9736 31.728 15.4361ZM22.1588 23.6329C20.538 23.633 18.9535 23.1525 17.6057 22.2522C16.2579 21.3518 15.2074 20.072 14.587 18.5745C13.9667 17.0771 13.8042 15.4294 14.1203 13.8396C14.4365 12.2499 15.2169 10.7896 16.3629 9.64342C17.509 8.49725 18.9692 7.71666 20.5589 7.40039C22.1486 7.08411 23.7964 7.24635 25.2939 7.86658C26.7914 8.48682 28.0713 9.53719 28.9718 10.8849C29.8723 12.2326 30.353 13.817 30.353 15.4379C30.3505 17.6104 29.4864 19.6932 27.9503 21.2295C26.4141 22.7658 24.3314 23.6301 22.1588 23.6329ZM27.6588 11.3687L27.6073 11.318C27.2412 10.9524 26.745 10.747 26.2276 10.747C25.7102 10.747 25.2139 10.9524 24.8478 11.318L20.8492 15.3167L19.4742 13.9417C19.1077 13.5764 18.6114 13.3713 18.094 13.3713C17.5766 13.3713 17.0803 13.5764 16.7138 13.9417L16.6631 13.9924C16.2979 14.3589 16.0928 14.8552 16.0928 15.3725C16.0928 15.8899 16.2979 16.3862 16.6631 16.7527L19.4716 19.5603C19.8378 19.9257 20.334 20.1309 20.8513 20.1309C21.3686 20.1309 21.8648 19.9257 22.231 19.5603L27.6606 14.1307C27.842 13.9492 27.9858 13.7336 28.0839 13.4964C28.1819 13.2592 28.2323 13.005 28.232 12.7483C28.2318 12.4917 28.181 12.2376 28.0825 12.0005C27.984 11.7635 27.8397 11.5482 27.658 11.367L27.6588 11.3687ZM26.686 13.1562L21.2565 18.5858C21.1482 18.6937 21.0016 18.7543 20.8487 18.7543C20.6959 18.7543 20.5492 18.6937 20.441 18.5858L17.6325 15.7773C17.5248 15.6689 17.4643 15.5223 17.4643 15.3695C17.4643 15.2167 17.5248 15.0701 17.6325 14.9618L17.6832 14.9111C17.7915 14.8031 17.9381 14.7425 18.091 14.7425C18.2439 14.7425 18.3905 14.8031 18.4988 14.9111L20.3628 16.775C20.4917 16.9039 20.6665 16.9763 20.8487 16.9763C21.031 16.9763 21.2058 16.9039 21.3347 16.775L25.8189 12.2891C25.9272 12.1812 26.0738 12.1205 26.2267 12.1205C26.3796 12.1205 26.5262 12.1812 26.6345 12.2891L26.6852 12.3398C26.7931 12.4479 26.8537 12.5944 26.8537 12.7472C26.8537 12.8999 26.7931 13.0464 26.6852 13.1545L26.686 13.1562Z" fill="#1D1EE3"/>
</g>
<defs>
<clipPath id="clip0_30783_5362">
<rect width="44" height="44" fill="white"/>
</clipPath>
</defs>
</svg>
