<svg width="36" height="36" viewBox="0 0 36 36" fill="none" xmlns="http://www.w3.org/2000/svg">
<path d="M22.5297 15.8445C22.5297 15.2854 22.0763 14.832 21.5172 14.832H10.3797C9.82056 14.832 9.36719 15.2854 9.36719 15.8445C9.36719 16.4037 9.82056 16.857 10.3797 16.857H21.5172C22.0763 16.857 22.5297 16.4037 22.5297 15.8445Z" fill="#1D1EE3"/>
<path d="M10.3797 19.9451C9.82056 19.9451 9.36719 20.3984 9.36719 20.9576C9.36719 21.5167 9.82056 21.9701 10.3797 21.9701H16.2848C16.8439 21.9701 17.2973 21.5167 17.2973 20.9576C17.2973 20.3984 16.8439 19.9451 16.2848 19.9451H10.3797Z" fill="#1D1EE3"/>
<path d="M29.2019 15.9007C28.6428 15.9007 28.1894 16.3541 28.1894 16.9132V25.1021C28.1894 26.6344 26.9429 27.8809 25.4106 27.8809H18.6381C18.4188 27.8809 18.205 27.9517 18.0295 28.0845L12.1818 32.4821C12.0333 32.5935 11.8938 32.5474 11.824 32.5091C11.7531 32.4731 11.6361 32.3842 11.6406 32.2031L11.7531 28.9294C11.7621 28.6549 11.6598 28.3882 11.4696 28.1914C11.2795 27.9934 11.0163 27.882 10.7417 27.882H6.03813C4.50588 27.882 3.25938 26.6366 3.25938 25.1032V11.7157C3.25938 10.1779 4.50588 8.92685 6.03813 8.92685H18.5144C19.0735 8.92685 19.5269 8.47348 19.5269 7.91435C19.5269 7.35523 19.0735 6.90186 18.5144 6.90186H6.03813C3.38988 6.90186 1.23438 9.06186 1.23438 11.7169V25.1032C1.23438 27.7515 3.38988 29.9081 6.03813 29.9081H9.69325L9.61675 32.1379C9.58975 33.0536 10.0769 33.8861 10.8903 34.308C11.2379 34.4891 11.6125 34.578 11.9838 34.578C12.4821 34.578 12.976 34.4171 13.3968 34.1032L18.9756 29.9081H25.4095C28.0578 29.9081 30.2133 27.7526 30.2133 25.1032V16.9144C30.2144 16.3541 29.761 15.9007 29.2019 15.9007Z" fill="#1D1EE3"/>
<path d="M34.6765 6.25615C34.4931 5.69365 34.042 5.2729 33.4694 5.13115L30.8819 4.48652L29.4689 2.22527C28.8422 1.21952 27.2065 1.22177 26.581 2.22527L25.168 4.48652L22.5805 5.13115C22.0079 5.2729 21.5556 5.69365 21.3734 6.25615C21.1911 6.81865 21.3081 7.42502 21.6884 7.8784L23.4029 9.91915L23.2161 12.5786C23.1745 13.1681 23.4355 13.7273 23.9136 14.0749C24.2106 14.2909 24.5594 14.4023 24.9126 14.4023C25.1275 14.4023 25.3446 14.3606 25.5527 14.2763L28.0255 13.2773L30.4971 14.2763C31.045 14.499 31.657 14.4225 32.1362 14.076C32.6144 13.7284 32.8754 13.1693 32.8349 12.5786L32.6481 9.91915L34.3626 7.87727C34.7417 7.42502 34.8599 6.81865 34.6765 6.25615ZM30.8335 8.93027C30.6647 9.13165 30.5804 9.3904 30.5995 9.65365L30.7795 12.2074L28.4057 11.2478C28.2842 11.1983 28.1549 11.1735 28.0266 11.1735C27.8984 11.1735 27.769 11.1983 27.6475 11.2478L25.2749 12.2074L25.4537 9.65365C25.4717 9.39152 25.3874 9.13165 25.2197 8.93027L23.5739 6.97052L26.0579 6.35065C26.3121 6.28652 26.5326 6.1279 26.671 5.90515L28.0277 3.73502L29.3845 5.90515C29.524 6.1279 29.7434 6.28765 29.9976 6.35065L32.4816 6.97052L30.8335 8.93027Z" fill="#1D1EE3"/>
</svg>
