<svg width="42" height="29" viewBox="0 0 42 29" fill="none" xmlns="http://www.w3.org/2000/svg">
<g clip-path="url(#clip0_30783_5073)">
<path fill-rule="evenodd" clip-rule="evenodd" d="M17.8591 0C21.3982 0.000114229 24.2673 2.80906 24.2674 6.27287C24.2674 6.46603 24.2584 6.65839 24.2459 6.85H29.6437C34.8941 6.85 36.9558 13.5145 32.5872 16.3649L26.875 20.0913C25.6453 20.894 25.9824 22.7464 27.4198 23.084C27.8897 23.1943 28.386 23.1027 28.7827 22.8327L32.0968 20.4397C32.2226 20.3489 32.3743 20.3 32.5301 20.3H41.6323C41.9907 20.3 42.1366 20.7554 41.8434 20.959L32.2084 27.6513C30.4065 28.8781 28.1542 29.2935 26.0198 28.7921C19.4928 27.259 17.963 18.8511 23.5479 15.2068L27.3592 12.7206H21.5104H17.7673C16.6925 12.7206 15.6779 12.4646 14.7848 12.0126C15.7365 12.6538 18.0893 13.3673 20.0743 13.5032C20.2511 13.5032 20.5384 13.6579 20.1963 14.0058L8.17928 25.8874C8.04155 26.0235 7.85472 26.1 7.65993 26.1H0.367778C0.0407298 26.1 -0.123011 25.7094 0.108312 25.4811L14.1365 11.6342C12.408 10.4914 11.2714 8.55594 11.2711 6.36078C11.2711 2.84834 14.1804 0 17.7693 0H17.8591ZM17.989 4.89313C17.1608 4.89313 16.4893 5.33119 16.4893 5.87156C16.4897 6.31706 16.9466 6.69182 17.5711 6.80987C17.6318 6.83564 17.6989 6.85 17.7693 6.85H18.2145C18.2153 6.84563 18.2146 6.841 18.2154 6.83663C18.9358 6.76535 19.4881 6.36145 19.4885 5.87156C19.4885 5.33119 18.8171 4.89313 17.989 4.89313Z" fill="white"/>
</g>
<defs>
<clipPath id="clip0_30783_5073">
<rect width="42" height="29" fill="white"/>
</clipPath>
</defs>
</svg>
