<svg width="20" height="20" viewBox="0 0 20 20" fill="none" xmlns="http://www.w3.org/2000/svg">
<path opacity="0.3" fill-rule="evenodd" clip-rule="evenodd" d="M8.9999 19C4.03556 19 0 14.9644 0 10C0 5.03563 4.03556 1 8.9999 1C11.499 1 13.8292 1.99626 15.5515 3.81988C15.6386 3.91806 15.629 4.02802 15.5733 4.10795L16.1015 4.79837C16.2022 4.74708 16.3331 4.75766 16.4127 4.88362C17.4596 6.38645 18 8.15943 18 9.99995C17.9999 14.9644 13.9643 19 8.9999 19ZM8.9999 17.1426C5.06559 17.1426 1.85737 13.9343 1.85737 10C1.85737 6.06566 5.06559 2.85738 8.9999 2.85738C10.8742 2.85738 12.6472 3.58343 13.9812 4.88367C14.0884 4.98951 14.0717 5.1158 14.0019 5.20077L14.6706 6.0307C14.7726 5.97102 14.9136 5.97677 14.9942 6.09943C18.0298 10.7189 14.7355 17.1426 8.9999 17.1426Z" fill="#1D1EE3"/>
<path fill-rule="evenodd" clip-rule="evenodd" d="M8.56956 14C8.46907 14 8.3853 13.9358 8.35181 13.8554C8.33508 13.8233 6.8944 10.2576 4.66642 8.90835C4.23087 8.65136 3.8959 8.37829 4.02989 7.76792C4.16387 7.17363 4.5827 6.83633 5.33649 6.6757C6.6766 6.40263 8.11724 8.39433 8.65333 9.21353C10.5295 6.59543 14.2819 2.48352 19.7429 2.00166C20.0064 1.97205 20.1038 2.34648 19.8602 2.4514C19.7764 2.48352 11.9701 5.90479 8.80404 13.8715C8.75382 13.9518 8.67005 14 8.56956 14Z" fill="#1D1EE3"/>
</svg>
