<svg width="36" height="36" viewBox="0 0 36 36" fill="none" xmlns="http://www.w3.org/2000/svg">
<g clip-path="url(#clip0_32064_272)">
<path d="M20.3906 36H15.6094C14.834 36 14.2031 35.3691 14.2031 34.5938V32.4945C12.8801 32.1487 11.6175 31.6252 10.437 30.9328L8.95139 32.4185C8.40289 32.9667 7.5108 32.9667 6.96259 32.4185L3.58154 29.0374C3.03333 28.4892 3.03333 27.5971 3.58154 27.0489L5.06717 25.563C4.37476 24.3825 3.85126 23.1199 3.50546 21.7969H1.40625C0.63089 21.7969 0 21.166 0 20.3906V15.6094C0 14.834 0.63089 14.2031 1.40625 14.2031H3.50079C3.84549 12.8779 4.36844 11.6131 5.06085 10.4304L3.58154 8.95111C3.03333 8.40289 3.03333 7.5108 3.58154 6.96259L6.96259 3.58154C7.5108 3.03333 8.40289 3.03333 8.95139 3.58154L10.4255 5.05591C11.6093 4.3602 12.8757 3.8345 14.2031 3.48761V1.40625C14.2031 0.63089 14.834 0 15.6094 0H20.3906C21.166 0 21.7969 0.63089 21.7969 1.40625V3.48294C23.1262 3.82874 24.3951 4.35388 25.5808 5.04932L27.0489 3.58154C27.5971 3.03333 28.4892 3.03333 29.0374 3.58154L32.4185 6.96259C32.9667 7.5108 32.9667 8.40289 32.4185 8.95139L30.9507 10.4192C31.6461 11.6049 32.1713 12.8738 32.5171 14.2031H34.5938C35.3691 14.2031 36 14.834 36 15.6094V20.3906C36 21.166 35.3691 21.7969 34.5938 21.7969H32.5124C32.1655 23.1243 31.6395 24.3907 30.9441 25.5745L32.4182 27.0489C32.9664 27.5971 32.9664 28.4892 32.4182 29.0374L29.0374 32.4185C28.4892 32.9667 27.5971 32.9667 27.0486 32.4185L25.5696 30.9391C24.3866 31.6316 23.1218 32.1545 21.7969 32.4992V34.5938C21.7969 35.3691 21.166 36 20.3906 36ZM10.3315 29.3406C10.4623 29.3406 10.5933 29.3769 10.7097 29.451C12.0476 30.3052 13.5107 30.912 15.0581 31.2545C15.3803 31.3259 15.6094 31.6112 15.6094 31.9411V34.5938H20.3906V31.9449C20.3906 31.6148 20.6202 31.3292 20.9427 31.2583C22.4923 30.9172 23.9576 30.3113 25.2977 29.4576C25.5756 29.2805 25.9395 29.3203 26.1727 29.5535L28.0432 31.4239L31.4239 28.0432L29.5576 26.1768C29.3242 25.9434 29.2846 25.5789 29.4626 25.3007C30.3198 23.9604 30.929 22.4937 31.2726 20.9419C31.3437 20.6197 31.6294 20.3906 31.959 20.3906H34.5938V15.6094H31.9628C31.6327 15.6094 31.347 15.3798 31.2762 15.0573C30.9342 13.5033 30.3261 12.0344 29.4689 10.6919C29.2915 10.4137 29.3313 10.0497 29.5645 9.81628L31.4239 7.95685L28.0432 4.57608L26.1837 6.43552C25.9505 6.6687 25.5863 6.70853 25.3081 6.5311C23.9656 5.67389 22.4967 5.06607 20.9427 4.72385C20.6202 4.65298 20.3906 4.36734 20.3906 4.0372V1.40625H15.6094V4.04105C15.6094 4.37091 15.3803 4.65628 15.0584 4.72769C13.5063 5.07129 12.0396 5.68021 10.6993 6.53741C10.4214 6.71539 10.0566 6.67584 9.82343 6.44238L7.95685 4.57608L4.57608 7.95685L6.4465 9.82755C6.67969 10.0605 6.71951 10.4244 6.54236 10.7023C5.68872 12.0424 5.08282 13.5077 4.7417 15.0573C4.67084 15.3798 4.38519 15.6094 4.05505 15.6094H1.40625V20.3906H4.0589C4.38876 20.3906 4.67413 20.62 4.74554 20.9419C5.08804 22.4896 5.69504 23.9524 6.54895 25.2903C6.72638 25.5685 6.68683 25.9327 6.45337 26.1659L4.57608 28.0432L7.95685 31.4242L9.83414 29.5466C9.97009 29.4109 10.15 29.3406 10.3315 29.3406Z" fill="#1D1EE3"/>
<path d="M18.0031 28.261C15.3743 28.261 12.7456 27.2601 10.7441 25.2589C6.74154 21.2564 6.74154 14.7437 10.7441 10.7411C12.3586 9.1269 14.4056 8.11726 16.6638 7.82173C18.8504 7.53553 21.1078 7.96894 23.0211 9.04176C23.3597 9.23155 23.4803 9.66001 23.2905 9.99867C23.1005 10.3376 22.672 10.4582 22.3333 10.2681C18.8902 8.33726 14.5333 8.94068 11.7387 11.7356C8.28429 15.1897 8.28429 20.8103 11.7387 24.2647C13.4657 25.9915 15.7347 26.855 18.0031 26.8553C20.272 26.8555 22.5404 25.992 24.2678 24.2647C26.9685 21.564 27.6373 17.4554 25.9316 14.0411C25.758 13.6936 25.8989 13.2712 26.2464 13.0976C26.5936 12.9241 27.016 13.0652 27.1896 13.4127C29.166 17.3688 28.3915 22.1298 25.262 25.2589C23.2606 27.2601 20.6318 28.261 18.0031 28.261Z" fill="#1D1EE3"/>
<path d="M24.9141 12.0945C24.7284 12.0945 24.5477 12.0198 24.4161 11.8883C24.2854 11.7575 24.2109 11.5768 24.2109 11.3914C24.2109 11.2063 24.2854 11.025 24.4161 10.8943C24.5468 10.7633 24.7284 10.6883 24.9141 10.6883C25.0989 10.6883 25.2802 10.7633 25.4112 10.8943C25.5419 11.025 25.6172 11.2063 25.6172 11.3914C25.6172 11.5768 25.5419 11.7575 25.4112 11.8883C25.2796 12.0198 25.0989 12.0945 24.9141 12.0945Z" fill="#1D1EE3"/>
<path d="M17.0089 23.1797C16.8224 23.1797 16.6436 23.1056 16.5118 22.9738L12.0654 18.527C11.7907 18.2527 11.7907 17.8074 12.0654 17.5328L14.5873 15.0106C14.7191 14.8788 14.8979 14.8049 15.0844 14.8049C15.2709 14.8049 15.45 14.8788 15.5818 15.0106L17.0089 16.438L20.421 13.0262C20.6954 12.7515 21.1406 12.7515 21.4153 13.0262L23.9375 15.5484C24.2119 15.8228 24.2119 16.268 23.9375 16.5426L17.5063 22.9738C17.3742 23.1056 17.1954 23.1797 17.0089 23.1797ZM13.5568 18.0299L17.0089 21.4821L22.4458 16.0455L20.9182 14.5179L17.5063 17.9297C17.3745 18.0615 17.1954 18.1357 17.0089 18.1357C16.8224 18.1357 16.6436 18.0615 16.5118 17.9297L15.0844 16.5023L13.5568 18.0299Z" fill="#1D1EE3"/>
</g>
<defs>
<clipPath id="clip0_32064_272">
<rect width="36" height="36" fill="white"/>
</clipPath>
</defs>
</svg>
