<svg width="16" height="16" viewBox="0 0 16 16" fill="none" xmlns="http://www.w3.org/2000/svg">
<g clip-path="url(#clip0_2024_123)">
<path fill-rule="evenodd" clip-rule="evenodd" d="M6.89555 9.02462C6.35646 7.61737 6.72983 5.95541 7.7399 4.63956L9.3964 2.48156H11.7595L13.416 4.63956C14.6228 6.21166 14.9206 8.27781 13.8393 9.81331C13.719 9.83963 13.6033 9.87022 13.4953 9.90187L10.6726 10.73C10.5238 10.4261 10.2483 10.1976 9.91987 10.1096C9.25087 9.93037 8.58261 9.75028 7.91411 9.57184C7.59971 9.35134 7.25911 9.14966 6.89555 9.02462ZM10.3301 11.4394C10.4356 11.0459 10.2005 10.6378 9.80665 10.5322L7.76321 9.98469C7.73871 9.97816 7.71502 9.96694 7.69315 9.95138C7.04005 9.48825 6.55621 9.32041 6.11318 9.33181C5.66721 9.34331 5.23433 9.53816 4.70377 9.79759C4.21186 10.0381 3.73318 10.267 3.25958 10.4913L4.5254 13.5308L5.0123 13.2941C5.36949 13.1204 5.73583 13.0897 6.11715 13.2004L8.37083 13.8548C8.96583 14.0275 9.74202 13.7255 10.3578 13.4859C11.8114 12.9202 13.2694 12.3635 14.7249 11.8026C15.0652 11.6715 15.3106 11.3329 15.3746 10.9907C15.4201 10.7473 15.3729 10.4979 15.1674 10.3411C14.91 10.1447 14.4208 10.0863 13.6184 10.3217L10.788 11.1521C10.7987 11.279 10.7887 11.4096 10.7521 11.5524C10.5818 12.1595 9.9054 12.5809 9.2984 12.3817L6.59452 11.6572C6.47796 11.6261 6.40871 11.5063 6.43986 11.3897C6.47102 11.2732 6.59077 11.2039 6.70733 11.2351L9.42302 11.9628C9.81696 12.0683 10.2245 11.8334 10.3301 11.4394ZM4.16805 15.0148L3.08455 15.4647C2.84946 15.5623 2.57815 15.4504 2.4803 15.2154C1.86871 13.7469 1.25711 12.2783 0.645521 10.8097C0.546615 10.5722 0.65749 10.3035 0.895083 10.2048L1.97858 9.75494C2.21368 9.65731 2.48499 9.76925 2.58283 10.0042C3.1944 11.4728 3.80602 12.9414 4.41758 14.4099C4.51649 14.6474 4.40565 14.9161 4.16805 15.0148ZM9.78193 8.426C9.95674 8.59091 10.124 8.71728 10.3642 8.76334L10.3692 8.96875C10.372 9.08909 10.4719 9.18434 10.5922 9.18153C10.7126 9.17872 10.8078 9.07884 10.805 8.9585L10.8002 8.75925C11.2228 8.66984 11.5694 8.32078 11.5694 7.87366C11.5694 7.3405 11.088 6.96491 10.578 6.96491C10.309 6.96491 10.024 6.785 10.024 6.49369C10.024 6.20303 10.3094 6.02159 10.578 6.02159C10.706 6.02159 11.0092 6.13225 11.0815 6.24216C11.1475 6.34266 11.2826 6.37059 11.3831 6.30453C11.4836 6.23847 11.5115 6.10341 11.4455 6.00291C11.3147 5.80403 11.0209 5.66794 10.7924 5.61409L10.7867 5.37322C10.7839 5.25287 10.684 5.15763 10.5636 5.16044C10.4433 5.16325 10.3481 5.26312 10.3509 5.38347L10.3562 5.60869C9.93302 5.69741 9.58649 6.04619 9.58649 6.49372C9.58649 7.02684 10.0679 7.40247 10.5779 7.40247C10.8469 7.40247 11.1319 7.58241 11.1319 7.87372C11.1319 8.16503 10.8469 8.34497 10.5779 8.34497C10.3494 8.34497 10.241 8.25916 10.081 8.10822C9.99321 8.02563 9.85511 8.02984 9.77252 8.11763C9.68996 8.20528 9.69418 8.34341 9.78193 8.426ZM9.43861 2.04409L8.68596 0.734094C8.62593 0.629594 8.7009 0.5 8.82143 0.5H12.3344C12.4549 0.5 12.5299 0.629594 12.4699 0.734094L11.7172 2.04409H9.43861Z" fill="#0D1B2A"/>
</g>
<defs>
<clipPath id="clip0_2024_123">
<rect width="16" height="16" fill="white"/>
</clipPath>
</defs>
</svg>
