<svg width="20" height="20" viewBox="0 0 20 20" fill="none" xmlns="http://www.w3.org/2000/svg">
<path d="M10.0555 14.1344C7.8022 14.1344 5.96875 12.301 5.96875 10.0477C5.96875 7.79439 7.8022 5.96094 10.0555 5.96094C12.3088 5.96094 14.1423 7.79439 14.1423 10.0477C14.1423 12.3015 12.3088 14.1344 10.0555 14.1344ZM10.0555 7.65941C8.73871 7.65941 7.66722 8.7309 7.66722 10.0477C7.66722 11.3645 8.73871 12.436 10.0555 12.436C11.3723 12.436 12.4438 11.3645 12.4438 10.0477C12.4438 8.7309 11.3723 7.65941 10.0555 7.65941Z" fill="url(#paint0_linear_1_1701)"/>
<path d="M14.0905 6.92719C14.6217 6.92719 15.0522 6.49665 15.0522 5.96555C15.0522 5.43445 14.6217 5.00391 14.0905 5.00391C13.5594 5.00391 13.1289 5.43445 13.1289 5.96555C13.1289 6.49665 13.5594 6.92719 14.0905 6.92719Z" fill="url(#paint1_linear_1_1701)"/>
<path d="M13.4238 18.0012H6.57688C4.05315 18.0012 2 15.948 2 13.4243V6.57688C2 4.05315 4.05315 2 6.57688 2H13.4243C15.948 2 18.0012 4.05315 18.0012 6.57688V13.4243C18.0012 15.9476 15.9476 18.0012 13.4238 18.0012ZM6.57688 3.698C4.98966 3.698 3.69847 4.98919 3.69847 6.57642V13.4238C3.69847 15.011 4.98966 16.3022 6.57688 16.3022H13.4243C15.0115 16.3022 16.3027 15.011 16.3027 13.4238V6.57688C16.3027 4.98966 15.0115 3.69847 13.4243 3.69847H6.57688V3.698Z" fill="url(#paint2_linear_1_1701)"/>
<defs>
<linearGradient id="paint0_linear_1_1701" x1="3.15564" y1="16.9477" x2="15.7436" y2="4.35975" gradientUnits="userSpaceOnUse">
<stop stop-color="#FEE411"/>
<stop offset="0.0518" stop-color="#FEDB16"/>
<stop offset="0.1381" stop-color="#FEC125"/>
<stop offset="0.2481" stop-color="#FE983D"/>
<stop offset="0.3762" stop-color="#FE5F5E"/>
<stop offset="0.5" stop-color="#FE2181"/>
<stop offset="1" stop-color="#9000DC"/>
</linearGradient>
<linearGradient id="paint1_linear_1_1701" x1="3.13154" y1="16.9245" x2="15.7195" y2="4.33657" gradientUnits="userSpaceOnUse">
<stop stop-color="#FEE411"/>
<stop offset="0.0518" stop-color="#FEDB16"/>
<stop offset="0.1381" stop-color="#FEC125"/>
<stop offset="0.2481" stop-color="#FE983D"/>
<stop offset="0.3762" stop-color="#FE5F5E"/>
<stop offset="0.5" stop-color="#FE2181"/>
<stop offset="1" stop-color="#9000DC"/>
</linearGradient>
<linearGradient id="paint2_linear_1_1701" x1="3.10459" y1="16.8961" x2="15.6926" y2="4.30813" gradientUnits="userSpaceOnUse">
<stop stop-color="#FEE411"/>
<stop offset="0.0518" stop-color="#FEDB16"/>
<stop offset="0.1381" stop-color="#FEC125"/>
<stop offset="0.2481" stop-color="#FE983D"/>
<stop offset="0.3762" stop-color="#FE5F5E"/>
<stop offset="0.5" stop-color="#FE2181"/>
<stop offset="1" stop-color="#9000DC"/>
</linearGradient>
</defs>
</svg>
