<svg width="20" height="20" viewBox="0 0 20 20" fill="none" xmlns="http://www.w3.org/2000/svg">
<path d="M17.9968 18.0004V17.9998H18.0008V12.1318C18.0008 9.2612 17.3828 7.0498 14.0268 7.0498C12.4134 7.0498 11.3308 7.9352 10.8888 8.7744H10.8422V7.3178H7.66016V17.9998H10.9736V12.7104C10.9736 11.3178 11.2376 9.971 12.9622 9.971C14.6616 9.971 14.6868 11.5604 14.6868 12.7996V18.0004H17.9968Z" fill="#099AE9"/>
<path d="M2.26562 7.31836H5.58302V18.0004H2.26562V7.31836Z" fill="#099AE9"/>
<path d="M3.9214 2C2.8606 2 2 2.8606 2 3.9214C2 4.9822 2.8606 5.8608 3.9214 5.8608C4.9822 5.8608 5.8428 4.9822 5.8428 3.9214C5.842 2.8606 4.9814 2 3.9214 2Z" fill="#099AE9"/>
</svg>
