<svg width="28" height="28" viewBox="0 0 28 28" fill="none" xmlns="http://www.w3.org/2000/svg">
<path fill-rule="evenodd" clip-rule="evenodd" d="M1.81202 23.9768L6.35999 19.9947C6.39712 20.0418 6.43727 20.0871 6.48063 20.1305L8.32852 21.9784C8.37189 22.0218 8.41728 22.0619 8.46431 22.099L4.48219 26.647C3.31855 27.9759 0.483055 25.1405 1.81202 23.9768ZM22.0811 12.6741C22.2375 12.764 22.2914 12.9637 22.2015 13.1201C22.1116 13.2765 21.9119 13.3305 21.7555 13.2406L21.0582 12.838C20.9018 12.7481 20.8479 12.5484 20.9378 12.392C21.0277 12.2356 21.2274 12.1816 21.3838 12.2715L22.0811 12.6741ZM16.739 4.79887C16.739 4.61764 16.8859 4.47075 17.0671 4.47075C17.2483 4.47075 17.3952 4.61764 17.3952 4.79887V5.60404C17.3952 5.78527 17.2483 5.93216 17.0671 5.93216C16.8859 5.93216 16.739 5.78527 16.739 5.60404V4.79887ZM14.0534 5.73228C13.9628 5.57587 14.0162 5.37555 14.1726 5.28494C14.3291 5.19432 14.5294 5.24769 14.62 5.40416L15.0226 6.10142C15.1132 6.25783 15.0598 6.45815 14.9034 6.54877C14.747 6.63938 14.5467 6.58601 14.456 6.42955L14.0534 5.73228ZM12.1927 7.88298C12.0363 7.79236 11.983 7.59209 12.0735 7.43563C12.1641 7.27923 12.3644 7.22585 12.5209 7.31641L13.2181 7.71902C13.3745 7.80964 13.4279 8.00991 13.3374 8.16637C13.2467 8.32283 13.0465 8.37615 12.89 8.28559L12.1927 7.88298ZM11.6579 10.6771C11.4767 10.6771 11.3298 10.5302 11.3298 10.3489C11.3298 10.1677 11.4767 10.0208 11.6579 10.0208H12.4631C12.6443 10.0208 12.7912 10.1677 12.7912 10.3489C12.7912 10.5302 12.6443 10.6771 12.4631 10.6771H11.6579ZM12.59 13.3626C12.4336 13.4525 12.2339 13.3985 12.144 13.2421C12.0541 13.0857 12.108 12.886 12.2644 12.7961L12.9618 12.3935C13.1182 12.3036 13.3179 12.3576 13.4078 12.514C13.4977 12.6704 13.4437 12.8702 13.2873 12.9601L12.59 13.3626ZM19.5331 5.33372C19.6237 5.17726 19.824 5.12394 19.9805 5.2145C20.1369 5.30512 20.1902 5.50538 20.0997 5.66184L19.6971 6.35916C19.6065 6.51557 19.4062 6.56894 19.2497 6.47838C19.0933 6.38782 19.0399 6.1875 19.1305 6.03104L19.5331 5.33372ZM21.6838 7.19441C21.8403 7.10379 22.0405 7.15716 22.1312 7.31362C22.2218 7.47003 22.1684 7.67035 22.0119 7.76097L21.3147 8.16358C21.1583 8.25419 20.9579 8.20082 20.8673 8.04436C20.7767 7.88795 20.8301 7.68763 20.9865 7.59702L21.6838 7.19441ZM22.6172 9.87994C22.7985 9.87994 22.9453 10.0268 22.9453 10.2081C22.9453 10.3893 22.7985 10.5362 22.6172 10.5362H21.8121C21.6308 10.5362 21.4839 10.3893 21.4839 10.2081C21.4839 10.0268 21.6308 9.87994 21.8121 9.87994H22.6172ZM15.7368 16.6398H18.5383C18.6681 16.6398 18.7742 16.5337 18.7742 16.4039V15.6957H15.501V16.4039C15.501 16.5337 15.6071 16.6398 15.7368 16.6398ZM16.2093 17.8442H18.0657C18.1955 17.8442 18.3016 17.738 18.3016 17.6083V17.2961H15.9735V17.6083C15.9735 17.738 16.0796 17.8442 16.2093 17.8442ZM15.5009 15.0395C15.2031 13.8872 14.7301 13.2627 14.0667 12.2109C13.7138 11.6515 13.5096 10.9889 13.5096 10.2786C13.5096 8.27492 15.1339 6.65065 17.1375 6.65065C19.1412 6.65065 20.7654 8.27492 20.7654 10.2786C20.7654 10.9889 20.5612 11.6515 20.2083 12.2109C19.5449 13.2628 19.0719 13.8872 18.7741 15.0395H18.0499V11.6046C18.3971 11.6046 18.669 11.6217 18.9539 11.3369C19.5285 10.7623 19.1189 9.77669 18.3076 9.77669C17.803 9.77669 17.3937 10.186 17.3937 10.6906V10.9483H16.8813C16.8813 10.6012 16.8984 10.3293 16.6136 10.0444C16.0389 9.46979 15.0534 9.87951 15.0534 10.6906C15.0534 11.1953 15.4627 11.6046 15.9673 11.6046H16.225V15.0395H15.5008H15.5009ZM17.3937 15.0395V11.6046H16.8814V15.0395H17.3937ZM15.9674 10.9483H16.2251V10.6906C16.2251 10.3513 15.7097 10.3513 15.7097 10.6906C15.7097 10.833 15.825 10.9483 15.9674 10.9483ZM18.05 10.6906V10.9483H18.3077C18.647 10.9483 18.647 10.4329 18.3077 10.4329C18.1653 10.4329 18.05 10.5482 18.05 10.6906ZM10.0719 7.50667C9.9797 7.82659 9.85234 8.13159 9.69434 8.41727L10.0139 9.04437C10.116 9.2448 10.0791 9.47805 9.91998 9.63713L9.17815 10.379C9.01912 10.5381 8.78582 10.575 8.58539 10.4729L7.95823 10.1534C7.67255 10.3114 7.36755 10.4387 7.04769 10.531L6.83036 11.1999C6.76085 11.4139 6.56977 11.5527 6.34484 11.5527H5.29572C5.07079 11.5527 4.87971 11.4139 4.8102 11.1999L4.59288 10.531C4.27295 10.4388 3.96796 10.3114 3.68227 10.1534L3.05512 10.473C2.85469 10.5751 2.62145 10.5382 2.46236 10.3791L1.72052 9.63719C1.56149 9.47816 1.52452 9.24486 1.62662 9.04443L1.94616 8.41727C1.78817 8.13159 1.6608 7.82659 1.56855 7.50673L0.899609 7.28934C0.685672 7.21984 0.546875 7.02876 0.546875 6.80383V5.7547C0.546875 5.52977 0.685672 5.3387 0.899609 5.26919L1.56855 5.0518C1.66075 4.73188 1.78812 4.42689 1.94611 4.14126L1.62657 3.5141C1.52447 3.31367 1.56138 3.08043 1.72047 2.9214L2.46236 2.17951C2.62139 2.02048 2.85469 1.98351 3.05506 2.08561L3.68222 2.40515C3.96791 2.24716 4.2729 2.11979 4.59277 2.02753L4.81009 1.35859C4.8796 1.14466 5.07068 1.00586 5.29561 1.00586H6.34473C6.56966 1.00586 6.76074 1.14466 6.83025 1.35859L7.04763 2.02764C7.3675 2.11984 7.67249 2.24716 7.95813 2.40515L8.58534 2.08555C8.78577 1.98345 9.01901 2.02037 9.17809 2.17945L9.91993 2.92129C10.079 3.08032 10.1159 3.31362 10.0138 3.51399L9.69429 4.14109C9.85228 4.42678 9.97965 4.73177 10.0719 5.0517L10.7408 5.26908C10.9548 5.33859 11.0936 5.52966 11.0936 5.75459V6.80377C11.0936 7.0287 10.9548 7.21978 10.7408 7.28929L10.0719 7.50667ZM7.60304 4.49645C6.61845 3.5118 5.02206 3.5118 4.03741 4.49645C3.05282 5.48105 3.05282 7.07743 4.03741 8.06208C5.02201 9.04673 6.61839 9.04673 7.60304 8.06208C8.58769 7.07743 8.58769 5.4811 7.60304 4.49645ZM24.4318 4.02729C20.6858 0.28125 14.7759 0.0192969 10.7264 3.23995C10.739 3.60269 10.5878 3.8332 10.4304 4.14213C10.4895 4.26934 10.5432 4.39895 10.5915 4.53058C10.8954 4.62934 11.1573 4.68573 11.3953 4.91503C14.7731 1.88217 19.9727 1.98969 23.2211 5.23807C26.5809 8.59791 26.5809 14.0453 23.2211 17.4051C19.8612 20.7649 14.4139 20.7649 11.054 17.4051C9.33073 15.6818 8.49171 13.4093 8.53617 11.1509C8.34903 11.1039 8.1369 10.9809 7.95736 10.8894C7.83016 10.9484 7.7006 11.0021 7.56891 11.0504L7.45445 11.4026C7.35284 11.7154 7.13196 11.9604 6.85103 12.0948C7.0286 14.4715 8.02577 16.7983 9.8432 18.6158C13.8717 22.6443 20.4032 22.6443 24.4317 18.6158C28.4602 14.5873 28.4602 8.05579 24.4317 4.02723L24.4318 4.02729ZM8.79255 21.5144C9.13773 21.8596 9.70266 21.8596 10.0478 21.5144L11.0862 20.4761C9.86076 19.6642 8.79873 18.6039 7.98323 17.3726L6.9446 18.4112C6.59941 18.7564 6.59941 19.3214 6.9446 19.6665L8.79255 21.5144Z" fill="white"/>
</svg>
