<svg width="28" height="28" viewBox="0 0 28 28" fill="none" xmlns="http://www.w3.org/2000/svg">
<g clip-path="url(#clip0_393_3964)">
<path d="M2.96887 5.09106C4.14038 5.09106 5.09008 4.14136 5.09008 2.96985C5.09008 1.79833 4.14038 0.848633 2.96887 0.848633C1.79736 0.848633 0.847656 1.79833 0.847656 2.96985C0.847656 4.14136 1.79736 5.09106 2.96887 5.09106Z" fill="white"/>
<path d="M16.9689 5.09106C18.1404 5.09106 19.0901 4.14136 19.0901 2.96985C19.0901 1.79833 18.1404 0.848633 16.9689 0.848633C15.7974 0.848633 14.8477 1.79833 14.8477 2.96985C14.8477 4.14136 15.7974 5.09106 16.9689 5.09106Z" fill="white"/>
<path d="M11.0294 27.1516C12.2009 27.1516 13.1506 26.2019 13.1506 25.0304C13.1506 23.8589 12.2009 22.9092 11.0294 22.9092C9.8579 22.9092 8.9082 23.8589 8.9082 25.0304C8.9082 26.2019 9.8579 27.1516 11.0294 27.1516Z" fill="white"/>
<path d="M25.0294 27.1516C26.2009 27.1516 27.1506 26.2019 27.1506 25.0304C27.1506 23.8589 26.2009 22.9092 25.0294 22.9092C23.8579 22.9092 22.9082 23.8589 22.9082 25.0304C22.9082 26.2019 23.8579 27.1516 25.0294 27.1516Z" fill="white"/>
<path d="M21.0889 23.8809C20.9234 23.7155 20.6561 23.7155 20.4907 23.8809C20.3252 24.0464 20.3252 24.3137 20.4907 24.4791L20.6137 24.6064H13.9658C13.987 24.7464 13.9998 24.8864 13.9998 25.0306C13.9998 25.1749 13.987 25.3149 13.9658 25.4549H20.6137L20.4907 25.5779C20.3252 25.7434 20.3252 26.0106 20.4907 26.1761C20.5713 26.2609 20.6773 26.3034 20.7876 26.3034C20.8979 26.3034 21.004 26.2609 21.0889 26.1803L21.9373 25.3318C22.1028 25.1664 22.1028 24.8991 21.9373 24.7337L21.0889 23.8809Z" fill="white"/>
<path d="M18.6366 7.83589L17.3257 8.80741C16.7233 8.42135 16.0487 8.1371 15.3233 7.98013L15.0772 6.36377H12.9178L12.676 7.98013C11.9506 8.1371 11.276 8.42135 10.6736 8.80741L9.36268 7.83589L7.8354 9.36316L8.80692 10.6741C8.42086 11.2765 8.13661 11.9553 7.9754 12.6765L6.36328 12.9183V15.0777L7.97964 15.3195C8.13661 16.045 8.42086 16.7195 8.81116 17.322L7.83964 18.6329L9.36692 20.1601L10.6778 19.1886C11.2803 19.5747 11.9548 19.8589 12.6803 20.0159L12.9221 21.6365H15.0815L15.3233 20.0201C16.0487 19.8632 16.7233 19.5789 17.3257 19.1929L18.6366 20.1644L20.1639 18.6371L19.1924 17.3262C19.5784 16.7238 19.8627 16.0492 20.0239 15.3238L21.636 15.082V12.9226L20.0196 12.6807C19.8627 11.9553 19.5784 11.2807 19.1881 10.6783L20.1596 9.36741L18.6366 7.83589ZM13.9996 16.9147C12.3918 16.9147 11.0851 15.608 11.0851 14.0001C11.0851 12.3923 12.3918 11.0856 13.9996 11.0856C15.6075 11.0856 16.9142 12.3923 16.9142 14.0001C16.9142 15.608 15.6118 16.9147 13.9996 16.9147Z" fill="white"/>
<path d="M7.08868 23.8805C6.92322 23.7151 6.65595 23.7151 6.49049 23.8805C6.32504 24.046 6.32504 24.3133 6.49049 24.4787L6.61352 24.606H6.36322C3.55474 24.606 1.27231 22.3236 1.27231 19.5151C1.27231 16.9993 3.10928 14.9078 5.51474 14.5005V13.6436C2.64262 14.0593 0.423828 16.5284 0.423828 19.5151C0.423828 22.7902 3.08807 25.4545 6.36322 25.4545H6.61352L6.49049 25.5775C6.32504 25.7429 6.32504 26.0102 6.49049 26.1757C6.5711 26.2605 6.67716 26.3029 6.78746 26.3029C6.89777 26.3029 7.00383 26.2605 7.08868 26.1799L7.93716 25.3314C8.10262 25.166 8.10262 24.8987 7.93716 24.7333L7.08868 23.8805Z" fill="white"/>
<path d="M12.5532 3.39432L12.4301 3.51735C12.2647 3.6828 12.2647 3.95008 12.4301 4.11553C12.5107 4.20038 12.6168 4.2428 12.7271 4.2428C12.8374 4.2428 12.9435 4.20038 13.0283 4.11977L13.8768 3.27129C13.915 3.23311 13.9489 3.18644 13.9701 3.13129C14.0125 3.02947 14.0125 2.91068 13.9701 2.80886C13.9489 2.75796 13.9192 2.71129 13.8768 2.66886L13.0283 1.82038C12.8628 1.65493 12.5956 1.65493 12.4301 1.82038C12.2647 1.98583 12.2647 2.25311 12.4301 2.41856L12.5532 2.54583H5.90527C5.92649 2.68583 5.93921 2.82583 5.93921 2.97008C5.93921 3.11432 5.92649 3.25432 5.90527 3.39432H12.5532Z" fill="white"/>
<path d="M22.4847 13.4993V14.3563C25.3568 13.9406 27.5756 11.4715 27.5756 8.4848C27.5756 5.20965 24.9113 2.54541 21.6362 2.54541H19.9053C19.9265 2.68541 19.9392 2.82541 19.9392 2.96965C19.9392 3.11389 19.9265 3.2539 19.9053 3.3939H21.6362C24.4447 3.3939 26.7271 5.67632 26.7271 8.4848C26.7271 11.0006 24.8901 13.0921 22.4847 13.4993Z" fill="white"/>
</g>
<defs>
<clipPath id="clip0_393_3964">
<rect width="28" height="28" fill="white"/>
</clipPath>
</defs>
</svg>
