<svg width="28" height="28" viewBox="0 0 28 28" fill="none" xmlns="http://www.w3.org/2000/svg">
<g clip-path="url(#clip0_393_3984)">
<path d="M15.7379 20.8397C15.8715 23.584 14.1346 25.6067 11.9219 26.1996L11.7647 26.2417L10.8832 22.98L10.9327 22.969C12.7036 22.5761 14.334 21.8673 15.7379 20.8397ZM26.3923 6.91195C26.2167 6.03148 25.8704 5.21254 25.3891 4.49143L26.333 3.54752L24.4525 1.66704L23.5086 2.61095C22.7874 2.1297 21.9686 1.78325 21.088 1.60776V0.273438H18.4287V1.6077C17.5482 1.7833 16.7293 2.12959 16.0082 2.61095L15.0643 1.66704L13.1838 3.54747L14.1278 4.49143C13.6466 5.21265 13.3002 6.03143 13.1246 6.9119H11.7902V8.53256C13.0287 7.97289 14.3464 7.61955 15.6934 7.43668C16.0681 5.53361 17.7455 4.09806 19.7584 4.09806C22.0468 4.09806 23.9018 5.95312 23.9018 8.24152C23.9018 10.2545 22.4663 11.9319 20.5632 12.3065C20.3803 13.6536 20.0269 14.9713 19.4673 16.2097H21.088V14.8754C21.9685 14.6998 22.7874 14.3536 23.5086 13.8722L24.4525 14.8162L26.333 12.9357L25.3891 11.9918C25.8703 11.2705 26.2167 10.4518 26.3923 9.5713H27.7266V6.91195H26.3923ZM14.1322 8.63166L19.3683 13.8677C18.2397 18.1774 15.1551 21.1361 10.7432 22.1147L5.88525 17.2568C6.86383 12.8449 9.82248 9.76024 14.1322 8.63166ZM14.3362 11.5846C13.1794 11.5846 12.2417 12.5223 12.2417 13.6791C12.2417 14.836 13.1794 15.7737 14.3362 15.7737C15.493 15.7737 16.4308 14.836 16.4308 13.6791C16.4308 12.5223 15.493 11.5846 14.3362 11.5846ZM3.67784 21.221C3.84869 21.0501 3.84869 20.7732 3.67784 20.6024C3.507 20.4315 3.23001 20.4315 3.05922 20.6024L0.40157 23.26C0.230727 23.4308 0.230727 23.7078 0.40157 23.8786C0.572414 24.0494 0.849406 24.0494 1.0202 23.8786L3.67784 21.221ZM5.03103 17.0673C5.42303 15.3 6.1297 13.6726 7.15395 12.2707C4.41755 12.1445 2.40144 13.8789 1.80972 16.0874L1.76755 16.2445L5.01867 17.1232L5.03103 17.0673ZM5.53777 22.4622C5.36692 22.2914 5.08993 22.2914 4.91914 22.4622L0.921867 26.4595C0.751023 26.6303 0.751023 26.9073 0.921867 27.0781C1.09271 27.2489 1.3697 27.2489 1.54049 27.0781L5.53771 23.0809C5.70855 22.9101 5.70855 22.6331 5.53777 22.4622ZM5.0791 19.4515C5.04022 19.5362 5.05728 19.6315 5.12323 19.6975L8.31184 22.8861C8.3778 22.952 8.47301 22.9691 8.55777 22.9302L9.76648 22.3754L5.63391 18.2428L5.0791 19.4515ZM6.77895 24.3222L4.12136 26.9797C3.95052 27.1506 3.95052 27.4276 4.12136 27.5984C4.2922 27.7692 4.56914 27.7692 4.73998 27.5984L7.39758 24.9408C7.56842 24.7699 7.56842 24.4929 7.39758 24.3222C7.22679 24.1513 6.94985 24.1513 6.77895 24.3222ZM19.7584 8.24157C18.1054 8.08648 16.5616 8.14882 15.1456 8.40782L19.5922 12.8544C19.8512 11.4384 19.9135 9.89461 19.7584 8.24157Z" fill="white"/>
</g>
<defs>
<clipPath id="clip0_393_3984">
<rect width="28" height="28" fill="white"/>
</clipPath>
</defs>
</svg>
