<svg width="141" height="28" viewBox="0 0 141 28" fill="none" xmlns="http://www.w3.org/2000/svg">
<path fill-rule="evenodd" clip-rule="evenodd" d="M80.8516 17.2463H81.9023L82.5762 15.9477C83.0269 16.2719 83.8515 16.3535 84.6769 16.3535C86.2507 16.3535 87.9754 15.8262 88.3507 15.0146C88.7253 14.1622 87.6769 13.6344 86.0269 13.6344C85.1269 13.6344 84.1523 13.7967 83.4769 14.081C83.5515 13.9187 83.5515 13.8371 83.6269 13.7156H82.5762C82.5016 13.9187 82.4262 14.1214 82.2769 14.2833L80.8516 17.2463ZM83.0269 15.0146C83.3262 14.3649 84.3762 13.9591 85.6515 13.9591C86.8507 13.9591 87.5261 14.3649 87.2254 15.0146C86.9261 15.6634 85.8761 16.0289 84.6008 16.0289C83.4023 16.0289 82.7262 15.6634 83.0269 15.0146ZM89.8515 16.2719H90.9007L92.7007 12.6201H91.7269L89.8515 16.2719ZM95.4761 14.4061C95.7007 14.1218 96.3761 13.9595 97.1261 13.9595C98.1768 13.9595 98.7014 14.1222 98.4768 14.6092V14.6903H96.6007C94.7261 14.7307 93.6753 15.0146 93.4507 15.5419C93.2261 16.0289 93.9761 16.3535 95.3253 16.3535C96.3761 16.3535 97.0515 16.3131 97.8753 15.9073C97.8753 16.0289 97.8007 16.1504 97.8007 16.2719H98.7753C98.7753 16.1504 98.8514 15.9885 98.9253 15.7858L99.6007 14.5276C99.8999 13.8779 98.9253 13.6344 97.4253 13.6344C96.3007 13.6344 94.8007 13.7967 94.4261 14.4057L95.4761 14.4061ZM98.2507 15.1361C97.9515 15.7446 97.0515 16.0289 95.7761 16.0289C94.7253 16.0289 94.4269 15.7858 94.5753 15.5419C94.7253 15.1361 95.4753 15.0549 96.5999 15.0549C97.4253 15.0146 97.9507 15.0146 98.2499 15.0146V15.1361H98.2507ZM101.101 16.2719H102.152L102.751 15.0545C103.126 14.2429 104.401 13.9591 105.376 13.9591C106.427 13.9591 106.951 14.2833 106.651 14.8518L105.976 16.2719H107.027L107.702 14.8115C108.151 14.0402 107.251 13.6344 105.751 13.6344C104.777 13.6344 103.951 13.7967 103.127 14.1617C103.201 13.9994 103.201 13.8371 103.277 13.7156H102.301C102.226 13.9187 102.152 14.1214 102.076 14.2833L101.101 16.2719ZM109.501 16.2719H110.551L111.151 15.0545C111.525 14.2429 112.801 13.9591 113.777 13.9591C114.826 13.9591 115.351 14.2833 115.052 14.8518L114.377 16.2719H115.428L116.101 14.8115C116.552 14.0402 115.652 13.6344 114.152 13.6344C113.176 13.6344 112.352 13.7967 111.526 14.1617C111.602 13.9994 111.676 13.8371 111.676 13.7156H110.701C110.634 13.9057 110.559 14.095 110.477 14.2833L109.501 16.2719ZM117.975 16.2719H119.026L120.301 13.7156H119.251L117.975 16.2719ZM119.551 13.1071H120.601L120.826 12.6201H119.775L119.551 13.1071ZM121.576 16.2719H122.627L123.226 15.0545C123.601 14.2429 124.876 13.9591 125.85 13.9591C126.827 13.9591 127.426 14.2833 127.126 14.8518L126.45 16.2719H127.501L128.177 14.8115C128.626 14.0402 127.726 13.6344 126.226 13.6344C125.251 13.6344 124.426 13.7967 123.601 14.1617C123.676 13.9994 123.676 13.8371 123.751 13.7156H122.777C122.701 13.9187 122.627 14.1214 122.551 14.2833L121.576 16.2719ZM129.676 16.4347C129.451 17.0432 130.05 17.3274 132.15 17.3274C134.326 17.3274 135.6 16.962 136.126 15.9073L136.95 14.203C137.027 13.9998 137.1 13.8779 137.251 13.7156H136.277C136.127 13.8371 136.052 13.9591 136.052 14.081C135.527 13.7564 134.927 13.6344 133.951 13.6344C132.151 13.6344 130.651 14.1617 130.202 14.933C129.827 15.7042 130.876 16.2316 132.677 16.2316C133.544 16.2261 134.386 16.0696 135.077 15.7854H135.153L135.003 15.9473C134.702 16.5558 134.103 16.9616 132.228 16.9616C131.027 16.9616 130.653 16.7185 130.803 16.4342L129.676 16.4347ZM131.326 14.9334C131.627 14.3649 132.525 13.9595 133.876 13.9595C135.301 13.9595 135.825 14.3653 135.526 14.9334C135.225 15.502 134.325 15.8665 132.976 15.8665C131.55 15.8661 131.025 15.5015 131.326 14.9334Z" fill="black"/>
<path fill-rule="evenodd" clip-rule="evenodd" d="M7.19918 28L50.6235 0H65.698C74.6226 0 82.3479 3.16526 82.3479 8.52187C82.3479 13.9193 74.6234 17.3276 65.848 17.3276H40.049L46.3481 13.1072H65.848C70.8734 13.1072 74.6234 11.3621 74.5487 8.52145C74.4726 4.0984 65.848 4.21993 65.848 4.21993H54.2235L17.3237 28H7.19918ZM24.7491 13.1072L18.3745 17.3276H16.1245C6.67457 17.3276 0 14.1623 0 8.80572C0 3.40875 7.64995 0 16.4991 0H44.8489L38.4744 4.22035H16.4991C11.4745 4.22035 7.64917 5.96552 7.79917 8.80572C7.87456 13.2292 16.4991 13.1072 16.4991 13.1072H24.7491Z" fill="#041427"/>
<path fill-rule="evenodd" clip-rule="evenodd" d="M39.5992 21.0194H40.8738L41.5484 19.2339H43.1238L43.3492 18.7881H38.9238L38.6992 19.2339H40.3484L39.5992 21.0194ZM44.3984 19.8836C44.5484 19.5182 44.9984 19.1935 45.8984 19.1935C46.7992 19.1935 47.0238 19.5177 46.7992 19.8836C46.6492 20.2894 46.2738 20.6136 45.2992 20.6136C44.3984 20.6136 44.2492 20.2894 44.3984 19.8836ZM43.1238 19.8836C42.8238 20.5737 43.4238 21.101 45.1484 21.101C46.8738 21.101 47.8484 20.5737 48.0738 19.8836C48.3738 19.2339 47.8484 18.7065 46.0492 18.7065C44.3238 18.7065 43.4238 19.2339 43.1238 19.8836ZM50.6984 20.2894C50.5484 20.6952 50.6237 21.101 52.3483 21.101C53.2483 21.101 54.5229 20.9795 54.7483 20.3298C54.8983 19.8836 54.3737 19.7612 53.623 19.6809L53.0983 19.5997C52.6483 19.5585 52.2737 19.5186 52.3483 19.3558C52.423 19.2343 52.6483 19.1531 53.1737 19.1531C53.5483 19.1531 53.9237 19.1943 53.8491 19.397H55.0491C55.1237 18.9504 54.8237 18.707 53.3237 18.707C52.3491 18.707 51.2991 18.9097 51.0737 19.4782C50.9237 19.884 51.5984 20.0459 52.2737 20.0867L52.7983 20.1679C53.323 20.2082 53.5483 20.2482 53.473 20.4109C53.473 20.5324 53.323 20.654 52.573 20.654C52.0476 20.654 51.823 20.5737 51.8976 20.2894H50.6984ZM60.6737 18.7881H59.4737L59.0237 19.9652C58.8737 20.371 58.4983 20.614 57.7483 20.614C57.0737 20.614 56.7737 20.4513 56.9229 20.0455L57.4483 18.7881H56.1729L55.6483 20.0867C55.4229 20.8167 56.0983 21.101 57.5229 21.101C59.0229 21.101 59.9229 20.7768 60.2229 20.0055L60.6737 18.7881ZM65.8483 19.5181C66.0736 18.9097 65.0983 18.7065 64.0483 18.7065C62.5483 18.7065 61.4237 19.072 61.1237 19.8836C60.7491 20.7351 61.6483 21.101 62.9229 21.101C64.1229 21.101 65.2483 20.9382 65.5483 20.2486H64.2729C64.1229 20.5329 63.6729 20.614 63.2229 20.614C62.3975 20.614 62.1729 20.2898 62.3229 19.884C62.5475 19.4782 62.9975 19.1939 63.8229 19.1939C64.2729 19.1939 64.5729 19.2751 64.5729 19.5181H65.8483ZM70.949 19.5181C71.1736 18.9097 70.1982 18.7065 69.149 18.7065C67.649 18.7065 66.599 19.072 66.2236 19.8836C65.9236 20.7351 66.749 21.101 68.0236 21.101C69.2982 21.101 70.3482 20.9382 70.6482 20.2486H69.3736C69.2236 20.5329 68.7736 20.614 68.3236 20.614C67.4982 20.614 67.349 20.2898 67.4982 19.884C67.6482 19.4782 68.1736 19.1939 68.9228 19.1939C69.3728 19.1939 69.7482 19.2751 69.6728 19.5181H70.949ZM71.1728 21.0194H74.8482L74.9982 20.5737H72.5982L72.7482 20.1266H74.9982L75.2228 19.6397H72.9728L73.1236 19.2339H75.4474L75.6736 18.7881H72.0728L71.1728 21.0194ZM75.8982 21.0194H79.5736L79.7236 20.5737H77.3236L77.4743 20.1266H79.7236L79.872 19.6397H77.6228L77.849 19.2339H80.1728L80.3974 18.7881H76.7982L75.8982 21.0194ZM80.6235 21.0194H82.8735C83.6981 21.0194 84.2974 20.9383 84.7481 20.7764C85.2571 20.5501 85.6022 20.234 85.7227 19.8836C85.8727 19.4778 85.7227 19.1527 85.2735 18.9496C84.8989 18.8281 84.3735 18.7877 83.8481 18.7877H81.5243L80.6235 21.0194ZM82.5728 19.1935H83.3227C84.1481 19.1935 84.6735 19.3554 84.5235 19.8836C84.2227 20.4921 83.5474 20.5737 82.5728 20.5737H81.9735L82.5728 19.1935ZM88.1981 21.0194H89.3973L90.2981 18.7881H89.0989L88.1981 21.0194ZM90.3735 21.0194H91.4227L92.0981 19.3966L93.2973 21.0194H94.9473L95.8473 18.7881H94.7227L94.1227 20.4109L92.8481 18.7881H91.2719L90.3735 21.0194ZM98.1726 21.0194H100.573C101.922 21.0194 102.447 20.6952 102.597 20.4109C102.672 20.1266 102.373 19.8836 101.697 19.8424C102.296 19.802 102.748 19.5993 102.822 19.315C102.898 19.0308 102.597 18.7877 101.473 18.7877H98.9965L98.1726 21.0194ZM99.6726 20.0867H100.797C101.098 20.0867 101.396 20.1679 101.323 20.371C101.249 20.5741 100.948 20.614 100.573 20.614H99.5219L99.6726 20.0867ZM100.047 19.1935H100.872C101.397 19.1935 101.623 19.2339 101.547 19.4366C101.473 19.5993 101.098 19.6805 100.573 19.6805H99.8226L100.047 19.1935ZM108.596 18.7881H107.397L106.948 19.9652C106.798 20.371 106.423 20.614 105.673 20.614C104.997 20.614 104.696 20.4513 104.847 20.0455L105.296 18.7881H104.097L103.572 20.0867C103.347 20.8167 104.023 21.101 105.446 21.101C106.948 21.101 107.846 20.7768 108.147 20.0055L108.596 18.7881ZM108.897 20.2894C108.747 20.6952 108.823 21.101 110.547 21.101C111.447 21.101 112.646 20.9795 112.947 20.3298C113.097 19.8836 112.498 19.7612 111.823 19.6809L111.297 19.5997C110.848 19.5585 110.473 19.5186 110.547 19.3558C110.547 19.2343 110.848 19.1531 111.373 19.1531C111.747 19.1531 112.046 19.1943 112.046 19.397H113.171C113.321 18.9504 113.021 18.707 111.446 18.707C110.546 18.707 109.496 18.9097 109.271 19.4782C109.121 19.884 109.796 20.0459 110.472 20.0867L110.997 20.1679C111.446 20.2082 111.747 20.2482 111.671 20.4109C111.671 20.5324 111.446 20.654 110.771 20.654C110.172 20.654 109.946 20.5737 110.097 20.2894H108.897ZM113.396 21.0194H114.673L115.497 18.7881H114.298L113.396 21.0194ZM115.572 21.0194H116.696L117.298 19.3966L118.573 21.0194H120.147L121.047 18.7881H119.996L119.323 20.4109L118.048 18.7881H116.472L115.572 21.0194ZM121.272 21.0194H124.872L125.097 20.5737H122.622L122.847 20.1266H125.022L125.247 19.6397H122.998L123.148 19.2339H125.546L125.696 18.7881H122.098L121.272 21.0194ZM125.997 20.2894C125.847 20.6952 125.921 21.101 127.647 21.101C128.547 21.101 129.822 20.9795 130.047 20.3298C130.197 19.8836 129.672 19.7612 128.922 19.6809L128.397 19.5997C127.948 19.5585 127.572 19.5186 127.647 19.3558C127.722 19.2343 127.948 19.1531 128.472 19.1531C128.846 19.1531 129.222 19.1943 129.147 19.397H130.348C130.422 18.9504 130.122 18.707 128.622 18.707C127.647 18.707 126.597 18.9097 126.372 19.4782C126.222 19.884 126.897 20.0459 127.572 20.0867L128.096 20.1679C128.547 20.2082 128.846 20.2482 128.772 20.4109C128.772 20.5324 128.622 20.654 127.872 20.654C127.272 20.654 127.122 20.5737 127.198 20.2894H125.997ZM130.722 20.2894C130.496 20.6952 130.646 21.101 132.372 21.101C133.271 21.101 134.472 20.9795 134.772 20.3298C134.922 19.8836 134.322 19.7612 133.646 19.6809L133.047 19.5997C132.672 19.5585 132.297 19.5186 132.373 19.3558C132.373 19.2343 132.672 19.1531 133.198 19.1531C133.572 19.1531 133.873 19.1943 133.873 19.397H134.998C135.148 18.9504 134.848 18.707 133.272 18.707C132.373 18.707 131.322 18.9097 131.098 19.4782C130.948 19.884 131.623 20.0459 132.297 20.0867L132.822 20.1679C133.272 20.2082 133.572 20.2482 133.498 20.4109C133.498 20.5324 133.272 20.654 132.598 20.654C131.999 20.654 131.772 20.5737 131.922 20.2894H130.722Z" fill="#041427"/>
<path fill-rule="evenodd" clip-rule="evenodd" d="M26.0992 7.79293C26.3992 7.06248 26.2492 6.73784 25.6492 6.4132C24.7492 6.0074 22.7992 5.76434 19.8746 5.76434C13.3493 5.76434 11.4747 7.2656 11.0247 8.48301C10.3493 10.1062 11.9247 11.2017 17.7746 11.2017C20.3246 11.2017 22.7246 10.9582 24.2246 10.3901C25.2746 9.98427 25.5746 9.5381 25.7992 9.0915H20.7746C20.4746 9.74079 19.5746 10.0654 18.0746 10.0654C16.1993 10.0654 15.8246 9.33498 16.1246 8.48259C16.4993 7.63061 17.4 6.89974 19.3492 6.89974C20.6992 6.89974 21.1492 7.18402 21.0746 7.79251L26.0992 7.79293ZM41.7737 8.48259C42.3737 6.94053 40.7237 5.76392 34.9491 5.76392C31.9492 5.76392 30.4492 5.96661 29.1746 6.33204C27.6746 6.73784 26.4746 7.46829 26.0992 8.48301C25.4992 10.0251 27.1492 11.2017 32.9238 11.2017C35.9237 11.2017 38.0983 10.8362 39.5237 10.3089C40.7237 9.90311 41.4737 9.2534 41.7737 8.48259ZM36.7491 8.48259C36.3745 9.53767 34.9491 10.0246 33.3738 10.0246C31.7238 10.0246 30.7492 9.53767 31.1238 8.48259C31.4984 7.4275 32.9238 6.94053 34.4984 6.94053C36.1491 6.94053 37.1237 7.42792 36.7491 8.48259ZM41.6237 11.0389H46.5737L47.3237 9.17224H48.8237C50.4737 9.17224 50.699 9.2534 50.6237 9.90269V11.0389H55.5736V9.33456C55.5736 8.80681 54.7482 8.60412 53.6236 8.60412V8.52296C55.1236 8.401 56.3244 7.99562 56.6236 7.30555C57.0736 6.1693 55.199 5.88545 51.9736 5.88545H43.6491L41.6237 11.0389ZM48.1491 6.94053H49.9483C51.1483 6.94053 51.8983 7.10285 51.6736 7.54903C51.5236 8.03599 50.6237 8.15794 49.5737 8.15794H47.6991L48.1491 6.94053ZM56.3236 11.0389H61.2736L61.8736 9.37493H65.7736C68.2489 9.37493 70.3489 8.92876 70.7989 7.67098C71.3235 6.33162 69.5235 5.88545 66.6736 5.88545H58.2736L56.3236 11.0389ZM62.8482 6.98132H64.3482C65.7728 6.98132 66.1474 7.18444 65.9982 7.63061C65.7728 8.11757 65.0982 8.32026 63.2982 8.32026H62.3236L62.8482 6.98132ZM86.248 8.48259C86.8473 6.94053 85.1973 5.76392 79.4235 5.76392C76.4243 5.76392 74.8481 5.96661 73.6489 6.33204C72.0735 6.73784 70.9489 7.46829 70.5728 8.48301C69.9735 10.0251 71.6235 11.2017 77.3235 11.2017C80.3973 11.2017 82.4981 10.8362 83.9981 10.3089C85.1227 9.90311 85.9488 9.2534 86.248 8.48259ZM81.2235 8.48259C80.7727 9.53767 79.4235 10.0246 77.7735 10.0246C76.1981 10.0246 75.1489 9.53767 75.5981 8.48259C75.9727 7.4275 77.3243 6.94053 78.9743 6.94053C80.6242 6.94053 81.5981 7.42792 81.2235 8.48259ZM86.0973 11.0389H91.0472L91.7226 9.17224H93.2226C94.9472 9.17224 95.0972 9.2534 95.0972 9.90269V11.0389H99.9726L100.047 9.33456C100.047 8.80681 99.1472 8.60412 98.0226 8.60412L98.0988 8.52296C99.5987 8.401 100.798 7.99562 101.098 7.30555C101.473 6.1693 99.598 5.88545 96.4472 5.88545H88.048L86.0973 11.0389ZM92.6234 6.94053H94.4234C95.6226 6.94053 96.298 7.10285 96.148 7.54903C95.9234 8.03599 95.0972 8.15794 94.0488 8.15794H92.1726L92.6234 6.94053Z" fill="black"/>
<path fill-rule="evenodd" clip-rule="evenodd" d="M106.803 9.04881L109.427 7.26328L110.552 9.04881H106.803ZM99.0781 11.037H103.952L105.153 10.1851H111.227L111.753 11.037H117.226L113.253 5.88354H107.102L99.0781 11.037ZM118.577 11.037H123.528L125.027 7.14174H128.851L129.376 5.88397H116.701L116.252 7.14174H120.077L118.577 11.037ZM127.726 11.037H139.052L139.501 9.98237H132.977L133.352 9.00844H139.352L139.802 7.91256H133.727L134.102 6.97942H140.552L141.001 5.88397H129.751L127.726 11.037Z" fill="black"/>
</svg>
