<svg width="120" height="31" viewBox="0 0 120 31" fill="none" xmlns="http://www.w3.org/2000/svg">
<path d="M13.7353 5.91111V2.13333H1.82422V28.0889H13.7353V24.3111C11.2953 24.3111 8.95524 23.3418 7.22994 21.6164C5.50461 19.8911 4.53533 17.5511 4.53533 15.1111C4.53533 12.6711 5.50461 10.331 7.22994 8.60573C8.95524 6.88039 11.2953 5.91111 13.7353 5.91111Z" fill="#888888"/>
<path d="M13.7344 5.9111V24.3111C16.1744 24.3111 18.5145 23.3418 20.2398 21.6164C21.9651 19.8911 22.9344 17.5511 22.9344 15.1111C22.9344 12.6711 21.9651 10.331 20.2398 8.60572C18.5145 6.88039 16.1744 5.9111 13.7344 5.9111Z" fill="#888888"/>
<path d="M29.6211 8.2222H32.2878V21.0666H29.6211V8.2222Z" fill="#888888"/>
<path d="M33.7778 16.6666C33.7778 15.7426 34.0522 14.8393 34.5661 14.0713C35.0801 13.3033 35.8105 12.7051 36.6648 12.3527C37.5191 12.0003 38.4587 11.9095 39.3647 12.0917C40.2707 12.2739 41.1021 12.721 41.7537 13.3763C42.4052 14.0317 42.8476 14.8657 43.0247 15.7727C43.2017 16.6797 43.1055 17.6188 42.7482 18.4711C42.3908 19.3233 41.7886 20.0503 41.0177 20.5598C40.2467 21.0694 39.3419 21.3386 38.4178 21.3333C37.8049 21.3381 37.1971 21.2205 36.6303 20.9873C36.0635 20.7541 35.5488 20.4101 35.1166 19.9755C34.6844 19.5409 34.3435 19.0242 34.1135 18.4561C33.8836 17.8879 33.7695 17.2795 33.7778 16.6666ZM40.4622 16.6666C40.4517 16.2682 40.324 15.8818 40.095 15.5556C39.866 15.2294 39.546 14.9779 39.1748 14.8327C38.8037 14.6874 38.398 14.6548 38.0085 14.739C37.6189 14.8231 37.2628 15.0202 36.9847 15.3057C36.7066 15.5911 36.5187 15.9522 36.4448 16.3438C36.3708 16.7354 36.4139 17.1402 36.5688 17.5074C36.7236 17.8746 36.9833 18.1881 37.3154 18.4084C37.6474 18.6289 38.037 18.7465 38.4355 18.7466C38.7069 18.752 38.9764 18.7012 39.2273 18.5976C39.4781 18.494 39.7049 18.3398 39.8934 18.1446C40.0819 17.9494 40.2282 17.7173 40.323 17.4631C40.4179 17.2088 40.4592 16.9377 40.4444 16.6666H40.4622Z" fill="#888888"/>
<path d="M53.6096 12.2666V20.6311C53.6096 23.5822 51.2985 24.8355 48.9607 24.8355C48.1361 24.9032 47.3089 24.7393 46.5725 24.3624C45.836 23.9856 45.2193 23.4105 44.7918 22.7022L47.0407 21.4044C47.2229 21.7719 47.5128 22.075 47.8717 22.2735C48.2306 22.472 48.6415 22.5564 49.0496 22.5155C49.3096 22.5475 49.5734 22.5217 49.8222 22.44C50.0711 22.3581 50.2987 22.2224 50.4889 22.0423C50.6793 21.8622 50.8273 21.6424 50.9227 21.3984C51.0181 21.1544 51.0584 20.8924 51.0407 20.6311V19.8222C50.7304 20.1984 50.3366 20.4971 49.8907 20.6946C49.4448 20.8921 48.959 20.983 48.4718 20.96C47.293 20.96 46.1626 20.4917 45.3291 19.6582C44.4956 18.8248 44.0273 17.6943 44.0273 16.5155C44.0273 15.3368 44.4956 14.2064 45.3291 13.3728C46.1626 12.5393 47.293 12.0711 48.4718 12.0711C48.959 12.048 49.4448 12.1389 49.8907 12.3364C50.3366 12.5339 50.7304 12.8326 51.0407 13.2088V12.32L53.6096 12.2666ZM51.0407 16.4888C51.0584 16.0636 50.9485 15.6427 50.7251 15.2804C50.5017 14.9181 50.1752 14.6309 49.7872 14.4557C49.3993 14.2805 48.9679 14.2254 48.5483 14.2974C48.1289 14.3694 47.7404 14.5652 47.4331 14.8597C47.1258 15.1542 46.9137 15.5339 46.8239 15.95C46.7341 16.3661 46.7708 16.7994 46.9293 17.1944C47.0879 17.5895 47.3609 17.928 47.7134 18.1666C48.0659 18.4052 48.4817 18.5329 48.9073 18.5333C49.1851 18.5533 49.464 18.5148 49.7258 18.4204C49.9878 18.3259 50.2271 18.1776 50.4281 17.9848C50.6291 17.7922 50.7875 17.5595 50.893 17.3018C50.9985 17.0441 51.0489 16.7672 51.0407 16.4888Z" fill="#888888"/>
<path d="M55.1136 16.6667C55.1136 15.7433 55.3875 14.8407 55.9007 14.0731C56.4139 13.3054 57.1432 12.7073 57.9964 12.3544C58.8497 12.0014 59.7884 11.9095 60.6939 12.0903C61.5995 12.2711 62.4309 12.7164 63.0833 13.3699C63.7355 14.0235 64.1793 14.8559 64.3583 15.7617C64.5374 16.6675 64.4437 17.6061 64.0891 18.4587C63.7346 19.3113 63.135 20.0395 62.3665 20.5512C61.5979 21.0629 60.6947 21.3351 59.7714 21.3333C59.1573 21.3393 58.5482 21.2226 57.9798 20.99C57.4115 20.7575 56.8952 20.4139 56.4614 19.9792C56.0275 19.5445 55.6849 19.0276 55.4534 18.4588C55.222 17.89 55.1065 17.2807 55.1136 16.6667ZM61.798 16.6667C61.7875 16.2679 61.6595 15.8811 61.4302 15.5547C61.2009 15.2283 60.8803 14.9769 60.5086 14.8319C60.137 14.6869 59.7308 14.6548 59.3411 14.7397C58.9513 14.8245 58.5952 15.0226 58.3174 15.3089C58.0396 15.5952 57.8525 15.9571 57.7796 16.3493C57.7067 16.7415 57.751 17.1465 57.9072 17.5135C58.0634 17.8806 58.3244 18.1934 58.6577 18.4128C58.9908 18.6321 59.3813 18.7483 59.7803 18.7467C60.0516 18.752 60.3211 18.7012 60.572 18.5976C60.8228 18.494 61.0496 18.3398 61.2381 18.1446C61.4267 17.9494 61.5729 17.7173 61.6677 17.4631C61.7626 17.2088 61.8039 16.9377 61.7891 16.6667H61.798Z" fill="#888888"/>
<path d="M65.6641 9.91108C65.6641 9.59819 65.7569 9.29224 65.9307 9.03206C66.1046 8.77185 66.3517 8.56906 66.6408 8.4493C66.9299 8.32954 67.2481 8.29821 67.555 8.35926C67.8618 8.42031 68.1438 8.571 68.3651 8.79228C68.5864 9.01357 68.737 9.29553 68.7981 9.60237C68.8592 9.9093 68.8278 10.2274 68.7081 10.5166C68.5883 10.8057 68.3855 11.0528 68.1253 11.2266C67.8651 11.4005 67.5593 11.4933 67.2463 11.4933C66.8281 11.4887 66.4283 11.3205 66.1326 11.0248C65.8369 10.729 65.6687 10.3293 65.6641 9.91108ZM65.9218 12.2666H68.5885V21.0666H65.9218V12.2666Z" fill="#888888"/>
<path d="M80.003 16.6666C80.0329 17.2519 79.9467 17.8373 79.7495 18.3891C79.5523 18.9409 79.2479 19.4483 78.8539 19.882C78.4597 20.3158 77.9838 20.6672 77.4533 20.9163C76.9229 21.1654 76.3484 21.3071 75.763 21.3333C75.2662 21.3664 74.7684 21.2868 74.3067 21.1006C73.8449 20.9143 73.4312 20.6262 73.0964 20.2577V24.6044H70.4297V12.2666H73.0964V13.0933C73.4316 12.7259 73.8457 12.4392 74.3075 12.2544C74.7692 12.0696 75.2668 11.9918 75.763 12.0266C76.3461 12.0528 76.9183 12.1937 77.4469 12.4411C77.9755 12.6885 78.4503 13.0376 78.844 13.4685C79.2378 13.8993 79.5428 14.4035 79.7416 14.9523C79.9404 15.501 80.0293 16.0835 80.003 16.6666ZM77.3364 16.6666C77.3259 16.2537 77.1937 15.8532 76.9565 15.5152C76.7194 15.1771 76.3876 14.9165 76.003 14.7662C75.6184 14.6158 75.1979 14.5824 74.7943 14.6699C74.3907 14.7575 74.022 14.9623 73.7343 15.2585C73.4466 15.5548 73.2527 15.9294 73.1771 16.3354C73.1013 16.7414 73.1471 17.1607 73.3087 17.5408C73.4703 17.9208 73.7404 18.2447 74.0853 18.4719C74.4302 18.6991 74.8345 18.8193 75.2475 18.8177C75.5303 18.8297 75.8125 18.7818 76.0755 18.6771C76.3387 18.5724 76.5766 18.4133 76.7739 18.2102C76.9711 18.0071 77.1231 17.7645 77.2201 17.4985C77.3171 17.2325 77.3566 16.949 77.3364 16.6666Z" fill="#888888"/>
<path d="M88.1169 18.4266C88.1169 20.4533 86.3391 21.3155 84.4546 21.3155C83.686 21.3847 82.9144 21.2217 82.2393 20.8478C81.5643 20.4738 81.0169 19.906 80.668 19.2177L82.9613 17.92C83.0521 18.2371 83.2491 18.5135 83.5193 18.7028C83.7896 18.8921 84.1166 18.9829 84.4457 18.96C85.0769 18.96 85.3969 18.7644 85.3969 18.4088C85.3969 17.44 81.068 17.9555 81.068 14.9066C81.068 12.9866 82.6857 12.0266 84.5169 12.0266C85.2129 11.9954 85.9044 12.1534 86.5178 12.4836C87.1313 12.8138 87.644 13.3041 88.0013 13.9022L85.708 15.1111C85.6066 14.8817 85.4411 14.6867 85.2313 14.5495C85.0215 14.4122 84.7764 14.3387 84.5257 14.3377C84.0635 14.3377 83.788 14.5155 83.788 14.8266C83.788 15.84 88.1169 15.1733 88.1169 18.4266Z" fill="#888888"/>
<path d="M97.7797 12.2667V21.0667H95.113V20.24C94.8099 20.606 94.425 20.8955 93.9904 21.0854C93.5548 21.2754 93.081 21.3603 92.6064 21.3334C90.8286 21.3334 89.3086 20.0622 89.3086 17.6889V12.2667H91.9753V17.2889C91.9539 17.4989 91.9788 17.7109 92.0482 17.9103C92.1175 18.1097 92.2286 18.2918 92.3744 18.4439C92.521 18.596 92.6988 18.7146 92.8953 18.7915C93.0917 18.8683 93.3024 18.9015 93.513 18.8889C94.473 18.8889 95.1486 18.32 95.1486 17.1111V12.2667H97.7797Z" fill="#888888"/>
<path d="M112.889 15.6622V21.0666H110.223V15.8933C110.223 15.0044 109.805 14.4533 108.96 14.4533C108.116 14.4533 107.583 15.0666 107.583 16.1066V21.0666H104.916V15.8933C104.916 15.0044 104.498 14.4533 103.654 14.4533C102.809 14.4533 102.276 15.0666 102.276 16.1066V21.0666H99.6094V12.2666H102.276V13.0755C102.552 12.7182 102.912 12.4351 103.326 12.252C103.738 12.0689 104.191 11.9914 104.64 12.0266C105.091 12.003 105.541 12.0973 105.944 12.2998C106.348 12.5024 106.692 12.8065 106.943 13.1822C107.236 12.7896 107.624 12.4778 108.07 12.2758C108.515 12.0736 109.006 11.9879 109.494 12.0266C111.574 12.0266 112.889 13.4666 112.889 15.6622Z" fill="#888888"/>
<path d="M115.131 12.2133C116.211 12.2133 117.087 11.3377 117.087 10.2577C117.087 9.17773 116.211 8.30217 115.131 8.30217C114.051 8.30217 113.176 9.17773 113.176 10.2577C113.176 11.3377 114.051 12.2133 115.131 12.2133Z" fill="#888888"/>
</svg>
