<svg width="146" height="38" viewBox="0 0 146 38" fill="none" xmlns="http://www.w3.org/2000/svg">
<path d="M24.387 21.3663C24.4738 19.8077 25.2381 18.4331 26.3896 17.4582C27.5207 16.5008 29.042 15.9173 30.7017 15.9163C32.3613 15.9173 33.8827 16.5008 35.0138 17.4582C36.1652 18.4331 36.9296 19.8077 37.0174 21.3663C37.1051 22.9691 36.4616 24.4595 35.3308 25.5626C34.179 26.6852 32.5379 27.3906 30.7027 27.3906C28.8665 27.3906 27.2243 26.6852 26.0715 25.5626C24.9418 24.4595 24.2982 22.9691 24.387 21.3663Z" fill="black"/>
<path d="M14.3281 24.5207C14.3387 25.129 14.5346 26.3149 14.826 27.2432C15.4394 29.2034 16.4806 31.0183 17.9305 32.6179C19.4178 34.2601 21.2469 35.581 23.3621 36.5167C25.5857 37.5021 27.9954 38.005 30.4937 38C32.993 37.9957 35.4015 37.4846 37.625 36.4932C39.7384 35.5471 41.5675 34.223 43.0537 32.5766C44.5015 30.9707 45.5406 29.1529 46.1551 27.1916C46.4621 26.215 46.6578 25.2068 46.7386 24.1862C46.8155 23.1907 46.7833 22.1899 46.6426 21.2014C46.3669 19.2628 45.6955 17.443 44.6639 15.7841C43.7165 14.2609 42.5 12.9265 41.0519 11.8028L41.054 11.8007L26.4428 0.580421C26.4306 0.569879 26.4183 0.559484 26.4058 0.549227C25.4442 -0.185008 23.833 -0.182896 22.7796 0.554512C21.7117 1.30117 21.5919 2.53327 22.539 3.31299L22.5358 3.3151L28.6305 8.27257L10.0522 8.29214H10.0266C8.49176 8.2932 7.01694 9.30241 6.72346 10.5747C6.42495 11.8721 7.46827 12.9471 9.06392 12.9532L9.0618 12.9596L18.4778 12.9411L1.67424 25.8376C1.65362 25.854 1.63088 25.8696 1.61026 25.886C0.026773 27.0996 -0.486425 29.1188 0.511151 30.3964C1.52538 31.6956 3.67865 31.6967 5.2809 30.4017L14.451 22.8983C14.451 22.8983 14.3178 23.9115 14.3281 24.5207ZM37.8916 27.9116C36.0027 29.8388 33.3587 30.9294 30.4947 30.9344C27.6297 30.9397 24.9847 29.8573 23.0945 27.9351C22.1712 26.9975 21.4928 25.9222 21.0734 24.7729C20.6628 23.6438 20.5045 22.4384 20.6097 21.2416C20.7103 20.0739 21.0555 18.9405 21.6228 17.9149C22.1754 16.9131 22.9345 16.0083 23.8713 15.2421C25.7075 13.7446 28.0448 12.9347 30.4926 12.9315C32.9404 12.9286 35.2767 13.7321 37.114 15.2233C38.0497 15.9856 38.8088 16.8872 39.3603 17.8872C39.928 18.9116 40.2739 20.0439 40.3756 21.2107C40.4803 22.4078 40.3217 23.6134 39.9108 24.7428C39.4925 25.8934 38.8148 26.9706 37.8916 27.9116Z" fill="#041427"/>
<path d="M124.503 21.3428C124.646 19.7678 125.863 18.7691 127.721 18.7691C129.581 18.7691 130.798 19.7678 130.941 21.3428H124.503ZM130.75 25.2281C130.273 26.3962 129.153 27.0874 127.627 27.0874C125.719 27.0874 124.433 25.8955 124.385 24.0127H135.353V23.459C135.353 18.7443 132.587 16.0939 127.627 16.0939C122.811 16.0939 119.902 18.7691 119.902 22.9643C119.902 27.1833 122.858 29.853 127.627 29.853C130.487 29.853 132.709 28.8739 134.079 27.1471L130.75 25.2281ZM75.8247 21.3499C75.9704 19.7749 77.185 18.7773 79.0451 18.7773C80.903 18.7773 82.1208 19.7749 82.2633 21.3499H75.8247ZM82.0722 25.2366C81.596 26.4044 80.4744 27.0956 78.9491 27.0956C77.0415 27.0956 75.7536 25.9026 75.706 24.0198H86.6732V23.4672C86.6732 18.7525 83.9066 16.1013 78.9491 16.1013C74.131 16.1013 71.2247 18.7773 71.2247 22.9715C71.2247 27.1915 74.1786 29.8614 78.9491 29.8614C81.8088 29.8614 84.0303 28.8824 85.401 27.1553L82.0722 25.2366ZM66.2836 13.2445H70.2414V29.4297H66.2836V13.2445ZM87.6565 17.5431H91.6349V18.5076C93.0468 17.0051 94.7355 16.246 96.6421 16.246C98.8409 16.246 100.505 17.0051 101.364 18.298C102.08 19.3669 102.127 20.6559 102.127 22.3517V29.4297H98.1426V23.2092C98.1426 20.6313 97.6241 19.4383 95.3593 19.4383C93.0685 19.4383 91.6349 20.8016 91.6349 23.0902V29.4297H87.6565V17.5431ZM114.938 23.1626C114.938 25.3791 113.458 26.8322 111.171 26.8322C108.88 26.8322 107.401 25.4275 107.401 23.1883C107.401 20.9174 108.857 19.5126 111.171 19.5126C113.458 19.5126 114.938 20.9401 114.938 23.1626ZM114.938 18.0833C113.935 17.0051 112.48 16.4131 110.455 16.4131C106.094 16.4131 103.11 19.1068 103.11 23.1399C103.11 27.0934 106.07 29.8593 110.382 29.8593C112.362 29.8593 113.817 29.3604 114.938 28.2378V29.4297H118.92V12.2168L114.938 13.2445V18.0833ZM57.2425 19.5126C59.5549 19.5126 61.0091 20.9174 61.0091 23.1883C61.0091 25.4275 59.5311 26.8322 57.2425 26.8322C54.9539 26.8322 53.4748 25.3791 53.4748 23.1626C53.4748 20.9401 54.9539 19.5126 57.2425 19.5126ZM53.4748 13.2445L49.4922 12.2168V29.4297H53.4748V28.2378C54.5953 29.3604 56.0495 29.8593 58.0286 29.8593C62.3435 29.8593 65.3003 27.0934 65.3003 23.1399C65.3003 19.1068 62.3208 16.4131 57.9572 16.4131C55.9298 16.4131 54.4766 17.0051 53.4748 18.0833V13.2445ZM136.336 29.4297V17.5431H140.317V18.2773C141.509 16.8427 142.771 16.128 144.203 16.128C144.49 16.128 144.846 16.1746 145.323 16.2222V19.6096C144.942 19.5602 144.514 19.5602 144.06 19.5602C141.747 19.5602 140.317 21.0866 140.317 23.684V29.4297H136.336Z" fill="black"/>
</svg>
