<svg width="20" height="20" viewBox="0 0 20 20" fill="none" xmlns="http://www.w3.org/2000/svg">
<g clip-path="url(#clip0_393_3591)">
<path fill-rule="evenodd" clip-rule="evenodd" d="M8.61944 11.2808C7.94557 9.52172 8.41229 7.44426 9.67487 5.79945L11.7455 3.10195H14.6994L16.77 5.79945C18.2785 7.76457 18.6507 10.3473 17.2991 12.2666C17.1488 12.2995 17.0041 12.3378 16.8691 12.3773L13.3407 13.4125C13.1547 13.0326 12.8104 12.747 12.3998 12.637C11.5636 12.413 10.7283 12.1879 9.89264 11.9648C9.49964 11.6892 9.07389 11.4371 8.61944 11.2808ZM12.9126 14.2992C13.0444 13.8073 12.7506 13.2972 12.2583 13.1653L9.70401 12.4809C9.67339 12.4727 9.64378 12.4587 9.61643 12.4392C8.80007 11.8603 8.19526 11.6505 7.64147 11.6648C7.08401 11.6791 6.54292 11.9227 5.87971 12.247C5.26483 12.5477 4.66647 12.8337 4.07448 13.1142L5.65674 16.9136L6.26538 16.6176C6.71186 16.4005 7.16979 16.3621 7.64643 16.5005L10.4635 17.3185C11.2073 17.5344 12.1775 17.1569 12.9472 16.8573C14.7643 16.1503 16.5867 15.4544 18.4062 14.7532C18.8315 14.5893 19.1383 14.1661 19.2183 13.7383C19.2752 13.4342 19.2161 13.1223 18.9592 12.9263C18.6375 12.6809 18.026 12.6079 17.023 12.9021L13.4849 13.9401C13.4983 14.0988 13.4859 14.262 13.4401 14.4405C13.2273 15.1994 12.3817 15.7262 11.623 15.4771L8.24315 14.5715C8.09745 14.5326 8.01089 14.3829 8.04983 14.2372C8.08878 14.0915 8.23846 14.0049 8.38417 14.0439L11.7788 14.9535C12.2712 15.0854 12.7806 14.7918 12.9126 14.2992ZM5.21007 18.7685L3.85569 19.3309C3.56182 19.4529 3.22268 19.313 3.10038 19.0193C2.33589 17.1836 1.57139 15.3479 0.806901 13.5121C0.683269 13.2153 0.821862 12.8794 1.11885 12.7561L2.47323 12.1937C2.7671 12.0716 3.10624 12.2116 3.22854 12.5053C3.993 14.341 4.75753 16.1767 5.52198 18.0124C5.64561 18.3093 5.50706 18.6452 5.21007 18.7685ZM12.2274 10.5325C12.4459 10.7386 12.6549 10.8966 12.9553 10.9542L12.9615 11.2109C12.965 11.3614 13.0899 11.4804 13.2403 11.4769C13.3907 11.4734 13.5098 11.3486 13.5063 11.1981L13.5003 10.9491C14.0285 10.8373 14.4617 10.401 14.4617 9.84207C14.4617 9.17562 13.86 8.70613 13.2224 8.70613C12.8863 8.70613 12.53 8.48125 12.53 8.11711C12.53 7.75379 12.8867 7.52699 13.2224 7.52699C13.3824 7.52699 13.7615 7.66531 13.8518 7.8027C13.9344 7.92832 14.1032 7.96324 14.2289 7.88066C14.3545 7.79809 14.3894 7.62926 14.3068 7.50363C14.1434 7.25504 13.7761 7.08492 13.4905 7.01762L13.4833 6.71652C13.4798 6.56609 13.355 6.44703 13.2046 6.45055C13.0541 6.45406 12.9351 6.57891 12.9386 6.72934L12.9453 7.01086C12.4163 7.12176 11.9831 7.55773 11.9831 8.11715C11.9831 8.78355 12.5849 9.25309 13.2224 9.25309C13.5586 9.25309 13.9148 9.47801 13.9148 9.84215C13.9148 10.2063 13.5586 10.4312 13.2224 10.4312C12.9367 10.4312 12.8012 10.3239 12.6012 10.1353C12.4915 10.032 12.3189 10.0373 12.2157 10.147C12.1124 10.2566 12.1177 10.4293 12.2274 10.5325ZM11.7983 2.55512L10.8574 0.917617C10.7824 0.786992 10.8761 0.625 11.0268 0.625H15.418C15.5687 0.625 15.6624 0.786992 15.5873 0.917617L14.6466 2.55512H11.7983Z" fill="#0D1B2A"/>
</g>
<defs>
<clipPath id="clip0_393_3591">
<rect width="20" height="20" fill="white"/>
</clipPath>
</defs>
</svg>
