<svg width="20" height="20" viewBox="0 0 20 20" fill="none" xmlns="http://www.w3.org/2000/svg">
<g clip-path="url(#clip0_393_3555)">
<path fill-rule="evenodd" clip-rule="evenodd" d="M4.14113 10.3996V14.8634H2.42902V10.3996H4.14113ZM0.761758 7.67145H19.2398V6.32828C19.2398 6.11648 19.067 5.94375 18.8552 5.94375H1.14625C0.934492 5.94375 0.761719 6.11648 0.761719 6.32828L0.761758 7.67145ZM0.761758 19.3192H19.2398V17.976C19.2398 17.7642 19.067 17.5915 18.8552 17.5915H1.14625C0.934492 17.5915 0.761719 17.7642 0.761719 17.976L0.761758 19.3192ZM10.3208 0.77793L16.8039 5.00621H3.19758L9.68066 0.77793C9.87957 0.648242 10.1219 0.648242 10.3208 0.77793ZM4.14113 15.8009H4.3625C4.5743 15.8009 4.74703 15.9736 4.74703 16.1854V16.654H1.82313V16.1854C1.82313 15.9736 1.99586 15.8009 2.20766 15.8009H2.42902H4.14113ZM2.42902 9.46207H2.20766C1.99594 9.46207 1.82313 9.28934 1.82313 9.07754V8.60891H4.74703V9.07754C4.74703 9.28926 4.57426 9.46207 4.3625 9.46207H4.14113H2.42902ZM15.6389 15.8009H15.8603H17.5725H17.7938C18.0056 15.8009 18.1784 15.9736 18.1784 16.1854V16.654H15.2545V16.1854C15.2544 15.9736 15.4272 15.8009 15.6389 15.8009ZM15.8603 14.8634V10.3996H17.5725V14.8634H15.8603ZM15.8603 9.46207H15.6389C15.4272 9.46207 15.2544 9.28934 15.2544 9.07754V8.60891H18.1783V9.07754C18.1783 9.28926 18.0055 9.46207 17.7938 9.46207H17.5724H15.8603ZM13.7013 8.60891V9.07754C13.7013 9.28926 13.5285 9.46207 13.3167 9.46207H13.0954H11.3832H11.1618C10.9501 9.46207 10.7773 9.28934 10.7773 9.07754V8.60891H13.7013ZM13.0954 10.3996V14.8634H11.3832V10.3996H13.0954ZM13.0954 15.8009H13.3167C13.5285 15.8009 13.7013 15.9736 13.7013 16.1854V16.654H10.7773V16.1854C10.7773 15.9736 10.95 15.8009 11.1618 15.8009H11.3832H13.0954ZM9.22414 8.60891V9.07754C9.22414 9.28926 9.05137 9.46207 8.83961 9.46207H8.61824H6.90609H6.68473C6.47297 9.46207 6.3002 9.28934 6.3002 9.07754V8.60891H9.22414ZM8.61824 10.3996V14.8634H6.90609V10.3996H8.61824ZM8.61824 15.8009H8.83961C9.05141 15.8009 9.22414 15.9736 9.22414 16.1854V16.654H6.30023V16.1854C6.30023 15.9736 6.47297 15.8009 6.68477 15.8009H6.90613H8.61824Z" fill="#0D1B2A"/>
</g>
<defs>
<clipPath id="clip0_393_3555">
<rect width="20" height="20" fill="white"/>
</clipPath>
</defs>
</svg>
