<svg width="20" height="20" viewBox="0 0 20 20" fill="none" xmlns="http://www.w3.org/2000/svg">
<g clip-path="url(#clip0_393_3608)">
<path d="M10 7.07031C10.323 7.07031 10.5859 6.80742 10.5859 6.48438C10.5859 6.16133 10.323 5.89844 10 5.89844C9.67695 5.89844 9.41406 6.16133 9.41406 6.48438C9.41406 6.80742 9.67695 7.07031 10 7.07031Z" fill="#0D1B2A"/>
<path d="M6.48438 9.41406C6.16133 9.41406 5.89844 9.67695 5.89844 10C5.89844 10.323 6.16133 10.5859 6.48438 10.5859C6.80742 10.5859 7.07031 10.323 7.07031 10C7.07031 9.67695 6.80742 9.41406 6.48438 9.41406Z" fill="#0D1B2A"/>
<path d="M13.5156 9.41406C13.1926 9.41406 12.9297 9.67695 12.9297 10C12.9297 10.323 13.1926 10.5859 13.5156 10.5859C13.8387 10.5859 14.1016 10.323 14.1016 10C14.1016 9.67695 13.8387 9.41406 13.5156 9.41406Z" fill="#0D1B2A"/>
<path d="M10 12.9297C9.67695 12.9297 9.41406 13.1926 9.41406 13.5156C9.41406 13.8387 9.67695 14.1016 10 14.1016C10.323 14.1016 10.5859 13.8387 10.5859 13.5156C10.5859 13.1926 10.323 12.9297 10 12.9297Z" fill="#0D1B2A"/>
<path d="M19.4141 8.24219C19.0905 8.24219 18.8281 8.50453 18.8281 8.82812V9.41406H17.5949C17.5215 8.45234 17.2684 7.53984 16.8695 6.71055L16.8695 6.71047L17.9045 6.11289L18.1975 6.62031C18.3601 6.90195 18.719 6.99582 18.9979 6.83477C19.2781 6.67297 19.3741 6.31461 19.2123 6.03437L18.0405 4.00465C17.8787 3.72441 17.5203 3.6284 17.2401 3.7902C16.9598 3.95199 16.8638 4.31035 17.0256 4.59059L17.3186 5.09801L16.2818 5.69664L16.2816 5.69648C15.7496 4.92188 15.0781 4.25039 14.3035 3.71836L14.3034 3.71824L14.902 2.68141L15.4094 2.97437C15.6887 3.13562 16.0475 3.04109 16.2098 2.75992C16.3716 2.47965 16.2756 2.12133 15.9954 1.95953L13.9656 0.787656C13.6853 0.625859 13.327 0.721875 13.1652 1.00211C13.0034 1.28238 13.0994 1.6407 13.3796 1.8025L13.8871 2.09547L13.2895 3.13051L13.2895 3.13047C12.4602 2.73164 11.5477 2.47852 10.5859 2.40508V1.17188H11.1719C11.4955 1.17188 11.7578 0.909531 11.7578 0.585938C11.7578 0.262344 11.4955 0 11.1719 0H8.82812C8.50453 0 8.24219 0.262344 8.24219 0.585938C8.24219 0.909531 8.50453 1.17188 8.82812 1.17188H9.41406V2.40508C8.45234 2.47852 7.53984 2.73164 6.71055 3.13047L6.71047 3.13051L6.11289 2.09547L6.62035 1.8025C6.90059 1.6407 6.9966 1.28234 6.8348 1.00211C6.67301 0.721875 6.31469 0.625859 6.03441 0.787656L4.00465 1.95953C3.72441 2.12133 3.6284 2.47969 3.7902 2.75992C3.95281 3.04156 4.31168 3.13543 4.59059 2.97437L5.09805 2.68141L5.69668 3.71824L5.69652 3.71836C4.92188 4.25039 4.25039 4.92188 3.71836 5.69648L3.71824 5.69664L2.68141 5.09805L2.97437 4.59062C3.13617 4.31039 3.04016 3.95203 2.75992 3.79023C2.47965 3.62844 2.12129 3.72445 1.95953 4.00469L0.787656 6.03441C0.625859 6.31465 0.721875 6.67301 1.00211 6.8348C1.28141 6.99605 1.6402 6.90152 1.8025 6.62035L2.09547 6.11293L3.13051 6.71051L3.13047 6.71059C2.73164 7.53984 2.47852 8.45234 2.40508 9.41406H1.17188V8.82812C1.17188 8.50453 0.909531 8.24219 0.585938 8.24219C0.262344 8.24219 0 8.50453 0 8.82812V11.1719C0 11.4955 0.262344 11.7578 0.585938 11.7578C0.909531 11.7578 1.17188 11.4955 1.17188 11.1719V10.5859H2.40508C2.47852 11.5477 2.73164 12.4602 3.13047 13.2895L3.13051 13.2895L2.09547 13.8871L1.8025 13.3797C1.6407 13.0995 1.28238 13.0034 1.00211 13.1652C0.721875 13.327 0.625859 13.6854 0.787656 13.9656L1.95953 15.9954C2.12215 16.277 2.48102 16.3709 2.75992 16.2098C3.04016 16.048 3.13617 15.6896 2.97437 15.4094L2.68141 14.902L3.71824 14.3034L3.71836 14.3035C4.25039 15.0781 4.92188 15.7496 5.69648 16.2816L5.69664 16.2818L5.09801 17.3186L4.59055 17.0256C4.31023 16.8638 3.95191 16.9598 3.79016 17.2401C3.62836 17.5204 3.72438 17.8787 4.00461 18.0405L6.03437 19.2123C6.31367 19.3736 6.67246 19.2791 6.83477 18.9979C6.99656 18.7176 6.90055 18.3593 6.62031 18.1975L6.11285 17.9045L6.71043 16.8695L6.71051 16.8695C7.5398 17.2684 8.4523 17.5215 9.41402 17.5949V18.8281H8.82809C8.50449 18.8281 8.24215 19.0905 8.24215 19.4141C8.24215 19.7377 8.50449 20 8.82809 20H11.1718C11.4954 20 11.7578 19.7377 11.7578 19.4141C11.7578 19.0905 11.4954 18.8281 11.1718 18.8281H10.5859V17.5949C11.5476 17.5215 12.4601 17.2684 13.2894 16.8695L13.2895 16.8695L13.8871 17.9045L13.3796 18.1975C13.0994 18.3593 13.0034 18.7177 13.1652 18.9979C13.3278 19.2795 13.6866 19.3734 13.9655 19.2123L15.9953 18.0405C16.2755 17.8787 16.3716 17.5203 16.2098 17.2401C16.048 16.9598 15.6896 16.8638 15.4094 17.0256L14.9019 17.3186L14.3033 16.2818L14.3035 16.2816C15.0781 15.7496 15.7496 15.0781 16.2816 14.3035L16.2817 14.3034L17.3186 14.902L17.0256 15.4094C16.8638 15.6896 16.9598 16.048 17.24 16.2098C17.5193 16.3711 17.8781 16.2765 18.0404 15.9954L19.2123 13.9656C19.3741 13.6854 19.2781 13.327 18.9979 13.1652C18.7175 13.0034 18.3592 13.0995 18.1975 13.3797L17.9045 13.8871L16.8695 13.2895L16.8695 13.2895C17.2683 12.4602 17.5214 11.5477 17.5949 10.5859H18.8281V11.1719C18.8281 11.4955 19.0905 11.7578 19.4141 11.7578C19.7377 11.7578 20 11.4955 20 11.1719V8.82812C20 8.50453 19.7377 8.24219 19.4141 8.24219ZM13.5156 5.89844C13.8391 5.89844 14.1016 6.16094 14.1016 6.48438C14.1016 6.80781 13.8391 7.07031 13.5156 7.07031C13.1922 7.07031 12.9297 6.80781 12.9297 6.48438C12.9297 6.16094 13.1922 5.89844 13.5156 5.89844ZM10 4.72656C10.9691 4.72656 11.7578 5.51523 11.7578 6.48438C11.7578 7.45352 10.9691 8.24219 10 8.24219C9.03086 8.24219 8.24219 7.45352 8.24219 6.48438C8.24219 5.51523 9.03086 4.72656 10 4.72656ZM10.5859 10C10.5859 10.3234 10.3234 10.5859 10 10.5859C9.67656 10.5859 9.41406 10.3234 9.41406 10C9.41406 9.67656 9.67656 9.41406 10 9.41406C10.3234 9.41406 10.5859 9.67656 10.5859 10ZM6.48438 5.89844C6.80781 5.89844 7.07031 6.16094 7.07031 6.48438C7.07031 6.80781 6.80781 7.07031 6.48438 7.07031C6.16094 7.07031 5.89844 6.80781 5.89844 6.48438C5.89844 6.16094 6.16094 5.89844 6.48438 5.89844ZM6.48438 14.1016C6.16094 14.1016 5.89844 13.8391 5.89844 13.5156C5.89844 13.1922 6.16094 12.9297 6.48438 12.9297C6.80781 12.9297 7.07031 13.1922 7.07031 13.5156C7.07031 13.8391 6.80781 14.1016 6.48438 14.1016ZM6.48438 11.7578C5.51523 11.7578 4.72656 10.9691 4.72656 10C4.72656 9.03086 5.51523 8.24219 6.48438 8.24219C7.45352 8.24219 8.24219 9.03086 8.24219 10C8.24219 10.9691 7.45352 11.7578 6.48438 11.7578ZM10 15.2734C9.03086 15.2734 8.24219 14.4848 8.24219 13.5156C8.24219 12.5465 9.03086 11.7578 10 11.7578C10.9691 11.7578 11.7578 12.5465 11.7578 13.5156C11.7578 14.4848 10.9691 15.2734 10 15.2734ZM13.5156 14.1016C13.1922 14.1016 12.9297 13.8391 12.9297 13.5156C12.9297 13.1922 13.1922 12.9297 13.5156 12.9297C13.8391 12.9297 14.1016 13.1922 14.1016 13.5156C14.1016 13.8391 13.8391 14.1016 13.5156 14.1016ZM13.5156 11.7578C12.5465 11.7578 11.7578 10.9691 11.7578 10C11.7578 9.03086 12.5465 8.24219 13.5156 8.24219C14.4848 8.24219 15.2734 9.03086 15.2734 10C15.2734 10.9691 14.4848 11.7578 13.5156 11.7578Z" fill="#0D1B2A"/>
</g>
<defs>
<clipPath id="clip0_393_3608">
<rect width="20" height="20" fill="white"/>
</clipPath>
</defs>
</svg>
