<svg width="20" height="20" viewBox="0 0 20 20" fill="none" xmlns="http://www.w3.org/2000/svg">
<g clip-path="url(#clip0_393_3525)">
<path d="M0.558571 11.4455L1.8637 11.6594C2.0699 12.6587 2.46451 13.6098 3.02645 14.4615L2.25356 15.5402C2.09319 15.7585 2.09595 16.0564 2.26035 16.2718C2.45523 16.51 2.66231 16.738 2.88072 16.9548C3.10105 17.1755 3.32818 17.3789 3.5621 17.5755C3.77755 17.7402 4.07587 17.743 4.29434 17.5823L5.37235 16.809C6.22328 17.3713 7.1736 17.7662 8.17243 17.9725L8.38601 19.2786C8.4267 19.5458 8.63988 19.7535 8.90805 19.7871C9.09381 19.8081 9.28095 19.821 9.47215 19.8305C9.565 19.8351 9.65568 19.8015 9.72323 19.7377C9.79078 19.6738 9.8294 19.5852 9.83012 19.4922V16.7755C9.82914 16.5924 9.68367 16.4427 9.50063 16.4365C6.07493 16.2589 3.38838 13.4295 3.38838 9.99921C3.38838 6.56891 6.07493 3.73949 9.50063 3.5619C9.68367 3.5557 9.82914 3.40606 9.83012 3.2229V0.508565C9.82966 0.415653 9.79131 0.32694 9.72392 0.262932C9.65653 0.198924 9.56595 0.16523 9.47314 0.169561C9.28262 0.177468 9.09427 0.19082 8.90802 0.209554C8.63978 0.246102 8.42745 0.454596 8.38598 0.722112L8.1724 2.02826C7.1736 2.23485 6.22332 2.62979 5.37231 3.19202L4.29431 2.41845C4.07584 2.25772 3.77752 2.26047 3.56207 2.42524C3.32451 2.62038 3.09708 2.82756 2.88068 3.04593C2.66064 3.26121 2.45349 3.4893 2.26032 3.72899C2.09523 3.94457 2.09247 4.24329 2.25353 4.46189L3.02642 5.54058C2.46461 6.39204 2.07 7.34265 1.86367 8.34168L0.558538 8.55526C0.291285 8.59608 0.0836438 8.80939 0.0500485 9.07767C-0.0166828 9.68602 -0.0166828 10.2999 0.0500485 10.9082C0.0801989 11.1809 0.287906 11.4004 0.558571 11.4455Z" fill="#050519"/>
<path d="M9.50954 4.92605C6.8314 5.0957 4.74609 7.31729 4.74609 10.0008C4.74609 12.6843 6.83143 14.9059 9.50954 15.0755C9.59474 15.0791 9.67768 15.0475 9.73893 14.9881C9.80019 14.9288 9.8344 14.8469 9.83362 14.7616V5.23996C9.83444 5.15466 9.80022 5.0728 9.73893 5.01345C9.67768 4.9541 9.59474 4.92251 9.50954 4.92605Z" fill="#050519"/>
<path d="M12.2028 5.25438H10.5078V5.93236H12.2028C12.7638 5.93069 13.2181 5.47636 13.2197 4.91538V2.81905C13.6867 2.65396 13.9668 2.17644 13.8831 1.68826C13.7993 1.20008 13.3761 0.843262 12.8807 0.843262C12.3854 0.843262 11.9622 1.20008 11.8784 1.68826C11.7946 2.17644 12.0748 2.65396 12.5417 2.81905V4.91538C12.5417 5.10261 12.39 5.25438 12.2028 5.25438Z" fill="#050519"/>
<path d="M10.5078 7.28836H13.8978C14.085 7.28836 14.2368 7.13659 14.2368 6.94936C14.2368 6.76212 14.085 6.61035 13.8978 6.61035H10.5078V7.28836Z" fill="#050519"/>
<path d="M10.5078 14.7463H12.2028C12.39 14.7463 12.5418 14.8981 12.5418 15.0853V17.1817C12.0748 17.3468 11.7947 17.8243 11.8784 18.3125C11.9622 18.8006 12.3854 19.1575 12.8808 19.1575C13.3761 19.1575 13.7994 18.8006 13.8831 18.3125C13.9669 17.8243 13.6868 17.3468 13.2198 17.1817V15.0853C13.2181 14.5244 12.7638 14.07 12.2028 14.0684H10.5078V14.7463H10.5078Z" fill="#050519"/>
<path d="M15.5927 11.3564H10.5078V12.0344H15.5927C15.7799 12.0344 15.9317 12.1862 15.9317 12.3734V14.1308C15.4647 14.2959 15.1846 14.7734 15.2684 15.2616C15.3521 15.7498 15.7754 16.1066 16.2707 16.1066C16.766 16.1066 17.1893 15.7498 17.2731 15.2616C17.3568 14.7734 17.0767 14.2959 16.6097 14.1308V12.3734C16.608 11.8124 16.1537 11.3581 15.5927 11.3564Z" fill="#050519"/>
<path d="M18.9827 8.9834C18.5532 8.98517 18.1712 9.25649 18.028 9.66137H10.5078V10.3394H18.028C18.2013 10.8257 18.7119 11.1046 19.2147 10.9875C19.7175 10.8704 20.0524 10.3947 19.993 9.88191C19.9337 9.36912 19.4989 8.98248 18.9827 8.9834Z" fill="#050519"/>
<path d="M14.2368 13.0514C14.2368 12.8642 14.085 12.7124 13.8978 12.7124H10.5078V13.3904H13.8978C14.085 13.3904 14.2368 13.2386 14.2368 13.0514Z" fill="#050519"/>
<path d="M16.6097 7.62743V5.87008C17.0767 5.70499 17.3568 5.22747 17.2731 4.73929C17.1893 4.25111 16.7661 3.89429 16.2707 3.89429C15.7754 3.89429 15.3521 4.25111 15.2684 4.73929C15.1846 5.22747 15.4647 5.70499 15.9317 5.87008V7.62743C15.9317 7.81467 15.7799 7.96644 15.5927 7.96644H10.5078V8.64441H15.5927C16.1537 8.64271 16.6081 8.18838 16.6097 7.62743Z" fill="#050519"/>
</g>
<defs>
<clipPath id="clip0_393_3525">
<rect width="20" height="20" fill="white"/>
</clipPath>
</defs>
</svg>
