<svg width="20" height="20" viewBox="0 0 20 20" fill="none" xmlns="http://www.w3.org/2000/svg">
<path d="M13.6546 2.26367C13.3109 2.26367 13.0322 2.54234 13.0322 2.88609C13.0322 3.22984 13.3109 3.50852 13.6546 3.50852C14.6266 3.50852 15.4174 4.29926 15.4174 5.27125C15.4174 5.615 15.6961 5.89367 16.0398 5.89367C16.3836 5.89367 16.6623 5.615 16.6623 5.27125C16.6622 3.61285 15.313 2.26367 13.6546 2.26367Z" fill="#0D1B2A"/>
<path d="M13.6546 0C13.3109 0 13.0322 0.278672 13.0322 0.622422C13.0322 0.966172 13.3109 1.24484 13.6546 1.24484C15.8749 1.24484 17.6812 3.05113 17.6812 5.27137C17.6812 5.61512 17.9598 5.89379 18.3036 5.89379C18.6473 5.89379 18.926 5.61512 18.926 5.27137C18.926 2.36469 16.5612 0 13.6546 0Z" fill="#0D1B2A"/>
<path d="M7.42586 13.3839C8.43663 13.3839 9.25602 12.5646 9.25602 11.5538C9.25602 10.543 8.43663 9.72363 7.42586 9.72363C6.41509 9.72363 5.5957 10.543 5.5957 11.5538C5.5957 12.5646 6.41509 13.3839 7.42586 13.3839Z" fill="#0D1B2A"/>
<path d="M12.4835 7.32877L13.4837 6.32862C13.7268 6.08553 13.7268 5.69147 13.4837 5.44842C13.2406 5.20534 12.8465 5.20534 12.6035 5.44842L11.6033 6.44858L7.72649 2.57174C7.54739 2.39264 7.25356 2.40338 7.08825 2.5953C5.56911 4.35905 5.17075 6.80256 5.84114 8.91901C6.3336 8.62182 6.91552 8.4585 7.5363 8.48053C9.12306 8.53682 10.4197 9.81651 10.4964 11.4024C10.526 12.0147 10.3745 12.5899 10.0922 13.0808C12.1766 13.6958 14.5523 13.2778 16.281 11.7869C16.4725 11.6217 16.4828 11.3281 16.304 11.1492L12.4835 7.32877Z" fill="#0D1B2A"/>
<path d="M9.68344 13.6365C9.12121 14.2459 8.31656 14.6285 7.42402 14.6285C6.53852 14.6285 5.73973 14.2517 5.17813 13.6507L3.71582 17.2662H11.115L9.68344 13.6365Z" fill="#0D1B2A"/>
<path d="M13.0414 18.5107H1.80902C1.39848 18.5107 1.06445 18.8448 1.06445 19.2553C1.06445 19.6659 1.39848 19.9999 1.80902 19.9999H13.0414C13.452 19.9999 13.786 19.6659 13.786 19.2553C13.7859 18.8448 13.452 18.5107 13.0414 18.5107Z" fill="#0D1B2A"/>
</svg>
