<svg width="20" height="20" viewBox="0 0 20 20" fill="none" xmlns="http://www.w3.org/2000/svg">
<g clip-path="url(#clip0_393_3546)">
<path d="M19.4136 19.3051C19.7465 19.3051 20.0147 19.0273 19.9988 18.6909C19.984 18.3757 19.7125 18.1333 19.397 18.1333H17.2262V16.9615H19.4136C19.8233 16.9615 20.1065 16.5509 19.9616 16.1678L17.2519 9.02164C17.0617 8.52058 16.3497 8.51737 16.1571 9.0193C14.8036 12.5383 14.2068 14.089 13.9451 14.7706L14.7669 16.9615H16.0543V18.1333H10.5859V16.9615H13.5154L10.5545 9.06559C10.3571 8.53925 9.64358 8.53737 9.4455 9.06559L6.48456 16.9615H9.4141V18.1333H3.94563V16.9615H5.23306L6.05489 14.7706C5.79319 14.089 5.19634 12.5383 3.8429 9.0193C3.65017 8.51714 2.93825 8.52065 2.74803 9.02164L0.0384015 16.1678C-0.106513 16.5509 0.176676 16.9615 0.586421 16.9615H2.77381V18.1333H0.602943C0.287451 18.1333 0.0159807 18.3757 0.00113774 18.6909C-0.0147208 19.0273 0.253391 19.3051 0.586381 19.3051H19.4136Z" fill="#0D1B2A"/>
<path d="M10.9022 7.74784L12.2302 4.42691L10.526 1.0181C10.3106 0.587144 9.69318 0.586988 9.47765 1.0181L7.77344 4.42691L9.1015 7.74784C9.65873 7.41465 10.3448 7.41453 10.9022 7.74784Z" fill="#0D1B2A"/>
<path d="M13.3255 13.117C13.3281 13.1103 15.0615 8.60427 15.0637 8.59849C15.2485 8.11766 15.6367 7.74893 16.1066 7.57784L14.6586 4.19989C14.4544 3.72112 13.7695 3.72933 13.5763 4.21278L11.7236 8.84536L13.3255 13.117Z" fill="#0D1B2A"/>
<path d="M6.67759 13.117C6.67502 13.1103 4.94163 8.60422 4.9394 8.59844C4.75464 8.11761 4.36638 7.74888 3.89648 7.57779L5.34446 4.19984C5.43742 3.98188 5.65304 3.84165 5.89013 3.84478C6.12684 3.84751 6.33894 3.99282 6.42682 4.21273L8.27947 8.8453L6.67759 13.117Z" fill="#0D1B2A"/>
</g>
<defs>
<clipPath id="clip0_393_3546">
<rect width="20" height="20" fill="white"/>
</clipPath>
</defs>
</svg>
