<svg width="20" height="20" viewBox="0 0 20 20" fill="none" xmlns="http://www.w3.org/2000/svg">
<path d="M11.9 10.8841V6.22236C11.9 5.70686 11.2928 5.43136 10.9049 5.77081L4.80121 11.1115C4.60581 11.2825 4.3 11.1438 4.3 10.8841V1.7001C4.3 1.36873 4.03137 1.1001 3.7 1.1001H1.1C0.768629 1.1001 0.5 1.36873 0.5 1.7001V18.1805C0.5 18.5779 0.82216 18.9001 1.21957 18.9001H4.3H11.9H18.7804C19.1778 18.9001 19.5 18.5779 19.5 18.1805V6.22236C19.5 5.70686 18.8928 5.43136 18.5049 5.77081L12.4012 11.1115C12.2058 11.2825 11.9 11.1438 11.9 10.8841ZM9.48587 16.7501H6.71413C6.43018 16.7501 6.2 16.5199 6.2 16.236V13.9642C6.2 13.6803 6.43018 13.4501 6.71413 13.4501H9.48587C9.76981 13.4501 10 13.6803 10 13.9642V16.236C10 16.5199 9.76981 16.7501 9.48587 16.7501ZM17.0859 16.7501H14.3141C14.0302 16.7501 13.8 16.5199 13.8 16.236V13.9642C13.8 13.6803 14.0302 13.4501 14.3141 13.4501H17.0859C17.3698 13.4501 17.6 13.6803 17.6 13.9642V16.236C17.6 16.5199 17.3698 16.7501 17.0859 16.7501Z" fill="#050519"/>
</svg>
