<svg width="20" height="20" viewBox="0 0 20 20" fill="none" xmlns="http://www.w3.org/2000/svg">
<path fill-rule="evenodd" clip-rule="evenodd" d="M4.97981 11.2367C4.81598 10.9005 4.6045 10.5865 4.34939 10.305C3.66981 9.56902 3.25684 8.58497 3.25684 7.5054C3.25684 5.2137 5.11726 3.35327 7.40875 3.35327C9.70045 3.35327 11.5609 5.2137 11.5609 7.5054C11.5609 8.58497 11.1479 9.56902 10.4713 10.3077C10.217 10.5886 10.0062 10.9016 9.84258 11.2367H4.97981ZM7.94811 5.80285C7.95641 5.75582 7.93173 5.70902 7.88833 5.68923C7.84471 5.66923 7.79322 5.68136 7.76322 5.71859C7.2845 6.30838 6.27024 7.55859 5.9262 7.98263C5.90237 8.012 5.8962 8.05199 5.91003 8.0871C5.92386 8.12242 5.95556 8.14753 5.99301 8.15285C6.2662 8.19136 6.7713 8.26285 6.9962 8.29455C7.02535 8.2988 7.0513 8.31497 7.06811 8.33923C7.08471 8.36327 7.09045 8.39348 7.08386 8.42221C7.02407 8.68242 6.87258 9.34157 6.77024 9.78731C6.75939 9.83497 6.78258 9.88391 6.82662 9.90519C6.87045 9.92668 6.92343 9.91497 6.95407 9.8771C7.47003 9.24114 8.53747 7.92561 8.89152 7.48923C8.91535 7.45987 8.92152 7.41987 8.90769 7.38455C8.89386 7.34944 8.86215 7.32433 8.82471 7.31902C8.54918 7.28008 8.0379 7.20774 7.81577 7.17646C7.78769 7.17242 7.76216 7.1571 7.74556 7.13412C7.72875 7.11093 7.72215 7.08221 7.72705 7.05412C7.77003 6.81136 7.87641 6.2088 7.94811 5.80285Z" fill="#0D1B2A"/>
<path fill-rule="evenodd" clip-rule="evenodd" d="M9.43715 14.0012C9.43651 14.3248 9.43609 14.6078 9.43588 14.8029C9.43588 14.9893 9.35332 15.1659 9.21077 15.2854C8.01056 16.2876 6.81226 16.2946 5.61396 15.2837C5.47268 15.1646 5.39098 14.989 5.39098 14.8041C5.38843 14.4207 5.38843 13.6963 5.38843 12.9914C5.38843 12.6103 5.33417 12.2348 5.22949 11.875H9.59928C9.4946 12.2348 9.44034 12.6105 9.44034 12.9914C9.43971 13.1152 9.43928 13.2397 9.43885 13.3629H7.66353C7.48736 13.3629 7.34439 13.5059 7.34439 13.682C7.34439 13.8582 7.48736 14.0012 7.66353 14.0012H9.43715Z" fill="#0D1B2A"/>
<path fill-rule="evenodd" clip-rule="evenodd" d="M1.82043 6.69092H0.319149C0.142979 6.69092 0 6.8339 0 7.01007C0 7.18624 0.142979 7.32922 0.319149 7.32922H1.82043C1.99638 7.32922 2.13957 7.18624 2.13957 7.01007C2.13957 6.8339 1.99638 6.69092 1.82043 6.69092Z" fill="#0D1B2A"/>
<path fill-rule="evenodd" clip-rule="evenodd" d="M14.5011 6.69067H12.9998C12.8236 6.69067 12.6807 6.83365 12.6807 7.00982C12.6807 7.18599 12.8236 7.32897 12.9998 7.32897H14.5011C14.6773 7.32897 14.8202 7.18599 14.8202 7.00982C14.8202 6.83365 14.6773 6.69067 14.5011 6.69067Z" fill="#0D1B2A"/>
<path fill-rule="evenodd" clip-rule="evenodd" d="M7.08984 0.319149V1.82043C7.08984 1.9966 7.23304 2.13957 7.40899 2.13957C7.58516 2.13957 7.72814 1.9966 7.72814 1.82043V0.319149C7.72814 0.143191 7.58516 0 7.40899 0C7.23304 0 7.08984 0.143191 7.08984 0.319149Z" fill="#0D1B2A"/>
<path fill-rule="evenodd" clip-rule="evenodd" d="M12.2346 1.64052L11.2714 3.05073C11.172 3.19626 11.2095 3.39498 11.355 3.49435C11.5006 3.59371 11.6993 3.55626 11.7986 3.41073L12.7616 2.00052C12.861 1.85498 12.8235 1.65626 12.678 1.5569C12.5327 1.45775 12.3337 1.4952 12.2346 1.64052Z" fill="#0D1B2A"/>
<path fill-rule="evenodd" clip-rule="evenodd" d="M2.05267 2.00052L3.01564 3.41073C3.11501 3.55626 3.31373 3.59371 3.45926 3.49435C3.60458 3.39498 3.64203 3.19626 3.54267 3.05073L2.57969 1.64052C2.48033 1.4952 2.2816 1.45775 2.13607 1.5569C1.99075 1.65626 1.9533 1.85498 2.05267 2.00052Z" fill="#0D1B2A"/>
<path fill-rule="evenodd" clip-rule="evenodd" d="M14.3871 12.8895C15.0429 12.1165 16.0052 11.3235 17.4942 10.5408C17.6499 10.4588 17.7101 10.2657 17.628 10.1099C17.5461 9.95395 17.3529 9.89395 17.1971 9.97587C13.7269 11.8001 12.9499 13.6691 12.3937 15.2527C12.3316 13.7797 12.6101 11.7703 14.2965 10.5814C16.7616 8.84331 19.1212 8.63097 19.5401 7.30778C19.959 5.98459 20.4444 12.7771 18.1948 14.3871C16.2165 15.8031 14.6473 15.455 13.2329 16.5537C13.1888 16.6774 13.1439 16.7984 13.0969 16.9171C12.7544 17.7803 11.6878 20.372 9.00607 19.9022C8.05671 19.7359 7.54905 19.0552 7.29564 18.2837C7.10969 17.7174 7.06586 17.1046 7.06543 16.6565C7.18117 16.671 7.29692 16.678 7.41245 16.6778C7.50862 16.6776 7.605 16.6727 7.70139 16.6625C7.7016 17.0552 7.73969 17.5901 7.90224 18.0846C8.085 18.6414 8.43117 19.1535 9.11628 19.2735C11.3748 19.6693 12.215 17.4088 12.5037 16.6816C12.9425 15.5759 13.2031 14.2627 14.3871 12.8895Z" fill="#0D1B2A"/>
</svg>
