<svg width="20" height="20" viewBox="0 0 20 20" fill="none" xmlns="http://www.w3.org/2000/svg">
<path d="M16.1467 6.51655C13.8467 4.49155 6.14674 4.49155 3.84674 6.51655C2.73841 7.49989 2.08008 9.41655 2.08008 11.6666C2.08008 13.9166 2.73841 15.8332 3.84674 16.8166C4.95508 17.7999 7.49675 18.3332 9.99675 18.3332C12.4967 18.3332 14.9967 17.8332 16.1467 16.8166C17.2551 15.8332 17.9134 13.9166 17.9134 11.6666C17.9134 9.41655 17.2551 7.49989 16.1467 6.51655ZM12.1967 12.2749L8.97175 13.8832C8.86919 13.9341 8.75537 13.9581 8.641 13.9529C8.52663 13.9476 8.41547 13.9134 8.31796 13.8534C8.22046 13.7934 8.13982 13.7096 8.08363 13.6099C8.02743 13.5101 7.99754 13.3977 7.99675 13.2832V10.0499C7.99754 9.9354 8.02743 9.823 8.08363 9.72325C8.13982 9.6235 8.22046 9.53968 8.31796 9.47968C8.41547 9.41968 8.52663 9.38546 8.641 9.38025C8.75537 9.37504 8.86919 9.399 8.97175 9.44989L12.1967 11.0582C12.3088 11.1155 12.4028 11.2027 12.4684 11.31C12.5341 11.4173 12.5688 11.5407 12.5688 11.6666C12.5688 11.7924 12.5341 11.9158 12.4684 12.0231C12.4028 12.1304 12.3088 12.2176 12.1967 12.2749Z" fill="#0D1B2A"/>
<path d="M10.0002 6.6665C9.89048 6.66713 9.78176 6.64611 9.68023 6.60464C9.5787 6.56317 9.48635 6.50206 9.40849 6.42483L6.07515 3.0915C5.99746 3.0138 5.93582 2.92155 5.89377 2.82004C5.85172 2.71852 5.83008 2.60971 5.83008 2.49983C5.83008 2.27791 5.91823 2.06508 6.07515 1.90816C6.23207 1.75124 6.4449 1.66309 6.66682 1.66309C6.7767 1.66309 6.88551 1.68473 6.98703 1.72678C7.08855 1.76883 7.18079 1.83046 7.25849 1.90816L10.0002 4.65816L12.7418 1.90816C12.8987 1.75124 13.1116 1.66309 13.3335 1.66309C13.5554 1.66309 13.7682 1.75124 13.9252 1.90816C14.0821 2.06508 14.1702 2.27791 14.1702 2.49983C14.1702 2.72175 14.0821 2.93458 13.9252 3.0915L10.5918 6.42483C10.514 6.50206 10.4216 6.56317 10.3201 6.60464C10.2185 6.64611 10.1098 6.66713 10.0002 6.6665Z" fill="#0D1B2A"/>
</svg>
