<svg width="20" height="20" viewBox="0 0 20 20" fill="none" xmlns="http://www.w3.org/2000/svg">
<g clip-path="url(#clip0_393_3541)">
<path fill-rule="evenodd" clip-rule="evenodd" d="M18.1129 4.59223H15.8484V6.45989L15.5355 6.12485C15.4667 6.05052 15.3879 5.986 15.3015 5.93309V4.31879C15.3015 4.24627 15.3303 4.17672 15.3816 4.12544C15.4329 4.07416 15.5024 4.04536 15.575 4.04536H18.1129C18.1754 3.90799 18.283 3.79615 18.4179 3.72844C18.5527 3.66073 18.7067 3.64123 18.8542 3.67319C19.0016 3.70515 19.1337 3.78663 19.2285 3.90409C19.3232 4.02154 19.3749 4.16789 19.3749 4.31879C19.3749 4.46969 19.3232 4.61604 19.2285 4.7335C19.1337 4.85096 19.0016 4.93244 18.8542 4.9644C18.7067 4.99635 18.5527 4.97685 18.4179 4.90914C18.283 4.84143 18.1754 4.7296 18.1129 4.59223ZM0.983711 12.3318H1.66152C1.59552 11.9948 1.60494 11.6473 1.68911 11.3144C1.77328 10.9815 1.93011 10.6713 2.14835 10.4062C2.36659 10.1411 2.64082 9.92754 2.95136 9.78094C3.26189 9.63435 3.60103 9.55832 3.94443 9.55832C4.28783 9.55832 4.62697 9.63435 4.93751 9.78094C5.24805 9.92754 5.52228 10.1411 5.74051 10.4062C5.95875 10.6713 6.11559 10.9815 6.19976 11.3144C6.28393 11.6473 6.29335 11.9948 6.22734 12.3318H13.5531C13.4907 12.0134 13.4956 11.6855 13.5674 11.3691C13.6393 11.0528 13.7765 10.7549 13.9703 10.4947C14.1641 10.2345 14.4101 10.0177 14.6927 9.85829C14.9752 9.69884 15.2879 9.60024 15.6108 9.56883C15.9337 9.53742 16.2596 9.57389 16.5676 9.6759C16.8756 9.77791 17.1588 9.94321 17.3991 10.1612C17.6394 10.3791 17.8314 10.645 17.9629 10.9415C18.0944 11.2381 18.1624 11.5589 18.1625 11.8834C18.1625 11.9339 18.1607 11.9839 18.1575 12.0336L18.9183 11.936C19.0197 11.9225 19.1125 11.8719 19.1787 11.794C19.245 11.7161 19.28 11.6163 19.277 11.5141V9.04188C19.277 8.54165 18.908 8.36102 18.591 8.33743L16.7015 8.17438L15.1361 6.49813C15.0935 6.44836 15.0408 6.40826 14.9814 6.38052C14.9221 6.35279 14.8575 6.33805 14.792 6.33731H14.4891L15.0991 8.10977C15.113 8.15086 15.1169 8.19467 15.1105 8.23758C15.1041 8.28049 15.0876 8.32126 15.0624 8.35653C15.0371 8.3918 15.0039 8.42056 14.9653 8.44042C14.9267 8.46029 14.884 8.4707 14.8406 8.47079L6.05012 8.48309L1.60277 8.90383C1.06738 8.95446 0.625 9.57926 0.625 10.2116V11.9099C0.625 12.1422 0.786211 12.3318 0.983711 12.3318ZM15.8359 11.5361C15.9046 11.5361 15.9718 11.5564 16.0289 11.5946C16.086 11.6328 16.1305 11.687 16.1568 11.7504C16.1831 11.8139 16.19 11.8837 16.1766 11.9511C16.1632 12.0185 16.1301 12.0803 16.0815 12.1289C16.033 12.1775 15.9711 12.2106 15.9037 12.224C15.8364 12.2374 15.7665 12.2305 15.7031 12.2042C15.6396 12.1779 15.5854 12.1334 15.5472 12.0763C15.5091 12.0192 15.4887 11.952 15.4887 11.8834C15.4887 11.8378 15.4977 11.7926 15.5151 11.7505C15.5326 11.7083 15.5581 11.67 15.5904 11.6378C15.6226 11.6056 15.6609 11.58 15.703 11.5625C15.7452 11.5451 15.7903 11.5361 15.8359 11.5361ZM15.8359 10.1039C15.484 10.104 15.14 10.2083 14.8474 10.4039C14.5547 10.5994 14.3267 10.8773 14.192 11.2024C14.0573 11.5276 14.0221 11.8854 14.0908 12.2305C14.1594 12.5757 14.3289 12.8928 14.5778 13.1416C14.8266 13.3905 15.1437 13.5599 15.4888 13.6286C15.834 13.6972 16.1918 13.662 16.5169 13.5273C16.8421 13.3926 17.12 13.1646 17.3155 12.8719C17.511 12.5793 17.6154 12.2353 17.6154 11.8834C17.6154 11.6497 17.5694 11.4183 17.4799 11.2024C17.3905 10.9865 17.2594 10.7903 17.0942 10.6251C16.929 10.4599 16.7328 10.3288 16.5169 10.2394C16.301 10.15 16.0696 10.1039 15.8359 10.1039ZM15.8359 12.7775C15.6591 12.7775 15.4862 12.7251 15.3392 12.6268C15.1921 12.5286 15.0775 12.3889 15.0099 12.2255C14.9422 12.0622 14.9245 11.8824 14.959 11.7089C14.9935 11.5355 15.0786 11.3762 15.2037 11.2511C15.3287 11.1261 15.4881 11.0409 15.6615 11.0064C15.8349 10.9719 16.0147 10.9896 16.1781 11.0573C16.3415 11.125 16.4811 11.2396 16.5794 11.3866C16.6776 11.5336 16.7301 11.7065 16.7301 11.8834C16.73 12.1205 16.6358 12.3479 16.4681 12.5155C16.3004 12.6832 16.0731 12.7774 15.8359 12.7774V12.7775ZM3.94434 11.5361C4.01302 11.5361 4.08016 11.5564 4.13728 11.5946C4.19439 11.6328 4.23891 11.687 4.2652 11.7504C4.29149 11.8139 4.29837 11.8837 4.28497 11.9511C4.27158 12.0185 4.23851 12.0803 4.18994 12.1289C4.14138 12.1775 4.0795 12.2106 4.01214 12.224C3.94477 12.2374 3.87495 12.2305 3.81149 12.2042C3.74803 12.1779 3.6938 12.1334 3.65564 12.0763C3.61748 12.0192 3.59711 11.952 3.59711 11.8834C3.5971 11.8378 3.60607 11.7926 3.62352 11.7505C3.64096 11.7083 3.66654 11.67 3.69878 11.6378C3.73103 11.6056 3.76931 11.58 3.81144 11.5625C3.85358 11.5451 3.89873 11.5361 3.94434 11.5361ZM3.94434 10.1039C3.5924 10.1039 3.24836 10.2083 2.95574 10.4038C2.66311 10.5993 2.43503 10.8772 2.30034 11.2024C2.16566 11.5275 2.13041 11.8853 2.19907 12.2305C2.26772 12.5757 2.43719 12.8927 2.68605 13.1416C2.9349 13.3904 3.25196 13.5599 3.59714 13.6286C3.94231 13.6972 4.30009 13.662 4.62524 13.5273C4.95039 13.3927 5.2283 13.1646 5.42382 12.872C5.61935 12.5793 5.72371 12.2353 5.72371 11.8834C5.7237 11.4115 5.53625 10.9589 5.20258 10.6252C4.86891 10.2915 4.41635 10.104 3.94445 10.1039H3.94434ZM3.94434 12.7775C3.76749 12.7775 3.59461 12.7251 3.44757 12.6268C3.30052 12.5286 3.18591 12.3889 3.11823 12.2256C3.05055 12.0622 3.03284 11.8824 3.06733 11.7089C3.10183 11.5355 3.18698 11.3762 3.31203 11.2511C3.43708 11.1261 3.5964 11.0409 3.76984 11.0064C3.94329 10.9719 4.12308 10.9896 4.28646 11.0573C4.44985 11.125 4.58949 11.2396 4.68775 11.3866C4.786 11.5336 4.83844 11.7065 4.83844 11.8834C4.83839 12.1205 4.74418 12.3478 4.57654 12.5155C4.4089 12.6831 4.18154 12.7773 3.94445 12.7774L3.94434 12.7775ZM13.9107 6.33731L14.4576 7.92657L11.3223 7.93098V6.33723L13.9107 6.33731ZM10.7756 6.33731V7.93172L6.66988 7.93747L8.38555 6.42786C8.461 6.36476 8.55747 6.33243 8.6557 6.33731H10.7756ZM1.38379 16.1162C1.26513 16.1161 1.14867 16.0841 1.04665 16.0235C0.944633 15.9629 0.860821 15.876 0.804022 15.7718C0.747224 15.6676 0.719537 15.55 0.72387 15.4315C0.728203 15.3129 0.764396 15.1977 0.828647 15.0979C0.892898 14.9981 0.982834 14.9175 1.089 14.8645C1.19517 14.8115 1.31366 14.7881 1.432 14.7967C1.55035 14.8054 1.66419 14.8457 1.76156 14.9135C1.85893 14.9813 1.93623 15.0741 1.98535 15.1822H4.25V14.1897C4.43738 14.1652 4.62105 14.1177 4.79688 14.0484V15.4556C4.79688 15.5281 4.76807 15.5977 4.71679 15.6489C4.66551 15.7002 4.59596 15.729 4.52344 15.729H1.98527C1.93276 15.8445 1.84811 15.9424 1.74143 16.0111C1.63476 16.0797 1.51057 16.1162 1.38371 16.1162H1.38379ZM10.3225 18.113C10.4599 18.1754 10.5717 18.283 10.6395 18.4179C10.7072 18.5528 10.7267 18.7067 10.6947 18.8542C10.6627 19.0017 10.5813 19.1338 10.4638 19.2285C10.3464 19.3232 10.2 19.3749 10.0491 19.3749C9.8982 19.3749 9.75185 19.3232 9.63439 19.2285C9.51694 19.1338 9.43545 19.0017 9.4035 18.8542C9.37154 18.7067 9.39104 18.5528 9.45875 18.4179C9.52646 18.283 9.6383 18.1754 9.77566 18.113V12.8786H10.3225V18.113ZM16.2781 18.7145C16.2781 18.5636 16.2264 18.4173 16.1317 18.2998C16.0369 18.1823 15.9048 18.1008 15.7573 18.0689C15.6098 18.0369 15.4558 18.0564 15.321 18.1242C15.1861 18.1919 15.0785 18.3037 15.016 18.4411H12.7515V12.8786H12.2046V18.7145C12.2046 18.7871 12.2334 18.8566 12.2847 18.9079C12.336 18.9592 12.4055 18.988 12.478 18.988H15.016C15.0785 19.1253 15.1861 19.2372 15.321 19.3049C15.4558 19.3726 15.6098 19.3921 15.7573 19.3602C15.9048 19.3282 16.0369 19.2467 16.1317 19.1293C16.2264 19.0118 16.2781 18.8654 16.2781 18.7145ZM4.4807 19.375C4.60756 19.3751 4.73174 19.3386 4.83841 19.2699C4.94509 19.2013 5.02974 19.1034 5.08227 18.9879H7.62023C7.69275 18.9879 7.7623 18.9591 7.81358 18.9078C7.86486 18.8565 7.89367 18.787 7.89367 18.7145V12.8785H7.3468V18.441H5.08203C5.03292 18.333 4.9556 18.2402 4.85821 18.1723C4.76083 18.1045 4.64697 18.0642 4.5286 18.0555C4.41023 18.0469 4.29172 18.0704 4.18554 18.1234C4.07936 18.1764 3.98941 18.257 3.92517 18.3568C3.86092 18.4566 3.82475 18.5719 3.82044 18.6905C3.81614 18.8091 3.84386 18.9266 3.90071 19.0308C3.95755 19.135 4.04141 19.222 4.14347 19.2825C4.24553 19.3431 4.36202 19.3751 4.4807 19.375ZM19.375 15.4556C19.375 15.6065 19.3233 15.7529 19.2286 15.8703C19.1338 15.9878 19.0017 16.0693 18.8542 16.1012C18.7067 16.1332 18.5528 16.1137 18.4179 16.046C18.283 15.9783 18.1754 15.8664 18.1129 15.729H15.575C15.5024 15.729 15.4329 15.7002 15.3816 15.6489C15.3303 15.5977 15.3015 15.5281 15.3015 15.4556V14.1479C15.4807 14.19 15.6643 14.2107 15.8484 14.2095V15.1822H18.1129C18.1754 15.0448 18.283 14.933 18.4179 14.8652C18.5528 14.7975 18.7067 14.778 18.8542 14.81C19.0017 14.8419 19.1338 14.9234 19.2286 15.0409C19.3233 15.1584 19.375 15.3047 19.375 15.4556V15.4556ZM10.0491 0.772973C10.2 0.772981 10.3464 0.824656 10.4638 0.919402C10.5813 1.01415 10.6628 1.14625 10.6947 1.29374C10.7267 1.44124 10.7072 1.59522 10.6395 1.73009C10.5718 1.86496 10.4599 1.97257 10.3225 2.03504V5.79043H9.77566V2.0352C9.63829 1.97273 9.52644 1.86511 9.45872 1.73025C9.391 1.59538 9.3715 1.44139 9.40345 1.2939C9.43541 1.14641 9.5169 1.0143 9.63436 0.919558C9.75183 0.824812 9.89819 0.773137 10.0491 0.773129V0.772973ZM3.82031 1.28563C3.82032 1.13472 3.872 0.988354 3.96674 0.870889C4.06149 0.753424 4.19359 0.671937 4.34108 0.639981C4.48858 0.608026 4.64256 0.62753 4.77743 0.695247C4.9123 0.762965 5.01991 0.874815 5.08238 1.01219H7.62035C7.69287 1.01219 7.76242 1.041 7.8137 1.09228C7.86498 1.14356 7.89379 1.21311 7.89379 1.28563V6.13243L7.34691 6.6136V1.55907H5.08203C5.01956 1.69644 4.91194 1.80829 4.77708 1.87601C4.64221 1.94373 4.48822 1.96323 4.34073 1.93128C4.19324 1.89932 4.06114 1.81783 3.96639 1.70037C3.87164 1.5829 3.81997 1.43654 3.81996 1.28563H3.82031ZM15.6175 0.625043C15.4906 0.625014 15.3665 0.661506 15.2598 0.730158C15.1531 0.79881 15.0685 0.89672 15.0159 1.01219H12.478C12.4055 1.01219 12.3359 1.041 12.2847 1.09228C12.2334 1.14356 12.2046 1.21311 12.2046 1.28563V5.79043H12.7514V1.55907H15.016C15.0651 1.6671 15.1424 1.75991 15.2398 1.82774C15.3372 1.89558 15.451 1.93592 15.5694 1.94455C15.6878 1.95317 15.8063 1.92975 15.9125 1.87675C16.0186 1.82375 16.1086 1.74312 16.1728 1.64334C16.2371 1.54357 16.2733 1.42832 16.2776 1.30973C16.2819 1.19113 16.2542 1.07356 16.1974 0.969371C16.1406 0.865182 16.0567 0.778223 15.9547 0.717633C15.8527 0.657043 15.7362 0.625059 15.6175 0.625043ZM0.723203 4.31879C0.723211 4.16788 0.774886 4.02152 0.869632 3.90405C0.964378 3.78659 1.09648 3.7051 1.24397 3.67315C1.39147 3.64119 1.54545 3.66069 1.68032 3.72841C1.81519 3.79613 1.9228 3.90798 1.98527 4.04536H4.52344C4.59596 4.04536 4.66551 4.07416 4.71679 4.12544C4.76807 4.17672 4.79688 4.24627 4.79688 4.31879V8.05235L4.25 8.10411V4.59239H1.98527C1.9228 4.72976 1.81519 4.84161 1.68032 4.90933C1.54545 4.97705 1.39147 4.99655 1.24397 4.9646C1.09648 4.93264 0.964378 4.85116 0.869632 4.73369C0.774886 4.61623 0.723211 4.46986 0.723203 4.31895V4.31879Z" fill="#0D1B2A"/>
</g>
<defs>
<clipPath id="clip0_393_3541">
<rect width="20" height="20" fill="white"/>
</clipPath>
</defs>
</svg>
