<svg width="20" height="20" viewBox="0 0 20 20" fill="none" xmlns="http://www.w3.org/2000/svg">
<g clip-path="url(#clip0_393_3601)">
<path d="M9.99431 2.63649C5.63492 -1.17642 0.0920186 2.17371 0.00112711 6.71536C-0.0220352 7.87281 0.31208 9.00027 0.977147 10.0397H5.28791L6.05465 8.76173C6.27729 8.3907 6.81608 8.37875 7.05133 8.74864L8.66906 11.2908L11.0272 6.31258C11.2328 5.8782 11.8457 5.86441 12.0726 6.28563L14.094 10.0397H19.0115C22.6542 4.34636 15.4549 -2.13951 9.99431 2.63649Z" fill="#0D1B2A"/>
<path d="M13.2285 10.9036L11.5905 7.86157L9.2742 12.7514C9.07715 13.1675 8.49754 13.2036 8.25042 12.8152L6.57203 10.1778L6.12233 10.9272C6.01644 11.1037 5.82576 11.2117 5.61995 11.2117H1.9043C2.02077 11.3336 1.4 10.714 9.58137 18.853C9.80987 19.0804 10.1793 19.0804 10.4078 18.853C18.4633 10.8393 17.9686 11.3333 18.0849 11.2117H13.7443C13.5288 11.2117 13.3307 11.0934 13.2285 10.9036Z" fill="#0D1B2A"/>
</g>
<defs>
<clipPath id="clip0_393_3601">
<rect width="20" height="20" fill="white"/>
</clipPath>
</defs>
</svg>
