<svg width="20" height="20" viewBox="0 0 20 20" fill="none" xmlns="http://www.w3.org/2000/svg">
<g clip-path="url(#clip0_393_3596)">
<path fill-rule="evenodd" clip-rule="evenodd" d="M16.034 13.7468L13.8902 14.9847C13.9347 15.1289 13.9586 15.2789 13.9613 15.4316L17.5293 14.4792C17.5125 14.3539 17.4715 14.23 17.4047 14.114C17.1285 13.6363 16.5117 13.471 16.034 13.7468ZM1.11951 12.2878L2.70818 11.8621C3.06287 11.7671 3.43044 11.9792 3.52537 12.3339L5.06365 18.075C5.15857 18.4296 4.94646 18.7972 4.59177 18.8921L3.0031 19.3179C2.64841 19.4128 2.28084 19.2007 2.18591 18.846L0.647633 13.105C0.552711 12.7507 0.765211 12.3828 1.11951 12.2878ZM13.5527 10.8878H17.2547V8.92847C17.2547 8.13745 16.6074 7.49058 15.8168 7.49058H14.9906C14.1996 7.49058 13.5527 8.13784 13.5527 8.92847V10.8878ZM7.72146 4.98276C8.25349 4.98276 8.68513 5.41401 8.68513 5.94644C8.68513 6.47847 8.25388 6.91011 7.72146 6.91011C7.18943 6.91011 6.75779 6.47886 6.75779 5.94644C6.75818 5.4144 7.18943 4.98276 7.72146 4.98276ZM11.5863 3.93667C12.1183 3.93667 12.55 4.36792 12.55 4.90034C12.55 5.43237 12.1187 5.86401 11.5863 5.86401C11.0543 5.86401 10.6226 5.43276 10.6226 4.90034C10.623 4.36792 11.0543 3.93667 11.5863 3.93667ZM15.4511 4.98276C15.9832 4.98276 16.4148 5.41401 16.4148 5.94644C16.4148 6.47847 15.9836 6.91011 15.4511 6.91011C14.9187 6.91011 14.4875 6.47886 14.4875 5.94644C14.4879 5.4144 14.9191 4.98276 15.4511 4.98276ZM9.99373 10.4531H13.084V8.92847C13.084 8.46011 13.2547 8.03003 13.5371 7.69761C13.3129 7.06792 12.7097 6.6144 12.0054 6.6144H11.0722C10.3683 6.6144 9.76521 7.06831 9.5406 7.698C9.82302 8.03081 9.99373 8.4605 9.99373 8.92886V10.4531ZM5.82302 10.8878H9.52498V8.92847C9.52498 8.13745 8.87771 7.49058 8.08709 7.49058H7.26091C6.4699 7.49058 5.82302 8.13784 5.82302 8.92847V10.8878ZM12.3211 0.658936C13.5535 0.875732 14.6125 1.59565 15.2785 2.59917H13.3902C13.2039 1.92339 12.8719 1.10737 12.3211 0.658936ZM15.55 3.06792C15.789 3.54409 15.9457 4.06909 16.0011 4.62378C15.832 4.55347 15.6461 4.5144 15.4511 4.5144C15.1047 4.5144 14.7871 4.63745 14.5394 4.84214H13.6992C13.6855 4.20972 13.6164 3.61011 13.5031 3.06831H15.55V3.06792ZM13.5519 6.83042C13.6945 6.98667 13.8144 7.16558 13.9054 7.36206C14.1011 7.22573 14.3238 7.12534 14.5629 7.06987C14.2316 6.80737 14.0187 6.40151 14.0187 5.94604C14.0187 5.71753 14.0722 5.5019 14.1676 5.31011H13.6988C13.6875 5.84565 13.6363 6.35737 13.5519 6.83042ZM9.00505 5.3105C9.10037 5.5019 9.15388 5.71792 9.15388 5.94644C9.15388 6.41245 8.93123 6.82651 8.5863 7.08823C8.79802 7.14605 8.99568 7.2398 9.17185 7.36206C9.26287 7.16558 9.38279 6.98667 9.52537 6.83042C9.44099 6.35737 9.38982 5.84565 9.3781 5.3105H9.00505ZM7.07185 4.66987C7.12341 4.09839 7.28201 3.55776 7.52771 3.06792H9.57459C9.4613 3.60972 9.39216 4.20933 9.37849 4.84175H8.63357C8.38591 4.63706 8.06834 4.51401 7.72185 4.51401C7.48748 4.51401 7.26677 4.57026 7.07185 4.66987ZM7.7992 2.59917C8.46521 1.59565 9.52419 0.875732 10.7562 0.658936C10.2054 1.10698 9.87341 1.92339 9.68748 2.59917H7.7992ZM9.84724 4.84175H10.1554C10.1863 4.07808 10.8152 3.46792 11.5863 3.46792C12.3578 3.46792 12.9867 4.07808 13.0172 4.84175H13.2301C13.2156 4.20347 13.1429 3.60269 13.0238 3.06792H10.0531C9.93435 3.60269 9.86169 4.20347 9.84724 4.84175ZM13.2301 5.3105H12.959C12.8492 5.67769 12.5965 5.98276 12.2656 6.16167C12.5797 6.20112 12.8758 6.31128 13.1347 6.47808C13.1883 6.10894 13.2211 5.71753 13.2301 5.3105ZM10.2136 5.3105H9.84685C9.85623 5.71753 9.88904 6.10894 9.94255 6.47808C10.2234 6.29722 10.548 6.18276 10.8918 6.15308C10.5683 5.97339 10.3219 5.67183 10.2136 5.3105ZM10.1746 2.59917H12.9031C12.7238 1.99565 12.2535 0.825342 11.539 0.825342C10.8238 0.825342 10.3535 1.99565 10.1746 2.59917ZM13.3242 16.0863C13.0355 16.5851 12.498 16.7324 11.9937 16.4527L9.02419 14.7382C8.91248 14.6734 8.76951 14.7117 8.70466 14.8234C8.63982 14.9351 8.6781 15.0781 8.78982 15.1429C9.77341 15.7109 10.7738 16.3214 11.7683 16.8621C12.4988 17.2667 13.3136 17.0375 13.7293 16.3175C13.782 16.2281 13.832 16.0882 13.8722 15.9398L17.6465 14.9328C18.4113 14.7277 19.1746 15.071 19.3418 15.696C19.5094 16.3207 19.0203 16.9996 18.2551 17.2046L12.7008 18.6929C12.1847 18.8312 11.7008 18.8 11.2562 18.6L7.80037 17.0441C7.42107 16.8734 7.00779 16.8468 6.56755 16.9648L5.33943 17.2937L4.15466 12.8726L7.59959 11.9496C8.03982 11.8316 8.46052 11.8871 8.85544 12.1148L12.8656 14.43C13.5586 14.83 13.6176 15.5507 13.3242 16.0863ZM14.3519 13.0859C14.8133 12.8031 15.4191 12.9406 15.7144 13.3898L13.6855 14.5609C13.4828 14.2617 13.2582 14.1156 12.9566 13.9414L14.3519 13.0859Z" fill="#0D1B2A"/>
</g>
<defs>
<clipPath id="clip0_393_3596">
<rect width="20" height="20" fill="white"/>
</clipPath>
</defs>
</svg>
