<svg width="32" height="32" viewBox="0 0 32 32" fill="none" xmlns="http://www.w3.org/2000/svg">
<path d="M31.3313 8.24804C30.9633 6.86229 29.879 5.77098 28.5022 5.40054C26.0067 4.72754 16 4.72754 16 4.72754C16 4.72754 5.99331 4.72754 3.49781 5.40054C2.121 5.77091 1.03669 6.86229 0.668688 8.24804C0 10.7598 0 16.0003 0 16.0003C0 16.0003 0 21.2408 0.668688 23.7525C1.03669 25.1383 2.121 26.2296 3.49781 26.6C5.99331 27.273 16 27.273 16 27.273C16 27.273 26.0067 27.273 28.5022 26.6C29.879 26.2296 30.9633 25.1383 31.3313 23.7525C32 21.2408 32 16.0003 32 16.0003C32 16.0003 32 10.7598 31.3313 8.24804Z" fill="#FF0000"/>
<path d="M12.7266 20.7582L21.0902 16.0003L12.7266 11.2422V20.7582Z" fill="white"/>
</svg>
