<svg width="32" height="32" viewBox="0 0 32 32" fill="none" xmlns="http://www.w3.org/2000/svg">
<path d="M8 2.7998L0 10.7998L4 13.2759L8 10.7998L10.2588 6.7998L8 2.7998Z" fill="#FF2820"/>
<path d="M8 10.7998H0V21.1998L4 23.3964L8 21.1998V10.7998Z" fill="#0084FF"/>
<path d="M0 21.2002V26.5335C0 28.0002 1.2 29.2002 2.66669 29.2002H8L10.2588 24.9538L8 21.2002H0Z" fill="#0066DD"/>
<path d="M30.3467 5.63979L25.3988 9.55923V9.59942L23.7852 15.76L25.3988 21.9946L30.3247 25.959C30.9855 26.5136 31.9988 26.0478 31.9988 25.1827V6.41617C31.9988 5.55104 31.0075 5.08523 30.3467 5.63979Z" fill="#00AD3C"/>
<path d="M25.4 9.55962V5.43587C25.4 3.98605 24.2255 2.7998 22.79 2.7998H17.57H8V10.7998H17.8V15.9998L23.0653 15.4132L25.4 9.55962Z" fill="#FFBA00"/>
<path d="M17.8 21.2H8V29.2H17.57H22.79C24.2255 29.2 25.4 28.0155 25.4 26.5678V22L22.7879 16.6337L17.8 16V21.2Z" fill="#00AD3C"/>
<path d="M17.8008 15.9998L25.4008 21.9998V9.55957L17.8008 15.9998Z" fill="#00831E"/>
</svg>
