<svg width="32" height="32" viewBox="0 0 32 32" fill="none" xmlns="http://www.w3.org/2000/svg">
<g clip-path="url(#clip0_629_2439)">
<path d="M31.9038 9.40332C31.8259 7.7002 31.5554 6.53711 31.1599 5.51953C30.7583 4.4519 30.1284 3.48486 29.3145 2.68555C28.5154 1.87158 27.5481 1.24146 26.4805 0.8396C25.4626 0.444336 24.2998 0.174072 22.5967 0.0966797C20.8904 0.0185547 20.3452 0 16 0C11.6548 0 11.1096 0.0185547 9.40332 0.0961914C7.7002 0.174072 6.53735 0.44458 5.51953 0.840088C4.4519 1.2417 3.48486 1.87158 2.68555 2.68555C1.87158 3.48462 1.24146 4.45166 0.8396 5.51929C0.444336 6.53711 0.174072 7.7002 0.0966797 9.40308C0.0185547 11.1096 0 11.6545 0 15.9998C0 20.3452 0.0185547 20.8904 0.0966797 22.5967C0.174316 24.2996 0.444824 25.4627 0.840332 26.4805C1.24194 27.5479 1.87183 28.5151 2.68579 29.3142C3.48486 30.1282 4.45215 30.7581 5.51978 31.1597C6.53735 31.5554 7.70044 31.8257 9.40356 31.9036C11.1101 31.9814 11.655 31.9998 16.0002 31.9998C20.3455 31.9998 20.8906 31.9814 22.5969 31.9036C24.3 31.8257 25.4629 31.5554 26.4807 31.1597C28.6299 30.3286 30.3289 28.6296 31.1599 26.4805C31.5557 25.4627 31.8259 24.2996 31.9038 22.5967C31.9814 20.8901 32 20.3452 32 16C32 11.6545 31.9814 11.1096 31.9038 9.40332ZM29.0237 22.4656C28.9526 24.0256 28.6919 24.8728 28.4729 25.4365C27.9346 26.832 26.8318 27.9348 25.4363 28.4731C24.8726 28.6921 24.0254 28.9529 22.4653 29.0239C20.7786 29.1011 20.2725 29.1172 16 29.1172C11.7273 29.1172 11.2214 29.1011 9.53442 29.0239C7.97461 28.9529 7.12744 28.6921 6.56348 28.4731C5.86865 28.2166 5.23999 27.8076 4.72388 27.2761C4.19238 26.76 3.78345 26.1316 3.52686 25.4365C3.30786 24.8728 3.04712 24.0256 2.97607 22.4656C2.89917 20.7786 2.88281 20.2725 2.88281 16.0002C2.88281 11.7278 2.89917 11.2219 2.97607 9.53467C3.04736 7.97461 3.30786 7.12744 3.52686 6.56372C3.78345 5.86865 4.19263 5.23999 4.72388 4.72388C5.23999 4.19238 5.86865 3.78345 6.56372 3.5271C7.12744 3.30786 7.97461 3.04736 9.53467 2.97607C11.2217 2.89917 11.7278 2.88281 16 2.88281H15.9998C20.272 2.88281 20.7781 2.89917 22.4653 2.97632C24.0254 3.04736 24.8723 3.30811 25.4363 3.5271C26.1311 3.78369 26.7598 4.19263 27.2759 4.72388C27.8074 5.23999 28.2163 5.86865 28.4727 6.56372C28.6919 7.12744 28.9526 7.97461 29.0237 9.53467C29.1006 11.2217 29.1169 11.7278 29.1169 16C29.1169 20.2725 29.1008 20.7783 29.0237 22.4656Z" fill="url(#paint0_linear_629_2439)"/>
<path d="M16.0012 7.7832C11.4636 7.7832 7.78516 11.4619 7.78516 15.9995C7.78516 20.5371 11.4636 24.2156 16.0012 24.2156C20.5391 24.2156 24.2175 20.5371 24.2175 15.9995C24.2175 11.4619 20.5391 7.7832 16.0012 7.7832ZM16.0012 21.3328C13.0559 21.3325 10.668 18.9448 10.6682 15.9993C10.6682 13.054 13.0559 10.666 16.0015 10.666C18.947 10.6663 21.3347 13.054 21.3347 15.9993C21.3347 18.9448 18.9468 21.3328 16.0012 21.3328Z" fill="url(#paint1_linear_629_2439)"/>
<path d="M26.4612 7.45923C26.4612 8.51953 25.6016 9.37915 24.5413 9.37915C23.4807 9.37915 22.6211 8.51953 22.6211 7.45923C22.6211 6.39868 23.4807 5.53906 24.5413 5.53906C25.6016 5.53906 26.4612 6.39868 26.4612 7.45923Z" fill="url(#paint2_linear_629_2439)"/>
</g>
<defs>
<linearGradient id="paint0_linear_629_2439" x1="2.68538" y1="29.3144" x2="29.3146" y2="2.68513" gradientUnits="userSpaceOnUse">
<stop stop-color="#FFD600"/>
<stop offset="0.5" stop-color="#FF0100"/>
<stop offset="1" stop-color="#D800B9"/>
</linearGradient>
<linearGradient id="paint1_linear_629_2439" x1="10.1917" y1="21.8091" x2="21.8111" y2="10.1897" gradientUnits="userSpaceOnUse">
<stop stop-color="#FF6400"/>
<stop offset="0.5" stop-color="#FF0100"/>
<stop offset="1" stop-color="#FD0056"/>
</linearGradient>
<linearGradient id="paint2_linear_629_2439" x1="23.1836" y1="8.81673" x2="25.8988" y2="6.1015" gradientUnits="userSpaceOnUse">
<stop stop-color="#F30072"/>
<stop offset="1" stop-color="#E50097"/>
</linearGradient>
<clipPath id="clip0_629_2439">
<rect width="32" height="32" fill="white"/>
</clipPath>
</defs>
</svg>
