<svg width="32" height="32" viewBox="0 0 32 32" fill="none" xmlns="http://www.w3.org/2000/svg">
<path d="M11.3825 16.5873C8.84504 16.5873 6.79504 18.6373 6.83254 21.1498C6.85754 22.7623 7.74504 24.1623 9.05129 24.9436C8.60754 24.2623 8.34504 23.4561 8.33254 22.5873C8.29504 20.0748 10.345 18.0248 12.8825 18.0248C13.3825 18.0248 13.8638 18.1061 14.3138 18.2498V13.2186C13.845 13.1498 13.3638 13.1123 12.8825 13.1123C12.8575 13.1123 12.8388 13.1123 12.8138 13.1123V16.8123C12.3638 16.6686 11.8825 16.5873 11.3825 16.5873Z" fill="#F00044"/>
<path d="M22.3492 1.5H22.3117H21.0117C21.3867 3.38125 22.443 5.01875 23.918 6.13125C22.9492 4.85 22.3617 3.25 22.3492 1.5Z" fill="#F00044"/>
<path d="M30.0008 9.15605C29.507 9.15605 29.032 9.10605 28.5633 9.01855L20.8758 10.0061L12.8133 30.3873C12.3445 30.4561 11.8633 30.4936 11.382 30.4936C9.24453 30.4936 7.20703 29.7998 5.55078 28.5186C5.73828 28.7436 5.93828 28.9623 6.15703 29.1748C7.95703 30.9498 10.3445 31.9311 12.8883 31.9311C13.3695 31.9311 13.8508 31.8936 14.3195 31.8248C16.3195 31.5311 18.1633 30.6123 19.6195 29.1748C21.407 27.4061 22.3945 25.0623 22.407 22.5623L22.3133 11.4436C23.1633 12.0998 24.0945 12.6498 25.1008 13.0686C26.657 13.7248 28.307 14.0623 30.0008 14.0623" fill="#F00044"/>
<path d="M6.13831 15.8811C7.91956 14.1123 10.2883 13.1311 12.8133 13.1123V11.7811C12.3446 11.7123 11.8633 11.6748 11.3821 11.6748C8.83206 11.6748 6.43831 12.6561 4.63831 14.4436C2.86956 16.1998 1.85706 18.5998 1.86331 21.0936C1.86331 23.6061 2.85706 25.9623 4.65081 27.7436C4.93831 28.0248 5.23206 28.2873 5.54456 28.5248C4.13206 26.8436 3.36331 24.7436 3.35706 22.5311C3.36331 20.0373 4.36956 17.6373 6.13831 15.8811Z" fill="#08FFF9"/>
<path d="M28.5633 9.01836V7.68086H28.5508C26.8133 7.68086 25.2133 7.10586 23.9258 6.13086C25.0445 7.60586 26.682 8.65586 28.5633 9.01836Z" fill="#08FFF9"/>
<path d="M12.6258 27.0125C13.2195 27.0438 13.7883 26.9625 14.3133 26.7938C16.1258 26.2 17.432 24.5125 17.432 22.525L17.4383 15.0875V1.5H21.0133C20.9195 1.03125 20.8695 0.55625 20.8633 0.0625H15.9383V13.6438L15.932 21.0812C15.932 23.0687 14.6258 24.7563 12.8133 25.35C12.2883 25.525 11.7195 25.6063 11.1258 25.5688C10.3695 25.525 9.66328 25.3 9.05078 24.9375C9.81953 26.125 11.132 26.9313 12.6258 27.0125Z" fill="#08FFF9"/>
<path d="M12.8133 30.3875C14.8133 30.0938 16.6571 29.175 18.1133 27.7375C19.9008 25.9688 20.8883 23.625 20.9008 21.125L20.8758 10.0063C21.7258 10.6625 22.6571 11.2125 23.6633 11.6313C25.2196 12.2875 26.8696 12.625 28.5633 12.625V9.01875C26.6821 8.65625 25.0446 7.60625 23.9258 6.13125C22.4508 5.01875 21.3883 3.38125 21.0196 1.5H17.4383V15.0813L17.4321 22.5187C17.4321 24.5062 16.1258 26.1938 14.3133 26.7875C13.7883 26.9625 13.2196 27.0438 12.6258 27.0063C11.1258 26.925 9.81956 26.1187 9.05081 24.9375C7.74456 24.1625 6.85706 22.7562 6.83206 21.1437C6.79456 18.6312 8.84456 16.5812 11.3821 16.5812C11.8821 16.5812 12.3633 16.6625 12.8133 16.8062V13.1062C10.2883 13.125 7.91956 14.1062 6.13831 15.875C4.36956 17.6313 3.35706 20.0312 3.36331 22.5187C3.36331 24.7312 4.13206 26.8313 5.55081 28.5125C7.21331 29.7938 9.24456 30.4875 11.3821 30.4875C11.8633 30.4937 12.3446 30.4563 12.8133 30.3875Z" fill="black"/>
</svg>
