<svg width="32" height="32" viewBox="0 0 32 32" fill="none" xmlns="http://www.w3.org/2000/svg">
<g clip-path="url(#clip0_629_2376)">
<path d="M11.7152 16.9375C9.86906 16.9375 8.36719 18.4394 8.36719 20.2855V28.6519C8.36719 30.4981 9.86906 31.9999 11.7152 31.9999C13.5613 32 15.0632 30.4981 15.0632 28.652V20.2855C15.0632 18.4394 13.5613 16.9375 11.7152 16.9375Z" fill="#FF4340"/>
<path d="M6.49031 16.9375H3.24906C1.46181 16.9375 0.0078125 18.3916 0.0078125 20.1787C0.0078125 21.966 1.46187 23.42 3.24906 23.42C5.03625 23.42 6.49031 21.9659 6.49031 20.1787V16.9375Z" fill="#FF4340"/>
<path d="M0 11.7142C0 13.5603 1.50188 15.0622 3.348 15.0622H11.7144C13.5606 15.0622 15.0625 13.5603 15.0625 11.7142C15.0625 9.86809 13.5606 8.36621 11.7145 8.36621H3.348C1.50188 8.36615 0 9.86809 0 11.7142Z" fill="#36C6FF"/>
<path d="M11.8194 6.49129H15.0606V3.25004C15.0606 1.46279 13.6066 0.00878906 11.8194 0.00878906C10.0321 0.00878906 8.57812 1.46285 8.57812 3.25004C8.57812 5.03723 10.0321 6.49129 11.8194 6.49129Z" fill="#36C6FF"/>
<path d="M20.2855 15.0625C22.1316 15.0625 23.6335 13.5606 23.6335 11.7145V3.348C23.6336 1.50188 22.1316 0 20.2855 0C18.4394 0 16.9375 1.50188 16.9375 3.348V11.7144C16.9375 13.5606 18.4394 15.0625 20.2855 15.0625Z" fill="#0DC46E"/>
<path d="M25.5078 15.0626H28.7491C30.5363 15.0626 31.9903 13.6085 31.9903 11.8213C31.9903 10.0341 30.5363 8.58008 28.7491 8.58008C26.9619 8.58008 25.5078 10.0341 25.5078 11.8213V15.0626Z" fill="#0DC46E"/>
<path d="M32 20.2855C32 18.4394 30.4981 16.9375 28.652 16.9375H20.2855C18.4394 16.9375 16.9375 18.4394 16.9375 20.2855C16.9375 22.1316 18.4394 23.6335 20.2855 23.6335H28.6519C30.4981 23.6336 32 22.1316 32 20.2855Z" fill="#FDCB02"/>
<path d="M20.1787 25.5088H16.9375V28.75C16.9375 30.5373 18.3916 31.9913 20.1787 31.9913C21.966 31.9913 23.42 30.5372 23.42 28.75C23.42 26.9629 21.966 25.5088 20.1787 25.5088Z" fill="#FDCB02"/>
</g>
<defs>
<clipPath id="clip0_629_2376">
<rect width="32" height="32" fill="white"/>
</clipPath>
</defs>
</svg>
