<svg width="152" height="40" viewBox="0 0 152 40" fill="none" xmlns="http://www.w3.org/2000/svg">
<path fill-rule="evenodd" clip-rule="evenodd" d="M16.6667 3.33337C25.8714 3.33337 33.3333 10.7953 33.3333 20C33.3333 29.2048 25.8714 36.6667 16.6667 36.6667C7.46192 36.6667 0 29.2048 0 20C0 10.7953 7.46192 3.33337 16.6667 3.33337ZM29.1667 20C29.1667 26.9036 23.5702 32.5 16.6667 32.5V7.50004C23.5702 7.50004 29.1667 13.0965 29.1667 20Z" fill="white"/>
<path d="M49.519 10.76C54.109 10.76 56.2915 13.055 56.719 16.385H53.4115C53.029 14.6975 51.7015 13.685 49.5415 13.685C46.729 13.685 45.064 15.485 45.064 19.1975C45.064 23.4725 47.044 24.89 49.609 24.89C51.7465 24.89 53.029 23.9 53.434 22.19H56.719C56.2465 25.8575 53.704 27.815 49.519 27.815C44.5015 27.815 41.6665 24.98 41.6665 19.355C41.6665 14.3825 44.119 10.76 49.519 10.76Z" fill="white"/>
<path d="M61.0186 21.5375C61.0186 24.26 62.0536 25.205 63.8086 25.205C65.5411 25.205 66.5536 24.26 66.5536 21.5375C66.5536 18.86 65.5411 17.8925 63.8086 17.8925C62.0536 17.8925 61.0186 18.86 61.0186 21.5375ZM57.6661 21.5375C57.6661 17.4875 59.8036 15.305 63.8086 15.305C67.8136 15.305 69.9286 17.4875 69.9286 21.5375C69.9286 25.61 67.7911 27.815 63.8086 27.815C59.8036 27.815 57.6661 25.61 57.6661 21.5375Z" fill="white"/>
<path d="M78.2359 15.305C80.7334 15.305 82.1734 16.295 82.4659 18.4775C82.5334 19.085 82.5559 19.6475 82.5559 20.615V27.5H79.3384V20.57C79.3384 18.995 78.9109 17.9825 77.1334 17.9825C75.6709 17.9375 74.6359 18.95 74.6359 21.2V27.5H71.4184V15.62H74.3659L74.5009 17.555C74.8834 15.8 76.2784 15.305 78.2359 15.305Z" fill="white"/>
<path d="M88.6173 23.3825C88.6173 25.1375 88.9998 25.295 91.1373 25.1825V27.6125C90.3948 27.7025 89.7648 27.77 88.7073 27.77C86.3223 27.77 85.5573 26.8025 85.4223 25.2725C85.3773 24.62 85.3773 24.1475 85.3773 23.4725V18.185H83.6673V15.6425H85.3773V12.1775H88.6173V15.6425H91.2723V18.185H88.6173V23.3825Z" fill="white"/>
<path d="M98.893 15.305C99.3205 15.305 99.5905 15.305 99.8605 15.3725V17.9825C97.003 17.69 95.698 18.995 95.698 22.3475V27.5H92.4805V15.62H95.428L95.563 17.8925C95.788 16.0475 97.093 15.305 98.893 15.305Z" fill="white"/>
<path d="M105.546 15.305C109.056 15.305 110.361 16.8125 110.519 18.905C110.564 19.5125 110.586 20.075 110.586 20.75V27.5H107.684L107.504 25.925C106.964 27.5225 105.546 27.815 103.791 27.815C101.609 27.815 99.8986 26.5775 99.8986 24.26C99.8986 21.29 102.171 20.21 106.761 20.21H107.414V19.7825C107.414 18.6125 107.031 17.87 105.411 17.87C103.994 17.87 103.364 18.365 103.229 19.4675H100.281C100.371 16.9025 101.946 15.305 105.546 15.305ZM103.026 23.8775C103.026 24.755 103.724 25.25 104.826 25.25C106.086 25.25 107.414 24.53 107.414 23.36V22.415C104.579 22.28 103.026 22.5725 103.026 23.8775Z" fill="white"/>
<path d="M117.01 15.305C120.385 15.305 121.825 16.61 121.982 19.1075H118.877C118.72 18.005 117.977 17.735 116.942 17.735C115.997 17.735 115.277 18.095 115.277 18.77C115.277 19.49 115.862 19.895 117.707 20.1875C120.835 20.66 122.342 21.74 122.342 24.08C122.342 26.6 120.047 27.815 117.19 27.815C113.815 27.815 112.082 26.6225 111.767 23.9225H114.917C115.12 25.0025 115.795 25.3625 117.28 25.3625C118.45 25.3625 119.147 24.98 119.147 24.35C119.147 23.5625 118.337 23.1125 116.582 22.8425C113.432 22.325 112.082 21.38 112.082 18.9725C112.082 16.79 114.017 15.305 117.01 15.305Z" fill="white"/>
<path d="M127.775 23.3825C127.775 25.1375 128.158 25.295 130.295 25.1825V27.6125C129.553 27.7025 128.923 27.77 127.865 27.77C125.48 27.77 124.715 26.8025 124.58 25.2725C124.535 24.62 124.535 24.1475 124.535 23.4725V18.185H122.825V15.6425H124.535V12.1775H127.775V15.6425H130.43V18.185H127.775V23.3825Z" fill="white"/>
<path d="M140.725 11.075L146.53 27.5H143.043L141.67 23.54H135.618L134.223 27.5H130.78L136.698 11.075H140.725ZM136.405 20.75H140.928L138.7 14.1575L136.405 20.75Z" fill="white"/>
<path d="M151.129 11.075V27.5H147.844V11.075H151.129Z" fill="white"/>
</svg>
