<svg width="130" height="40" viewBox="0 0 130 40" fill="none" xmlns="http://www.w3.org/2000/svg">
<path fill-rule="evenodd" clip-rule="evenodd" d="M16.6667 36.6667C25.8714 36.6667 33.3333 29.2048 33.3333 20C33.3333 10.7953 25.8714 3.33337 16.6667 3.33337C7.4619 3.33337 0 10.7953 0 20C0 29.2048 7.4619 36.6667 16.6667 36.6667ZM21.8661 11.0974C22.1192 10.1984 21.2468 9.66682 20.45 10.2345L9.32759 18.158C8.46351 18.7736 8.59943 20 9.53176 20H12.4606V19.9774H18.1688L13.5177 21.6184L11.4673 28.9027C11.2142 29.8017 12.0865 30.3333 12.8833 29.7656L24.0058 21.8421C24.8698 21.2265 24.7338 20 23.8016 20H19.3601L21.8661 11.0974Z" fill="white"/>
<path d="M107.497 14.06C107.87 14.4022 108.321 14.5733 108.85 14.5733C109.395 14.5733 109.846 14.4022 110.204 14.06C110.561 13.7177 110.74 13.2666 110.74 12.7066C110.74 12.1466 110.561 11.6955 110.204 11.3533C109.846 11.0111 109.395 10.84 108.85 10.84C108.321 10.84 107.87 11.0111 107.497 11.3533C107.139 11.6955 106.96 12.1466 106.96 12.7066C106.96 13.2666 107.139 13.7177 107.497 14.06Z" fill="white"/>
<path fill-rule="evenodd" clip-rule="evenodd" d="M51.6532 26.9866C50.9221 27.3289 50.0665 27.5 49.0865 27.5H41.6665V11.1666H48.9932C49.9887 11.1666 50.8521 11.3377 51.5832 11.68C52.3298 12.0066 52.9054 12.4811 53.3098 13.1033C53.7298 13.71 53.9398 14.4411 53.9398 15.2966V15.53C53.9398 16.2766 53.7998 16.8911 53.5198 17.3733C53.2398 17.84 52.9054 18.2055 52.5165 18.47C52.1432 18.7189 51.7854 18.8977 51.4432 19.0066V19.4266C51.7854 19.52 52.1587 19.6989 52.5632 19.9633C52.9676 20.2122 53.3098 20.5777 53.5898 21.06C53.8854 21.5422 54.0332 22.1722 54.0332 22.95V23.1833C54.0332 24.0855 53.8232 24.8633 53.4032 25.5166C52.9832 26.1544 52.3998 26.6444 51.6532 26.9866ZM50.3465 21.1766C49.9421 20.85 49.3976 20.6866 48.7132 20.6866H44.7465V24.7H48.7132C49.3821 24.7 49.9187 24.5366 50.3232 24.21C50.7432 23.8833 50.9532 23.4166 50.9532 22.81V22.5766C50.9532 21.97 50.7509 21.5033 50.3465 21.1766ZM50.2532 14.4566C49.8487 14.13 49.3198 13.9666 48.6665 13.9666H44.7465V17.8866H48.6665C49.3043 17.8866 49.8254 17.7233 50.2298 17.3966C50.6498 17.07 50.8598 16.6189 50.8598 16.0433V15.81C50.8598 15.2189 50.6576 14.7677 50.2532 14.4566Z" fill="white"/>
<path fill-rule="evenodd" clip-rule="evenodd" d="M60.9794 27.8266C59.8283 27.8266 58.7938 27.5933 57.8761 27.1266C56.9583 26.66 56.2349 25.9833 55.7061 25.0966C55.1772 24.21 54.9127 23.1444 54.9127 21.9V21.5266C54.9127 20.2822 55.1772 19.2166 55.7061 18.33C56.2349 17.4433 56.9583 16.7666 57.8761 16.3C58.7938 15.8333 59.8283 15.6 60.9794 15.6C62.1305 15.6 63.1649 15.8333 64.0827 16.3C65.0005 16.7666 65.7238 17.4433 66.2527 18.33C66.7816 19.2166 67.0461 20.2822 67.0461 21.5266V21.9C67.0461 23.1444 66.7816 24.21 66.2527 25.0966C65.7238 25.9833 65.0005 26.66 64.0827 27.1266C63.1649 27.5933 62.1305 27.8266 60.9794 27.8266ZM60.9794 25.2133C61.8816 25.2133 62.6283 24.9255 63.2194 24.35C63.8105 23.7589 64.1061 22.9189 64.1061 21.83V21.5966C64.1061 20.5077 63.8105 19.6755 63.2194 19.1C62.6438 18.5089 61.8972 18.2133 60.9794 18.2133C60.0772 18.2133 59.3305 18.5089 58.7394 19.1C58.1483 19.6755 57.8527 20.5077 57.8527 21.5966V21.83C57.8527 22.9189 58.1483 23.7589 58.7394 24.35C59.3305 24.9255 60.0772 25.2133 60.9794 25.2133Z" fill="white"/>
<path d="M78.0577 27.5C77.2955 27.5 76.6733 27.2666 76.1911 26.8C75.7244 26.3177 75.4911 25.68 75.4911 24.8866V18.3533H72.5977V15.9266H75.4911V12.3333H78.4311V15.9266H81.6044V18.3533H78.4311V24.3733C78.4311 24.84 78.6489 25.0733 79.0844 25.0733H81.3244V27.5H78.0577Z" fill="white"/>
<path d="M84.1957 26.8466C85.1601 27.5 86.3968 27.8266 87.9057 27.8266C89.3835 27.8266 90.5579 27.5 91.429 26.8466C92.3157 26.1777 92.759 25.2366 92.759 24.0233C92.759 23.2144 92.549 22.5766 92.129 22.11C91.7246 21.6277 91.1646 21.2622 90.449 21.0133C89.749 20.7489 88.9635 20.5389 88.0924 20.3833L87.439 20.2666C86.9101 20.1733 86.4901 20.0411 86.179 19.87C85.8679 19.6833 85.7124 19.4033 85.7124 19.03C85.7124 18.6877 85.8601 18.4233 86.1557 18.2366C86.4512 18.0344 86.879 17.9333 87.439 17.9333C87.999 17.9333 88.4657 18.0577 88.839 18.3066C89.2279 18.5555 89.4846 18.9755 89.609 19.5666L92.339 18.7266C92.0746 17.7933 91.5146 17.0389 90.659 16.4633C89.8035 15.8877 88.7301 15.6 87.439 15.6C86.0701 15.6 84.9657 15.9111 84.1257 16.5333C83.2857 17.14 82.8657 18.0189 82.8657 19.17C82.8657 19.9322 83.0679 20.5544 83.4724 21.0366C83.8768 21.5189 84.4135 21.9 85.0824 22.18C85.7512 22.4444 86.4901 22.6544 87.299 22.81L87.9524 22.9266C88.6368 23.0511 89.1346 23.2144 89.4457 23.4166C89.7568 23.6033 89.9124 23.8755 89.9124 24.2333C89.9124 24.5911 89.749 24.8944 89.4224 25.1433C89.0957 25.3766 88.5901 25.4933 87.9057 25.4933C87.4546 25.4933 87.0346 25.4311 86.6457 25.3066C86.2724 25.1666 85.9535 24.9411 85.689 24.63C85.4401 24.3189 85.2612 23.8911 85.1524 23.3466L82.4457 24.0466C82.6479 25.26 83.2312 26.1933 84.1957 26.8466Z" fill="white"/>
<path d="M97.8554 19.1233C97.3576 19.7144 97.1087 20.5466 97.1087 21.62V27.5H94.1687V11.1666H97.1087V17.35H97.5287C97.6531 17.1011 97.8476 16.8522 98.112 16.6033C98.3765 16.3544 98.7265 16.1522 99.162 15.9966C99.6131 15.8255 100.181 15.74 100.865 15.74C101.768 15.74 102.553 15.95 103.222 16.37C103.906 16.7744 104.435 17.3422 104.809 18.0733C105.182 18.7889 105.369 19.6289 105.369 20.5933V27.5H102.429V20.8266C102.429 19.9555 102.211 19.3022 101.775 18.8666C101.355 18.4311 100.749 18.2133 99.9553 18.2133C99.0531 18.2133 98.3531 18.5166 97.8554 19.1233Z" fill="white"/>
<path d="M123.746 26.8C123.28 26.3177 123.046 25.68 123.046 24.8866V18.3533H117.265V27.5H114.325V18.3533H111.385V15.9266H114.325V13.78C114.325 12.9866 114.558 12.3566 115.025 11.89C115.507 11.4077 116.129 11.1666 116.892 11.1666H119.925V13.5933H117.918C117.483 13.5933 117.265 13.8266 117.265 14.2933V15.9266H123.046V12.3333H125.986V15.9266H129.16V18.3533H125.986V24.3733C125.986 24.84 126.204 25.0733 126.64 25.0733H128.88V27.5H125.613C124.851 27.5 124.229 27.2666 123.746 26.8Z" fill="white"/>
<path d="M107.38 15.9266V27.5H110.32V15.9266H107.38Z" fill="white"/>
<path d="M68.5932 11.1666V27.5H71.5332V11.1666H68.5932Z" fill="white"/>
</svg>
