<svg width="174" height="40" viewBox="0 0 174 40" fill="none" xmlns="http://www.w3.org/2000/svg">
<path d="M33.3263 19.5146C33.0695 10.5343 25.709 3.33325 16.6666 3.33325C13.8029 3.33325 11.108 4.05547 8.7539 5.32769L33.3263 19.5146Z" fill="white"/>
<path d="M6.4106 6.86153C5.72079 7.40076 5.07454 7.99314 4.478 8.6325L32.6092 24.8741C32.8621 24.046 33.0522 23.1906 33.174 22.3134L6.4106 6.86153Z" fill="white"/>
<path d="M28.8554 31.3671C28.2589 32.0064 27.6127 32.5988 26.9229 33.1381L0.159241 17.6861C0.28108 16.8088 0.471198 15.9534 0.724054 15.1254L28.8554 31.3671Z" fill="white"/>
<path d="M30.4362 29.393L1.64523 12.7705C2.0091 12.0158 2.42817 11.2928 2.89719 10.6066L31.6881 27.229C31.3242 27.9837 30.9052 28.7067 30.4362 29.393Z" fill="white"/>
<path d="M16.6666 36.6666C19.5304 36.6666 22.2255 35.9443 24.5796 34.6719L0.00683594 20.4848C0.263416 29.4653 7.62402 36.6666 16.6666 36.6666Z" fill="white"/>
<path d="M62.2974 20.375C62.2974 19.1667 61.6307 18.375 60.6307 18.375C59.5682 18.375 58.7349 18.9584 57.8182 20.4584V27.5H49.104C44.5832 27.5 41.6665 24.7292 41.6665 20.2292C41.6665 15.7292 44.5832 12.9584 49.104 12.9584H52.604V15.7709H49.104C46.6665 15.7709 45.2082 17.3959 45.2082 20.2292C45.2082 23.0625 46.6665 24.6875 49.104 24.6875H54.5682V12.0834H57.8182V17.1875C58.7974 16.1042 60.0474 15.6667 61.2974 15.6667C63.9432 15.6667 65.5474 17.4584 65.5474 20.1667V27.5H62.2974V20.375Z" fill="white"/>
<path d="M73.0395 18.375C73.9145 18.375 74.2895 19.0834 74.2895 20.1667V21.7292H77.5604V20.1667C77.5604 17.2084 75.977 15.6667 73.7479 15.6667C72.5604 15.6667 71.5604 16.1875 70.7062 17.2084L70.6437 15.9167H67.4979V27.5H70.7479V20.2709C71.602 19.0209 72.3104 18.375 73.0395 18.375Z" fill="white"/>
<path fill-rule="evenodd" clip-rule="evenodd" d="M84.3184 27.75C80.61 27.75 78.36 25.4792 78.36 21.7084C78.36 17.9375 80.61 15.6667 84.3184 15.6667C88.0267 15.6667 90.2559 17.9375 90.2559 21.7084C90.2559 25.4792 88.0267 27.75 84.3184 27.75ZM81.61 21.7084C81.61 23.8542 82.6309 25.125 84.3184 25.125C85.985 25.125 87.0059 23.8542 87.0059 21.7084C87.0059 19.5625 85.985 18.2917 84.3184 18.2917C82.6309 18.2917 81.61 19.5625 81.61 21.7084Z" fill="white"/>
<path d="M104.896 18.3542C106 18.3542 106.708 19.0625 106.708 20.2292V27.5H109.958V20.2292C109.958 17.375 108.104 15.6667 105.812 15.6667C104.021 15.6667 102.667 16.4584 101.958 17.6875C101.25 16.3959 99.8958 15.6667 98.3125 15.6667C97 15.6667 95.75 16.3125 94.9583 17.3125L94.8958 15.9167H91.75V27.5H95V20.1459C95.6458 19.0834 96.4792 18.3542 97.4167 18.3542C98.5 18.3542 99.2292 19.0625 99.2292 20.2292V27.5H102.479V20.1875C103.125 19.1042 103.958 18.3542 104.896 18.3542Z" fill="white"/>
<path fill-rule="evenodd" clip-rule="evenodd" d="M118.818 27.5L118.756 26.3542C117.964 27.3542 116.735 27.75 115.298 27.75C113.048 27.75 111.568 26.3125 111.568 24.2709C111.568 21.875 113.464 20.5209 116.589 20.5209H118.714V19.7292C118.714 18.625 117.943 17.9584 116.631 17.9584C115.339 17.9584 114.506 18.5834 114.402 19.6042H111.235C111.443 17.1667 113.527 15.6667 116.777 15.6667C119.943 15.6667 121.964 17.2084 121.964 19.9375V27.5H118.818ZM114.756 24.0625C114.756 24.6875 115.193 25.1875 116.11 25.1875C117.235 25.1875 118.089 24.625 118.714 23.6667V22.7709L116.527 22.7917C115.443 22.7917 114.756 23.1667 114.756 24.0625Z" fill="white"/>
<path d="M124.734 23.3334C124.734 25.7917 126.275 27.5 128.63 27.5H131.546V24.875H129.921C128.505 24.875 127.984 24.5417 127.984 23.3334V18.5417H130.359V15.9167H127.984V12.0834H124.734V15.9167H122.755V18.5417H124.734V23.3334Z" fill="white"/>
<path fill-rule="evenodd" clip-rule="evenodd" d="M137.929 27.75C134.221 27.75 131.971 25.4792 131.971 21.7084C131.971 17.9375 134.221 15.6667 137.929 15.6667C141.638 15.6667 143.867 17.9375 143.867 21.7084C143.867 25.4792 141.638 27.75 137.929 27.75ZM135.221 21.7084C135.221 23.8542 136.242 25.125 137.929 25.125C139.596 25.125 140.617 23.8542 140.617 21.7084C140.617 19.5625 139.596 18.2917 137.929 18.2917C136.242 18.2917 135.221 19.5625 135.221 21.7084Z" fill="white"/>
<path fill-rule="evenodd" clip-rule="evenodd" d="M144.819 21.7084C144.819 25.4792 147.069 27.75 150.777 27.75C154.486 27.75 156.715 25.4792 156.715 21.7084C156.715 17.9375 154.486 15.6667 150.777 15.6667C147.069 15.6667 144.819 17.9375 144.819 21.7084ZM150.777 25.125C149.09 25.125 148.069 23.8542 148.069 21.7084C148.069 19.5625 149.09 18.2917 150.777 18.2917C152.444 18.2917 153.465 19.5625 153.465 21.7084C153.465 23.8542 152.444 25.125 150.777 25.125Z" fill="white"/>
<path d="M162.863 23.3542C162.904 26.0834 164.863 27.75 168.05 27.75C171.05 27.75 172.863 26.3334 172.863 23.9792C172.863 21.1159 170.493 20.6675 168.611 20.3112C167.371 20.0765 166.342 19.8818 166.342 19.0625C166.342 18.3959 166.883 18.0209 167.8 18.0209C168.883 18.0209 169.592 18.5834 169.654 19.6042H172.654C172.446 17.125 170.8 15.6667 167.904 15.6667C165.05 15.6667 163.113 17 163.113 19.2709C163.113 21.9897 165.449 22.5359 167.325 22.9744C168.583 23.2684 169.633 23.5139 169.633 24.3334C169.633 25 169.029 25.3959 168.05 25.3959C166.633 25.3959 165.8 24.625 165.863 23.3542H162.863Z" fill="white"/>
<path d="M158.23 27.5V12.0834H161.48V27.5H158.23Z" fill="white"/>
</svg>
