<svg width="119" height="40" viewBox="0 0 119 40" fill="none" xmlns="http://www.w3.org/2000/svg">
<path d="M23.8708 32.6401C23.3682 33.757 22.7433 34.8509 21.9942 35.7974C28.2093 33.7026 32.7845 28.0429 33.2882 21.25H31.0758C28.3759 21.25 26.2071 23.4051 25.7682 26.0691C25.3637 28.5248 24.7165 30.7609 23.8708 32.6401Z" fill="white"/>
<path d="M18.9773 21.25C21.8041 21.25 24.1165 23.6083 23.5972 26.387C22.4695 32.4223 19.7917 36.6667 16.6677 36.6667C12.7148 36.6667 9.4761 29.871 9.18846 21.25H18.9773Z" fill="white"/>
<path d="M25.8257 14.2918C26.2391 16.9808 28.4179 19.1667 31.1384 19.1667H33.3139C32.9703 12.1893 28.336 6.34018 21.9942 4.20268C22.7433 5.14914 23.3682 6.24304 23.8708 7.36C24.7577 9.33087 25.4263 11.6943 25.8257 14.2918Z" fill="white"/>
<path d="M23.6807 14.0798C24.1536 16.8444 21.8512 19.1667 19.0464 19.1667H9.17689C9.37228 10.3491 12.6513 3.33337 16.6677 3.33337C19.8716 3.33337 22.6062 7.79772 23.6807 14.0798Z" fill="white"/>
<path d="M7.09308 19.1667C7.18774 14.6598 8.04755 10.5089 9.46454 7.36C9.96718 6.24304 10.592 5.14914 11.3411 4.20268C4.9994 6.34018 0.365062 12.1893 0.0214844 19.1667H7.09308Z" fill="white"/>
<path d="M0.0471826 21.25C0.550848 28.0429 5.12606 33.7026 11.3411 35.7974C10.592 34.8509 9.96718 33.757 9.46454 32.6401C8.09133 29.5885 7.2414 25.5958 7.10404 21.25H0.0471826Z" fill="white"/>
<path d="M41.6665 27.4999V11.0974H54.154V14.2249H45.3565V17.7124H53.0065V20.6374H45.3565V24.3724H54.154V27.4999H41.6665Z" fill="white"/>
<path d="M60.3287 27.7249C58.9937 27.7249 57.9962 27.2899 57.3362 26.4199C56.6762 25.5349 56.3462 24.3724 56.3462 22.9324V15.4174H59.7887V22.4374C59.7887 23.3974 59.9762 24.0574 60.3512 24.4174C60.7412 24.7624 61.2587 24.9349 61.9037 24.9349C62.6687 24.9349 63.2462 24.6799 63.6362 24.1699C64.0262 23.6599 64.2212 22.9924 64.2212 22.1674V15.4174H67.6637V27.4999H64.4462L64.1987 25.5199H64.0187C63.7487 26.1799 63.2837 26.7124 62.6237 27.1174C61.9787 27.5224 61.2137 27.7249 60.3287 27.7249Z" fill="white"/>
<path d="M70.247 27.4999V15.4174H73.4645L73.7119 17.4199H73.9145C74.1845 16.6699 74.5445 16.1224 74.9944 15.7774C75.4445 15.4174 76.0895 15.2374 76.9295 15.2374H78.0095V18.7474H76.457C75.467 18.7474 74.762 19.0024 74.3419 19.5124C73.922 20.0074 73.7119 20.6749 73.7119 21.5149V27.4999H70.247Z" fill="white"/>
<path d="M84.6368 27.7249C82.6718 27.7249 81.2093 27.1624 80.2493 26.0374C79.2893 24.9124 78.8093 23.4124 78.8093 21.5374V21.4699C78.8093 19.3399 79.3418 17.7649 80.4068 16.7449C81.4718 15.7099 82.8818 15.1924 84.6368 15.1924C86.4068 15.1924 87.8243 15.7099 88.8893 16.7449C89.9693 17.7649 90.5093 19.3399 90.5093 21.4699V21.5374C90.4943 23.4124 90.0068 24.9124 89.0468 26.0374C88.0868 27.1624 86.6168 27.7249 84.6368 27.7249ZM84.6368 24.9349C85.4018 24.9349 85.9793 24.7249 86.3693 24.3049C86.7743 23.8849 86.9768 23.3074 86.9768 22.5724V20.4124C86.9768 19.6624 86.7668 19.0774 86.3468 18.6574C85.9418 18.2224 85.3718 18.0049 84.6368 18.0049C83.9168 18.0049 83.3468 18.2224 82.9268 18.6574C82.5218 19.0774 82.3193 19.6624 82.3193 20.4124V22.5724C82.3193 23.3074 82.5143 23.8849 82.9043 24.3049C83.3093 24.7249 83.8868 24.9349 84.6368 24.9349Z" fill="white"/>
<path d="M92.3963 31.2574V15.4174H95.6813L95.8613 17.1949H96.0188C96.3188 16.5649 96.7838 16.0774 97.4138 15.7324C98.0588 15.3724 98.7788 15.1924 99.5738 15.1924C101.194 15.1924 102.371 15.7399 103.106 16.8349C103.841 17.9299 104.209 19.3924 104.209 21.2224V21.7399C104.209 23.8249 103.789 25.3474 102.949 26.3074C102.124 27.2524 100.999 27.7249 99.5738 27.7249C98.7938 27.7249 98.0813 27.5524 97.4363 27.2074C96.7913 26.8474 96.3188 26.3524 96.0188 25.7224H95.8613V31.2574H92.3963ZM98.1788 24.9124C98.9288 24.9124 99.5063 24.7024 99.9113 24.2824C100.316 23.8624 100.519 23.2699 100.519 22.5049V20.4349C100.519 19.6699 100.316 19.0774 99.9113 18.6574C99.5063 18.2224 98.9288 18.0049 98.1788 18.0049C97.4738 18.0049 96.9113 18.2224 96.4913 18.6574C96.0863 19.0924 95.8838 19.6999 95.8838 20.4799V22.4599C95.8838 23.2399 96.0863 23.8474 96.4913 24.2824C96.9113 24.7024 97.4738 24.9124 98.1788 24.9124Z" fill="white"/>
<path d="M109.044 27.7249C107.934 27.7249 107.034 27.4324 106.344 26.8474C105.654 26.2474 105.309 25.4524 105.309 24.4624V24.4174C105.309 23.2624 105.677 22.3699 106.412 21.7399C107.147 21.1099 108.137 20.7199 109.382 20.5699L112.757 20.1199V19.6474C112.757 18.5074 112.067 17.9374 110.687 17.9374C110.027 17.9374 109.502 18.0649 109.112 18.3199C108.737 18.5749 108.549 18.9424 108.549 19.4224H105.422C105.422 18.0874 105.909 17.0524 106.884 16.3174C107.859 15.5674 109.232 15.1924 111.002 15.1924C112.622 15.1924 113.889 15.5374 114.804 16.2274C115.734 16.9174 116.199 18.0124 116.199 19.5124V25.0699H117.774V27.4999H113.634L113.364 25.6324H113.117C112.817 26.2924 112.314 26.8099 111.609 27.1849C110.919 27.5449 110.064 27.7249 109.044 27.7249ZM110.529 25.2499C111.129 25.2499 111.632 25.1074 112.037 24.8224C112.457 24.5224 112.697 24.1399 112.757 23.6749V22.0549L110.484 22.3924C109.974 22.4524 109.562 22.5874 109.247 22.7974C108.932 22.9924 108.774 23.2924 108.774 23.6974V23.9899C108.774 24.3649 108.924 24.6724 109.224 24.9124C109.539 25.1374 109.974 25.2499 110.529 25.2499Z" fill="white"/>
</svg>
