<svg width="127" height="40" viewBox="0 0 127 40" fill="none" xmlns="http://www.w3.org/2000/svg">
<path opacity="0.5" fill-rule="evenodd" clip-rule="evenodd" d="M28.8223 7.00043L20.75 4.83746C20.1927 4.68814 19.741 5.03479 19.741 5.61172V13.9688C19.741 14.5457 20.1927 15.1345 20.75 15.2838L28.8223 17.4468C29.3796 17.5961 29.8314 17.2494 29.8314 16.6725V8.31543C29.8314 7.7385 29.3796 7.14975 28.8223 7.00043ZM20.75 1.70356C18.5209 1.10627 16.7139 2.49287 16.7139 4.80061V13.1577C16.7139 15.4654 18.5209 17.8204 20.75 18.4177L28.8223 20.5807C31.0514 21.178 32.8585 19.7914 32.8585 17.4836V9.12655C32.8585 6.8188 31.0514 4.46381 28.8223 3.86652L20.75 1.70356Z" fill="white"/>
<path opacity="0.7" fill-rule="evenodd" clip-rule="evenodd" d="M22.484 13.809L12.3936 11.1053C11.8363 10.956 11.3845 11.3026 11.3845 11.8795V22.3259C11.3845 22.9028 11.8363 23.4916 12.3936 23.6409L22.484 26.3446C23.0412 26.4939 23.493 26.1473 23.493 25.5703V15.124C23.493 14.5471 23.0412 13.9583 22.484 13.809ZM12.3936 7.97138C10.1645 7.37409 8.35742 8.76069 8.35742 11.0684V21.5148C8.35742 23.8225 10.1645 26.1775 12.3936 26.7748L22.484 29.4785C24.7131 30.0758 26.5201 28.6892 26.5201 26.3815V15.9351C26.5201 13.6274 24.7131 11.2724 22.484 10.6751L12.3936 7.97138Z" fill="white"/>
<path fill-rule="evenodd" clip-rule="evenodd" d="M16.1446 20.6174L4.03616 17.373C3.47888 17.2237 3.02712 17.5703 3.02712 18.1472V30.6829C3.02712 31.2598 3.47888 31.8485 4.03616 31.9979L16.1446 35.2423C16.7019 35.3916 17.1537 35.045 17.1537 34.468V21.9324C17.1537 21.3555 16.7019 20.7668 16.1446 20.6174ZM4.03616 14.2391C1.80705 13.6418 0 15.0284 0 17.3361V29.8717C0 32.1795 1.80705 34.5345 4.03616 35.1318L16.1446 38.3762C18.3737 38.9735 20.1808 37.5869 20.1808 35.2792V22.7436C20.1808 20.4358 18.3737 18.0808 16.1446 17.4835L4.03616 14.2391Z" fill="white"/>
<path d="M44.6998 27.1733C45.6487 27.6088 46.7376 27.8266 47.9665 27.8266C49.1954 27.8266 50.2687 27.6166 51.1865 27.1966C52.1198 26.7611 52.8432 26.1544 53.3565 25.3766C53.8698 24.5833 54.1265 23.6577 54.1265 22.6V22.32C54.1265 21.34 53.9009 20.5466 53.4498 19.94C52.9987 19.3177 52.4232 18.8588 51.7232 18.5633C51.0387 18.2677 50.3309 18.12 49.5998 18.12H48.7365V17.7466L53.6598 15.1333V11.1666H42.0865V13.8266H50.3465V14.2L45.0732 17V20.2666H48.3398C48.8687 20.2666 49.3432 20.3444 49.7632 20.5C50.1832 20.64 50.5176 20.8655 50.7665 21.1766C51.0154 21.4877 51.1398 21.8922 51.1398 22.39V22.6233C51.1398 23.3544 50.8598 23.9611 50.2998 24.4433C49.7554 24.9255 48.9776 25.1666 47.9665 25.1666C46.9709 25.1666 46.1698 24.91 45.5632 24.3966C44.9565 23.8677 44.6532 23.1677 44.6532 22.2966V21.97H41.6665V22.39C41.6665 23.51 41.9309 24.4822 42.4598 25.3066C43.0043 26.1155 43.7509 26.7377 44.6998 27.1733Z" fill="white"/>
<path fill-rule="evenodd" clip-rule="evenodd" d="M64.8691 11.7966C64.0914 11.3766 63.1891 11.1666 62.1625 11.1666H55.4425V27.5H58.5225V21.5266H62.1625C63.158 21.5266 64.0447 21.3244 64.8225 20.92C65.6158 20.5 66.238 19.9166 66.6891 19.17C67.1558 18.4077 67.3891 17.5211 67.3891 16.51V16.1833C67.3891 15.1566 67.1636 14.27 66.7125 13.5233C66.2769 12.7766 65.6625 12.2011 64.8691 11.7966ZM63.6325 18.12C63.1814 18.5244 62.5902 18.7266 61.8591 18.7266H58.5225V13.9666H61.8591C62.5902 13.9666 63.1814 14.1688 63.6325 14.5733C64.0836 14.9777 64.3091 15.53 64.3091 16.23V16.4633C64.3091 17.1633 64.0836 17.7155 63.6325 18.12Z" fill="white"/>
<path fill-rule="evenodd" clip-rule="evenodd" d="M73.6844 27.8266C72.5333 27.8266 71.4988 27.5933 70.5811 27.1266C69.6633 26.66 68.9399 25.9833 68.4111 25.0966C67.8822 24.21 67.6177 23.1444 67.6177 21.9V21.5266C67.6177 20.2822 67.8822 19.2166 68.4111 18.33C68.9399 17.4433 69.6633 16.7666 70.5811 16.3C71.4988 15.8333 72.5333 15.6 73.6844 15.6C74.8355 15.6 75.8699 15.8333 76.7877 16.3C77.7055 16.7666 78.4288 17.4433 78.9577 18.33C79.4866 19.2166 79.7511 20.2822 79.7511 21.5266V21.9C79.7511 23.1444 79.4866 24.21 78.9577 25.0966C78.4288 25.9833 77.7055 26.66 76.7877 27.1266C75.8699 27.5933 74.8355 27.8266 73.6844 27.8266ZM73.6844 25.2133C74.5866 25.2133 75.3333 24.9255 75.9244 24.35C76.5155 23.7588 76.8111 22.9188 76.8111 21.83V21.5966C76.8111 20.5077 76.5155 19.6755 75.9244 19.1C75.3488 18.5088 74.6022 18.2133 73.6844 18.2133C72.7822 18.2133 72.0355 18.5088 71.4444 19.1C70.8533 19.6755 70.5577 20.5077 70.5577 21.5966V21.83C70.5577 22.9188 70.8533 23.7588 71.4444 24.35C72.0355 24.9255 72.7822 25.2133 73.6844 25.2133Z" fill="white"/>
<path d="M85.4515 16.2066C85.0626 16.4244 84.7826 16.7666 84.6115 17.2333H84.1915V15.9266H81.2982V27.5H84.2382V20.92C84.2382 20.0955 84.4793 19.4888 84.9615 19.1C85.4437 18.6955 86.0582 18.4933 86.8048 18.4933H88.2515V18.4916H91.2495V24.8866C91.2495 25.68 91.4828 26.3177 91.9495 26.8C92.4317 27.2666 93.0539 27.5 93.8161 27.5H97.0828V25.0733H94.8428C94.4072 25.0733 94.1895 24.84 94.1895 24.3733V18.4916H97.3628V15.8833H94.1895V12.3333H91.2495V15.8833H88.2515V15.88H86.8515C86.3226 15.88 85.8559 15.9888 85.4515 16.2066Z" fill="white"/>
<path fill-rule="evenodd" clip-rule="evenodd" d="M100.234 27.4066C100.887 27.6866 101.626 27.8266 102.451 27.8266C103.26 27.8266 103.897 27.71 104.364 27.4766C104.831 27.2433 105.173 26.9788 105.391 26.6833C105.609 26.3722 105.749 26.1233 105.811 25.9366H106.254V25.96C106.254 26.4266 106.441 26.8 106.814 27.08C107.187 27.36 107.662 27.5 108.237 27.5H110.197V25.0733H109.264C108.829 25.0733 108.611 24.84 108.611 24.3733V20.0566C108.611 18.61 108.167 17.5055 107.281 16.7433C106.394 15.9811 105.189 15.6 103.664 15.6C102.669 15.6 101.821 15.7555 101.121 16.0666C100.436 16.3622 99.8841 16.7588 99.4641 17.2566C99.0596 17.7388 98.7641 18.2755 98.5774 18.8666L101.284 19.7766C101.393 19.2477 101.626 18.82 101.984 18.4933C102.342 18.1511 102.886 17.98 103.617 17.98C104.364 17.98 104.909 18.1588 105.251 18.5166C105.593 18.8588 105.764 19.3022 105.764 19.8466V20.5H102.591C101.72 20.5 100.942 20.64 100.257 20.92C99.5885 21.1844 99.0596 21.5888 98.6707 22.1333C98.2974 22.6622 98.1107 23.3233 98.1107 24.1166C98.1107 24.91 98.2974 25.5866 98.6707 26.1466C99.0596 26.6911 99.5807 27.1111 100.234 27.4066ZM104.971 24.77C104.457 25.2211 103.789 25.4466 102.964 25.4466C102.342 25.4466 101.867 25.3144 101.541 25.05C101.214 24.7855 101.051 24.4433 101.051 24.0233C101.051 23.6033 101.206 23.2766 101.517 23.0433C101.829 22.81 102.256 22.6933 102.801 22.6933H105.764V22.9266C105.764 23.6888 105.5 24.3033 104.971 24.77Z" fill="white"/>
<path d="M117.308 26.8466C118.273 27.5 119.509 27.8266 121.018 27.8266C122.496 27.8266 123.67 27.5 124.542 26.8466C125.428 26.1777 125.872 25.2366 125.872 24.0233C125.872 23.2144 125.662 22.5766 125.242 22.11C124.837 21.6277 124.277 21.2622 123.562 21.0133C122.862 20.7488 122.076 20.5388 121.205 20.3833L120.552 20.2666C120.023 20.1733 119.603 20.0411 119.292 19.87C118.98 19.6833 118.825 19.4033 118.825 19.03C118.825 18.6877 118.973 18.4233 119.268 18.2366C119.564 18.0344 119.992 17.9333 120.552 17.9333C121.112 17.9333 121.578 18.0577 121.952 18.3066C122.34 18.5555 122.597 18.9755 122.722 19.5666L125.452 18.7266C125.187 17.7933 124.627 17.0388 123.772 16.4633C122.916 15.8877 121.843 15.6 120.552 15.6C119.183 15.6 118.078 15.9111 117.238 16.5333C116.398 17.14 115.978 18.0188 115.978 19.17C115.978 19.9322 116.18 20.5544 116.585 21.0366C116.989 21.5188 117.526 21.9 118.195 22.18C118.864 22.4444 119.603 22.6544 120.412 22.81L121.065 22.9266C121.749 23.0511 122.247 23.2144 122.558 23.4166C122.869 23.6033 123.025 23.8755 123.025 24.2333C123.025 24.5911 122.862 24.8944 122.535 25.1433C122.208 25.3766 121.703 25.4933 121.018 25.4933C120.567 25.4933 120.147 25.4311 119.758 25.3066C119.385 25.1666 119.066 24.9411 118.802 24.63C118.553 24.3188 118.374 23.8911 118.265 23.3466L115.558 24.0466C115.76 25.26 116.344 26.1933 117.308 26.8466Z" fill="white"/>
<path d="M111.18 27.5V11.1666H114.12V27.5H111.18Z" fill="white"/>
</svg>
