<svg width="132" height="40" viewBox="0 0 132 40" fill="none" xmlns="http://www.w3.org/2000/svg">
<path d="M26.6663 21.6667C26.6663 26.2691 22.9354 30.0001 18.333 30.0001C13.7306 30.0001 9.99967 26.2691 9.99967 21.6667H3.33301C3.33301 29.951 10.0487 36.6667 18.333 36.6667C26.6173 36.6667 33.333 29.951 33.333 21.6667C33.333 13.3825 26.6173 6.66675 18.333 6.66675V13.3334C22.9354 13.3334 26.6663 17.0644 26.6663 21.6667Z" fill="white"/>
<path opacity="0.5" d="M8.33333 3.33337C8.33333 7.93575 4.60237 11.6667 0 11.6667V18.3334C8.28427 18.3334 15 11.6176 15 3.33337H8.33333Z" fill="white"/>
<path d="M41.6665 11.525H53.1415V14.7425H45.604V17.8925H52.8715V21.0875H45.604V24.2825H53.3215V27.5H41.6665V11.525Z" fill="white"/>
<path d="M54.3774 19.3325C54.8274 16.7 56.8074 15.305 60.1374 15.305C63.9624 15.305 65.8524 17.06 65.8524 20.5475V23.945C65.8524 24.8225 66.2124 24.9575 66.6174 24.9575H67.0224V27.5L66.4824 27.545C65.8524 27.5675 63.1074 27.995 62.7024 25.7C62.0724 26.9825 60.7224 27.77 58.4499 27.77C56.0199 27.77 54.1749 26.465 54.1749 24.35C54.1749 22.2125 55.7724 21.3125 58.7199 20.7275L61.9149 20.075C61.9149 18.4325 61.3524 17.6675 60.1149 17.6675C59.0799 17.6675 58.4499 18.275 58.2474 19.49L54.3774 19.3325ZM58.1574 24.1925C58.1574 24.89 58.7199 25.385 59.7774 25.385C61.0824 25.385 61.9824 24.395 61.9824 22.4375V22.325L60.2949 22.64C59.0124 22.865 58.1574 23.135 58.1574 24.1925Z" fill="white"/>
<path d="M75.1219 19.5125C74.9419 18.455 74.1094 17.825 73.2094 17.825C72.2644 17.825 71.5894 18.32 71.6344 19.1075C71.6794 19.8725 72.5344 20.2325 73.5919 20.4125C77.3944 20.975 79.0144 21.9425 79.0144 24.17C79.0144 26.555 76.8094 27.77 73.5244 27.77C69.8119 27.77 67.5619 26.2625 67.3594 23.6975L71.2519 23.54C71.4544 24.5975 72.1969 25.1825 73.3894 25.1825C74.1994 25.1825 75.0769 24.8675 75.0319 24.125C75.0094 23.2475 74.0644 23.0225 72.9619 22.82C69.2944 22.145 67.6519 21.245 67.6519 19.1075C67.6519 16.7 69.6769 15.2825 73.3219 15.2825C76.5169 15.2825 78.5869 16.79 78.9694 19.3775L75.1219 19.5125Z" fill="white"/>
<path d="M78.7562 15.575H82.3562L85.1462 23.4725L87.8012 15.575H91.4012L86.7662 28.5125C86.1812 30.155 85.0787 30.875 83.2337 30.875H80.8937V28.13H82.4462C83.2112 28.13 83.5937 27.9275 83.8187 27.365L84.0662 26.7575H83.0312L78.7562 15.575Z" fill="white"/>
<path d="M104.738 11.525V14.7425H100.013V27.5H96.098V14.7425H91.373V11.525H104.738Z" fill="white"/>
<path d="M104.83 19.3325C105.28 16.7 107.26 15.305 110.59 15.305C114.415 15.305 116.305 17.06 116.305 20.5475V23.945C116.305 24.8225 116.665 24.9575 117.07 24.9575H117.475V27.5L116.935 27.545C116.305 27.5675 113.56 27.995 113.155 25.7C112.525 26.9825 111.175 27.77 108.903 27.77C106.473 27.77 104.628 26.465 104.628 24.35C104.628 22.2125 106.225 21.3125 109.173 20.7275L112.368 20.075C112.368 18.4325 111.805 17.6675 110.568 17.6675C109.533 17.6675 108.903 18.275 108.7 19.49L104.83 19.3325ZM108.61 24.1925C108.61 24.89 109.173 25.385 110.23 25.385C111.535 25.385 112.435 24.395 112.435 22.4375V22.325L110.748 22.64C109.465 22.865 108.61 23.135 108.61 24.1925Z" fill="white"/>
<path d="M126.966 15.5525H131.151L126.943 21.4475L131.263 27.5H127.078L124.738 23.855L122.376 27.5H118.191L122.511 21.4475L118.303 15.5525H122.466L124.738 19.0175L126.966 15.5525Z" fill="white"/>
</svg>
