<svg width="119" height="40" viewBox="0 0 119 40" fill="none" xmlns="http://www.w3.org/2000/svg">
<path d="M23.8689 32.6401C23.3662 33.757 22.7414 34.8509 21.9923 35.7974C28.2073 33.7026 32.7826 28.0429 33.2862 21.25H31.0738C28.3739 21.25 26.2051 23.4051 25.7663 26.0691C25.3617 28.5248 24.7145 30.7609 23.8689 32.6401Z" fill="#1D1EE3"/>
<path d="M18.9753 21.25C21.8021 21.25 24.1145 23.6083 23.5953 26.387C22.4676 32.4223 19.7897 36.6667 16.6657 36.6667C12.7128 36.6667 9.47415 29.871 9.1865 21.25H18.9753Z" fill="#1D1EE3"/>
<path d="M25.8237 14.2918C26.2371 16.9808 28.4159 19.1667 31.1364 19.1667H33.3119C32.9683 12.1893 28.334 6.34018 21.9923 4.20268C22.7414 5.14914 23.3662 6.24304 23.8689 7.36C24.7558 9.33087 25.4244 11.6943 25.8237 14.2918Z" fill="#1D1EE3"/>
<path d="M23.6788 14.0798C24.1516 16.8444 21.8493 19.1667 19.0445 19.1667H9.17494C9.37033 10.3491 12.6493 3.33337 16.6657 3.33337C19.8696 3.33337 22.6043 7.79772 23.6788 14.0798Z" fill="#1D1EE3"/>
<path d="M7.09113 19.1667C7.18579 14.6598 8.0456 10.5089 9.46259 7.36C9.96522 6.24304 10.5901 5.14914 11.3392 4.20268C4.99745 6.34018 0.363109 12.1893 0.0195312 19.1667H7.09113Z" fill="#1D1EE3"/>
<path d="M0.0452295 21.25C0.548895 28.0429 5.1241 33.7026 11.3392 35.7974C10.5901 34.8509 9.96522 33.757 9.46259 32.6401C8.08938 29.5885 7.23945 25.5958 7.10209 21.25H0.0452295Z" fill="#1D1EE3"/>
<path d="M41.667 27.4999V11.0974H54.1545V14.2249H45.357V17.7124H53.007V20.6374H45.357V24.3724H54.1545V27.4999H41.667Z" fill="#1D1EE3"/>
<path d="M60.3292 27.7249C58.9942 27.7249 57.9967 27.2899 57.3367 26.4199C56.6767 25.5349 56.3467 24.3724 56.3467 22.9324V15.4174H59.7892V22.4374C59.7892 23.3974 59.9767 24.0574 60.3517 24.4174C60.7417 24.7624 61.2592 24.9349 61.9042 24.9349C62.6692 24.9349 63.2467 24.6799 63.6367 24.1699C64.0267 23.6599 64.2217 22.9924 64.2217 22.1674V15.4174H67.6642V27.4999H64.4467L64.1992 25.5199H64.0192C63.7492 26.1799 63.2842 26.7124 62.6242 27.1174C61.9792 27.5224 61.2142 27.7249 60.3292 27.7249Z" fill="#1D1EE3"/>
<path d="M70.2474 27.4999V15.4174H73.4649L73.7124 17.4199H73.9149C74.1849 16.6699 74.5449 16.1224 74.9949 15.7774C75.4449 15.4174 76.0899 15.2374 76.9299 15.2374H78.0099V18.7474H76.4574C75.4674 18.7474 74.7624 19.0024 74.3424 19.5124C73.9224 20.0074 73.7124 20.6749 73.7124 21.5149V27.4999H70.2474Z" fill="#1D1EE3"/>
<path d="M84.6372 27.7249C82.6722 27.7249 81.2097 27.1624 80.2497 26.0374C79.2897 24.9124 78.8097 23.4124 78.8097 21.5374V21.4699C78.8097 19.3399 79.3422 17.7649 80.4072 16.7449C81.4722 15.7099 82.8822 15.1924 84.6372 15.1924C86.4072 15.1924 87.8247 15.7099 88.8897 16.7449C89.9697 17.7649 90.5097 19.3399 90.5097 21.4699V21.5374C90.4947 23.4124 90.0072 24.9124 89.0472 26.0374C88.0872 27.1624 86.6172 27.7249 84.6372 27.7249ZM84.6372 24.9349C85.4022 24.9349 85.9797 24.7249 86.3697 24.3049C86.7747 23.8849 86.9772 23.3074 86.9772 22.5724V20.4124C86.9772 19.6624 86.7672 19.0774 86.3472 18.6574C85.9422 18.2224 85.3722 18.0049 84.6372 18.0049C83.9172 18.0049 83.3472 18.2224 82.9272 18.6574C82.5222 19.0774 82.3197 19.6624 82.3197 20.4124V22.5724C82.3197 23.3074 82.5147 23.8849 82.9047 24.3049C83.3097 24.7249 83.8872 24.9349 84.6372 24.9349Z" fill="#1D1EE3"/>
<path d="M92.3968 31.2574V15.4174H95.6818L95.8618 17.1949H96.0193C96.3193 16.5649 96.7843 16.0774 97.4143 15.7324C98.0593 15.3724 98.7793 15.1924 99.5743 15.1924C101.194 15.1924 102.372 15.7399 103.107 16.8349C103.842 17.9299 104.209 19.3924 104.209 21.2224V21.7399C104.209 23.8249 103.789 25.3474 102.949 26.3074C102.124 27.2524 100.999 27.7249 99.5743 27.7249C98.7943 27.7249 98.0818 27.5524 97.4368 27.2074C96.7918 26.8474 96.3193 26.3524 96.0193 25.7224H95.8618V31.2574H92.3968ZM98.1793 24.9124C98.9293 24.9124 99.5068 24.7024 99.9118 24.2824C100.317 23.8624 100.519 23.2699 100.519 22.5049V20.4349C100.519 19.6699 100.317 19.0774 99.9118 18.6574C99.5068 18.2224 98.9293 18.0049 98.1793 18.0049C97.4743 18.0049 96.9118 18.2224 96.4918 18.6574C96.0868 19.0924 95.8843 19.6999 95.8843 20.4799V22.4599C95.8843 23.2399 96.0868 23.8474 96.4918 24.2824C96.9118 24.7024 97.4743 24.9124 98.1793 24.9124Z" fill="#1D1EE3"/>
<path d="M109.045 27.7249C107.935 27.7249 107.035 27.4324 106.345 26.8474C105.655 26.2474 105.31 25.4524 105.31 24.4624V24.4174C105.31 23.2624 105.677 22.3699 106.412 21.7399C107.147 21.1099 108.137 20.7199 109.382 20.5699L112.757 20.1199V19.6474C112.757 18.5074 112.067 17.9374 110.687 17.9374C110.027 17.9374 109.502 18.0649 109.112 18.3199C108.737 18.5749 108.55 18.9424 108.55 19.4224H105.422C105.422 18.0874 105.91 17.0524 106.885 16.3174C107.86 15.5674 109.232 15.1924 111.002 15.1924C112.622 15.1924 113.89 15.5374 114.805 16.2274C115.735 16.9174 116.2 18.0124 116.2 19.5124V25.0699H117.775V27.4999H113.635L113.365 25.6324H113.117C112.817 26.2924 112.315 26.8099 111.61 27.1849C110.92 27.5449 110.065 27.7249 109.045 27.7249ZM110.53 25.2499C111.13 25.2499 111.632 25.1074 112.037 24.8224C112.457 24.5224 112.697 24.1399 112.757 23.6749V22.0549L110.485 22.3924C109.975 22.4524 109.562 22.5874 109.247 22.7974C108.932 22.9924 108.775 23.2924 108.775 23.6974V23.9899C108.775 24.3649 108.925 24.6724 109.225 24.9124C109.54 25.1374 109.975 25.2499 110.53 25.2499Z" fill="#1D1EE3"/>
</svg>
