<svg width="127" height="40" viewBox="0 0 127 40" fill="none" xmlns="http://www.w3.org/2000/svg">
<path opacity="0.5" fill-rule="evenodd" clip-rule="evenodd" d="M28.8233 7.00043L20.751 4.83746C20.1937 4.68814 19.742 5.03479 19.742 5.61172V13.9688C19.742 14.5457 20.1937 15.1345 20.751 15.2838L28.8233 17.4468C29.3806 17.5961 29.8324 17.2494 29.8324 16.6725V8.31543C29.8324 7.7385 29.3806 7.14975 28.8233 7.00043ZM20.751 1.70356C18.5219 1.10627 16.7148 2.49287 16.7148 4.80061V13.1577C16.7148 15.4654 18.5219 17.8204 20.751 18.4177L28.8233 20.5807C31.0524 21.178 32.8595 19.7914 32.8595 17.4836V9.12655C32.8595 6.8188 31.0524 4.46381 28.8233 3.86653L20.751 1.70356Z" fill="#1D1EE3"/>
<path opacity="0.7" fill-rule="evenodd" clip-rule="evenodd" d="M22.482 13.809L12.3916 11.1053C11.8343 10.956 11.3826 11.3026 11.3826 11.8795V22.3259C11.3826 22.9028 11.8343 23.4916 12.3916 23.6409L22.482 26.3446C23.0393 26.4939 23.4911 26.1473 23.4911 25.5703V15.124C23.4911 14.5471 23.0393 13.9583 22.482 13.809ZM12.3916 7.97138C10.1625 7.37409 8.35547 8.76069 8.35547 11.0684V21.5148C8.35547 23.8225 10.1625 26.1775 12.3916 26.7748L22.482 29.4785C24.7111 30.0758 26.5182 28.6892 26.5182 26.3815V15.9351C26.5182 13.6274 24.7111 11.2724 22.482 10.6751L12.3916 7.97138Z" fill="#1D1EE3"/>
<path fill-rule="evenodd" clip-rule="evenodd" d="M16.1446 20.6174L4.03616 17.373C3.47888 17.2237 3.02712 17.5703 3.02712 18.1472V30.6829C3.02712 31.2598 3.47888 31.8485 4.03616 31.9979L16.1446 35.2423C16.7019 35.3916 17.1537 35.045 17.1537 34.468V21.9324C17.1537 21.3555 16.7019 20.7668 16.1446 20.6174ZM4.03616 14.2391C1.80705 13.6418 0 15.0284 0 17.3361V29.8717C0 32.1795 1.80705 34.5345 4.03616 35.1318L16.1446 38.3762C18.3737 38.9735 20.1808 37.5869 20.1808 35.2792V22.7436C20.1808 20.4358 18.3737 18.0808 16.1446 17.4835L4.03616 14.2391Z" fill="#1D1EE3"/>
<path d="M44.7003 27.1733C45.6492 27.6088 46.7381 27.8266 47.967 27.8266C49.1959 27.8266 50.2692 27.6166 51.187 27.1966C52.1203 26.7611 52.8437 26.1544 53.357 25.3766C53.8703 24.5833 54.127 23.6577 54.127 22.6V22.32C54.127 21.34 53.9014 20.5466 53.4503 19.94C52.9992 19.3177 52.4237 18.8588 51.7237 18.5633C51.0392 18.2677 50.3314 18.12 49.6003 18.12H48.737V17.7466L53.6603 15.1333V11.1666H42.087V13.8266H50.347V14.2L45.0737 17V20.2666H48.3403C48.8692 20.2666 49.3437 20.3444 49.7637 20.5C50.1837 20.64 50.5181 20.8655 50.767 21.1766C51.0159 21.4877 51.1403 21.8922 51.1403 22.39V22.6233C51.1403 23.3544 50.8603 23.9611 50.3003 24.4433C49.7559 24.9255 48.9781 25.1666 47.967 25.1666C46.9714 25.1666 46.1703 24.91 45.5637 24.3966C44.957 23.8677 44.6537 23.1677 44.6537 22.2966V21.97H41.667V22.39C41.667 23.51 41.9314 24.4822 42.4603 25.3066C43.0048 26.1155 43.7514 26.7377 44.7003 27.1733Z" fill="#1D1EE3"/>
<path fill-rule="evenodd" clip-rule="evenodd" d="M64.8696 11.7966C64.0918 11.3766 63.1896 11.1666 62.163 11.1666H55.443V27.5H58.523V21.5266H62.163C63.1585 21.5266 64.0452 21.3244 64.823 20.92C65.6163 20.5 66.2385 19.9166 66.6896 19.17C67.1563 18.4077 67.3896 17.5211 67.3896 16.51V16.1833C67.3896 15.1566 67.1641 14.27 66.713 13.5233C66.2774 12.7766 65.663 12.2011 64.8696 11.7966ZM63.633 18.12C63.1818 18.5244 62.5907 18.7266 61.8596 18.7266H58.523V13.9666H61.8596C62.5907 13.9666 63.1818 14.1688 63.633 14.5733C64.0841 14.9777 64.3096 15.53 64.3096 16.23V16.4633C64.3096 17.1633 64.0841 17.7155 63.633 18.12Z" fill="#1D1EE3"/>
<path fill-rule="evenodd" clip-rule="evenodd" d="M73.6849 27.8266C72.5338 27.8266 71.4993 27.5933 70.5815 27.1266C69.6638 26.66 68.9404 25.9833 68.4115 25.0966C67.8827 24.21 67.6182 23.1444 67.6182 21.9V21.5266C67.6182 20.2822 67.8827 19.2166 68.4115 18.33C68.9404 17.4433 69.6638 16.7666 70.5815 16.3C71.4993 15.8333 72.5338 15.6 73.6849 15.6C74.836 15.6 75.8704 15.8333 76.7882 16.3C77.706 16.7666 78.4293 17.4433 78.9582 18.33C79.4871 19.2166 79.7515 20.2822 79.7515 21.5266V21.9C79.7515 23.1444 79.4871 24.21 78.9582 25.0966C78.4293 25.9833 77.706 26.66 76.7882 27.1266C75.8704 27.5933 74.836 27.8266 73.6849 27.8266ZM73.6849 25.2133C74.5871 25.2133 75.3338 24.9255 75.9249 24.35C76.516 23.7588 76.8115 22.9188 76.8115 21.83V21.5966C76.8115 20.5077 76.516 19.6755 75.9249 19.1C75.3493 18.5088 74.6027 18.2133 73.6849 18.2133C72.7827 18.2133 72.036 18.5088 71.4449 19.1C70.8538 19.6755 70.5582 20.5077 70.5582 21.5966V21.83C70.5582 22.9188 70.8538 23.7588 71.4449 24.35C72.036 24.9255 72.7827 25.2133 73.6849 25.2133Z" fill="#1D1EE3"/>
<path d="M85.452 16.2066C85.0631 16.4244 84.7831 16.7666 84.612 17.2333H84.192V15.9266H81.2987V27.5H84.2387V20.92C84.2387 20.0955 84.4798 19.4888 84.962 19.1C85.4442 18.6955 86.0587 18.4933 86.8053 18.4933H88.252V18.4916H91.25V24.8866C91.25 25.68 91.4833 26.3177 91.95 26.8C92.4322 27.2666 93.0544 27.5 93.8166 27.5H97.0833V25.0733H94.8433C94.4077 25.0733 94.19 24.84 94.19 24.3733V18.4916H97.3633V15.8833H94.19V12.3333H91.25V15.8833H88.252V15.88H86.852C86.3231 15.88 85.8564 15.9888 85.452 16.2066Z" fill="#1D1EE3"/>
<path fill-rule="evenodd" clip-rule="evenodd" d="M100.235 27.4066C100.888 27.6866 101.627 27.8266 102.451 27.8266C103.26 27.8266 103.898 27.71 104.365 27.4766C104.831 27.2433 105.173 26.9788 105.391 26.6833C105.609 26.3722 105.749 26.1233 105.811 25.9366H106.255V25.96C106.255 26.4266 106.441 26.8 106.815 27.08C107.188 27.36 107.662 27.5 108.238 27.5H110.198V25.0733H109.265C108.829 25.0733 108.611 24.84 108.611 24.3733V20.0566C108.611 18.61 108.168 17.5055 107.281 16.7433C106.395 15.9811 105.189 15.6 103.665 15.6C102.669 15.6 101.821 15.7555 101.121 16.0666C100.437 16.3622 99.8846 16.7588 99.4646 17.2566C99.0601 17.7388 98.7646 18.2755 98.5779 18.8666L101.285 19.7766C101.393 19.2477 101.627 18.82 101.985 18.4933C102.342 18.1511 102.887 17.98 103.618 17.98C104.365 17.98 104.909 18.1588 105.251 18.5166C105.593 18.8588 105.765 19.3022 105.765 19.8466V20.5H102.591C101.72 20.5 100.942 20.64 100.258 20.92C99.589 21.1844 99.0601 21.5888 98.6712 22.1333C98.2979 22.6622 98.1112 23.3233 98.1112 24.1166C98.1112 24.91 98.2979 25.5866 98.6712 26.1466C99.0601 26.6911 99.5812 27.1111 100.235 27.4066ZM104.971 24.77C104.458 25.2211 103.789 25.4466 102.965 25.4466C102.342 25.4466 101.868 25.3144 101.541 25.05C101.215 24.7855 101.051 24.4433 101.051 24.0233C101.051 23.6033 101.207 23.2766 101.518 23.0433C101.829 22.81 102.257 22.6933 102.801 22.6933H105.765V22.9266C105.765 23.6888 105.5 24.3033 104.971 24.77Z" fill="#1D1EE3"/>
<path d="M117.309 26.8466C118.273 27.5 119.51 27.8266 121.019 27.8266C122.496 27.8266 123.671 27.5 124.542 26.8466C125.429 26.1777 125.872 25.2366 125.872 24.0233C125.872 23.2144 125.662 22.5766 125.242 22.11C124.838 21.6277 124.278 21.2622 123.562 21.0133C122.862 20.7488 122.076 20.5388 121.205 20.3833L120.552 20.2666C120.023 20.1733 119.603 20.0411 119.292 19.87C118.981 19.6833 118.825 19.4033 118.825 19.03C118.825 18.6877 118.973 18.4233 119.269 18.2366C119.564 18.0344 119.992 17.9333 120.552 17.9333C121.112 17.9333 121.579 18.0577 121.952 18.3066C122.341 18.5555 122.598 18.9755 122.722 19.5666L125.452 18.7266C125.188 17.7933 124.628 17.0388 123.772 16.4633C122.917 15.8877 121.843 15.6 120.552 15.6C119.183 15.6 118.079 15.9111 117.239 16.5333C116.399 17.14 115.979 18.0188 115.979 19.17C115.979 19.9322 116.181 20.5544 116.585 21.0366C116.99 21.5188 117.527 21.9 118.195 22.18C118.864 22.4444 119.603 22.6544 120.412 22.81L121.065 22.9266C121.75 23.0511 122.248 23.2144 122.559 23.4166C122.87 23.6033 123.025 23.8755 123.025 24.2333C123.025 24.5911 122.862 24.8944 122.535 25.1433C122.209 25.3766 121.703 25.4933 121.019 25.4933C120.568 25.4933 120.148 25.4311 119.759 25.3066C119.385 25.1666 119.067 24.9411 118.802 24.63C118.553 24.3188 118.374 23.8911 118.265 23.3466L115.559 24.0466C115.761 25.26 116.344 26.1933 117.309 26.8466Z" fill="#1D1EE3"/>
<path d="M111.181 27.5V11.1666H114.121V27.5H111.181Z" fill="#1D1EE3"/>
</svg>
