<svg width="174" height="40" viewBox="0 0 174 40" fill="none" xmlns="http://www.w3.org/2000/svg">
<path d="M33.3273 19.5146C33.0705 10.5343 25.71 3.33325 16.6676 3.33325C13.8039 3.33325 11.1089 4.05547 8.75487 5.32769L33.3273 19.5146Z" fill="#050519" fill-opacity="0.4"/>
<path d="M6.41157 6.86153C5.72177 7.40076 5.07552 7.99314 4.47897 8.6325L32.6102 24.8741C32.863 24.046 33.0531 23.1906 33.175 22.3134L6.41157 6.86153Z" fill="#050519" fill-opacity="0.4"/>
<path d="M28.8564 31.3671C28.2599 32.0064 27.6136 32.5988 26.9239 33.1381L0.160218 17.6861C0.282057 16.8088 0.472174 15.9534 0.72503 15.1254L28.8564 31.3671Z" fill="#050519" fill-opacity="0.4"/>
<path d="M30.4372 29.393L1.6462 12.7705C2.01008 12.0158 2.42914 11.2928 2.89817 10.6066L31.6891 27.229C31.3252 27.9837 30.9062 28.7067 30.4372 29.393Z" fill="#050519" fill-opacity="0.4"/>
<path d="M16.6676 36.6666C19.5314 36.6666 22.2265 35.9443 24.5806 34.6719L0.0078125 20.4848C0.264393 29.4653 7.625 36.6666 16.6676 36.6666Z" fill="#050519" fill-opacity="0.4"/>
<path d="M62.2978 20.375C62.2978 19.1667 61.6312 18.375 60.6312 18.375C59.5687 18.375 58.7353 18.9584 57.8187 20.4584V27.5H49.1045C44.5837 27.5 41.667 24.7292 41.667 20.2292C41.667 15.7292 44.5837 12.9584 49.1045 12.9584H52.6045V15.7709H49.1045C46.667 15.7709 45.2087 17.3959 45.2087 20.2292C45.2087 23.0625 46.667 24.6875 49.1045 24.6875H54.5687V12.0834H57.8187V17.1875C58.7978 16.1042 60.0478 15.6667 61.2978 15.6667C63.9437 15.6667 65.5478 17.4584 65.5478 20.1667V27.5H62.2978V20.375Z" fill="#050519" fill-opacity="0.4"/>
<path d="M73.04 18.375C73.915 18.375 74.29 19.0834 74.29 20.1667V21.7292H77.5609V20.1667C77.5609 17.2084 75.9775 15.6667 73.7484 15.6667C72.5609 15.6667 71.5609 16.1875 70.7067 17.2084L70.6442 15.9167H67.4984V27.5H70.7484V20.2709C71.6025 19.0209 72.3109 18.375 73.04 18.375Z" fill="#050519" fill-opacity="0.4"/>
<path fill-rule="evenodd" clip-rule="evenodd" d="M84.3188 27.75C80.6105 27.75 78.3605 25.4792 78.3605 21.7084C78.3605 17.9375 80.6105 15.6667 84.3188 15.6667C88.0272 15.6667 90.2563 17.9375 90.2563 21.7084C90.2563 25.4792 88.0272 27.75 84.3188 27.75ZM81.6105 21.7084C81.6105 23.8542 82.6313 25.125 84.3188 25.125C85.9855 25.125 87.0063 23.8542 87.0063 21.7084C87.0063 19.5625 85.9855 18.2917 84.3188 18.2917C82.6313 18.2917 81.6105 19.5625 81.6105 21.7084Z" fill="#050519" fill-opacity="0.4"/>
<path d="M104.896 18.3542C106 18.3542 106.709 19.0625 106.709 20.2292V27.5H109.959V20.2292C109.959 17.375 108.105 15.6667 105.813 15.6667C104.021 15.6667 102.667 16.4584 101.959 17.6875C101.25 16.3959 99.8963 15.6667 98.313 15.6667C97.0005 15.6667 95.7505 16.3125 94.9588 17.3125L94.8963 15.9167H91.7505V27.5H95.0005V20.1459C95.6463 19.0834 96.4796 18.3542 97.4171 18.3542C98.5005 18.3542 99.2296 19.0625 99.2296 20.2292V27.5H102.48V20.1875C103.125 19.1042 103.959 18.3542 104.896 18.3542Z" fill="#050519" fill-opacity="0.4"/>
<path fill-rule="evenodd" clip-rule="evenodd" d="M118.819 27.5L118.756 26.3542C117.965 27.3542 116.735 27.75 115.298 27.75C113.048 27.75 111.569 26.3125 111.569 24.2709C111.569 21.875 113.465 20.5209 116.59 20.5209H118.715V19.7292C118.715 18.625 117.944 17.9584 116.631 17.9584C115.34 17.9584 114.506 18.5834 114.402 19.6042H111.235C111.444 17.1667 113.527 15.6667 116.777 15.6667C119.944 15.6667 121.965 17.2084 121.965 19.9375V27.5H118.819ZM114.756 24.0625C114.756 24.6875 115.194 25.1875 116.111 25.1875C117.236 25.1875 118.09 24.625 118.715 23.6667V22.7709L116.527 22.7917C115.444 22.7917 114.756 23.1667 114.756 24.0625Z" fill="#050519" fill-opacity="0.4"/>
<path d="M124.734 23.3334C124.734 25.7917 126.276 27.5 128.63 27.5H131.547V24.875H129.922C128.505 24.875 127.984 24.5417 127.984 23.3334V18.5417H130.359V15.9167H127.984V12.0834H124.734V15.9167H122.755V18.5417H124.734V23.3334Z" fill="#050519" fill-opacity="0.4"/>
<path fill-rule="evenodd" clip-rule="evenodd" d="M137.93 27.75C134.221 27.75 131.971 25.4792 131.971 21.7084C131.971 17.9375 134.221 15.6667 137.93 15.6667C141.638 15.6667 143.867 17.9375 143.867 21.7084C143.867 25.4792 141.638 27.75 137.93 27.75ZM135.221 21.7084C135.221 23.8542 136.242 25.125 137.93 25.125C139.596 25.125 140.617 23.8542 140.617 21.7084C140.617 19.5625 139.596 18.2917 137.93 18.2917C136.242 18.2917 135.221 19.5625 135.221 21.7084Z" fill="#050519" fill-opacity="0.4"/>
<path fill-rule="evenodd" clip-rule="evenodd" d="M144.82 21.7084C144.82 25.4792 147.07 27.75 150.778 27.75C154.486 27.75 156.715 25.4792 156.715 21.7084C156.715 17.9375 154.486 15.6667 150.778 15.6667C147.07 15.6667 144.82 17.9375 144.82 21.7084ZM150.778 25.125C149.09 25.125 148.07 23.8542 148.07 21.7084C148.07 19.5625 149.09 18.2917 150.778 18.2917C152.445 18.2917 153.465 19.5625 153.465 21.7084C153.465 23.8542 152.445 25.125 150.778 25.125Z" fill="#050519" fill-opacity="0.4"/>
<path d="M162.863 23.3542C162.905 26.0834 164.863 27.75 168.051 27.75C171.051 27.75 172.863 26.3334 172.863 23.9792C172.863 21.1159 170.494 20.6675 168.611 20.3112C167.371 20.0765 166.342 19.8818 166.342 19.0625C166.342 18.3959 166.884 18.0209 167.801 18.0209C168.884 18.0209 169.592 18.5834 169.655 19.6042H172.655C172.446 17.125 170.801 15.6667 167.905 15.6667C165.051 15.6667 163.113 17 163.113 19.2709C163.113 21.9897 165.45 22.5359 167.326 22.9744C168.583 23.2684 169.634 23.5139 169.634 24.3334C169.634 25 169.03 25.3959 168.051 25.3959C166.634 25.3959 165.801 24.625 165.863 23.3542H162.863Z" fill="#050519" fill-opacity="0.4"/>
<path d="M158.23 27.5V12.0834H161.48V27.5H158.23Z" fill="#050519" fill-opacity="0.4"/>
</svg>
