<svg width="152" height="40" viewBox="0 0 152 40" fill="none" xmlns="http://www.w3.org/2000/svg">
<path fill-rule="evenodd" clip-rule="evenodd" d="M16.6667 3.33337C25.8714 3.33337 33.3333 10.7953 33.3333 20C33.3333 29.2048 25.8714 36.6667 16.6667 36.6667C7.46192 36.6667 0 29.2048 0 20C0 10.7953 7.46192 3.33337 16.6667 3.33337ZM29.1667 20C29.1667 26.9036 23.5702 32.5 16.6667 32.5V7.50004C23.5702 7.50004 29.1667 13.0965 29.1667 20Z" fill="#050519" fill-opacity="0.4"/>
<path d="M49.5195 10.76C54.1095 10.76 56.292 13.055 56.7195 16.385H53.412C53.0295 14.6975 51.702 13.685 49.542 13.685C46.7295 13.685 45.0645 15.485 45.0645 19.1975C45.0645 23.4725 47.0445 24.89 49.6095 24.89C51.747 24.89 53.0295 23.9 53.4345 22.19H56.7195C56.247 25.8575 53.7045 27.815 49.5195 27.815C44.502 27.815 41.667 24.98 41.667 19.355C41.667 14.3825 44.1195 10.76 49.5195 10.76Z" fill="#050519" fill-opacity="0.4"/>
<path d="M61.0191 21.5375C61.0191 24.26 62.0541 25.205 63.8091 25.205C65.5416 25.205 66.5541 24.26 66.5541 21.5375C66.5541 18.86 65.5416 17.8925 63.8091 17.8925C62.0541 17.8925 61.0191 18.86 61.0191 21.5375ZM57.6666 21.5375C57.6666 17.4875 59.8041 15.305 63.8091 15.305C67.8141 15.305 69.9291 17.4875 69.9291 21.5375C69.9291 25.61 67.7916 27.815 63.8091 27.815C59.8041 27.815 57.6666 25.61 57.6666 21.5375Z" fill="#050519" fill-opacity="0.4"/>
<path d="M78.2363 15.305C80.7338 15.305 82.1738 16.295 82.4663 18.4775C82.5338 19.085 82.5564 19.6475 82.5564 20.615V27.5H79.3388V20.57C79.3388 18.995 78.9113 17.9825 77.1338 17.9825C75.6713 17.9375 74.6363 18.95 74.6363 21.2V27.5H71.4188V15.62H74.3663L74.5014 17.555C74.8839 15.8 76.2788 15.305 78.2363 15.305Z" fill="#050519" fill-opacity="0.4"/>
<path d="M88.6178 23.3825C88.6178 25.1375 89.0003 25.295 91.1378 25.1825V27.6125C90.3953 27.7025 89.7653 27.77 88.7078 27.77C86.3228 27.77 85.5578 26.8025 85.4228 25.2725C85.3778 24.62 85.3778 24.1475 85.3778 23.4725V18.185H83.6678V15.6425H85.3778V12.1775H88.6178V15.6425H91.2728V18.185H88.6178V23.3825Z" fill="#050519" fill-opacity="0.4"/>
<path d="M98.8935 15.305C99.3209 15.305 99.591 15.305 99.861 15.3725V17.9825C97.0035 17.69 95.6985 18.995 95.6985 22.3475V27.5H92.481V15.62H95.4285L95.5635 17.8925C95.7885 16.0475 97.0935 15.305 98.8935 15.305Z" fill="#050519" fill-opacity="0.4"/>
<path d="M105.547 15.305C109.057 15.305 110.362 16.8125 110.519 18.905C110.564 19.5125 110.587 20.075 110.587 20.75V27.5H107.684L107.504 25.925C106.964 27.5225 105.547 27.815 103.792 27.815C101.609 27.815 99.8991 26.5775 99.8991 24.26C99.8991 21.29 102.172 20.21 106.762 20.21H107.414V19.7825C107.414 18.6125 107.032 17.87 105.412 17.87C103.994 17.87 103.364 18.365 103.229 19.4675H100.282C100.372 16.9025 101.947 15.305 105.547 15.305ZM103.027 23.8775C103.027 24.755 103.724 25.25 104.827 25.25C106.087 25.25 107.414 24.53 107.414 23.36V22.415C104.579 22.28 103.027 22.5725 103.027 23.8775Z" fill="#050519" fill-opacity="0.4"/>
<path d="M117.01 15.305C120.385 15.305 121.825 16.61 121.983 19.1075H118.878C118.72 18.005 117.978 17.735 116.943 17.735C115.998 17.735 115.278 18.095 115.278 18.77C115.278 19.49 115.863 19.895 117.708 20.1875C120.835 20.66 122.343 21.74 122.343 24.08C122.343 26.6 120.048 27.815 117.19 27.815C113.815 27.815 112.083 26.6225 111.768 23.9225H114.918C115.12 25.0025 115.795 25.3625 117.28 25.3625C118.45 25.3625 119.148 24.98 119.148 24.35C119.148 23.5625 118.338 23.1125 116.583 22.8425C113.433 22.325 112.083 21.38 112.083 18.9725C112.083 16.79 114.018 15.305 117.01 15.305Z" fill="#050519" fill-opacity="0.4"/>
<path d="M127.776 23.3825C127.776 25.1375 128.158 25.295 130.296 25.1825V27.6125C129.553 27.7025 128.923 27.77 127.866 27.77C125.481 27.77 124.716 26.8025 124.581 25.2725C124.536 24.62 124.536 24.1475 124.536 23.4725V18.185H122.826V15.6425H124.536V12.1775H127.776V15.6425H130.431V18.185H127.776V23.3825Z" fill="#050519" fill-opacity="0.4"/>
<path d="M140.726 11.075L146.531 27.5H143.043L141.671 23.54H135.618L134.223 27.5H130.781L136.698 11.075H140.726ZM136.406 20.75H140.928L138.701 14.1575L136.406 20.75Z" fill="#050519" fill-opacity="0.4"/>
<path d="M151.129 11.075V27.5H147.844V11.075H151.129Z" fill="#050519" fill-opacity="0.4"/>
</svg>
