<svg width="130" height="40" viewBox="0 0 130 40" fill="none" xmlns="http://www.w3.org/2000/svg">
<path fill-rule="evenodd" clip-rule="evenodd" d="M16.6667 36.6667C25.8714 36.6667 33.3333 29.2048 33.3333 20C33.3333 10.7953 25.8714 3.33337 16.6667 3.33337C7.4619 3.33337 0 10.7953 0 20C0 29.2048 7.4619 36.6667 16.6667 36.6667ZM21.8661 11.0974C22.1192 10.1984 21.2468 9.66682 20.45 10.2345L9.32759 18.158C8.46351 18.7736 8.59943 20 9.53176 20H12.4606V19.9774H18.1688L13.5177 21.6184L11.4673 28.9027C11.2142 29.8017 12.0865 30.3333 12.8833 29.7656L24.0058 21.8421C24.8698 21.2265 24.7338 20 23.8016 20H19.3601L21.8661 11.0974Z" fill="#1D1EE3"/>
<path d="M107.497 14.06C107.871 14.4022 108.322 14.5733 108.851 14.5733C109.395 14.5733 109.846 14.4022 110.204 14.06C110.562 13.7177 110.741 13.2666 110.741 12.7066C110.741 12.1466 110.562 11.6955 110.204 11.3533C109.846 11.0111 109.395 10.84 108.851 10.84C108.322 10.84 107.871 11.0111 107.497 11.3533C107.14 11.6955 106.961 12.1466 106.961 12.7066C106.961 13.2666 107.14 13.7177 107.497 14.06Z" fill="#1D1EE3"/>
<path fill-rule="evenodd" clip-rule="evenodd" d="M51.6537 26.9866C50.9225 27.3289 50.067 27.5 49.087 27.5H41.667V11.1666H48.9937C49.9892 11.1666 50.8525 11.3377 51.5837 11.68C52.3303 12.0066 52.9059 12.4811 53.3103 13.1033C53.7303 13.71 53.9403 14.4411 53.9403 15.2966V15.53C53.9403 16.2766 53.8003 16.8911 53.5203 17.3733C53.2403 17.84 52.9059 18.2055 52.517 18.47C52.1437 18.7189 51.7859 18.8977 51.4437 19.0066V19.4266C51.7859 19.52 52.1592 19.6989 52.5637 19.9633C52.9681 20.2122 53.3103 20.5777 53.5903 21.06C53.8859 21.5422 54.0337 22.1722 54.0337 22.95V23.1833C54.0337 24.0855 53.8237 24.8633 53.4037 25.5166C52.9837 26.1544 52.4003 26.6444 51.6537 26.9866ZM50.347 21.1766C49.9425 20.85 49.3981 20.6866 48.7137 20.6866H44.747V24.7H48.7137C49.3825 24.7 49.9192 24.5366 50.3237 24.21C50.7437 23.8833 50.9537 23.4166 50.9537 22.81V22.5766C50.9537 21.97 50.7514 21.5033 50.347 21.1766ZM50.2537 14.4566C49.8492 14.13 49.3203 13.9666 48.667 13.9666H44.747V17.8866H48.667C49.3048 17.8866 49.8259 17.7233 50.2303 17.3966C50.6503 17.07 50.8603 16.6189 50.8603 16.0433V15.81C50.8603 15.2189 50.6581 14.7677 50.2537 14.4566Z" fill="#1D1EE3"/>
<path fill-rule="evenodd" clip-rule="evenodd" d="M60.9799 27.8266C59.8288 27.8266 58.7943 27.5933 57.8765 27.1266C56.9588 26.66 56.2354 25.9833 55.7065 25.0966C55.1777 24.21 54.9132 23.1444 54.9132 21.9V21.5266C54.9132 20.2822 55.1777 19.2166 55.7065 18.33C56.2354 17.4433 56.9588 16.7666 57.8765 16.3C58.7943 15.8333 59.8288 15.6 60.9799 15.6C62.131 15.6 63.1654 15.8333 64.0832 16.3C65.001 16.7666 65.7243 17.4433 66.2532 18.33C66.7821 19.2166 67.0465 20.2822 67.0465 21.5266V21.9C67.0465 23.1444 66.7821 24.21 66.2532 25.0966C65.7243 25.9833 65.001 26.66 64.0832 27.1266C63.1654 27.5933 62.131 27.8266 60.9799 27.8266ZM60.9799 25.2133C61.8821 25.2133 62.6288 24.9255 63.2199 24.35C63.811 23.7589 64.1065 22.9189 64.1065 21.83V21.5966C64.1065 20.5077 63.811 19.6755 63.2199 19.1C62.6443 18.5089 61.8977 18.2133 60.9799 18.2133C60.0777 18.2133 59.331 18.5089 58.7399 19.1C58.1488 19.6755 57.8532 20.5077 57.8532 21.5966V21.83C57.8532 22.9189 58.1488 23.7589 58.7399 24.35C59.331 24.9255 60.0777 25.2133 60.9799 25.2133Z" fill="#1D1EE3"/>
<path d="M78.0582 27.5C77.296 27.5 76.6738 27.2666 76.1916 26.8C75.7249 26.3177 75.4916 25.68 75.4916 24.8866V18.3533H72.5982V15.9266H75.4916V12.3333H78.4316V15.9266H81.6049V18.3533H78.4316V24.3733C78.4316 24.84 78.6493 25.0733 79.0849 25.0733H81.3249V27.5H78.0582Z" fill="#1D1EE3"/>
<path d="M84.1962 26.8466C85.1606 27.5 86.3973 27.8266 87.9062 27.8266C89.384 27.8266 90.5584 27.5 91.4295 26.8466C92.3162 26.1777 92.7595 25.2366 92.7595 24.0233C92.7595 23.2144 92.5495 22.5766 92.1295 22.11C91.7251 21.6277 91.1651 21.2622 90.4495 21.0133C89.7495 20.7489 88.964 20.5389 88.0928 20.3833L87.4395 20.2666C86.9106 20.1733 86.4906 20.0411 86.1795 19.87C85.8684 19.6833 85.7128 19.4033 85.7128 19.03C85.7128 18.6877 85.8606 18.4233 86.1562 18.2366C86.4517 18.0344 86.8795 17.9333 87.4395 17.9333C87.9995 17.9333 88.4662 18.0577 88.8395 18.3066C89.2284 18.5555 89.4851 18.9755 89.6095 19.5666L92.3395 18.7266C92.0751 17.7933 91.5151 17.0389 90.6595 16.4633C89.804 15.8877 88.7306 15.6 87.4395 15.6C86.0706 15.6 84.9662 15.9111 84.1262 16.5333C83.2862 17.14 82.8662 18.0189 82.8662 19.17C82.8662 19.9322 83.0684 20.5544 83.4728 21.0366C83.8773 21.5189 84.414 21.9 85.0828 22.18C85.7517 22.4444 86.4906 22.6544 87.2995 22.81L87.9528 22.9266C88.6373 23.0511 89.1351 23.2144 89.4462 23.4166C89.7573 23.6033 89.9128 23.8755 89.9128 24.2333C89.9128 24.5911 89.7495 24.8944 89.4228 25.1433C89.0962 25.3766 88.5906 25.4933 87.9062 25.4933C87.4551 25.4933 87.0351 25.4311 86.6462 25.3066C86.2728 25.1666 85.954 24.9411 85.6895 24.63C85.4406 24.3189 85.2617 23.8911 85.1528 23.3466L82.4462 24.0466C82.6484 25.26 83.2317 26.1933 84.1962 26.8466Z" fill="#1D1EE3"/>
<path d="M97.8558 19.1233C97.3581 19.7144 97.1092 20.5466 97.1092 21.62V27.5H94.1692V11.1666H97.1092V17.35H97.5292C97.6536 17.1011 97.8481 16.8522 98.1125 16.6033C98.377 16.3544 98.727 16.1522 99.1625 15.9966C99.6136 15.8255 100.181 15.74 100.866 15.74C101.768 15.74 102.554 15.95 103.223 16.37C103.907 16.7744 104.436 17.3422 104.809 18.0733C105.182 18.7889 105.369 19.6289 105.369 20.5933V27.5H102.429V20.8266C102.429 19.9555 102.211 19.3022 101.776 18.8666C101.356 18.4311 100.749 18.2133 99.9558 18.2133C99.0536 18.2133 98.3536 18.5166 97.8558 19.1233Z" fill="#1D1EE3"/>
<path d="M123.747 26.8C123.28 26.3177 123.047 25.68 123.047 24.8866V18.3533H117.265V27.5H114.325V18.3533H111.385V15.9266H114.325V13.78C114.325 12.9866 114.559 12.3566 115.025 11.89C115.508 11.4077 116.13 11.1666 116.892 11.1666H119.925V13.5933H117.919C117.483 13.5933 117.265 13.8266 117.265 14.2933V15.9266H123.047V12.3333H125.987V15.9266H129.16V18.3533H125.987V24.3733C125.987 24.84 126.205 25.0733 126.64 25.0733H128.88V27.5H125.614C124.851 27.5 124.229 27.2666 123.747 26.8Z" fill="#1D1EE3"/>
<path d="M107.381 15.9266V27.5H110.321V15.9266H107.381Z" fill="#1D1EE3"/>
<path d="M68.5937 11.1666V27.5H71.5337V11.1666H68.5937Z" fill="#1D1EE3"/>
</svg>
