<svg width="195" height="44" viewBox="0 0 195 44" fill="none" xmlns="http://www.w3.org/2000/svg">
<path d="M175.858 39.5999V35.5535H178.169C178.796 35.5535 179.318 35.4749 179.736 35.3177C180.154 35.1606 180.506 34.9118 180.793 34.5713C181.081 34.2308 181.316 33.7987 181.498 33.2749L182.634 30.3284V32.5284L174.135 12.139H179.501L183.77 24.0819L184.553 26.4391H184.749L185.454 24.0819L189.489 12.139H194.698L186.277 34.4142C185.807 35.7499 185.219 36.7975 184.514 37.557C183.835 38.3166 183.039 38.8404 182.125 39.1285C181.237 39.4428 180.219 39.5999 179.07 39.5999H175.858Z" fill="white"/>
<path d="M162.087 33.0391V12.1389H166.513L166.748 15.6354H166.904C167.374 14.2997 168.132 13.3437 169.176 12.7675C170.247 12.1651 171.461 11.8639 172.819 11.8639C173.054 11.8639 173.263 11.8639 173.445 11.8639C173.654 11.8639 173.85 11.8639 174.033 11.8639V16.4997C173.876 16.4997 173.68 16.4997 173.445 16.4997C173.237 16.4735 173.002 16.4604 172.74 16.4604C171.487 16.4604 170.443 16.6699 169.607 17.089C168.771 17.4818 168.132 18.058 167.688 18.8176C167.27 19.5771 167.035 20.5069 166.983 21.6069V33.0391H162.087Z" fill="white"/>
<path d="M148.269 33.3927C146.702 33.3927 145.292 33.157 144.039 32.6856C142.786 32.1879 141.689 31.4677 140.749 30.5248C139.835 29.582 139.13 28.4427 138.634 27.1069C138.164 25.7712 137.929 24.2652 137.929 22.589C137.929 20.4414 138.333 18.5557 139.143 16.9319C139.979 15.308 141.167 14.0378 142.707 13.1211C144.248 12.2044 146.102 11.7461 148.269 11.7461C149.81 11.7461 151.207 11.9949 152.46 12.4925C153.713 12.9902 154.784 13.7104 155.672 14.6533C156.586 15.5961 157.291 16.7354 157.787 18.0711C158.283 19.3807 158.531 20.8866 158.531 22.589C158.531 24.7105 158.113 26.5831 157.278 28.2069C156.468 29.8308 155.293 31.101 153.753 32.0177C152.238 32.9344 150.41 33.3927 148.269 33.3927ZM148.23 29.3462C149.301 29.3462 150.241 29.0974 151.05 28.5998C151.86 28.076 152.486 27.3165 152.93 26.3212C153.374 25.2998 153.596 24.0557 153.596 22.589C153.596 21.489 153.465 20.52 153.204 19.6819C152.969 18.8176 152.617 18.0973 152.147 17.5211C151.677 16.9449 151.115 16.5128 150.463 16.2247C149.81 15.9366 149.079 15.7926 148.269 15.7926C147.199 15.7926 146.245 16.0545 145.41 16.5783C144.6 17.0759 143.974 17.8354 143.53 18.8569C143.086 19.8521 142.864 21.0962 142.864 22.589C142.864 23.6891 142.981 24.6712 143.216 25.5355C143.478 26.3736 143.843 27.0807 144.313 27.6569C144.783 28.2069 145.345 28.626 145.997 28.9141C146.676 29.2022 147.42 29.3462 148.23 29.3462Z" fill="white"/>
<path d="M126.593 33.432C124.739 33.432 123.147 33.1439 121.815 32.5677C120.483 31.9653 119.452 31.1403 118.721 30.0927C118.016 29.0451 117.663 27.8272 117.663 26.4391H122.481C122.507 27.6439 122.912 28.5213 123.695 29.0713C124.478 29.6213 125.497 29.8963 126.75 29.8963C127.977 29.8963 128.904 29.6737 129.531 29.2284C130.184 28.757 130.51 28.1153 130.51 27.3034C130.51 26.6486 130.367 26.151 130.079 25.8105C129.792 25.4439 129.322 25.1689 128.669 24.9855C128.017 24.776 127.155 24.5927 126.084 24.4355C124.335 24.1736 122.872 23.82 121.697 23.3748C120.522 22.9034 119.648 22.2617 119.073 21.4498C118.499 20.6379 118.211 19.564 118.211 18.2283C118.211 16.9188 118.564 15.7795 119.269 14.8104C119.974 13.8414 120.966 13.0949 122.246 12.5711C123.525 12.0211 125.027 11.7461 126.75 11.7461C128.421 11.7461 129.87 12.0211 131.098 12.5711C132.351 13.0949 133.317 13.8545 133.996 14.8497C134.701 15.8188 135.067 16.9843 135.093 18.3462H130.275C130.275 17.6128 130.119 17.0236 129.805 16.5783C129.518 16.1069 129.1 15.7664 128.552 15.5569C128.003 15.3473 127.364 15.2426 126.633 15.2426C125.536 15.2426 124.674 15.4783 124.047 15.9497C123.421 16.395 123.107 17.0105 123.107 17.7962C123.107 18.3724 123.264 18.8438 123.577 19.2105C123.917 19.551 124.452 19.826 125.183 20.0355C125.915 20.245 126.855 20.4283 128.003 20.5855C129.257 20.7688 130.341 21.0045 131.254 21.2926C132.194 21.5807 132.978 21.9736 133.605 22.4712C134.231 22.9426 134.701 23.545 135.015 24.2784C135.354 24.9855 135.524 25.8498 135.524 26.8713C135.524 28.9665 134.701 30.5903 133.056 31.7427C131.437 32.8689 129.283 33.432 126.593 33.432Z" fill="white"/>
<path d="M109.327 33.0393V12.1391H114.223V33.0393H109.327ZM109.327 9.19268V4.39978H114.223V9.19268H109.327Z" fill="white"/>
<path d="M84.8301 33.0392L92.7812 22.2748L85.5743 12.139H91.3712L96.0322 18.8962H96.2672L100.889 12.139H106.451L99.4006 22.1569L107.195 33.0392H101.437L96.1105 25.4177H95.8755L90.3136 33.0392H84.8301Z" fill="white"/>
<path d="M58.2979 33.0393L68.1291 4.39978H75.4143L85.2455 33.0393H79.8795L77.7253 26.7535H65.8181L63.7031 33.0393H58.2979ZM67.0715 22.7464H76.511L73.6909 14.6927L71.8892 9.15339H71.6934L69.8525 14.6927L67.0715 22.7464Z" fill="white"/>
<path fill-rule="evenodd" clip-rule="evenodd" d="M24.5972 0.581109C25.3722 -0.193678 26.6278 -0.193657 27.4028 0.581109L51.4145 24.5967C52.1896 25.3718 52.1894 26.6283 51.4145 27.4034L35.3452 43.4727C34.6436 44.1764 33.503 44.1764 32.7993 43.4727L27.271 37.9444C26.5694 37.2407 25.4288 37.2407 24.7251 37.9444L19.1968 43.4727C18.4952 44.1764 17.3545 44.1763 16.6509 43.4727L0.58153 27.4034C-0.193496 26.6283 -0.19354 25.3718 0.58153 24.5967L5.44676 19.7305C9.28037 27.1765 17.0434 32.2706 25.9975 32.2706C34.9498 32.2705 42.7128 27.176 46.5483 19.7295L41.2427 14.4239C39.0623 20.7486 33.0636 25.2939 25.9975 25.294C18.932 25.294 12.9323 20.7498 10.7515 14.4258L24.5972 0.581109Z" fill="#1D1EE3"/>
<path d="M30.7739 43.9997L26.6673 39.8931C26.2977 39.5234 25.6969 39.5234 25.3272 39.8931L21.2207 43.9997H30.7739Z" fill="#1D1EE3"/>
</svg>
