<svg width="84" height="64" viewBox="0 0 84 64" fill="none" xmlns="http://www.w3.org/2000/svg">
<path d="M82.4906 10.8938L78.5859 10.5492L79.9641 7.07109C80.1609 6.5625 80.0297 5.98828 79.6195 5.62734C79.2258 5.26641 78.6352 5.18437 78.1594 5.44687L71.4492 8.94141C70.9898 9.17109 70.7273 9.66328 70.7602 10.1719L70.957 13.7977L69.9562 14.4375L69.9234 14.4539C62.4422 3.23203 46.4133 -0.524999 34.6828 6.13594V1.29609C34.6828 0.574219 34.1086 0 33.3867 0H29.6297C28.0875 0 26.8406 1.24688 26.8406 2.78906V5.10234H25.0523V2.78906C25.0523 1.24688 23.8055 0 22.2633 0H18.8016C17.2594 0 16.0125 1.24688 16.0125 2.78906V5.10234H14.257V2.78906C14.257 1.24688 13.0102 0 11.468 0H7.71094C6.98906 0 6.41484 0.574219 6.41484 1.29609V8.82656C6.41484 11.7633 8.79375 14.1422 11.7305 14.1422H12.9773C12.7969 17.0461 12.4852 20.0156 12.075 23.0016C7.48125 22.9359 6.34922 29.3344 10.7297 30.7945C9.7125 35.7656 8.38359 40.5891 6.72656 45.5109C4.64297 46.0687 3.10078 47.9719 3.10078 50.2359V51.9586C1.32891 52.4508 0 54.2883 0 56.4867V62.6883C0 63.4102 0.574219 63.9844 1.29609 63.9844H39.8016C40.5234 63.9844 41.0977 63.4102 41.0977 62.6883V56.4867C41.0977 56.4211 41.0812 56.3719 41.0812 56.3227C64.0172 62.1141 82.9992 37.193 71.3016 16.6523L72.2203 16.0781L75.4688 17.7516C75.8953 17.9648 76.4039 17.932 76.7977 17.6695L83.1141 13.2891C84.1148 12.6164 83.6719 10.9594 82.4906 10.8938ZM34.6828 9.12187C45.3141 2.21484 60.6703 5.31563 67.7414 15.832L61.7859 19.5727C53.6648 8.41641 36.2086 10.8938 31.2867 23.707C30.6141 23.2969 29.8266 23.0344 29.0227 23.018C28.6617 20.3602 28.3664 17.6859 28.1695 15.0281C28.3828 14.7328 28.6289 14.4539 28.875 14.1586C31.7953 14.4047 34.568 12.0586 34.6828 9.12187ZM46.5609 30.6633C46.9383 31.2703 47.7586 31.4508 48.3492 31.0734L52.4344 28.5141C53.1727 30.975 51.8273 33.8297 49.2188 34.732C46.0687 35.8148 42.607 33.3211 42.6727 29.9742C42.6234 25.7578 47.9883 23.3297 51.0563 26.3156L46.9711 28.875C46.3641 29.2523 46.1672 30.0562 46.5609 30.6633ZM49.432 22.493C38.1937 20.8852 36.4875 36.8484 47.6602 37.5539C52.9922 37.4719 56.2242 32.6648 55.0102 27.6281C54.8297 27.4969 54.7805 27.2672 54.6984 27.0867L60.9656 23.1492C66.1336 32.9273 58.6852 45.0188 47.6766 44.9039C38.9156 45.0188 31.1719 36.6352 33.075 27.907C33.2391 27.0703 33.1078 26.2336 33.4523 25.4297C37.0781 13.9945 52.4016 11.3039 59.5875 20.9508L53.3203 24.8883C52.2539 23.625 50.8594 23.0836 49.432 22.493ZM11.7305 11.55C10.2211 11.55 9.00703 10.3359 9.00703 8.82656V2.59219H11.468C11.5664 2.59219 11.6484 2.67422 11.6484 2.77266V6.38203C11.6484 7.10391 12.2227 7.67813 12.9445 7.67813H17.325C18.0469 7.67813 18.6211 7.10391 18.6211 6.38203V2.78906C18.6211 2.69062 18.7031 2.60859 18.8016 2.60859H22.2633C22.3617 2.60859 22.4438 2.69062 22.4438 2.78906V6.39844C22.4438 7.12031 23.018 7.69453 23.7398 7.69453H28.1203C28.8422 7.69453 29.4164 7.12031 29.4164 6.39844V2.78906C29.4164 2.69062 29.4984 2.60859 29.5969 2.60859H32.0578V8.84297C32.0578 10.3523 30.8438 11.5664 29.3344 11.5664C27.7594 11.5664 16.193 11.55 14.3391 11.55C14.3063 11.55 14.2734 11.55 14.2406 11.5664H11.7305V11.55ZM26.3977 23.018H14.7C15.1102 20.0484 15.4055 17.0953 15.5859 14.1586H25.5117C25.7086 17.0953 26.0039 20.0648 26.3977 23.018ZM10.9594 26.0203C11.2219 25.7578 11.5664 25.6102 11.9602 25.6102H26.775C27.3164 25.6594 29.2359 25.4789 29.6953 25.7906C31.1063 26.3977 30.6305 28.432 29.1375 28.4484H12.1078C10.7133 28.4484 10.0406 26.8734 10.9594 26.0203ZM13.3383 31.057V31.0406H27.7594C28.7437 35.8805 30.0562 40.6547 31.582 45.3469H9.51562C11.0906 40.5727 12.3539 35.8805 13.3383 31.057ZM5.67656 50.2359C5.67656 48.9727 6.71016 47.9391 7.98984 47.9391H33.1078C34.3383 47.9227 35.4375 48.9727 35.4047 50.2359V51.8273H5.67656V50.2359ZM38.5055 61.3922H2.59219V56.4867C2.60859 55.2234 3.31406 54.2883 4.28203 54.4195C4.36406 54.4359 36.668 54.4359 36.7664 54.4195C37.8492 54.2555 38.5219 55.4367 38.4891 56.4703C38.5055 56.4867 38.5055 61.3922 38.5055 61.3922ZM47.6602 54.518C45.0352 54.518 42.4594 54.1078 40.0148 53.3039C39.4734 52.6805 38.8008 52.1719 38.0133 51.9586V50.2359C38.0461 48.0539 36.4711 46.0687 34.3875 45.5109C33.5508 43.05 32.7797 40.5562 32.0906 38.0461C37.3406 48.3164 51.4172 50.6625 59.6367 42.7547C65.2477 37.7836 66.9375 28.5141 63.1641 21.7711C64.0664 21.1969 68.3156 18.5391 69.1195 18.0305C78.307 33.9937 66.1172 54.7641 47.6602 54.518ZM75.9773 15.0609L73.5656 13.8305L73.4016 10.8609L76.2891 9.36797C75.9773 10.3852 75.1078 11.5828 75.6492 12.3867C75.8625 12.7312 76.2234 12.9609 76.6336 12.9937L78.7008 13.1742L75.9773 15.0609Z" fill="#10ECB0"/>
</svg>
