<svg width="84" height="84" viewBox="0 0 84 84" fill="none" xmlns="http://www.w3.org/2000/svg">
<g clip-path="url(#clip0_715_2331)">
<path d="M53.8125 26.25H59.0625C59.7883 26.25 60.375 25.662 60.375 24.9375C60.375 24.213 59.7883 23.625 59.0625 23.625H56.1605L62.7795 12.8704C63.2677 13.02 63.7756 13.125 64.3125 13.125C67.2078 13.125 69.5625 10.7704 69.5625 7.875C69.5625 4.97962 67.2078 2.625 64.3125 2.625C61.4171 2.625 59.0625 4.97962 59.0625 7.875C59.0625 9.28594 59.6281 10.5617 60.5364 11.5067L52.6942 24.2498C52.4448 24.6553 52.4343 25.1619 52.6666 25.578C52.899 25.9941 53.3373 26.25 53.8125 26.25ZM64.3125 5.25C65.7601 5.25 66.9375 6.42731 66.9375 7.875C66.9375 9.32269 65.7601 10.5 64.3125 10.5C62.8648 10.5 61.6875 9.32269 61.6875 7.875C61.6875 6.42731 62.8648 5.25 64.3125 5.25Z" fill="#10ECB0"/>
<path d="M64.3125 70.875C63.7756 70.875 63.2677 70.98 62.7795 71.1296L56.1605 60.375H59.0625C59.7883 60.375 60.375 59.787 60.375 59.0625C60.375 58.338 59.7883 57.75 59.0625 57.75H53.8125C53.3373 57.75 52.899 58.0073 52.6666 58.422C52.4343 58.8368 52.4448 59.3447 52.6942 59.7502L60.5364 72.4933C59.6281 73.4383 59.0625 74.7141 59.0625 76.125C59.0625 79.0204 61.4171 81.375 64.3125 81.375C67.2078 81.375 69.5625 79.0204 69.5625 76.125C69.5625 73.2296 67.2078 70.875 64.3125 70.875ZM64.3125 78.75C62.8648 78.75 61.6875 77.5727 61.6875 76.125C61.6875 74.6773 62.8648 73.5 64.3125 73.5C65.7601 73.5 66.9375 74.6773 66.9375 76.125C66.9375 77.5727 65.7601 78.75 64.3125 78.75Z" fill="#10ECB0"/>
<path d="M64.3125 22.3125C64.3125 23.4701 64.701 24.5319 65.3389 25.4008L57.1279 35.4375H38.0625C37.3367 35.4375 36.75 36.0255 36.75 36.75C36.75 37.4745 37.3367 38.0625 38.0625 38.0625H57.75C58.1437 38.0625 58.5165 37.8853 58.7659 37.5808L67.368 27.0664C68.0387 27.3774 68.7776 27.5625 69.5625 27.5625C72.4579 27.5625 74.8125 25.2079 74.8125 22.3125C74.8125 19.4171 72.4579 17.0625 69.5625 17.0625C66.6671 17.0625 64.3125 19.4171 64.3125 22.3125ZM72.1875 22.3125C72.1875 23.7602 71.0102 24.9375 69.5625 24.9375C68.1148 24.9375 66.9375 23.7602 66.9375 22.3125C66.9375 20.8648 68.1148 19.6875 69.5625 19.6875C71.0102 19.6875 72.1875 20.8648 72.1875 22.3125Z" fill="#10ECB0"/>
<path d="M69.5625 56.4375C68.7763 56.4375 68.0387 56.6226 67.3693 56.9336L58.7672 46.4192C58.5165 46.1147 58.1437 45.9375 57.75 45.9375H38.0625C37.3367 45.9375 36.75 46.5255 36.75 47.25C36.75 47.9745 37.3367 48.5625 38.0625 48.5625H57.1279L65.3376 58.5992C64.701 59.4681 64.3125 60.5299 64.3125 61.6875C64.3125 64.5829 66.6671 66.9375 69.5625 66.9375C72.4579 66.9375 74.8125 64.5829 74.8125 61.6875C74.8125 58.7921 72.4579 56.4375 69.5625 56.4375ZM69.5625 64.3125C68.1148 64.3125 66.9375 63.1352 66.9375 61.6875C66.9375 60.2398 68.1148 59.0625 69.5625 59.0625C71.0102 59.0625 72.1875 60.2398 72.1875 61.6875C72.1875 63.1352 71.0102 64.3125 69.5625 64.3125Z" fill="#10ECB0"/>
<path d="M78.75 36.75C76.3101 36.75 74.2731 38.43 73.6864 40.6875H61.6875C60.9617 40.6875 60.375 41.2755 60.375 42C60.375 42.7245 60.9617 43.3125 61.6875 43.3125H73.6864C74.2731 45.57 76.3101 47.25 78.75 47.25C81.6454 47.25 84 44.8954 84 42C84 39.1046 81.6454 36.75 78.75 36.75ZM78.75 44.625C77.3023 44.625 76.125 43.4477 76.125 42C76.125 40.5523 77.3023 39.375 78.75 39.375C80.1977 39.375 81.375 40.5523 81.375 42C81.375 43.4477 80.1977 44.625 78.75 44.625Z" fill="#10ECB0"/>
<path d="M48.5625 57.75H42.4856C33.7851 57.75 26.6569 51.1678 26.2618 42.7652C26.0584 38.4064 27.5979 34.2746 30.5996 31.1299C33.6013 27.9825 37.6504 26.25 42 26.25H48.5625C49.2883 26.25 49.875 25.662 49.875 24.9375V2.625C49.875 1.17731 48.6977 0 47.25 0H36.75C35.3023 0 34.125 1.17731 34.125 2.625L34.1119 7.46156C30.2479 8.33044 26.5558 9.85294 23.1381 12.0028L19.7374 8.589C18.7451 7.59675 17.0061 7.59806 16.0164 8.589L8.58769 16.0177C7.56263 17.0428 7.56263 18.711 8.589 19.7387L11.9871 23.1407C9.85163 26.5571 8.32913 30.2479 7.46812 34.125H2.625C1.17731 34.125 0 35.3023 0 36.75V47.25C0 48.6977 1.17731 49.875 2.625 49.875L7.46156 49.8868C8.32913 53.7508 9.85163 57.4429 12.0015 60.8619L8.58637 64.2639C7.56262 65.2903 7.56263 66.9585 8.58769 67.9823L16.0151 75.411C17.0074 76.4033 18.7438 76.4046 19.7387 75.4097L23.1407 72.0143C26.5571 74.1471 30.2479 75.6696 34.125 76.5319V81.375C34.125 82.8227 35.3023 84 36.75 84H47.25C48.6977 84 49.875 82.8227 49.875 81.375V59.0625C49.875 58.338 49.2883 57.75 48.5625 57.75ZM42 23.625C36.9259 23.625 32.2022 25.6476 28.6991 29.3173C25.1987 32.9857 23.4019 37.8052 23.6394 42.8886C24.1014 52.6942 32.3807 60.375 42.4856 60.375H47.25V64.3125H42C29.6966 64.3125 19.6875 54.3034 19.6875 42C19.6875 29.6966 29.6966 19.6875 42 19.6875H47.25V23.625H42ZM36.75 81.375V76.5319C36.75 75.3191 35.9087 74.2704 34.6894 73.9777C31.1128 73.1732 27.6964 71.7636 24.5438 69.7948C24.1119 69.5192 23.6211 69.384 23.1315 69.384C22.4529 69.384 21.7809 69.6439 21.2782 70.1452L17.8736 73.5564L10.4436 66.1211L13.8574 62.7204C14.7184 61.8581 14.8667 60.4853 14.2131 59.4694C12.2364 56.3036 10.8268 52.8859 10.0196 49.2936C9.72956 48.09 8.68087 47.25 7.46812 47.25H2.625V36.75H7.46812C8.68087 36.75 9.72956 35.91 10.0209 34.6881C10.8242 31.1128 12.2351 27.6951 14.2039 24.5438C14.8641 23.5148 14.7171 22.1419 13.8534 21.2782L10.4423 17.8736L17.8762 10.4423L21.2782 13.8574C22.1366 14.7171 23.5108 14.8654 24.5293 14.2131C27.6951 12.2378 31.1128 10.8268 34.7064 10.0183C35.9087 9.72956 36.75 8.68087 36.75 7.46812V2.625L47.25 2.62894V17.0625H42C28.2489 17.0625 17.0625 28.2489 17.0625 42C17.0625 55.7511 28.2489 66.9375 42 66.9375H47.25V81.375H36.75Z" fill="#10ECB0"/>
</g>
<defs>
<clipPath id="clip0_715_2331">
<rect width="84" height="84" fill="white"/>
</clipPath>
</defs>
</svg>
