<svg width="84" height="84" viewBox="0 0 84 84" fill="none" xmlns="http://www.w3.org/2000/svg">
<path d="M36.0362 14.2296H56.3726C56.7509 14.2012 57.1045 14.0309 57.3625 13.7529C57.6205 13.4748 57.7639 13.1095 57.7639 12.7302C57.7639 12.3508 57.6205 11.9855 57.3625 11.7074C57.1045 11.4294 56.7509 11.2591 56.3726 11.2308H36.0362C35.8299 11.2153 35.6225 11.2426 35.4272 11.3109C35.2319 11.3793 35.0528 11.4872 34.9012 11.628C34.7495 11.7687 34.6285 11.9392 34.5457 12.1289C34.463 12.3185 34.4203 12.5232 34.4203 12.7302C34.4203 12.9371 34.463 13.1418 34.5457 13.3314C34.6285 13.5211 34.7495 13.6916 34.9012 13.8323C35.0528 13.9731 35.2319 14.081 35.4272 14.1494C35.6225 14.2177 35.8299 14.245 36.0362 14.2296ZM55.6838 35.9183C53.5262 35.9184 51.4169 36.5576 49.6222 37.7553C47.8276 38.9529 46.4279 40.6555 45.5999 42.6479C44.772 44.6403 44.5528 46.8334 44.9701 48.9503C45.3874 51.0672 46.4224 53.013 47.9445 54.5422C49.4667 56.0713 51.4077 57.1153 53.5227 57.5423C55.6376 57.9694 57.8317 57.7603 59.8279 56.9415C61.8241 56.1227 63.5331 54.7309 64.739 52.9418C65.9449 51.1526 66.5938 49.0463 66.6038 46.8887C66.6104 45.4505 66.3329 44.0251 65.7871 42.6944C65.2413 41.3637 64.438 40.1539 63.4233 39.1345C62.4086 38.1152 61.2025 37.3063 59.8744 36.7544C58.5462 36.2024 57.1221 35.9183 55.6838 35.9183ZM55.6838 54.7679C53.7826 54.7767 51.9412 54.1034 50.494 52.8704C49.0468 51.6374 48.0896 49.9264 47.7962 48.048C49.7082 48.4514 51.693 48.3388 53.5471 47.7217C55.4012 47.1047 57.0577 46.0054 58.3466 44.5368C58.6084 44.2293 58.7373 43.8305 58.705 43.428C58.6727 43.0255 58.4818 42.6523 58.1744 42.3905C58.0222 42.2609 57.8459 42.1626 57.6557 42.1011C57.4654 42.0396 57.2649 42.0162 57.0656 42.0322C56.6631 42.0644 56.29 42.2553 56.0282 42.5627C55.0509 43.6876 53.7736 44.511 52.3455 44.9364C50.9174 45.3619 49.3977 45.3718 47.9642 44.9651C48.3645 43.2231 49.3483 41.6702 50.7523 40.5641C52.1564 39.4579 53.8964 38.865 55.6838 38.8836C57.7411 38.9505 59.6917 39.8149 61.1233 41.2939C62.5549 42.7729 63.3553 44.7506 63.3553 46.8089C63.3553 48.8673 62.5549 50.845 61.1233 52.324C59.6917 53.803 57.7411 54.6674 55.6838 54.7344V54.7679ZM32.2646 63.5123H15.1202C13.712 63.519 12.3634 64.0813 11.3677 65.077C10.372 66.0728 9.80962 67.4214 9.803 68.8296V78.3467C9.82234 78.7375 9.99077 79.106 10.2736 79.3763C10.5564 79.6467 10.9321 79.7983 11.3234 79.7999C11.7063 79.7895 12.0707 79.6332 12.3424 79.3632C12.614 79.0931 12.7723 78.7296 12.785 78.3467V68.8296C12.7827 68.523 12.8417 68.2192 12.9585 67.9358C13.0752 67.6523 13.2474 67.3951 13.4649 67.1792C13.6825 66.9632 13.9409 66.7929 14.2252 66.6782C14.5094 66.5634 14.8137 66.5067 15.1202 66.5112H32.2646C32.8662 66.5266 33.4374 66.7787 33.8542 67.2128C34.2709 67.6469 34.4996 68.2278 34.4906 68.8296V78.3467C34.5101 78.7419 34.6821 79.1141 34.9703 79.3851C35.2585 79.6561 35.6406 79.8048 36.0362 79.7999C36.4191 79.7895 36.7835 79.6332 37.0552 79.3632C37.3268 79.0931 37.4851 78.7296 37.4978 78.3467V68.8296C37.4958 67.4344 36.9464 66.0958 35.9678 65.1015C34.9892 64.1072 33.6595 63.5366 32.2646 63.5123ZM23.8478 72.24C23.6452 72.2399 23.4446 72.28 23.2576 72.3578C23.0705 72.4355 22.9007 72.5495 22.7578 72.6932C22.615 72.8368 22.5019 73.0072 22.4252 73.1947C22.3484 73.3822 22.3095 73.583 22.3106 73.7855V78.3299C22.3389 78.7082 22.5092 79.0618 22.7873 79.3198C23.0653 79.5779 23.4307 79.7212 23.81 79.7212C24.1893 79.7212 24.5547 79.5779 24.8327 79.3198C25.1108 79.0618 25.2811 78.7082 25.3094 78.3299V73.8024C25.3186 73.4025 25.1707 73.015 24.8974 72.7229C24.6242 72.4308 24.2474 72.2574 23.8478 72.24ZM23.8478 53.298C26.005 53.2863 28.1105 52.636 29.8985 51.4291C31.6866 50.2221 33.077 48.5126 33.8945 46.5163C34.712 44.5199 34.9199 42.3261 34.492 40.2118C34.064 38.0974 33.0193 36.1571 31.4898 34.6358C29.9603 33.1145 28.0145 32.0803 25.8978 31.6637C23.7812 31.2471 21.5886 31.4667 19.5966 32.2949C17.6047 33.1231 15.9027 34.5228 14.7053 36.3173C13.508 38.1118 12.869 40.2207 12.869 42.3779C12.869 43.8169 13.1534 45.2418 13.7058 46.5705C14.2583 47.8992 15.0679 49.1056 16.0881 50.1204C17.1084 51.1352 18.3192 51.9383 19.6508 52.4837C20.9825 53.029 22.4088 53.3057 23.8478 53.298ZM23.8478 34.44C25.4121 34.4499 26.9386 34.9224 28.235 35.7979C29.5315 36.6734 30.54 37.9128 31.1337 39.3601C31.7274 40.8075 31.8797 42.3981 31.5714 43.9318C31.2632 45.4655 30.5082 46.8738 29.4014 47.9794C28.2946 49.085 26.8856 49.8385 25.3515 50.1452C23.8175 50.4518 22.227 50.2978 20.7803 49.7026C19.3336 49.1074 18.0952 48.0976 17.2211 46.8002C16.347 45.5029 15.8761 43.9759 15.8678 42.4116C15.8645 41.3631 16.0687 40.3243 16.4686 39.3551C16.8686 38.3859 17.4564 37.5054 18.1982 36.7644C18.9399 36.0234 19.821 35.4365 20.7907 35.0375C21.7603 34.6386 22.7993 34.4355 23.8478 34.44ZM76.1126 72.24H75.2726V69.7199C75.2726 62.6051 67.805 54.6 60.3374 59.9508C56.3894 62.6892 54.9278 62.6892 50.9882 59.9508C49.1822 58.7496 47.4686 57.5484 45.3182 58.1532C45.1297 58.1985 44.9525 58.282 44.7975 58.3984C44.6425 58.5149 44.513 58.6619 44.417 58.8303C44.321 58.9987 44.2605 59.185 44.2392 59.3777C44.218 59.5704 44.2364 59.7654 44.2934 59.9508C44.3947 60.3307 44.637 60.6577 44.971 60.8653C45.3049 61.0729 45.7055 61.1453 46.091 61.0679C46.8638 60.8075 47.981 61.5804 49.2662 62.4371C54.2474 65.8643 57.0782 65.8644 62.051 62.3532C67.3598 58.716 72.2402 65.0579 72.2402 69.7703V72.2903H43.5038V65.4024C43.5038 58.1111 36.0362 50.4 28.4846 55.5408C24.5366 58.2876 23.075 58.2876 19.2446 55.5408C11.6678 50.4 4.2002 58.1111 4.2002 65.4024V78.3467C4.21973 78.7419 4.39168 79.1141 4.67991 79.3851C4.96814 79.6561 5.3502 79.8048 5.7458 79.7999C6.12868 79.7895 6.49313 79.6332 6.76476 79.3632C7.03638 79.0931 7.1947 78.7296 7.2074 78.3467V65.4024C7.2074 60.5135 12.0962 54.3396 17.4974 58.0271C22.4786 61.4543 25.2254 61.4543 30.1982 58.0271C35.6078 54.3396 40.4966 60.5471 40.4966 65.4024V78.3467C40.5161 78.7419 40.6881 79.1141 40.9763 79.3851C41.2645 79.6561 41.6466 79.8048 42.0422 79.7999C42.4251 79.7895 42.7895 79.6332 43.0612 79.3632C43.3328 79.0931 43.4911 78.7296 43.5038 78.3467V75.2555H76.1126C76.3124 75.2808 76.4948 75.3823 76.6215 75.5389C76.7483 75.6954 76.8097 75.8948 76.793 76.0955C76.7831 76.2736 76.7085 76.4419 76.5832 76.5688C76.4579 76.6957 76.2905 76.7723 76.1126 76.7844H63.1514C62.9451 76.7689 62.7377 76.7962 62.5424 76.8645C62.3471 76.9329 62.168 77.0408 62.0164 77.1815C61.8647 77.3223 61.7437 77.4928 61.6609 77.6825C61.5782 77.8721 61.5355 78.0768 61.5355 78.2837C61.5355 78.4907 61.5782 78.6954 61.6609 78.885C61.7437 79.0747 61.8647 79.2452 62.0164 79.3859C62.168 79.5267 62.3471 79.6346 62.5424 79.703C62.7377 79.7713 62.9451 79.7986 63.1514 79.7831H76.1126C77.1151 79.7831 78.0766 79.3849 78.7855 78.676C79.4943 77.9671 79.8926 77.0057 79.8926 76.0032C79.8926 75.0006 79.4943 74.0392 78.7855 73.3303C78.0766 72.6214 77.1151 72.2232 76.1126 72.2232V72.24ZM31.3994 26.04H35.8682V31.5251C35.8763 32.0684 36.0343 32.5989 36.3249 33.058C36.6154 33.5171 37.0272 33.887 37.5147 34.1269C38.0022 34.3667 38.5465 34.4672 39.0876 34.4172C39.6286 34.3672 40.1453 34.1687 40.5806 33.8436L50.795 26.04H61.0094C62.1543 26.0402 63.2536 25.5918 64.0718 24.791C64.8899 23.9901 65.3616 22.9006 65.3858 21.756V8.66035C65.3924 8.07981 65.2844 7.50367 65.0679 6.96499C64.8513 6.4263 64.5305 5.93568 64.1239 5.52127C63.7173 5.10685 63.2329 4.7768 62.6984 4.55006C62.1639 4.32331 61.59 4.20434 61.0094 4.19995H31.3994C30.2232 4.2215 29.1011 4.69835 28.2693 5.53021C27.4374 6.36207 26.9605 7.48412 26.939 8.66035V21.7728C26.9868 22.9226 27.478 24.0093 28.3096 24.8049C29.1412 25.6005 30.2485 26.0431 31.3994 26.04ZM29.9462 8.66035C29.9567 8.27746 30.1129 7.91301 30.383 7.64139C30.653 7.36976 31.0166 7.21145 31.3994 7.19875H61.0094C61.378 7.22986 61.722 7.39649 61.9749 7.66644C62.2277 7.9364 62.3716 8.29051 62.3786 8.66035V21.7728C62.3654 22.1241 62.2143 22.456 61.958 22.6966C61.7017 22.9372 61.3608 23.067 61.0094 23.058H50.795C50.1309 23.0553 49.4897 23.301 48.9974 23.7468L38.867 31.542V26.04C38.8631 25.2602 38.5573 24.5123 38.0139 23.9532C37.4704 23.3941 36.7315 23.0672 35.9522 23.0412H31.3994C31.0393 23.0513 30.6888 22.9241 30.419 22.6855C30.1492 22.4469 29.9802 22.1146 29.9462 21.756V8.66035ZM56.3726 16.632H50.711C50.5047 16.6165 50.2973 16.6438 50.102 16.7121C49.9067 16.7805 49.7276 16.8884 49.576 17.0292C49.4243 17.1699 49.3033 17.3404 49.2205 17.5301C49.1378 17.7197 49.0951 17.9244 49.0951 18.1313C49.0951 18.3383 49.1378 18.543 49.2205 18.7326C49.3033 18.9223 49.4243 19.0928 49.576 19.2335C49.7276 19.3743 49.9067 19.4822 50.102 19.5506C50.2973 19.6189 50.5047 19.6462 50.711 19.6308H56.3726C56.7509 19.6024 57.1045 19.4321 57.3625 19.1541C57.6205 18.876 57.7639 18.5107 57.7639 18.1313C57.7639 17.752 57.6205 17.3867 57.3625 17.1086C57.1045 16.8306 56.7509 16.6603 56.3726 16.632Z" fill="#10ECB0"/>
</svg>
