<svg width="83" height="80" viewBox="0 0 83 80" fill="none" xmlns="http://www.w3.org/2000/svg">
<path d="M36.1221 49.9837C36.4845 51.9939 35.4826 54.0135 33.6289 55.0089C33.1391 55.2719 32.6179 55.4645 32.0824 55.5899V57.2759C32.0824 58.0008 31.4948 58.5884 30.7699 58.5884C30.0451 58.5884 29.4574 58.0008 29.4574 57.2759V55.6545C29.0171 55.5734 28.5844 55.4468 28.1689 55.2714C26.775 54.6826 25.7645 53.606 25.3962 52.3178C25.1969 51.6208 25.6003 50.8944 26.2973 50.695C26.9952 50.4957 27.7208 50.8993 27.92 51.5962C28.1239 52.3093 28.8036 52.69 29.1905 52.8536C30.1929 53.2772 31.418 53.217 32.3868 52.6966C33.2227 52.2477 33.6961 51.3237 33.5386 50.4498C33.3236 49.2577 32.0481 48.4164 30.0389 48.1414C27.9746 47.8587 26.4551 46.7231 25.8699 45.0255C25.3401 43.4888 25.7316 41.74 26.8675 40.5701C27.5458 39.8717 28.457 39.3764 29.4573 39.1354V37.4521C29.4573 36.7273 30.0449 36.1396 30.7698 36.1396C31.4946 36.1396 32.0823 36.7273 32.0823 37.4521V39.0993C33.37 39.3734 34.5153 40.0745 35.3734 41.1312C35.8303 41.6939 35.7445 42.5205 35.1816 42.9774C34.6187 43.4341 33.7921 43.3483 33.3354 42.7858C32.7462 42.0603 31.9151 41.6381 30.9945 41.5973C30.1276 41.5586 29.2684 41.866 28.7506 42.3989C28.2978 42.8652 28.1411 43.5605 28.3513 44.17C28.6059 44.9082 29.3318 45.3952 30.3947 45.5405C33.5572 45.9735 35.6982 47.6345 36.1218 49.9838L36.1221 49.9837ZM65.4562 45.2152H59.8584C59.1335 45.2152 58.5459 45.8029 58.5459 46.5277C58.5459 47.2525 59.1335 47.8402 59.8584 47.8402H62.5308L56.8972 53.4738L53.3635 49.9399C53.1172 49.6938 52.7835 49.5555 52.4354 49.5555C52.0872 49.5555 51.7535 49.6938 51.5073 49.9399L44.287 57.1601C43.7745 57.6726 43.7745 58.5036 44.287 59.0161C44.5433 59.2724 44.8791 59.4005 45.2151 59.4005C45.5511 59.4005 45.887 59.2724 46.1432 59.0161L52.4354 52.724L55.9691 56.2579C56.2154 56.504 56.5491 56.6423 56.8972 56.6423C57.2453 56.6423 57.579 56.504 57.8253 56.2579L64.1437 49.9397V52.1253C64.1437 52.8502 64.7313 53.4378 65.4562 53.4378C66.181 53.4378 66.7687 52.8502 66.7687 52.1253V46.5277C66.7687 45.8029 66.181 45.2152 65.4562 45.2152ZM80.9307 78.1791C79.9186 79.1912 78.5731 79.7486 77.1419 79.7486C75.7106 79.7486 74.3649 79.1912 73.3528 78.1791C72.8439 77.6702 69.4367 73.9068 65.0349 69.0397L63.5383 67.3855C60.939 68.8397 58.0396 69.5673 55.1404 69.5673C54.1444 69.5673 53.1487 69.4807 52.1651 69.3092C46.7188 73.3816 39.3307 75.5336 30.7699 75.5336C22.0889 75.5336 14.6103 73.3214 9.14271 69.1363C3.16148 64.5582 0 57.8598 0 49.7655C0 41.4633 2.52033 33.9108 7.49109 27.3179C10.7084 23.0508 14.3843 19.9448 17.4085 17.8374C16.5797 17.0747 16.0591 15.9817 16.0591 14.7693C16.0591 12.8672 17.3396 11.2597 19.0834 10.7603C18.3189 8.50867 17.9801 6.16307 18.0771 3.76661C18.0941 3.34546 18.3125 2.95794 18.6639 2.7253L22.451 0.218101C22.8903 -0.0726181 23.4606 -0.0727822 23.9 0.218101L26.9627 2.24559L30.0252 0.218101C30.4646 -0.0726181 31.035 -0.0726181 31.4744 0.218101L34.5361 2.24542L37.598 0.218101C38.0374 -0.0726181 38.608 -0.0726181 39.0474 0.218101L42.8338 2.7253C43.175 2.95138 43.3914 3.32364 43.4186 3.73232C43.5994 6.44116 43.3775 8.78725 42.7444 10.8531C44.3394 11.4393 45.4803 12.9735 45.4803 14.7693C45.4803 16.0224 44.9239 17.1474 44.0462 17.9126C48.6649 21.1206 55.122 26.8605 58.7611 35.5944C61.89 36.2638 64.867 37.8107 67.293 40.2369C70.539 43.483 72.3268 47.7989 72.3268 52.3895C72.3268 55.38 71.5675 58.2537 70.1411 60.7913L71.8133 62.3038C76.6684 66.6947 80.4224 70.094 80.9304 70.6017C83.0196 72.6911 83.0196 76.0904 80.9304 78.1795L80.9307 78.1791ZM20.686 4.53458C20.6824 6.61736 21.0628 8.65157 21.8179 10.5985H40.0652C40.6785 8.88158 40.932 6.8897 40.8347 4.54951L38.3229 2.88641L35.261 4.91373C34.8216 5.20445 34.251 5.20445 33.8116 4.91373L30.7499 2.88641L27.6874 4.91373C27.248 5.20445 26.6777 5.20462 26.2384 4.91373L23.1756 2.88625L20.686 4.53458ZM18.6843 14.7691C18.6843 15.6213 19.3776 16.3146 20.2297 16.3146H41.31C42.1621 16.3146 42.8554 15.6213 42.8554 14.7691C42.8554 13.917 42.1621 13.2237 41.31 13.2237H20.2297C19.3776 13.2237 18.6843 13.917 18.6843 14.7691ZM48.8636 68.3866C46.722 67.5498 44.7154 66.269 42.988 64.5416C41.861 63.4146 40.9244 62.1683 40.1764 60.8435C37.4279 62.7635 34.1406 63.8081 30.7699 63.8081C21.7028 63.8081 14.3263 56.4315 14.3263 47.3646C14.3263 38.2977 21.7028 30.9209 30.7699 30.9209C36.4703 30.9209 41.7637 33.9228 44.7415 38.7055C47.9647 36.2526 51.8624 35.0914 55.7251 35.2217C51.7333 26.7467 44.9183 21.49 40.8396 18.9393H20.4924C14.7569 22.5716 2.62516 32.3228 2.62516 49.7651C2.62516 66.8286 17.1639 72.9083 30.7701 72.9083C37.8715 72.9083 44.0701 71.3518 48.8637 68.3862L48.8636 68.3866ZM42.7473 40.4833C40.2946 36.2347 35.7141 33.5461 30.7699 33.5461C23.1504 33.5461 16.9513 39.745 16.9513 47.3647C16.9513 54.9845 23.1502 61.1832 30.7699 61.1832C33.757 61.1832 36.6653 60.2049 39.0479 58.4183C36.8056 52.4061 38.039 45.3817 42.7473 40.4833ZM65.437 62.6854C68.1873 59.9351 69.702 56.2784 69.702 52.389C69.702 48.4996 68.187 44.8428 65.437 42.0926C62.5982 39.254 58.8696 37.8345 55.1406 37.8345C51.4116 37.8345 47.683 39.2538 44.8442 42.0926C39.1668 47.77 39.1668 57.008 44.8442 62.6854C50.5214 68.3628 59.7594 68.3628 65.437 62.6854ZM79.0745 72.4576C78.5728 71.9559 73.8485 67.6834 70.0527 64.2502L68.6659 62.9956C68.2423 63.5334 67.7849 64.0499 67.2934 64.5414C66.7995 65.0353 66.2822 65.4917 65.7461 65.9128L66.9818 67.279C70.2419 70.8836 74.7065 75.8202 75.2092 76.3229C75.7253 76.8391 76.4118 77.1234 77.1419 77.1234C77.8719 77.1234 78.5582 76.8391 79.0743 76.3229C80.1401 75.2572 80.1401 73.5232 79.0743 72.4574L79.0745 72.4576Z" fill="#10ECB0"/>
</svg>
