<svg width="84" height="84" viewBox="0 0 84 84" fill="none" xmlns="http://www.w3.org/2000/svg">
<path d="M26.2522 66.4404C30.149 66.4404 33.8997 65.4967 37.2518 63.7277L43.2954 74.109C46.4682 79.9392 55.0994 81.0329 59.6645 76.2275C64.4825 71.6668 63.3674 63.0406 57.5456 59.8586C57.5458 59.8586 47.1382 53.7997 47.1382 53.7997C50.1084 48.1153 50.7274 41.3279 48.589 35.1147C48.2237 33.6532 45.994 33.9282 46.005 35.4525C50.8799 49.0755 40.8759 63.9182 26.2519 63.8152C14.9686 64.0478 5.01802 54.1001 5.25234 42.8152C5.03581 28.4735 20.0179 18.0367 33.4173 23.0756C35.0401 23.6469 35.9267 21.2171 34.3117 20.608C19.2418 14.9396 2.38058 26.6816 2.62732 42.8156C2.3652 55.5095 13.5567 66.7034 26.2522 66.4404ZM42.9564 59.519C44.0248 58.4507 44.9651 57.2848 45.7942 56.0546L56.2243 62.1273C60.5798 64.5069 61.4127 70.9603 57.8084 74.3717C54.3955 77.9647 47.9344 77.1464 45.5641 72.7886C45.5641 72.7888 39.5 62.3724 39.5 62.3724C40.7253 61.5384 41.8853 60.5901 42.9564 59.519Z" fill="#10ECB0"/>
<path d="M32.5327 29.8089C34.0932 30.536 35.2171 28.22 33.6746 27.4453C27.1532 24.2942 19.3199 25.6195 14.1795 30.7452C3.46455 41.4426 11.2471 59.9795 26.2518 59.8674C39.8695 60.0171 48.2554 44.1395 40.1844 32.9599C39.1816 31.5656 37.0589 33.0732 38.0443 34.479C42.1207 40.2256 41.4574 48.0282 36.4689 53.0295C30.8344 58.6499 21.6687 58.6487 16.038 53.0321C4.78169 41.3414 17.8165 23.011 32.5327 29.8089Z" fill="#10ECB0"/>
<path d="M25.4043 43.8177C25.9552 44.284 26.7848 44.2187 27.2545 43.6626L38.4193 30.4653C40.1655 31.3881 42.5548 31.0645 44.0076 29.7878L51.3695 35.1401C50.5604 37.5917 52.5536 40.234 55.1272 40.1903C58.0062 40.2653 60.0187 36.9464 58.6058 34.4473L72.1897 19.8958V24.4404C72.2167 26.1614 74.786 26.1688 74.8147 24.4403V16.5654C74.786 15.8428 74.2157 15.2838 73.5022 15.2529H65.6272C63.9057 15.2813 63.8989 17.8484 65.6273 17.8779C65.6272 17.8779 70.4806 17.8779 70.4806 17.8779L56.6953 32.6453C55.5113 32.0956 53.9417 32.2576 52.9018 33.0097L45.5638 27.6748C46.974 24.3492 44.3124 20.4267 40.6897 20.5029C36.5368 20.3752 33.9237 25.4991 36.4106 28.7746L25.2499 41.9682C24.7821 42.5206 24.8513 43.3499 25.4043 43.8177ZM55.1272 34.9404C56.8521 34.971 56.8519 37.535 55.1271 37.5654C53.4023 37.5347 53.4026 34.9708 55.1272 34.9404ZM40.6897 23.1279C42.7761 23.063 44.081 25.6483 42.8148 27.2815C41.4069 29.332 38.0189 28.262 38.0647 25.7528C38.0647 24.3052 39.242 23.1279 40.6897 23.1279Z" fill="#10ECB0"/>
<path d="M73.5022 4.75293H24.9397C20.5972 4.75293 17.0647 8.28541 17.0647 12.6279V17.7991C17.0889 19.5262 19.6731 19.5107 19.6897 17.799V12.6279C19.6897 9.73312 22.0449 7.37793 24.9397 7.37793H73.5022C76.3976 7.37793 78.7522 9.73312 78.7522 12.6279V52.0029C78.7522 54.8984 76.3976 57.2529 73.5022 57.2529H60.299C59.5736 57.2529 58.9865 57.84 58.9865 58.5654C58.9865 59.2909 59.5736 59.8779 60.299 59.8779H73.5022C77.8447 59.8779 81.3772 56.3455 81.3772 52.0029V12.6279C81.3772 8.28541 77.8447 4.75293 73.5022 4.75293Z" fill="#10ECB0"/>
<path d="M60.3771 50.6904C58.6562 50.7176 58.6484 53.2867 60.3772 53.3154H74.8146C76.5356 53.2883 76.5434 50.7192 74.8146 50.6904H60.3771Z" fill="#10ECB0"/>
<path d="M74.8148 45.4404H66.9398C65.2167 45.4682 65.2127 48.0368 66.9399 48.0654H74.8148C76.5378 48.0376 76.5419 45.469 74.8148 45.4404Z" fill="#10ECB0"/>
<path d="M34.1271 13.9404C35.8491 13.9121 35.8546 11.3448 34.1271 11.3154H23.6271C21.9051 11.3438 21.8995 13.911 23.6271 13.9404H34.1271Z" fill="#10ECB0"/>
</svg>
