<svg width="84" height="84" viewBox="0 0 84 84" fill="none" xmlns="http://www.w3.org/2000/svg">
<path d="M74.8389 46.3738C75.0277 44.9427 75.1252 43.4827 75.1252 41.9999C75.1252 40.5171 75.0277 39.0571 74.8389 37.626" stroke="#10ECB0" stroke-width="2.5" stroke-miterlimit="10" stroke-linecap="round" stroke-linejoin="round"/>
<path d="M62.126 68.3124C64.4502 66.5319 66.5319 64.4504 68.3124 62.126" stroke="#10ECB0" stroke-width="2.5" stroke-miterlimit="10" stroke-linecap="round" stroke-linejoin="round"/>
<path d="M37.626 74.8389C39.0573 75.0277 40.5171 75.1252 41.9999 75.1252C43.4827 75.1252 44.9427 75.0275 46.3738 74.8389" stroke="#10ECB0" stroke-width="2.5" stroke-miterlimit="10" stroke-linecap="round" stroke-linejoin="round"/>
<path d="M46.3738 9.16104C44.9427 8.97221 43.4827 8.87476 41.9999 8.87476C40.5171 8.87476 39.0571 8.97221 37.626 9.16104" stroke="#10ECB0" stroke-width="2.5" stroke-miterlimit="10" stroke-linecap="round" stroke-linejoin="round"/>
<path d="M68.3124 21.8742C66.5319 19.5499 64.4504 17.4683 62.126 15.6877" stroke="#10ECB0" stroke-width="2.5" stroke-miterlimit="10" stroke-linecap="round" stroke-linejoin="round"/>
<path d="M26.1776 29.1464C23.3251 32.6534 21.6152 37.127 21.6152 42C21.6152 53.2581 30.7419 62.3848 42 62.3848C53.2581 62.3848 62.3848 53.2581 62.3848 42C62.3848 30.7419 53.2581 21.6152 42 21.6152C37.7355 21.6152 33.7769 22.9248 30.5041 25.1636" stroke="#10ECB0" stroke-width="2.5" stroke-miterlimit="10" stroke-linecap="round" stroke-linejoin="round"/>
<path d="M41.9999 62.3848C48.3327 62.3848 53.4664 53.2582 53.4664 42C53.4664 30.7418 48.3327 21.6152 41.9999 21.6152C35.6672 21.6152 30.5334 30.7418 30.5334 42C30.5334 53.2582 35.6672 62.3848 41.9999 62.3848Z" stroke="#10ECB0" stroke-width="2.5" stroke-miterlimit="10" stroke-linecap="round" stroke-linejoin="round"/>
<path d="M42 21.6152V62.3848" stroke="#10ECB0" stroke-width="2.5" stroke-miterlimit="10" stroke-linecap="round" stroke-linejoin="round"/>
<path d="M62.3848 42H21.6152" stroke="#10ECB0" stroke-width="2.5" stroke-miterlimit="10" stroke-linecap="round" stroke-linejoin="round"/>
<path d="M60.3354 33.0818H23.6648" stroke="#10ECB0" stroke-width="2.5" stroke-miterlimit="10" stroke-linecap="round" stroke-linejoin="round"/>
<path d="M60.3354 50.9182H23.6648" stroke="#10ECB0" stroke-width="2.5" stroke-miterlimit="10" stroke-linecap="round" stroke-linejoin="round"/>
<path d="M15.9038 36.9039H9.48999C9.15022 36.9039 8.87476 36.6284 8.87476 36.2886V29.8748C8.87476 29.535 9.15022 29.2595 9.48999 29.2595H15.9038C16.2436 29.2595 16.5191 29.535 16.5191 29.8748V36.2886C16.5191 36.6284 16.2436 36.9039 15.9038 36.9039Z" stroke="#10ECB0" stroke-width="2.5" stroke-miterlimit="10" stroke-linecap="round" stroke-linejoin="round"/>
<path d="M8.25956 24.1634H1.8457C1.50593 24.1634 1.23047 23.8879 1.23047 23.5481V17.1343C1.23047 16.7945 1.50593 16.519 1.8457 16.519H8.25956C8.59934 16.519 8.8748 16.7945 8.8748 17.1343V23.5481C8.8748 23.8879 8.59934 24.1634 8.25956 24.1634Z" stroke="#10ECB0" stroke-width="2.5" stroke-miterlimit="10" stroke-linecap="round" stroke-linejoin="round"/>
<path d="M16.109 11.4229H11.833C11.6064 11.4229 11.4229 11.2393 11.4229 11.0128V6.73682C11.4229 6.51025 11.6064 6.32666 11.833 6.32666H16.1088C16.3354 6.32666 16.519 6.51025 16.519 6.73682V11.0126C16.5191 11.2393 16.3354 11.4229 16.109 11.4229Z" stroke="#10ECB0" stroke-width="2.5" stroke-miterlimit="10" stroke-linecap="round" stroke-linejoin="round"/>
<path d="M6.32666 52.5589V53.9202C6.32666 54.3731 6.694 54.7405 7.14697 54.7405H15.6987C16.1517 54.7405 16.519 54.3731 16.519 53.9202V45.3684C16.519 44.9154 16.1517 44.5481 15.6987 44.5481H7.14697C6.694 44.5481 6.32666 44.9154 6.32666 45.3684V46.8168" stroke="#10ECB0" stroke-width="2.5" stroke-miterlimit="10" stroke-linecap="round" stroke-linejoin="round"/>
<path d="M15.9038 67.481H9.48999C9.15022 67.481 8.87476 67.7564 8.87476 68.0962V74.51C8.87476 74.8498 9.15022 75.1253 9.48999 75.1253H15.9038C16.2436 75.1253 16.5191 74.8498 16.5191 74.51V68.0962C16.5191 67.7564 16.2436 67.481 15.9038 67.481Z" stroke="#10ECB0" stroke-width="2.5" stroke-miterlimit="10" stroke-linecap="round" stroke-linejoin="round"/>
<path d="M5.91642 59.8367H1.64062C1.41405 59.8367 1.23047 60.0203 1.23047 60.2468V64.5228C1.23047 64.7494 1.41405 64.9329 1.64062 64.9329H5.91642C6.14299 64.9329 6.32658 64.7494 6.32658 64.5228V60.2468C6.32658 60.0203 6.14299 59.8367 5.91642 59.8367Z" stroke="#10ECB0" stroke-width="2.5" stroke-miterlimit="10" stroke-linecap="round" stroke-linejoin="round"/>
<path d="M21.6152 23.0598V72.9619C21.6152 73.5994 22.3109 73.9933 22.8575 73.6652L25.9001 71.8397C26.3768 71.5536 26.9655 71.5298 27.4649 71.7741C28.6786 72.3676 29.9342 72.8894 31.2257 73.3333C31.751 73.5139 32.1499 73.9467 32.2845 74.4857L33.8894 80.9053C34.1632 82.0009 35.1476 82.7694 36.2768 82.7694H47.7225C48.8517 82.7694 49.8361 82.0009 50.1099 80.9053L51.7148 74.4857C51.8495 73.9467 52.2483 73.5138 52.7737 73.3333C54.0652 72.8894 55.3207 72.3676 56.5345 71.7741C57.034 71.5298 57.6225 71.5536 58.0993 71.8397L63.7749 75.2451C64.7432 75.8261 65.9827 75.6735 66.7811 74.875L74.8745 66.7816C75.673 65.9831 75.8256 64.7437 75.2446 63.7754L71.8392 58.0996C71.5531 57.6229 71.5293 57.0342 71.7736 56.5346C72.3673 55.3209 72.8889 54.0653 73.3328 52.7738C73.5135 52.2485 73.9463 51.8497 74.4852 51.715L80.9048 50.1101C82.0004 49.8363 82.7689 48.8519 82.7689 47.7227V36.277C82.7689 35.1478 82.0004 34.1634 80.9048 33.8896L74.4852 32.2847C73.9463 32.15 73.5135 31.7512 73.3328 31.2259C72.8889 29.9344 72.3671 28.6788 71.7736 27.465C71.5293 26.9655 71.5531 26.377 71.8392 25.9001L75.2446 20.2245C75.8256 19.2562 75.673 18.0167 74.8745 17.2182L66.7811 9.12483C65.9827 8.32634 64.7432 8.17376 63.7749 8.7547L58.0991 12.1601C57.6224 12.4463 57.0337 12.4701 56.5343 12.2258C55.3206 11.6322 54.065 11.1105 52.7735 10.6665C52.2482 10.4859 51.8493 10.0531 51.7146 9.51415L50.1098 3.09455C49.8364 1.99894 48.8521 1.23047 47.7228 1.23047H36.2772C35.1479 1.23047 34.1636 1.99894 33.8897 3.09455L32.2849 9.51415C32.1502 10.0531 31.7513 10.4861 31.226 10.6665C29.9345 11.1105 28.6789 11.6322 27.4652 12.2258C26.9656 12.4701 26.3771 12.4463 25.9004 12.1601L22.8578 10.3346C22.311 10.0065 21.6156 10.4004 21.6156 11.038V17.3176" stroke="#10ECB0" stroke-width="2.5" stroke-miterlimit="10" stroke-linecap="round" stroke-linejoin="round"/>
</svg>
