<svg width="180" height="152" viewBox="0 0 180 152" fill="none" xmlns="http://www.w3.org/2000/svg">
<g opacity="0.05">
<path fill-rule="evenodd" clip-rule="evenodd" d="M177.613 84.9708C180.291 87.6485 180.291 91.9877 177.613 94.6652L122.102 150.176C119.678 152.607 115.738 152.607 113.307 150.176L94.2082 131.077C91.7845 128.647 87.8441 128.646 85.4132 131.077L66.3146 150.176C63.891 152.607 59.9506 152.607 57.5197 150.176L2.00796 94.6652C-0.669398 91.9877 -0.669244 87.6484 2.00796 84.9708L18.8156 68.1622C32.0587 93.8854 58.8782 111.481 89.8117 111.482C120.738 111.482 147.557 93.8854 160.808 68.1622L177.613 84.9708ZM84.9709 2.00795C87.6484 -0.669334 91.9876 -0.669301 94.6652 2.00795L147.483 54.8351L142.479 49.8312C134.947 71.6801 114.222 87.3829 89.8117 87.3829C65.4018 87.3828 44.6772 71.6812 37.1447 49.8331L84.9709 2.00795Z" fill="white"/>
<path d="M106.31 152L92.124 137.813C90.8468 136.536 88.7715 136.536 87.4944 137.813L73.3081 152H106.31Z" fill="white"/>
</g>
</svg>
