<svg width="380" height="321" viewBox="0 0 380 321" fill="none" xmlns="http://www.w3.org/2000/svg">
<path fill-rule="evenodd" clip-rule="evenodd" d="M375.097 179.446C380.751 185.101 380.751 194.265 375.097 199.92L257.863 317.153C252.745 322.287 244.424 322.287 239.29 317.153L198.956 276.819C193.837 271.685 185.515 271.685 180.382 276.819L140.048 317.153C134.929 322.287 126.608 322.287 121.474 317.153L4.24104 199.92C-1.41365 194.265 -1.41371 185.101 4.24104 179.446L39.7352 143.951C67.703 198.275 124.343 235.436 189.671 235.436C254.984 235.436 311.622 198.274 339.605 143.949L375.097 179.446ZM179.447 4.24102C185.102 -1.41371 194.266 -1.41364 199.921 4.24102L331.85 136.193L300.896 105.239C284.989 151.381 241.223 184.544 189.671 184.544C138.12 184.544 94.3529 151.383 78.4451 105.242L179.447 4.24102Z" fill="#1D1EE3"/>
<path d="M224.514 321.005L194.554 291.045C191.857 288.348 187.474 288.348 184.777 291.045L154.817 321.005H224.514Z" fill="#1D1EE3"/>
</svg>
