<svg width="693" height="544" viewBox="0 0 693 544" fill="none" xmlns="http://www.w3.org/2000/svg">
<g opacity="0.42" filter="url(#filter0_f_1_615)">
<path d="M433.468 174.966L433.528 174.872L318.762 99.9999L318.207 100.862C303.161 124.293 287.982 147.636 272.694 170.908L100 439.177C113.828 443.359 128.85 445.449 142.503 439.952C156.434 434.35 166.658 421.26 165.459 405.806C164.879 398.331 161.891 390.26 163.604 382.789C165.918 372.688 177.35 371.652 185.904 372.354C200.698 373.551 215.117 377.735 229.628 380.737C242.919 383.497 256.797 385.76 270.286 383.369C285.135 380.738 297.796 371.762 305.265 358.616C324.387 324.99 309.223 284.032 324.497 249.523C324.755 248.944 325.026 248.375 325.297 247.806C340.256 216.993 381.095 209.988 406.414 233.239C408.073 234.761 409.654 236.405 411.138 238.138C419.488 247.889 425.367 259.549 433.596 269.221C435.873 273.021 438.651 276.516 441.723 279.496C452.295 289.836 467.135 295.921 481.918 294.49C486.079 294.087 492.983 292.45 499.195 290.879C507.098 288.88 515.491 290.664 521.984 295.666C532.97 304.114 545.858 310.647 559.587 306.577C566.746 304.457 572.283 300.073 577.153 294.795C581.158 290.445 585.379 286.294 589.664 282.222C590.766 281.162 591.856 280.094 592.913 278.985L433.468 174.966Z" fill="url(#paint0_linear_1_615)"/>
</g>
<defs>
<filter id="filter0_f_1_615" x="0" y="0" width="692.913" height="543.271" filterUnits="userSpaceOnUse" color-interpolation-filters="sRGB">
<feFlood flood-opacity="0" result="BackgroundImageFix"/>
<feBlend mode="normal" in="SourceGraphic" in2="BackgroundImageFix" result="shape"/>
<feGaussianBlur stdDeviation="50" result="effect1_foregroundBlur_1_615"/>
</filter>
<linearGradient id="paint0_linear_1_615" x1="209.233" y1="269.492" x2="484.821" y2="446.899" gradientUnits="userSpaceOnUse">
<stop stop-color="#0136FF"/>
<stop offset="1" stop-color="#55D7EA"/>
</linearGradient>
</defs>
</svg>
