<svg width="571" height="483" viewBox="0 0 571 483" fill="none" xmlns="http://www.w3.org/2000/svg">
<path d="M59.807 216.572C101.888 298.311 187.109 354.225 285.403 354.225C383.663 354.224 468.876 298.322 510.984 216.598L564.375 269.999C572.884 278.507 572.884 292.296 564.375 300.805L387.985 477.195C380.283 484.92 367.763 484.92 360.038 477.195L299.351 416.508C291.65 408.784 279.13 408.784 271.406 416.508L210.718 477.195C203.017 484.92 190.496 484.92 182.772 477.195L6.3812 300.805C-2.12707 292.296 -2.12707 278.507 6.3812 269.999L59.807 216.572ZM269.998 6.38086C278.507 -2.12738 292.296 -2.12732 300.804 6.38086L452.745 158.35C428.805 227.764 362.96 277.649 285.403 277.649C207.837 277.649 141.984 227.754 118.05 158.328L269.998 6.38086Z" fill="url(#paint0_linear_1_1746)"/>
<path d="M337.825 482.988L292.747 437.91C288.689 433.852 282.094 433.852 278.036 437.91L232.959 482.988H337.825Z" fill="url(#paint1_linear_1_1746)"/>
<defs>
<linearGradient id="paint0_linear_1_1746" x1="-0.000640869" y1="241.494" x2="570.757" y2="241.494" gradientUnits="userSpaceOnUse">
<stop stop-color="#0136FF"/>
<stop offset="1" stop-color="#55D7EA"/>
</linearGradient>
<linearGradient id="paint1_linear_1_1746" x1="232.959" y1="458.927" x2="337.825" y2="458.927" gradientUnits="userSpaceOnUse">
<stop stop-color="#0136FF"/>
<stop offset="1" stop-color="#55D7EA"/>
</linearGradient>
</defs>
</svg>
