<svg width="712" height="495" viewBox="0 0 712 495" fill="none" xmlns="http://www.w3.org/2000/svg">
<g opacity="0.4" filter="url(#filter0_f_1_614)">
<path d="M194.686 218.936L194.59 218.879L262.744 100L263.63 100.516C287.686 114.539 311.822 128.424 336.022 142.197L611.837 302.562C601.424 312.576 588.997 321.27 574.338 322.585C559.383 323.932 544.324 316.925 538.362 302.616C535.479 295.695 534.469 287.149 529.546 281.273C522.89 273.33 512.239 277.608 504.94 282.124C492.309 289.918 481.371 300.203 469.813 309.477C459.232 317.979 447.902 326.307 434.802 330.313C420.38 334.724 405.023 332.489 392.391 324.178C360.068 302.929 354.943 259.556 325.644 235.77C325.152 235.372 324.651 234.989 324.151 234.605C296.814 213.968 257.258 226.304 245.284 258.527C244.499 260.637 243.839 262.82 243.306 265.039C240.305 277.521 240.372 290.578 237.443 302.935C237.144 307.355 236.259 311.731 234.879 315.783C230.167 329.799 219.718 341.968 205.902 347.418C202.013 348.951 195.12 350.634 188.873 352.06C180.926 353.875 174.263 359.28 170.754 366.688C164.813 379.209 156.307 390.889 142.229 393.509C134.889 394.877 127.964 393.491 121.227 391.006C115.682 388.953 110.034 387.176 104.366 385.498C102.902 385.056 101.446 384.6 100 384.094L194.686 218.936Z" fill="url(#paint0_linear_1_614)"/>
</g>
<defs>
<filter id="filter0_f_1_614" x="0" y="0" width="711.837" height="494.047" filterUnits="userSpaceOnUse" color-interpolation-filters="sRGB">
<feFlood flood-opacity="0" result="BackgroundImageFix"/>
<feBlend mode="normal" in="SourceGraphic" in2="BackgroundImageFix" result="shape"/>
<feGaussianBlur stdDeviation="50" result="effect1_foregroundBlur_1_614"/>
</filter>
<linearGradient id="paint0_linear_1_614" x1="437.378" y1="201.128" x2="272.637" y2="484.47" gradientUnits="userSpaceOnUse">
<stop stop-color="#0136FF"/>
<stop offset="1" stop-color="#55D7EA"/>
</linearGradient>
</defs>
</svg>
