<svg width="28" height="28" viewBox="0 0 28 28" fill="none" xmlns="http://www.w3.org/2000/svg">
<g clip-path="url(#clip0_629_1613)">
<path fill-rule="evenodd" clip-rule="evenodd" d="M17.7932 21.947H25.6125C25.7523 21.9464 25.8862 21.8905 25.9851 21.7917C26.084 21.6928 26.1398 21.5589 26.1405 21.4191V19.1573C26.1398 19.0175 26.084 18.8836 25.9851 18.7847C25.8862 18.6858 25.7523 18.63 25.6125 18.6293H18.6193C18.5641 19.7787 18.2834 20.906 17.7932 21.947ZM19.8609 13.197V17.7543H25.6125C25.9843 17.7551 26.3408 17.9032 26.6037 18.1661C26.8667 18.429 27.0147 18.7854 27.0155 19.1573V21.4191C27.0155 21.7786 26.8771 22.1244 26.6288 22.3845C26.877 22.6446 27.0155 22.9904 27.0155 23.35V25.6117C27.0147 25.9836 26.8667 26.34 26.6037 26.6029C26.3408 26.8658 25.9844 27.0139 25.6125 27.0147H10.7727C10.6831 27.0111 10.5938 27.002 10.5053 26.9873C10.275 27.0056 10.0423 27.0147 9.80715 27.0147C8.08078 27.0147 6.39235 26.5082 4.95102 25.5579C3.50969 24.6077 2.3788 23.2555 1.69844 21.6689C1.01808 20.0822 0.818143 18.3308 1.12341 16.6317C1.42867 14.9325 2.22571 13.3602 3.4158 12.1096C4.60589 10.859 6.13673 9.98502 7.81868 9.59591C9.50062 9.20681 11.2598 9.31968 12.8782 9.92056C14.4966 10.5214 15.9032 11.5839 16.9237 12.9764C17.9442 14.3688 18.5337 16.0301 18.6193 17.7543H18.9857V13.197L17.8644 11.2547C15.8457 10.9661 14.0447 9.3807 12.9801 7.53685C12.3616 6.46553 11.9972 5.34077 11.8769 4.27792C11.7502 3.15945 11.8933 2.10283 12.2936 1.23828L12.2943 1.23866C12.3319 1.15725 12.3936 1.08941 12.4712 1.04439C12.5487 0.999375 12.6383 0.979367 12.7276 0.987097C13.6783 1.07263 14.666 1.47764 15.572 2.14696C17.3831 3.48511 18.6923 5.75399 18.9455 7.99065C19.062 9.02009 18.9503 9.99708 18.6195 10.8202L19.4235 12.2125L20.2274 10.8202C19.8966 9.99708 19.7849 9.02009 19.9014 7.99071C20.1546 5.75399 21.4638 3.48506 23.275 2.14696C24.1809 1.47759 25.1686 1.07263 26.1193 0.987097C26.2086 0.979367 26.2982 0.999375 26.3757 1.04439C26.4533 1.08941 26.515 1.15725 26.5526 1.23866L26.5533 1.23828C26.9539 2.10283 27.0967 3.15945 26.9701 4.27792C26.7169 6.51464 25.4076 8.78351 23.5965 10.1217C22.7635 10.7371 21.8614 11.129 20.9824 11.2547L19.861 13.1972L19.8609 13.197ZM17.2663 10.2186L15.0335 6.35123C15.005 6.30163 14.9865 6.24691 14.9792 6.19018C14.9718 6.13345 14.9757 6.07583 14.9906 6.0206C15.0207 5.90907 15.0939 5.81407 15.1941 5.7565C15.2943 5.69894 15.4132 5.68352 15.5247 5.71364C15.5799 5.72855 15.6317 5.7542 15.677 5.78911C15.7223 5.82403 15.7603 5.86752 15.7888 5.91712L18.0201 9.78156C18.3226 8.28268 17.8974 6.5679 17.0869 5.16735C16.1826 3.60488 14.6676 2.20154 12.9663 1.89764C12.7265 2.56128 12.6507 3.34686 12.7452 4.18232C12.9716 6.18224 14.1511 8.22488 15.7701 9.42106C16.2245 9.76299 16.7294 10.0321 17.2665 10.2188L17.2663 10.2186ZM20.8267 9.78156L23.058 5.91712C23.1161 5.81798 23.211 5.7458 23.322 5.7163C23.4331 5.6868 23.5513 5.70237 23.6509 5.75963C23.7506 5.81688 23.8235 5.91118 23.854 6.02198C23.8844 6.13279 23.8698 6.25113 23.8134 6.35123L21.5805 10.2186C23.0398 9.72813 24.298 8.50635 25.1113 7.10089C26.0158 5.53808 26.4647 3.51339 25.8808 1.89737C24.1794 2.20149 22.6643 3.60493 21.76 5.16735C20.9495 6.56785 20.5241 8.28279 20.8268 9.78156H20.8267ZM11.9252 16.7573C11.9252 15.8124 11.1567 15.0955 10.2447 14.9253V14.1586C10.2447 14.0425 10.1986 13.9313 10.1166 13.8492C10.0345 13.7672 9.92323 13.7211 9.8072 13.7211C9.69117 13.7211 9.57989 13.7672 9.49784 13.8492C9.41579 13.9313 9.3697 14.0425 9.3697 14.1586V14.9255C8.45773 15.0955 7.6891 15.8124 7.6891 16.7576C7.6891 17.8504 8.70629 18.6296 9.8072 18.6296C10.89 18.6296 11.4582 19.6722 10.7118 20.3093C9.93703 20.9705 8.56394 20.5182 8.56394 19.6263C8.56394 19.5103 8.51784 19.399 8.43579 19.3169C8.35375 19.2349 8.24247 19.1888 8.12644 19.1888C8.0104 19.1888 7.89912 19.2349 7.81708 19.3169C7.73503 19.399 7.68894 19.5103 7.68894 19.6263C7.68894 20.5712 8.45762 21.2881 9.36954 21.458V22.225C9.36954 22.341 9.41563 22.4523 9.49768 22.5343C9.57973 22.6164 9.691 22.6625 9.80704 22.6625C9.92307 22.6625 10.0343 22.6164 10.1164 22.5343C10.1984 22.4523 10.2445 22.341 10.2445 22.225V21.458C11.1565 21.2881 11.9251 20.5712 11.9251 19.6263C11.9251 18.5335 10.9079 17.7543 9.80704 17.7543C8.72422 17.7543 8.15602 16.7116 8.9024 16.0746C9.67726 15.4132 11.0501 15.8654 11.0501 16.7573C11.0501 16.8734 11.0962 16.9846 11.1782 17.0667C11.2603 17.1487 11.3716 17.1948 11.4876 17.1948C11.6036 17.1948 11.7149 17.1487 11.7969 17.0667C11.879 16.9846 11.9251 16.8734 11.9251 16.7573H11.9252ZM9.8072 11.6307C8.50952 11.6306 7.24097 12.0154 6.16199 12.7364C5.083 13.4573 4.24202 14.482 3.74541 15.6809C3.24881 16.8798 3.11886 18.1991 3.37202 19.4718C3.62518 20.7446 4.25007 21.9137 5.16767 22.8313C6.08526 23.7489 7.25435 24.3738 8.5271 24.627C9.79985 24.8801 11.1191 24.7502 12.318 24.2536C13.5169 23.757 14.5416 22.916 15.2626 21.837C15.9835 20.7581 16.3683 19.4895 16.3683 18.1918C16.3683 16.4517 15.677 14.7829 14.4466 13.5524C13.2162 12.322 11.5473 11.6307 9.8072 11.6307ZM13.8279 14.171C13.0327 13.3758 12.0195 12.8342 10.9165 12.6148C9.81346 12.3954 8.67015 12.508 7.63112 12.9384C6.59209 13.3688 5.70402 14.0976 5.0792 15.0327C4.45439 15.9678 4.12089 17.0672 4.12089 18.1918C4.12089 19.3164 4.45439 20.4158 5.0792 21.3509C5.70402 22.286 6.59209 23.0148 7.63112 23.4452C8.67015 23.8756 9.81346 23.9882 10.9165 23.7688C12.0195 23.5494 13.0327 23.0078 13.8279 22.2126C14.8943 21.1462 15.4933 19.6999 15.4933 18.1918C15.4933 16.6837 14.8943 15.2374 13.8279 14.171ZM17.7551 18.1918C17.7551 16.6199 17.289 15.0833 16.4156 13.7762C15.5423 12.4692 14.301 11.4505 12.8487 10.8489C11.3965 10.2474 9.7984 10.09 8.25666 10.3967C6.71492 10.7033 5.29874 11.4603 4.18721 12.5718C3.07567 13.6833 2.3187 15.0995 2.01203 16.6412C1.70535 18.183 1.86273 19.781 2.46428 21.2333C3.06583 22.6856 4.08453 23.9269 5.39155 24.8002C6.69856 25.6736 8.2352 26.1397 9.80715 26.1397C10.8509 26.1398 11.8844 25.9342 12.8487 25.5348C13.813 25.1354 14.6892 24.5499 15.4272 23.8119C16.1652 23.0739 16.7507 22.1977 17.1501 21.2334C17.5495 20.2691 17.7551 19.2356 17.7551 18.1918ZM13.6426 26.1397H25.6125C25.7523 26.139 25.8862 26.0832 25.9851 25.9843C26.084 25.8855 26.1398 25.7516 26.1405 25.6117V23.35C26.1398 23.2101 26.084 23.0762 25.9851 22.9774C25.8862 22.8785 25.7523 22.8227 25.6125 22.822H17.3187C16.4336 24.2549 15.1583 25.4058 13.6424 26.1397H13.6426Z" fill="#1D1EE3"/>
</g>
<defs>
<clipPath id="clip0_629_1613">
<rect width="28" height="28" fill="white"/>
</clipPath>
</defs>
</svg>
