<svg width="28" height="28" viewBox="0 0 28 28" fill="none" xmlns="http://www.w3.org/2000/svg">
<path d="M25.6069 25.2263H2.39312C1.07625 25.2263 0 24.1501 0 22.8332V5.16693C0 3.85005 1.07625 2.7738 2.39312 2.7738H25.6025C26.9237 2.7738 27.9956 3.85005 27.9956 5.16693V22.8288C28 24.1501 26.9281 25.2263 25.6069 25.2263ZM2.39312 3.62255C1.54 3.62255 0.84875 4.31818 0.84875 5.16693V22.8288C0.84875 23.6819 1.54437 24.3732 2.39312 24.3732H25.6025C26.4556 24.3732 27.1469 23.6776 27.1469 22.8288V5.16693C27.1469 4.3138 26.4513 3.62255 25.6025 3.62255H2.39312Z" fill="#1D1EE3"/>
<path d="M27.5756 7.98876H0.424375C0.1925 7.98876 0 7.80064 0 7.56439C0 7.32814 0.188125 7.14001 0.424375 7.14001H27.5756C27.8119 7.14001 28 7.32814 28 7.56439C28 7.80064 27.8119 7.98876 27.5756 7.98876Z" fill="#1D1EE3"/>
<path d="M13.7689 5.77514H3.55328C3.31703 5.77514 3.12891 5.58702 3.12891 5.35077C3.12891 5.11452 3.31703 4.92639 3.55328 4.92639H13.7733C14.0095 4.92639 14.1977 5.11452 14.1977 5.35077C14.1977 5.58702 14.0052 5.77514 13.7689 5.77514Z" fill="#1D1EE3"/>
<path d="M16.7875 6.57573C16.1094 6.57573 15.5625 6.02448 15.5625 5.35073C15.5625 4.67698 16.1137 4.12573 16.7875 4.12573C17.4656 4.12573 18.0125 4.67698 18.0125 5.35073C18.0125 6.02448 17.4612 6.57573 16.7875 6.57573ZM16.7875 4.97011C16.5775 4.97011 16.4069 5.14073 16.4069 5.35073C16.4069 5.56073 16.5775 5.73136 16.7875 5.73136C16.9975 5.73136 17.1681 5.56073 17.1681 5.35073C17.1681 5.14073 16.9975 4.97011 16.7875 4.97011Z" fill="#1D1EE3"/>
<path d="M20.2172 6.57573C19.5391 6.57573 18.9922 6.02448 18.9922 5.35073C18.9922 4.67698 19.5434 4.12573 20.2172 4.12573C20.8953 4.12573 21.4422 4.67698 21.4422 5.35073C21.4422 6.02448 20.8953 6.57573 20.2172 6.57573ZM20.2172 4.97011C20.0072 4.97011 19.8366 5.14073 19.8366 5.35073C19.8366 5.56073 20.0072 5.73136 20.2172 5.73136C20.4272 5.73136 20.5978 5.56073 20.5978 5.35073C20.5978 5.14073 20.4272 4.97011 20.2172 4.97011Z" fill="#1D1EE3"/>
<path d="M23.6469 6.57573C22.9687 6.57573 22.4219 6.02448 22.4219 5.35073C22.4219 4.67698 22.9731 4.12573 23.6469 4.12573C24.325 4.12573 24.8763 4.67698 24.8763 5.35073C24.8763 6.02448 24.325 6.57573 23.6469 6.57573ZM23.6469 4.97011C23.4369 4.97011 23.2663 5.14073 23.2663 5.35073C23.2663 5.56073 23.4369 5.73136 23.6469 5.73136C23.8569 5.73136 24.0275 5.56073 24.0275 5.35073C24.0275 5.14073 23.8569 4.97011 23.6469 4.97011Z" fill="#1D1EE3"/>
<path d="M6.69203 18.7731C4.35578 18.7731 2.45703 16.8744 2.45703 14.5381C2.45703 12.2019 4.35578 10.3031 6.69203 10.3031C6.92828 10.3031 7.11641 10.4912 7.11641 10.7275V14.1137H10.5027C10.7389 14.1137 10.927 14.3019 10.927 14.5381C10.927 16.8744 9.02828 18.7731 6.69203 18.7731ZM6.26766 11.1781C4.60078 11.3881 3.30578 12.8144 3.30578 14.5381C3.30578 16.4062 4.82391 17.9244 6.69203 17.9244C8.41578 17.9244 9.84203 16.6294 10.052 14.9625H6.69203C6.45578 14.9625 6.26766 14.7744 6.26766 14.5381V11.1781Z" fill="#1D1EE3"/>
<path d="M11.0427 13.65H8.00641C7.77016 13.65 7.58203 13.4619 7.58203 13.2256V10.1894C7.58203 9.95314 7.77016 9.76501 8.00641 9.76501C9.91391 9.76501 11.467 11.3181 11.467 13.2256C11.467 13.4619 11.2789 13.65 11.0427 13.65ZM8.43078 12.8013H10.5833C10.4039 11.6988 9.52891 10.8281 8.43078 10.6488V12.8013Z" fill="#1D1EE3"/>
<path d="M15.682 21.4944H13.6783C13.442 21.4944 13.2539 21.3063 13.2539 21.07V13.0069C13.2539 12.7706 13.442 12.5825 13.6783 12.5825H15.682C15.9183 12.5825 16.1064 12.7706 16.1064 13.0069V21.07C16.1064 21.3063 15.9139 21.4944 15.682 21.4944ZM14.0983 20.6456H15.2577V13.4313H14.0983V20.6456Z" fill="#1D1EE3"/>
<path d="M20.0648 21.4944H18.0611C17.8248 21.4944 17.6367 21.3063 17.6367 21.0701V9.95318C17.6367 9.71693 17.8248 9.52881 18.0611 9.52881H20.0648C20.3011 9.52881 20.4892 9.71693 20.4892 9.95318V21.0701C20.4892 21.3063 20.3011 21.4944 20.0648 21.4944ZM18.4855 20.6457H19.6448V10.3776H18.4855V20.6457Z" fill="#1D1EE3"/>
<path d="M24.452 21.4944H22.4439C22.2077 21.4944 22.0195 21.3063 22.0195 21.07V15.7982C22.0195 15.5619 22.2077 15.3738 22.4439 15.3738H24.4477C24.6839 15.3738 24.872 15.5619 24.872 15.7982V21.07C24.8764 21.3063 24.6839 21.4944 24.452 21.4944ZM22.8683 20.6457H24.0277V16.2225H22.8683V20.6457Z" fill="#1D1EE3"/>
<path d="M25.3358 22.6888H12.9283C12.692 22.6888 12.5039 22.5007 12.5039 22.2645C12.5039 22.0282 12.692 21.8401 12.9283 21.8401H25.3358C25.572 21.8401 25.7602 22.0282 25.7602 22.2645C25.7602 22.4963 25.572 22.6888 25.3358 22.6888Z" fill="#1D1EE3"/>
</svg>
