<svg width="28" height="28" viewBox="0 0 28 28" fill="none" xmlns="http://www.w3.org/2000/svg">
<path d="M25.4103 16.1846L24.6844 16.0306L19.9258 8.11491L20.101 7.41817L26.7814 3.43726L27.3004 4.30832L21.0575 8.02888L25.2733 15.0418L26.5895 14.119L27.1719 14.9493L25.4103 16.1846Z" fill="#1D1EE3"/>
<path d="M2.58935 16.1846L0.827699 14.9493L1.41011 14.119L2.72632 15.0418L6.94213 8.02888L0.699219 4.30832L1.21823 3.43726L7.89866 7.41817L8.07383 8.11491L3.31524 16.0306L2.58935 16.1846Z" fill="#1D1EE3"/>
<path d="M21.516 19.6295C21.2375 19.6295 20.9607 19.5588 20.7154 19.4249L16.6099 17.1988L17.0933 16.3074L21.2001 18.534C21.4724 18.682 21.8236 18.6135 22.0183 18.3829C22.2172 18.1475 22.2274 17.7982 22.0421 17.5532C22.0112 17.5147 21.9772 17.4787 21.9422 17.4493L18.4387 14.4906L14.9176 12.3055C14.6612 12.1465 14.3457 12.1055 14.0539 12.1932L12.9431 12.5305L11.7466 13.8442C11.3003 14.3349 10.6625 14.6165 9.9963 14.6165C9.72264 14.6165 9.45322 14.5695 9.1957 14.4767C8.80035 14.3355 8.48821 14.0279 8.34076 13.6328C8.19276 13.2369 8.227 12.7985 8.43444 12.4303L10.1607 9.36691L10.4471 9.13259C12.1275 8.5898 13.8247 8.24568 15.6361 8.08069L15.8099 8.09512L19.6021 9.08391L20.9152 8.59121L21.2712 9.54095L19.8078 10.09L19.5019 10.1058L15.6401 9.09891C14.0052 9.25371 12.4669 9.56133 10.9474 10.0376L9.31795 12.9281C9.2356 13.0747 9.2656 13.21 9.29078 13.2779C9.31597 13.345 9.38134 13.4658 9.53812 13.5219C10.0489 13.7061 10.6373 13.5564 10.9964 13.1616L12.2872 11.7444L12.5147 11.6006L13.761 11.222C14.3329 11.051 14.9485 11.132 15.4519 11.4433L19.0646 13.6917L22.5953 16.6733C22.6816 16.7458 22.7634 16.8307 22.8438 16.932C23.3274 17.5713 23.3037 18.4336 22.7928 19.038C22.4745 19.4141 22.0092 19.6295 21.516 19.6295Z" fill="#1D1EE3"/>
<path d="M22.7428 17.6567L22.1445 16.8377C22.9601 16.2423 23.6846 15.5424 24.2981 14.7577L25.0973 15.3825C24.4261 16.2409 23.6337 17.0061 22.7428 17.6567Z" fill="#1D1EE3"/>
<path d="M19.8845 21.4911C19.6131 21.4911 19.3409 21.4215 19.0972 21.2902L15.1992 19.1903L15.6803 18.2972L19.5789 20.3973C19.8486 20.5436 20.1777 20.4757 20.3724 20.2524C20.4864 20.1208 20.5413 19.951 20.5258 19.7759C20.5105 19.6007 20.4267 19.4431 20.29 19.3324L19.7535 18.8952L20.3942 18.109L20.9296 18.5454C21.2805 18.8295 21.4962 19.2351 21.5361 19.6864C21.576 20.1378 21.4348 20.5753 21.1382 20.9178C20.8201 21.2825 20.3636 21.4911 19.8845 21.4911Z" fill="#1D1EE3"/>
<path d="M18.332 23.1972C18.109 23.1972 17.8817 23.1471 17.6743 23.052L13.9102 21.3037L14.3375 20.384L18.0991 22.1312C18.3184 22.2311 18.5841 22.1753 18.7389 22.0044C18.9401 21.7842 18.9311 21.4494 18.7197 21.2412L18.3857 20.9103L19.0995 20.1898L19.4323 20.5195C20.0334 21.1113 20.0585 22.0638 19.4889 22.6875C19.1951 23.011 18.7729 23.1972 18.332 23.1972Z" fill="#1D1EE3"/>
<path d="M16.095 24.4543C15.9088 24.4546 15.72 24.4255 15.5352 24.3649C14.5668 24.0508 13.5073 23.6447 12.2969 23.1243L12.6976 22.1926C13.8788 22.7006 14.9098 23.0957 15.8493 23.4005C16.1977 23.5145 16.5758 23.3724 16.7716 23.0561L16.8387 22.9511C16.9307 22.8036 16.9697 22.6279 16.9491 22.4476L17.9565 22.3316C18.0032 22.7363 17.9107 23.1486 17.6965 23.4924L17.6302 23.596C17.2937 24.1402 16.7077 24.4543 16.095 24.4543Z" fill="#1D1EE3"/>
<path d="M10.3446 10.352C8.76124 9.96233 7.5254 9.40907 6.92969 9.11419L7.37965 8.2052C7.93829 8.48197 9.09773 9.0007 10.5869 9.36718L10.3446 10.352Z" fill="#1D1EE3"/>
<path d="M4.34667 17.7598C3.77728 17.1282 3.16431 16.2036 2.75 15.5391L3.61088 15.0026C3.93208 15.5182 4.55297 16.4739 5.10001 17.0812L4.34667 17.7598Z" fill="#1D1EE3"/>
<path d="M5.3357 20.17C4.77649 20.17 4.23795 19.8836 3.9575 19.3788L3.93854 19.3406C3.7512 18.9964 3.71611 18.5519 3.85081 18.1384C3.97307 17.7725 4.14796 17.4238 4.37209 17.0987C4.60104 16.7591 4.8979 16.4223 5.25136 16.1017C5.56323 15.8192 5.96876 15.6704 6.38533 15.684C6.82709 15.6973 7.24706 15.8954 7.53713 16.2273C7.90021 16.6459 8.02105 17.2322 7.85352 17.7595L6.8868 17.4521C6.94793 17.2597 6.90406 17.0455 6.77219 16.8935C6.66663 16.7726 6.51777 16.7027 6.35448 16.6977C6.19969 16.6991 6.04856 16.748 5.93225 16.8533C5.63963 17.1188 5.39626 17.3938 5.21005 17.67C5.03713 17.9208 4.90497 18.184 4.81413 18.4559C4.76687 18.6005 4.77593 18.7579 4.83875 18.8739L4.85234 18.9008C5.00544 19.1764 5.37418 19.216 5.62265 19.085L6.09356 19.9832C5.85188 20.11 5.59152 20.17 5.3357 20.17Z" fill="#1D1EE3"/>
<path d="M10.8954 24.5627C10.847 24.5627 10.7983 24.5607 10.7499 24.5562C10.2428 24.5109 9.80584 24.2387 9.55114 23.8097L9.5551 23.8071L9.5268 23.7692C9.33267 23.4381 9.28456 22.9949 9.40681 22.5747C9.50614 22.2387 9.65387 21.9113 9.84659 21.5989L10.7097 22.1315C10.5643 22.3675 10.4533 22.6126 10.38 22.8599C10.3359 23.0122 10.3481 23.1656 10.414 23.2785L10.4131 23.279L10.4233 23.2918C10.5416 23.4913 10.7352 23.5366 10.8402 23.5459C11.0386 23.5643 11.2347 23.4856 11.3637 23.3368C11.647 23.0122 11.8811 22.6709 12.0726 22.3797C12.1646 22.2393 12.2569 22.0953 12.3494 21.9509C12.492 21.7276 12.4669 21.4367 12.2874 21.2446C12.0692 21.0063 11.6767 21.0026 11.4475 21.2262C11.4141 21.257 11.3943 21.2771 11.3742 21.2986L10.626 20.6143C10.6664 20.5696 10.7072 20.5292 10.7513 20.4887C11.0417 20.2054 11.4404 20.043 11.8621 20.043C12.3067 20.043 12.7329 20.23 13.032 20.5558C13.5241 21.0838 13.596 21.8833 13.2038 22.4974C13.1093 22.6454 13.0147 22.7923 12.9205 22.9363C12.7094 23.257 12.4507 23.6336 12.129 24.0024C11.8202 24.3587 11.3668 24.5627 10.8954 24.5627Z" fill="#1D1EE3"/>
<path d="M6.70717 21.7361C6.5903 21.7361 6.47455 21.7248 6.36135 21.7019C5.86413 21.6 5.47359 21.2763 5.28993 20.8138L5.29219 20.813L5.28313 20.7892L5.2803 20.7904C5.08504 20.2858 5.13852 19.7107 5.4201 19.2902C5.88733 18.5923 6.43776 17.9318 6.97036 17.2931C7.09743 17.1405 7.22421 16.9886 7.34958 16.8366C7.65946 16.4602 8.09839 16.2335 8.58542 16.1973C9.05888 16.1605 9.52044 16.3125 9.85014 16.6096C9.92909 16.681 9.99673 16.7559 10.0567 16.8394C10.5123 17.4671 10.4396 18.4092 9.87928 19.1292C9.36706 19.7866 8.85569 20.4428 8.24526 21.0589L8.2447 21.0592C7.81397 21.4927 7.24911 21.7361 6.70717 21.7361ZM6.22721 20.4278L6.23231 20.4392C6.29089 20.5863 6.39956 20.6743 6.56483 20.708C6.86763 20.7703 7.24402 20.6273 7.52532 20.3443C8.09301 19.7716 8.56335 19.1676 9.06142 18.5286C9.35914 18.146 9.42479 17.6952 9.23518 17.434C9.21651 17.408 9.19613 17.3859 9.17094 17.363C9.04954 17.2535 8.8537 17.1935 8.66013 17.209C8.51298 17.2198 8.30158 17.2758 8.13235 17.4816C8.00585 17.6349 7.87793 17.7886 7.74945 17.9426C7.23355 18.5612 6.70038 19.2008 6.26287 19.8542C6.15024 20.0226 6.16325 20.2617 6.22608 20.4242L6.22721 20.4278Z" fill="#1D1EE3"/>
<path d="M8.57449 23.5269C8.46525 23.5269 8.35658 23.5167 8.24989 23.4966C7.73795 23.399 7.32817 23.075 7.12554 22.6078L7.11592 22.5843L7.11507 22.5845C6.94103 22.1725 6.95858 21.6668 7.16347 21.1964C7.53617 20.3322 8.15027 19.5395 9.04058 18.7751C9.76307 18.1548 10.7827 18.1169 11.4129 18.6849C11.4908 18.755 11.5573 18.828 11.6167 18.9079C12.0817 19.5279 12.0403 20.44 11.5148 21.1237L11.4967 21.1472C11.0425 21.7373 10.5724 22.3477 10.0036 22.9171L10.0031 22.9176C9.61252 23.3076 9.08728 23.5269 8.57449 23.5269ZM8.04981 22.1909L8.05604 22.2042C8.1432 22.4048 8.313 22.4759 8.44006 22.5002C8.72249 22.5537 9.04653 22.4391 9.28651 22.2C9.80892 21.6767 10.2385 21.1189 10.693 20.5286L10.7108 20.5054C10.9599 20.1813 10.9981 19.7735 10.8037 19.5143C10.7833 19.4869 10.7615 19.4631 10.7338 19.4382C10.481 19.2101 10.0373 19.2559 9.70166 19.5443C8.93078 20.2062 8.40497 20.8786 8.09424 21.5997C8.00029 21.8151 7.98387 22.035 8.04953 22.1901L8.04981 22.1909Z" fill="#1D1EE3"/>
</svg>
