<svg width="800" height="207" viewBox="0 0 800 207" fill="none" xmlns="http://www.w3.org/2000/svg">
<g opacity="0.72">
<path d="M689.499 206.457V182.724H703.053C706.729 182.724 709.792 182.263 712.242 181.341C714.693 180.42 716.76 178.96 718.445 176.963C720.13 174.966 721.508 172.432 722.58 169.36L729.242 152.078V164.982L679.391 45.3945H710.864L735.904 115.442L740.499 129.267H741.648L745.783 115.442L769.445 45.3945H799.999L750.607 176.042C747.85 183.876 744.404 190.02 740.269 194.475C736.287 198.93 731.616 202.002 726.256 203.692C721.048 205.535 715.075 206.457 708.337 206.457H689.499Z" fill="white"/>
<path d="M608.754 167.975V45.3922H634.714L636.092 65.8995H637.011C639.768 58.0652 644.209 52.4584 650.335 49.0789C656.615 45.5458 663.736 43.7793 671.7 43.7793C673.079 43.7793 674.304 43.7793 675.376 43.7793C676.601 43.7793 677.75 43.7793 678.822 43.7793V70.9687C677.903 70.9687 676.754 70.9687 675.376 70.9687C674.151 70.815 672.772 70.7382 671.241 70.7382C663.889 70.7382 657.763 71.9671 652.862 74.4249C647.961 76.7291 644.209 80.1086 641.605 84.5633C639.155 89.0181 637.777 94.4713 637.47 100.923V167.975H608.754Z" fill="white"/>
<path d="M527.688 170.054C518.499 170.054 510.228 168.672 502.877 165.907C495.526 162.988 489.093 158.764 483.58 153.234C478.219 147.704 474.084 141.022 471.174 133.187C468.417 125.353 467.039 116.52 467.039 106.689C467.039 94.093 469.413 83.0329 474.161 73.509C479.062 63.985 486.03 56.5348 495.066 51.1584C504.102 45.782 514.976 43.0938 527.688 43.0938C536.724 43.0938 544.918 44.5531 552.269 47.4717C559.621 50.3903 565.9 54.6147 571.107 60.1447C576.468 65.6747 580.603 72.3569 583.513 80.1911C586.422 87.8717 587.877 96.7044 587.877 106.689C587.877 119.132 585.427 130.115 580.526 139.639C575.778 149.163 568.886 156.613 559.85 161.99C550.967 167.366 540.247 170.054 527.688 170.054ZM527.458 146.321C533.738 146.321 539.251 144.862 543.999 141.943C548.747 138.871 552.422 134.416 555.026 128.579C557.63 122.588 558.931 115.291 558.931 106.689C558.931 100.237 558.166 94.5538 556.634 89.6383C555.256 84.569 553.188 80.3447 550.431 76.9652C547.675 73.5858 544.382 71.0512 540.553 69.3614C536.724 67.6717 532.436 66.8268 527.688 66.8268C521.409 66.8268 515.819 68.363 510.918 71.4352C506.17 74.3538 502.494 78.8086 499.891 84.7995C497.287 90.6367 495.985 97.9333 495.985 106.689C495.985 113.141 496.674 118.901 498.053 123.971C499.584 128.886 501.728 133.034 504.485 136.413C507.242 139.639 510.535 142.097 514.364 143.787C518.346 145.476 522.711 146.321 527.458 146.321Z" fill="white"/>
<path d="M400.562 170.285C389.688 170.285 380.346 168.595 372.535 165.215C364.724 161.682 358.675 156.844 354.386 150.699C350.251 144.555 348.184 137.412 348.184 129.27H376.44C376.594 136.336 378.968 141.482 383.562 144.708C388.157 147.934 394.13 149.547 401.481 149.547C408.679 149.547 414.116 148.241 417.792 145.63C421.621 142.865 423.535 139.101 423.535 134.339C423.535 130.499 422.693 127.58 421.008 125.584C419.324 123.433 416.567 121.82 412.738 120.745C408.909 119.516 403.855 118.441 397.576 117.519C387.314 115.983 378.738 113.909 371.846 111.298C364.954 108.533 359.823 104.769 356.454 100.007C353.085 95.2451 351.4 88.947 351.4 81.1128C351.4 73.4322 353.467 66.75 357.603 61.0664C361.738 55.3827 367.558 51.0048 375.062 47.9325C382.567 44.7067 391.373 43.0938 401.481 43.0938C411.283 43.0938 419.783 44.7067 426.981 47.9325C434.333 51.0048 439.999 55.4595 443.981 61.2968C448.116 66.9805 450.261 73.8162 450.414 81.804H422.157C422.157 77.5029 421.238 74.0466 419.4 71.4352C417.715 68.6702 415.265 66.6732 412.049 65.4443C408.833 64.2154 405.08 63.601 400.792 63.601C394.359 63.601 389.305 64.9835 385.63 67.7485C381.954 70.3599 380.116 73.9698 380.116 78.5782C380.116 81.9576 381.035 84.7227 382.873 86.8732C384.864 88.8702 388.004 90.4831 392.292 91.712C396.58 92.9409 402.094 94.0162 408.833 94.9379C416.184 96.0132 422.54 97.3957 427.9 99.0854C433.414 100.775 438.008 103.079 441.684 105.998C445.36 108.763 448.116 112.296 449.954 116.597C451.945 120.745 452.941 125.814 452.941 131.805C452.941 144.094 448.116 153.618 438.468 160.377C428.972 166.982 416.337 170.285 400.562 170.285Z" fill="white"/>
<path d="M299.305 167.975V45.3924H328.021V167.975H299.305ZM299.305 28.111V0H328.021V28.111H299.305Z" fill="white"/>
<path d="M155.621 167.977L202.257 104.842L159.986 45.3945H193.986L221.324 85.0265H222.703L249.811 45.3945H282.433L241.081 104.151L286.797 167.977H253.027L221.784 123.276H220.405L187.783 167.977H155.621Z" fill="white"/>
<path d="M0 167.975L57.6624 0H100.392L158.055 167.975H126.582L113.946 131.108H44.1083L31.7029 167.975H0ZM51.4597 107.605H106.825L90.2842 60.3696L79.7166 27.8806H78.5679L67.7706 60.3696L51.4597 107.605Z" fill="white"/>
</g>
</svg>
