<svg width="153" height="35" viewBox="0 0 153 35" fill="none" xmlns="http://www.w3.org/2000/svg">
<path d="M18.9227 1.16707C19.5189 0.56349 20.485 0.56341 21.0812 1.16707L31.7301 11.9557C30.0522 16.8829 25.438 20.4241 20.0028 20.4241C14.5668 20.424 9.95196 16.8815 8.27459 11.9532L4.1922 16.0882C7.14128 21.8905 13.1141 25.8598 20.0028 25.8599C26.8889 25.8599 32.8605 21.8916 35.8117 16.0907L39.5527 19.8809C40.1491 20.4848 40.1491 21.4632 39.5527 22.0672L27.1916 34.5886C26.6519 35.1368 25.7744 35.1367 25.2331 34.5886L20.9796 30.2803C20.4399 29.7322 19.5623 29.7323 19.021 30.2803L14.7676 34.5886C14.2279 35.1368 13.3503 35.1369 12.809 34.5886L0.446982 22.0672C-0.149015 21.4633 -0.148973 20.4848 0.446982 19.8809L18.9227 1.16707Z" fill="#1D1EE3"/>
<path d="M23.6774 34.9995L20.5182 31.7996C20.2338 31.5115 19.7717 31.5115 19.4873 31.7996L16.3281 34.9995H23.6774Z" fill="#1D1EE3"/>
<g clip-path="url(#clip0_30783_5791)">
<path d="M25.1484 12.7402C23.8804 13.9604 22.1803 14.6934 20.3398 14.6934C18.4988 14.6933 16.7975 13.9603 15.5293 12.7393L20.3379 7.86719L25.1484 12.7402Z" stroke="#051229" stroke-width="12"/>
</g>
<path d="M57.0534 28.5H52.8347L60.5158 6.68182H65.3951L73.0868 28.5H68.8681L63.0407 11.1562H62.8702L57.0534 28.5ZM57.1919 19.9453H68.6976V23.12H57.1919V19.9453ZM76.9435 12.1364L80.2461 18.1768L83.6019 12.1364H87.6822L82.7496 20.3182L87.7674 28.5H83.7085L80.2461 22.6087L76.8157 28.5H72.7248L77.7106 20.3182L72.8526 12.1364H76.9435ZM88.6651 28.5V12.1364H92.5217V28.5H88.6651ZM90.604 9.81392C89.9933 9.81392 89.4677 9.61151 89.0273 9.20668C88.587 8.79474 88.3668 8.30114 88.3668 7.72585C88.3668 7.14347 88.587 6.64986 89.0273 6.24503C89.4677 5.8331 89.9933 5.62713 90.604 5.62713C91.2219 5.62713 91.7475 5.8331 92.1808 6.24503C92.6211 6.64986 92.8413 7.14347 92.8413 7.72585C92.8413 8.30114 92.6211 8.79474 92.1808 9.20668C91.7475 9.61151 91.2219 9.81392 90.604 9.81392ZM107.421 16.4616L103.905 16.8452C103.806 16.4901 103.632 16.1562 103.383 15.8438C103.142 15.5312 102.815 15.2791 102.403 15.0874C101.991 14.8956 101.487 14.7997 100.89 14.7997C100.088 14.7997 99.4128 14.9737 98.8659 15.3217C98.3262 15.6697 98.0598 16.1207 98.0669 16.6747C98.0598 17.1506 98.2338 17.5376 98.589 17.8359C98.9512 18.1342 99.5478 18.3793 100.379 18.571L103.17 19.1676C104.718 19.5014 105.869 20.0305 106.622 20.755C107.382 21.4794 107.765 22.4276 107.772 23.5994C107.765 24.6293 107.463 25.5384 106.867 26.3267C106.277 27.108 105.457 27.7187 104.406 28.1591C103.355 28.5994 102.147 28.8196 100.784 28.8196C98.7807 28.8196 97.1685 28.4006 95.9469 27.5625C94.7253 26.7173 93.9973 25.5419 93.763 24.0362L97.5236 23.674C97.6941 24.4126 98.0563 24.9702 98.6103 25.3466C99.1642 25.723 99.8851 25.9112 100.773 25.9112C101.689 25.9112 102.424 25.723 102.978 25.3466C103.539 24.9702 103.82 24.505 103.82 23.951C103.82 23.4822 103.639 23.0952 103.276 22.7898C102.921 22.4844 102.367 22.25 101.615 22.0866L98.8233 21.5007C97.2537 21.174 96.0925 20.6236 95.3397 19.8494C94.5868 19.0682 94.214 18.081 94.2211 16.8878C94.214 15.8793 94.4874 15.0057 95.0414 14.267C95.6025 13.5213 96.3801 12.946 97.3745 12.5412C98.3759 12.1293 99.53 11.9233 100.837 11.9233C102.754 11.9233 104.264 12.3317 105.365 13.1484C106.472 13.9652 107.158 15.0696 107.421 16.4616ZM116.09 28.8196C114.492 28.8196 113.107 28.468 111.935 27.7649C110.763 27.0618 109.854 26.0781 109.208 24.8139C108.569 23.5497 108.249 22.0724 108.249 20.3821C108.249 18.6918 108.569 17.2109 109.208 15.9396C109.854 14.6683 110.763 13.6811 111.935 12.978C113.107 12.2749 114.492 11.9233 116.09 11.9233C117.688 11.9233 119.073 12.2749 120.245 12.978C121.417 13.6811 122.322 14.6683 122.961 15.9396C123.608 17.2109 123.931 18.6918 123.931 20.3821C123.931 22.0724 123.608 23.5497 122.961 24.8139C122.322 26.0781 121.417 27.0618 120.245 27.7649C119.073 28.468 117.688 28.8196 116.09 28.8196ZM116.111 25.7301C116.978 25.7301 117.702 25.4922 118.285 25.0163C118.867 24.5334 119.3 23.8871 119.584 23.0774C119.876 22.2678 120.021 21.3658 120.021 20.3714C120.021 19.37 119.876 18.4645 119.584 17.6548C119.3 16.8381 118.867 16.1882 118.285 15.7053C117.702 15.2223 116.978 14.9808 116.111 14.9808C115.224 14.9808 114.485 15.2223 113.895 15.7053C113.313 16.1882 112.876 16.8381 112.585 17.6548C112.301 18.4645 112.159 19.37 112.159 20.3714C112.159 21.3658 112.301 22.2678 112.585 23.0774C112.876 23.8871 113.313 24.5334 113.895 25.0163C114.485 25.4922 115.224 25.7301 116.111 25.7301ZM125.204 28.5V12.1364H128.944V14.8636H129.114C129.412 13.919 129.924 13.1911 130.648 12.6797C131.38 12.1612 132.214 11.902 133.152 11.902C133.365 11.902 133.603 11.9126 133.865 11.9339C134.135 11.9482 134.359 11.973 134.537 12.0085V15.5561C134.373 15.4993 134.114 15.4496 133.759 15.407C133.411 15.3572 133.074 15.3324 132.747 15.3324C132.044 15.3324 131.412 15.4851 130.85 15.7905C130.297 16.0888 129.86 16.5043 129.54 17.0369C129.221 17.5696 129.061 18.1839 129.061 18.88V28.5H125.204ZM137.994 34.6364C137.468 34.6364 136.982 34.5938 136.534 34.5085C136.094 34.4304 135.742 34.3381 135.48 34.2315L136.374 31.2273C136.936 31.3906 137.436 31.4688 137.877 31.4616C138.317 31.4545 138.704 31.3161 139.038 31.0462C139.379 30.7834 139.666 30.343 139.901 29.7251L140.231 28.8409L134.297 12.1364H138.388L142.159 24.4943H142.33L146.112 12.1364H150.213L143.661 30.4815C143.356 31.348 142.951 32.0902 142.447 32.7081C141.943 33.3331 141.325 33.8089 140.593 34.1357C139.869 34.4695 139.002 34.6364 137.994 34.6364Z" fill="#041427"/>
<defs>
<clipPath id="clip0_30783_5791">
<rect width="25.7143" height="21.4284" fill="white" transform="translate(7.14062)"/>
</clipPath>
</defs>
</svg>
