<svg width="142" height="32" viewBox="0 0 142 32" fill="none" xmlns="http://www.w3.org/2000/svg">
<path d="M127.898 28.7999V25.8571H129.579C130.034 25.8571 130.414 25.7999 130.718 25.6857C131.022 25.5714 131.278 25.3904 131.487 25.1428C131.696 24.8952 131.867 24.5809 132 24.1999L132.826 22.0571V23.6571L126.645 8.82856H130.547L133.652 17.5142L134.222 19.2285H134.364L134.877 17.5142L137.811 8.82856H141.6L135.475 25.0285C135.133 25.9999 134.706 26.7618 134.193 27.3142C133.7 27.8666 133.12 28.2476 132.456 28.4571C131.81 28.6856 131.069 28.7999 130.234 28.7999H127.898Z" fill="#0C0019"/>
<path d="M117.883 24.0285V8.82854H121.102L121.273 11.3714H121.387C121.728 10.4 122.279 9.70473 123.039 9.28568C123.817 8.84759 124.701 8.62854 125.688 8.62854C125.859 8.62854 126.011 8.62854 126.144 8.62854C126.296 8.62854 126.438 8.62854 126.571 8.62854V12C126.457 12 126.315 12 126.144 12C125.992 11.9809 125.821 11.9714 125.631 11.9714C124.72 11.9714 123.96 12.1238 123.352 12.4285C122.744 12.7142 122.279 13.1333 121.956 13.6857C121.652 14.2381 121.482 14.9142 121.444 15.7142V24.0285H117.883Z" fill="#0C0019"/>
<path d="M107.833 24.2857C106.693 24.2857 105.668 24.1142 104.756 23.7714C103.845 23.4095 103.047 22.8857 102.364 22.2C101.699 21.5143 101.186 20.6857 100.825 19.7143C100.483 18.7428 100.312 17.6476 100.312 16.4285C100.312 14.8666 100.607 13.4952 101.196 12.3143C101.803 11.1333 102.667 10.2095 103.788 9.54285C104.908 8.87618 106.257 8.54285 107.833 8.54285C108.953 8.54285 109.969 8.7238 110.881 9.08571C111.792 9.44761 112.571 9.97142 113.217 10.6571C113.881 11.3428 114.394 12.1714 114.755 13.1428C115.116 14.0952 115.296 15.1905 115.296 16.4285C115.296 17.9714 114.992 19.3333 114.385 20.5143C113.796 21.6952 112.941 22.619 111.821 23.2857C110.719 23.9523 109.39 24.2857 107.833 24.2857ZM107.804 21.3428C108.583 21.3428 109.267 21.1619 109.855 20.8C110.444 20.419 110.9 19.8666 111.223 19.1428C111.546 18.4 111.707 17.4952 111.707 16.4285C111.707 15.6285 111.612 14.9238 111.422 14.3143C111.251 13.6857 110.995 13.1619 110.653 12.7428C110.311 12.3238 109.903 12.0095 109.428 11.8C108.953 11.5905 108.422 11.4857 107.833 11.4857C107.054 11.4857 106.361 11.6762 105.753 12.0571C105.165 12.419 104.709 12.9714 104.386 13.7143C104.063 14.4381 103.902 15.3428 103.902 16.4285C103.902 17.2285 103.987 17.9428 104.158 18.5714C104.348 19.1809 104.614 19.6952 104.956 20.1143C105.298 20.5143 105.706 20.819 106.181 21.0285C106.674 21.2381 107.216 21.3428 107.804 21.3428Z" fill="#0C0019"/>
<path d="M92.0691 24.3142C90.7207 24.3142 89.5623 24.1047 88.5938 23.6857C87.6252 23.2476 86.8751 22.6476 86.3433 21.8857C85.8306 21.1238 85.5742 20.2381 85.5742 19.2285H89.078C89.097 20.1047 89.3914 20.7428 89.9611 21.1428C90.5308 21.5428 91.2715 21.7428 92.183 21.7428C93.0756 21.7428 93.7498 21.5809 94.2055 21.2571C94.6803 20.9142 94.9177 20.4476 94.9177 19.8571C94.9177 19.3809 94.8133 19.019 94.6044 18.7714C94.3955 18.5047 94.0536 18.3047 93.5788 18.1714C93.1041 18.019 92.4774 17.8857 91.6988 17.7714C90.4264 17.5809 89.3629 17.3238 88.5083 17C87.6537 16.6571 87.0175 16.1905 86.5997 15.6C86.1819 15.0095 85.973 14.2286 85.973 13.2571C85.973 12.3047 86.2294 11.4762 86.7422 10.7714C87.2549 10.0667 87.9766 9.5238 88.9071 9.14285C89.8377 8.74285 90.9296 8.54285 92.183 8.54285C93.3984 8.54285 94.4524 8.74285 95.345 9.14285C96.2566 9.5238 96.9592 10.0762 97.453 10.8C97.9657 11.5047 98.2316 12.3524 98.2506 13.3428H94.7468C94.7468 12.8095 94.6328 12.3809 94.405 12.0571C94.1961 11.7143 93.8922 11.4667 93.4934 11.3143C93.0946 11.1619 92.6293 11.0857 92.0976 11.0857C91.2999 11.0857 90.6733 11.2571 90.2175 11.6C89.7617 11.9238 89.5338 12.3714 89.5338 12.9428C89.5338 13.3619 89.6477 13.7047 89.8756 13.9714C90.1225 14.219 90.5118 14.419 91.0436 14.5714C91.5753 14.7238 92.259 14.8571 93.0946 14.9714C94.0061 15.1047 94.7943 15.2762 95.4589 15.4857C96.1426 15.6952 96.7123 15.9809 97.1681 16.3428C97.6239 16.6857 97.9657 17.1238 98.1936 17.6571C98.4405 18.1714 98.5639 18.8 98.5639 19.5428C98.5639 21.0666 97.9657 22.2476 96.7693 23.0857C95.5919 23.9047 94.0251 24.3142 92.0691 24.3142Z" fill="#0C0019"/>
<path d="M79.5117 24.0285V8.82857H83.0725V24.0285H79.5117ZM79.5117 6.68572V3.20002H83.0725V6.68572H79.5117Z" fill="#0C0019"/>
<path d="M61.6953 24.0285L67.478 16.2L62.2366 8.82856H66.4525L69.8424 13.7428H70.0133L73.3747 8.82856H77.4197L72.2922 16.1143L77.9609 24.0285H73.7735L69.8993 18.4857H69.7284L65.6834 24.0285H61.6953Z" fill="#0C0019"/>
<path d="M42.3984 24.0285L49.5485 3.20002H54.8469L61.997 24.0285H58.0943L56.5276 19.4571H47.8678L46.3295 24.0285H42.3984ZM48.7794 16.5428H55.6445L53.5935 10.6857L52.2832 6.65715H52.1407L50.8019 10.6857L48.7794 16.5428Z" fill="#0C0019"/>
<path d="M37.3925 17.8885C37.9561 18.4522 37.9561 19.3658 37.3925 19.9295L25.7059 31.6161C25.1957 32.1278 24.3661 32.1278 23.8544 31.6161L19.8329 27.5956C19.3227 27.0841 18.494 27.0841 17.9823 27.5956L13.9608 31.6161C13.4506 32.1278 12.621 32.1278 12.1093 31.6161L0.422729 19.9295C-0.140874 19.3658 -0.140944 18.4522 0.422729 17.8885L3.96082 14.3495C6.74882 19.7647 12.395 23.4694 18.9071 23.4696C25.418 23.4696 31.0639 19.7641 33.8534 14.3485L37.3925 17.8885ZM17.8885 0.42271C18.4522 -0.140928 19.3659 -0.140883 19.9296 0.42271L29.995 10.4901C28.4093 15.0898 24.0461 18.3954 18.9071 18.3954C13.7685 18.3952 9.4051 15.0904 7.81921 10.4911L17.8885 0.42271Z" fill="url(#paint0_linear_1_85)"/>
<path d="M22.3814 31.9996L19.3948 29.0131C19.126 28.7442 18.6891 28.7442 18.4202 29.0131L15.4336 31.9996H22.3814Z" fill="url(#paint1_linear_1_85)"/>
<defs>
<linearGradient id="paint0_linear_1_85" x1="-0.00012207" y1="15.9998" x2="37.8151" y2="15.9998" gradientUnits="userSpaceOnUse">
<stop stop-color="#0136FF"/>
<stop offset="1" stop-color="#55D7EA"/>
</linearGradient>
<linearGradient id="paint1_linear_1_85" x1="15.4336" y1="30.4055" x2="22.3814" y2="30.4055" gradientUnits="userSpaceOnUse">
<stop stop-color="#0136FF"/>
<stop offset="1" stop-color="#55D7EA"/>
</linearGradient>
</defs>
</svg>
