<svg width="174" height="42" viewBox="0 0 174 42" fill="none" xmlns="http://www.w3.org/2000/svg">
<path d="M22.7072 1.40213C23.4227 0.677854 24.582 0.677758 25.2974 1.40213L38.0762 14.3481C36.0626 20.2605 30.5256 24.5099 24.0033 24.5099C17.4801 24.5098 11.9424 20.2589 9.9295 14.3451L5.03064 19.307C8.56954 26.2695 15.7369 31.0325 24.0033 31.0326C32.2666 31.0326 39.4326 26.2708 42.974 19.31L47.4633 23.858C48.1789 24.5827 48.1789 25.7568 47.4633 26.4816L32.6299 41.5068C31.9823 42.1646 30.9293 42.1645 30.2797 41.5068L25.1755 36.337C24.5279 35.6792 23.4748 35.6793 22.8252 36.337L17.7211 41.5068C17.0734 42.1646 16.0204 42.1647 15.3708 41.5068L0.536378 26.4816C-0.178818 25.7569 -0.178768 24.5827 0.536378 23.858L22.7072 1.40213Z" fill="#1D1EE3"/>
<path d="M28.409 41.998L24.618 38.1582C24.2767 37.8125 23.7221 37.8125 23.3808 38.1582L19.5898 41.998H28.409Z" fill="#1D1EE3"/>
<g clip-path="url(#clip0_30783_4364)">
<path d="M30.375 15.541C28.7509 17.2197 26.5055 18.2402 24.0615 18.2402C21.617 18.2402 19.3703 17.2196 17.7461 15.54L24.0596 9.14355L30.375 15.541Z" stroke="white" stroke-width="14"/>
</g>
<path d="M66.2841 33H61.7841L69.9773 9.72727H75.1818L83.3864 33H78.8864L72.6705 14.5H72.4886L66.2841 33ZM66.4318 23.875H78.7045V27.2614H66.4318V23.875ZM88.6335 15.5455L92.1562 21.9886L95.7358 15.5455H100.088L94.8267 24.2727L100.179 33H95.8494L92.1562 26.7159L88.4972 33H84.1335L89.4517 24.2727L84.2699 15.5455H88.6335ZM102.27 33V15.5455H106.384V33H102.27ZM104.338 13.0682C103.687 13.0682 103.126 12.8523 102.656 12.4205C102.187 11.9811 101.952 11.4545 101.952 10.8409C101.952 10.2197 102.187 9.69318 102.656 9.26136C103.126 8.82197 103.687 8.60227 104.338 8.60227C104.997 8.60227 105.558 8.82197 106.02 9.26136C106.49 9.69318 106.724 10.2197 106.724 10.8409C106.724 11.4545 106.49 11.9811 106.02 12.4205C105.558 12.8523 104.997 13.0682 104.338 13.0682ZM123.409 20.1591L119.659 20.5682C119.553 20.1894 119.367 19.8333 119.102 19.5C118.845 19.1667 118.496 18.8977 118.057 18.6932C117.617 18.4886 117.08 18.3864 116.443 18.3864C115.587 18.3864 114.867 18.572 114.284 18.9432C113.708 19.3144 113.424 19.7955 113.432 20.3864C113.424 20.8939 113.61 21.3068 113.989 21.625C114.375 21.9432 115.011 22.2045 115.898 22.4091L118.875 23.0455C120.527 23.4015 121.754 23.9659 122.557 24.7386C123.367 25.5114 123.777 26.5227 123.784 27.7727C123.777 28.8712 123.455 29.8409 122.818 30.6818C122.189 31.5152 121.314 32.1667 120.193 32.6364C119.072 33.1061 117.784 33.3409 116.33 33.3409C114.193 33.3409 112.473 32.8939 111.17 32C109.867 31.0985 109.091 29.8447 108.841 28.2386L112.852 27.8523C113.034 28.6402 113.42 29.2348 114.011 29.6364C114.602 30.0379 115.371 30.2386 116.318 30.2386C117.295 30.2386 118.08 30.0379 118.67 29.6364C119.269 29.2348 119.568 28.7386 119.568 28.1477C119.568 27.6477 119.375 27.2348 118.989 26.9091C118.61 26.5833 118.019 26.3333 117.216 26.1591L114.239 25.5341C112.564 25.1856 111.326 24.5985 110.523 23.7727C109.72 22.9394 109.322 21.8864 109.33 20.6136C109.322 19.5379 109.614 18.6061 110.205 17.8182C110.803 17.0227 111.633 16.4091 112.693 15.9773C113.761 15.5379 114.992 15.3182 116.386 15.3182C118.432 15.3182 120.042 15.7538 121.216 16.625C122.398 17.4962 123.129 18.6742 123.409 20.1591ZM133.79 33.3409C132.085 33.3409 130.608 32.9659 129.358 32.2159C128.108 31.4659 127.138 30.4167 126.449 29.0682C125.767 27.7197 125.426 26.1439 125.426 24.3409C125.426 22.5379 125.767 20.9583 126.449 19.6023C127.138 18.2462 128.108 17.1932 129.358 16.4432C130.608 15.6932 132.085 15.3182 133.79 15.3182C135.494 15.3182 136.972 15.6932 138.222 16.4432C139.472 17.1932 140.438 18.2462 141.119 19.6023C141.809 20.9583 142.153 22.5379 142.153 24.3409C142.153 26.1439 141.809 27.7197 141.119 29.0682C140.438 30.4167 139.472 31.4659 138.222 32.2159C136.972 32.9659 135.494 33.3409 133.79 33.3409ZM133.812 30.0455C134.737 30.0455 135.509 29.7917 136.131 29.2841C136.752 28.7689 137.214 28.0795 137.517 27.2159C137.828 26.3523 137.983 25.3902 137.983 24.3295C137.983 23.2614 137.828 22.2955 137.517 21.4318C137.214 20.5606 136.752 19.8674 136.131 19.3523C135.509 18.8371 134.737 18.5795 133.812 18.5795C132.866 18.5795 132.078 18.8371 131.449 19.3523C130.828 19.8674 130.362 20.5606 130.051 21.4318C129.748 22.2955 129.597 23.2614 129.597 24.3295C129.597 25.3902 129.748 26.3523 130.051 27.2159C130.362 28.0795 130.828 28.7689 131.449 29.2841C132.078 29.7917 132.866 30.0455 133.812 30.0455ZM144.645 33V15.5455H148.634V18.4545H148.815C149.134 17.447 149.679 16.6705 150.452 16.125C151.232 15.572 152.122 15.2955 153.122 15.2955C153.349 15.2955 153.603 15.3068 153.884 15.3295C154.171 15.3447 154.41 15.3712 154.599 15.4091V19.1932C154.425 19.1326 154.149 19.0795 153.77 19.0341C153.399 18.9811 153.039 18.9545 152.69 18.9545C151.94 18.9545 151.266 19.1174 150.668 19.4432C150.077 19.7614 149.611 20.2045 149.27 20.7727C148.929 21.3409 148.759 21.9962 148.759 22.7386V33H144.645ZM159.42 39.5455C158.86 39.5455 158.341 39.5 157.864 39.4091C157.394 39.3258 157.019 39.2273 156.739 39.1136L157.693 35.9091C158.292 36.0833 158.826 36.1667 159.295 36.1591C159.765 36.1515 160.178 36.0038 160.534 35.7159C160.898 35.4356 161.205 34.9659 161.455 34.3068L161.807 33.3636L155.477 15.5455H159.841L163.864 28.7273H164.045L168.08 15.5455H172.455L165.466 35.1136C165.14 36.0379 164.708 36.8295 164.17 37.4886C163.633 38.1553 162.973 38.6629 162.193 39.0114C161.42 39.3674 160.496 39.5455 159.42 39.5455Z" fill="white"/>
<defs>
<clipPath id="clip0_30783_4364">
<rect width="30.8571" height="25.7133" fill="white" transform="translate(8.57422)"/>
</clipPath>
</defs>
</svg>
